G04 ================== begin FILE IDENTIFICATION RECORD ==================*
G04 Layout Name:  F103_LIQUID_V10A.brd*
G04 Film Name:    Drill_Legend*
G04 File Format:  Gerber RS274X*
G04 File Origin:  Cadence Allegro 17.2-S045*
G04 Origin Date:  Sat Mar 09 18:29:50 2019*
G04 *
G04 Layer:  BOARD GEOMETRY/OUTLINE*
G04 Layer:  MANUFACTURING/NCDRILL_FIGURE*
G04 Layer:  BOARD GEOMETRY/DIMENSION*
G04 Layer:  MANUFACTURING/NCDRILL_LEGEND*
G04 Layer:  MANUFACTURING/NCLEGEND-1-2*
G04 *
G04 Offset:    (0.0000 0.0000)*
G04 Mirror:    No*
G04 Mode:      Positive*
G04 Rotation:  0*
G04 FullContactRelief:  No*
G04 UndefLineWidth:     0.1524*
G04 ================== end FILE IDENTIFICATION RECORD ====================*
%FSLAX55Y55*MOMM*%
%IR0*IPPOS*OFA0.00000B0.00000*MIA0B0*SFA1.00000B1.00000*%
%AMMACRO16*
1,1,.1524,-.1625,.4875*
20,1,.1524,-.1625,.4875,.1625,.4875,0.0*
1,1,.1524,.1625,.4875*
20,1,.1524,.1625,.4875,.247153,.480094,0.0*
1,1,.1524,.247153,.480094*
20,1,.1524,.247153,.480094,.329235,.4581,0.0*
1,1,.1524,.329235,.4581*
20,1,.1524,.329235,.4581,.40625,.422187,0.0*
1,1,.1524,.40625,.422187*
20,1,.1524,.40625,.422187,.475859,.373447,0.0*
1,1,.1524,.475859,.373447*
20,1,.1524,.475859,.373447,.535947,.313359,0.0*
1,1,.1524,.535947,.313359*
20,1,.1524,.535947,.313359,.584687,.24375,0.0*
1,1,.1524,.584687,.24375*
20,1,.1524,.584687,.24375,.6206,.166735,0.0*
1,1,.1524,.6206,.166735*
20,1,.1524,.6206,.166735,.642594,.084653,0.0*
1,1,.1524,.642594,.084653*
20,1,.1524,.642594,.084653,.65,0.0,0.0*
1,1,.1524,.65,0.0*
20,1,.1524,.65,0.0,.642594,-.084653,0.0*
1,1,.1524,.642594,-.084653*
20,1,.1524,.642594,-.084653,.6206,-.166735,0.0*
1,1,.1524,.6206,-.166735*
20,1,.1524,.6206,-.166735,.584687,-.24375,0.0*
1,1,.1524,.584687,-.24375*
20,1,.1524,.584687,-.24375,.535947,-.313359,0.0*
1,1,.1524,.535947,-.313359*
20,1,.1524,.535947,-.313359,.475859,-.373447,0.0*
1,1,.1524,.475859,-.373447*
20,1,.1524,.475859,-.373447,.40625,-.422187,0.0*
1,1,.1524,.40625,-.422187*
20,1,.1524,.40625,-.422187,.329235,-.4581,0.0*
1,1,.1524,.329235,-.4581*
20,1,.1524,.329235,-.4581,.247153,-.480094,0.0*
1,1,.1524,.247153,-.480094*
20,1,.1524,.247153,-.480094,.1625,-.4875,0.0*
1,1,.1524,.1625,-.4875*
20,1,.1524,.1625,-.4875,-.1625,-.4875,0.0*
1,1,.1524,-.1625,-.4875*
20,1,.1524,-.1625,-.4875,-.247153,-.480094,0.0*
1,1,.1524,-.247153,-.480094*
20,1,.1524,-.247153,-.480094,-.329235,-.4581,0.0*
1,1,.1524,-.329235,-.4581*
20,1,.1524,-.329235,-.4581,-.40625,-.422187,0.0*
1,1,.1524,-.40625,-.422187*
20,1,.1524,-.40625,-.422187,-.475859,-.373447,0.0*
1,1,.1524,-.475859,-.373447*
20,1,.1524,-.475859,-.373447,-.535947,-.313359,0.0*
1,1,.1524,-.535947,-.313359*
20,1,.1524,-.535947,-.313359,-.584687,-.24375,0.0*
1,1,.1524,-.584687,-.24375*
20,1,.1524,-.584687,-.24375,-.6206,-.166735,0.0*
1,1,.1524,-.6206,-.166735*
20,1,.1524,-.6206,-.166735,-.642594,-.084653,0.0*
1,1,.1524,-.642594,-.084653*
20,1,.1524,-.642594,-.084653,-.65,0.0,0.0*
1,1,.1524,-.65,0.0*
20,1,.1524,-.65,0.0,-.642594,.084653,0.0*
1,1,.1524,-.642594,.084653*
20,1,.1524,-.642594,.084653,-.6206,.166735,0.0*
1,1,.1524,-.6206,.166735*
20,1,.1524,-.6206,.166735,-.584687,.24375,0.0*
1,1,.1524,-.584687,.24375*
20,1,.1524,-.584687,.24375,-.535947,.313359,0.0*
1,1,.1524,-.535947,.313359*
20,1,.1524,-.535947,.313359,-.475859,.373447,0.0*
1,1,.1524,-.475859,.373447*
20,1,.1524,-.475859,.373447,-.40625,.422187,0.0*
1,1,.1524,-.40625,.422187*
20,1,.1524,-.40625,.422187,-.329235,.4581,0.0*
1,1,.1524,-.329235,.4581*
20,1,.1524,-.329235,.4581,-.247153,.480094,0.0*
1,1,.1524,-.247153,.480094*
20,1,.1524,-.247153,.480094,-.1625,.4875,0.0*
1,1,.1524,-.1625,.4875*
%
%ADD16MACRO16*%
%AMMACRO12*
1,1,.1524,.45,.45*
20,1,.1524,.45,.45,.45,-.45,0.0*
1,1,.1524,.45,-.45*
20,1,.1524,.45,-.45,-.45,-.45,0.0*
1,1,.1524,-.45,-.45*
20,1,.1524,-.45,-.45,-.45,.45,0.0*
1,1,.1524,-.45,.45*
20,1,.1524,-.45,.45,.45,.45,0.0*
1,1,.1524,.45,.45*
%
%ADD12MACRO12*%
%AMMACRO10*
1,1,.1524,.1524,0.0*
20,1,.1524,.1524,0.0,-.1524,0.0,0.0*
1,1,.1524,-.1524,0.0*
1,1,.1524,0.0,.1524*
20,1,.1524,0.0,.1524,0.0,-.1524,0.0*
1,1,.1524,0.0,-.1524*
%
%ADD10MACRO10*%
%AMMACRO17*
1,1,.1524,.5,0.0*
20,1,.1524,.5,0.0,.25,.433013,0.0*
1,1,.1524,.25,.433013*
20,1,.1524,.25,.433013,-.25,.433013,0.0*
1,1,.1524,-.25,.433013*
20,1,.1524,-.25,.433013,-.5,0.0,0.0*
1,1,.1524,-.5,0.0*
20,1,.1524,-.5,0.0,-.25,-.433013,0.0*
1,1,.1524,-.25,-.433013*
20,1,.1524,-.25,-.433013,.25,-.433013,0.0*
1,1,.1524,.25,-.433013*
20,1,.1524,.25,-.433013,.5,0.0,0.0*
1,1,.1524,.5,0.0*
%
%ADD17MACRO17*%
%AMMACRO13*
1,1,.1524,0.0,.6*
20,1,.1524,0.0,.6,.6,-.6,0.0*
1,1,.1524,.6,-.6*
20,1,.1524,.6,-.6,-.6,-.6,0.0*
1,1,.1524,-.6,-.6*
20,1,.1524,-.6,-.6,0.0,.6,0.0*
1,1,.1524,0.0,.6*
%
%ADD13MACRO13*%
%AMMACRO14*
1,1,.1524,-.5,-1.*
20,1,.1524,-.5,-1.,-.5,1.,0.0*
1,1,.1524,-.5,1.*
20,1,.1524,-.5,1.,-.492404,1.086824,0.0*
1,1,.1524,-.492404,1.086824*
20,1,.1524,-.492404,1.086824,-.469846,1.17101,0.0*
1,1,.1524,-.469846,1.17101*
20,1,.1524,-.469846,1.17101,-.433013,1.25,0.0*
1,1,.1524,-.433013,1.25*
20,1,.1524,-.433013,1.25,-.383022,1.321394,0.0*
1,1,.1524,-.383022,1.321394*
20,1,.1524,-.383022,1.321394,-.321394,1.383022,0.0*
1,1,.1524,-.321394,1.383022*
20,1,.1524,-.321394,1.383022,-.25,1.433013,0.0*
1,1,.1524,-.25,1.433013*
20,1,.1524,-.25,1.433013,-.17101,1.469846,0.0*
1,1,.1524,-.17101,1.469846*
20,1,.1524,-.17101,1.469846,-.086824,1.492404,0.0*
1,1,.1524,-.086824,1.492404*
20,1,.1524,-.086824,1.492404,0.0,1.5,0.0*
1,1,.1524,0.0,1.5*
20,1,.1524,0.0,1.5,.086824,1.492404,0.0*
1,1,.1524,.086824,1.492404*
20,1,.1524,.086824,1.492404,.17101,1.469846,0.0*
1,1,.1524,.17101,1.469846*
20,1,.1524,.17101,1.469846,.25,1.433013,0.0*
1,1,.1524,.25,1.433013*
20,1,.1524,.25,1.433013,.321394,1.383022,0.0*
1,1,.1524,.321394,1.383022*
20,1,.1524,.321394,1.383022,.383022,1.321394,0.0*
1,1,.1524,.383022,1.321394*
20,1,.1524,.383022,1.321394,.433013,1.25,0.0*
1,1,.1524,.433013,1.25*
20,1,.1524,.433013,1.25,.469846,1.17101,0.0*
1,1,.1524,.469846,1.17101*
20,1,.1524,.469846,1.17101,.492404,1.086824,0.0*
1,1,.1524,.492404,1.086824*
20,1,.1524,.492404,1.086824,.5,1.,0.0*
1,1,.1524,.5,1.*
20,1,.1524,.5,1.,.5,-1.,0.0*
1,1,.1524,.5,-1.*
20,1,.1524,.5,-1.,.492404,-1.086824,0.0*
1,1,.1524,.492404,-1.086824*
20,1,.1524,.492404,-1.086824,.469846,-1.17101,0.0*
1,1,.1524,.469846,-1.17101*
20,1,.1524,.469846,-1.17101,.433013,-1.25,0.0*
1,1,.1524,.433013,-1.25*
20,1,.1524,.433013,-1.25,.383022,-1.321394,0.0*
1,1,.1524,.383022,-1.321394*
20,1,.1524,.383022,-1.321394,.321394,-1.383022,0.0*
1,1,.1524,.321394,-1.383022*
20,1,.1524,.321394,-1.383022,.25,-1.433013,0.0*
1,1,.1524,.25,-1.433013*
20,1,.1524,.25,-1.433013,.17101,-1.469846,0.0*
1,1,.1524,.17101,-1.469846*
20,1,.1524,.17101,-1.469846,.086824,-1.492404,0.0*
1,1,.1524,.086824,-1.492404*
20,1,.1524,.086824,-1.492404,0.0,-1.5,0.0*
1,1,.1524,0.0,-1.5*
20,1,.1524,0.0,-1.5,-.086824,-1.492404,0.0*
1,1,.1524,-.086824,-1.492404*
20,1,.1524,-.086824,-1.492404,-.17101,-1.469846,0.0*
1,1,.1524,-.17101,-1.469846*
20,1,.1524,-.17101,-1.469846,-.25,-1.433013,0.0*
1,1,.1524,-.25,-1.433013*
20,1,.1524,-.25,-1.433013,-.321394,-1.383022,0.0*
1,1,.1524,-.321394,-1.383022*
20,1,.1524,-.321394,-1.383022,-.383022,-1.321394,0.0*
1,1,.1524,-.383022,-1.321394*
20,1,.1524,-.383022,-1.321394,-.433013,-1.25,0.0*
1,1,.1524,-.433013,-1.25*
20,1,.1524,-.433013,-1.25,-.469846,-1.17101,0.0*
1,1,.1524,-.469846,-1.17101*
20,1,.1524,-.469846,-1.17101,-.492404,-1.086824,0.0*
1,1,.1524,-.492404,-1.086824*
20,1,.1524,-.492404,-1.086824,-.5,-1.,0.0*
1,1,.1524,-.5,-1.*
1,1,.1524,-.25,-.25*
20,1,.1524,-.25,-.25,-.3167,-.2417,0.0*
1,1,.1524,-.3167,-.2417*
20,1,.1524,-.3167,-.2417,-.375,-.2083,0.0*
1,1,.1524,-.375,-.2083*
20,1,.1524,-.375,-.2083,-.425,-.1583,0.0*
1,1,.1524,-.425,-.1583*
20,1,.1524,-.425,-.1583,-.4583,-.1,0.0*
1,1,.1524,-.4583,-.1*
20,1,.1524,-.4583,-.1,-.475,-.0333,0.0*
1,1,.1524,-.475,-.0333*
20,1,.1524,-.475,-.0333,-.475,.0333,0.0*
1,1,.1524,-.475,.0333*
20,1,.1524,-.475,.0333,-.4583,.1,0.0*
1,1,.1524,-.4583,.1*
20,1,.1524,-.4583,.1,-.425,.1583,0.0*
1,1,.1524,-.425,.1583*
20,1,.1524,-.425,.1583,-.375,.2083,0.0*
1,1,.1524,-.375,.2083*
20,1,.1524,-.375,.2083,-.3167,.2417,0.0*
1,1,.1524,-.3167,.2417*
20,1,.1524,-.3167,.2417,-.25,.25,0.0*
1,1,.1524,-.25,.25*
20,1,.1524,-.25,.25,-.1833,.2417,0.0*
1,1,.1524,-.1833,.2417*
20,1,.1524,-.1833,.2417,-.125,.2083,0.0*
1,1,.1524,-.125,.2083*
20,1,.1524,-.125,.2083,-.075,.1583,0.0*
1,1,.1524,-.075,.1583*
20,1,.1524,-.075,.1583,-.0417,.1,0.0*
1,1,.1524,-.0417,.1*
20,1,.1524,-.0417,.1,-.025,.0333,0.0*
1,1,.1524,-.025,.0333*
20,1,.1524,-.025,.0333,-.025,-.0333,0.0*
1,1,.1524,-.025,-.0333*
20,1,.1524,-.025,-.0333,-.0417,-.1,0.0*
1,1,.1524,-.0417,-.1*
20,1,.1524,-.0417,-.1,-.075,-.1583,0.0*
1,1,.1524,-.075,-.1583*
20,1,.1524,-.075,-.1583,-.125,-.2083,0.0*
1,1,.1524,-.125,-.2083*
20,1,.1524,-.125,-.2083,-.1833,-.2417,0.0*
1,1,.1524,-.1833,-.2417*
20,1,.1524,-.1833,-.2417,-.25,-.25,0.0*
1,1,.1524,-.25,-.25*
1,1,.1524,.0418,-.25*
20,1,.1524,.0418,-.25,.2501,.25,0.0*
1,1,.1524,.2501,.25*
20,1,.1524,.2501,.25,.4584,-.25,0.0*
1,1,.1524,.4584,-.25*
1,1,.1524,.3834,-.075*
20,1,.1524,.3834,-.075,.1168,-.075,0.0*
1,1,.1524,.1168,-.075*
%
%ADD14MACRO14*%
%AMMACRO15*
1,1,.1524,-1.,.5*
20,1,.1524,-1.,.5,1.,.5,0.0*
1,1,.1524,1.,.5*
20,1,.1524,1.,.5,1.086824,.492404,0.0*
1,1,.1524,1.086824,.492404*
20,1,.1524,1.086824,.492404,1.17101,.469846,0.0*
1,1,.1524,1.17101,.469846*
20,1,.1524,1.17101,.469846,1.25,.433013,0.0*
1,1,.1524,1.25,.433013*
20,1,.1524,1.25,.433013,1.321394,.383022,0.0*
1,1,.1524,1.321394,.383022*
20,1,.1524,1.321394,.383022,1.383022,.321394,0.0*
1,1,.1524,1.383022,.321394*
20,1,.1524,1.383022,.321394,1.433013,.25,0.0*
1,1,.1524,1.433013,.25*
20,1,.1524,1.433013,.25,1.469846,.17101,0.0*
1,1,.1524,1.469846,.17101*
20,1,.1524,1.469846,.17101,1.492404,.086824,0.0*
1,1,.1524,1.492404,.086824*
20,1,.1524,1.492404,.086824,1.5,0.0,0.0*
1,1,.1524,1.5,0.0*
20,1,.1524,1.5,0.0,1.492404,-.086824,0.0*
1,1,.1524,1.492404,-.086824*
20,1,.1524,1.492404,-.086824,1.469846,-.17101,0.0*
1,1,.1524,1.469846,-.17101*
20,1,.1524,1.469846,-.17101,1.433013,-.25,0.0*
1,1,.1524,1.433013,-.25*
20,1,.1524,1.433013,-.25,1.383022,-.321394,0.0*
1,1,.1524,1.383022,-.321394*
20,1,.1524,1.383022,-.321394,1.321394,-.383022,0.0*
1,1,.1524,1.321394,-.383022*
20,1,.1524,1.321394,-.383022,1.25,-.433013,0.0*
1,1,.1524,1.25,-.433013*
20,1,.1524,1.25,-.433013,1.17101,-.469846,0.0*
1,1,.1524,1.17101,-.469846*
20,1,.1524,1.17101,-.469846,1.086824,-.492404,0.0*
1,1,.1524,1.086824,-.492404*
20,1,.1524,1.086824,-.492404,1.,-.5,0.0*
1,1,.1524,1.,-.5*
20,1,.1524,1.,-.5,-1.,-.5,0.0*
1,1,.1524,-1.,-.5*
20,1,.1524,-1.,-.5,-1.086824,-.492404,0.0*
1,1,.1524,-1.086824,-.492404*
20,1,.1524,-1.086824,-.492404,-1.17101,-.469846,0.0*
1,1,.1524,-1.17101,-.469846*
20,1,.1524,-1.17101,-.469846,-1.25,-.433013,0.0*
1,1,.1524,-1.25,-.433013*
20,1,.1524,-1.25,-.433013,-1.321394,-.383022,0.0*
1,1,.1524,-1.321394,-.383022*
20,1,.1524,-1.321394,-.383022,-1.383022,-.321394,0.0*
1,1,.1524,-1.383022,-.321394*
20,1,.1524,-1.383022,-.321394,-1.433013,-.25,0.0*
1,1,.1524,-1.433013,-.25*
20,1,.1524,-1.433013,-.25,-1.469846,-.17101,0.0*
1,1,.1524,-1.469846,-.17101*
20,1,.1524,-1.469846,-.17101,-1.492404,-.086824,0.0*
1,1,.1524,-1.492404,-.086824*
20,1,.1524,-1.492404,-.086824,-1.5,0.0,0.0*
1,1,.1524,-1.5,0.0*
20,1,.1524,-1.5,0.0,-1.492404,.086824,0.0*
1,1,.1524,-1.492404,.086824*
20,1,.1524,-1.492404,.086824,-1.469846,.17101,0.0*
1,1,.1524,-1.469846,.17101*
20,1,.1524,-1.469846,.17101,-1.433013,.25,0.0*
1,1,.1524,-1.433013,.25*
20,1,.1524,-1.433013,.25,-1.383022,.321394,0.0*
1,1,.1524,-1.383022,.321394*
20,1,.1524,-1.383022,.321394,-1.321394,.383022,0.0*
1,1,.1524,-1.321394,.383022*
20,1,.1524,-1.321394,.383022,-1.25,.433013,0.0*
1,1,.1524,-1.25,.433013*
20,1,.1524,-1.25,.433013,-1.17101,.469846,0.0*
1,1,.1524,-1.17101,.469846*
20,1,.1524,-1.17101,.469846,-1.086824,.492404,0.0*
1,1,.1524,-1.086824,.492404*
20,1,.1524,-1.086824,.492404,-1.,.5,0.0*
1,1,.1524,-1.,.5*
1,1,.1524,-.25,-.25*
20,1,.1524,-.25,-.25,-.3167,-.2417,0.0*
1,1,.1524,-.3167,-.2417*
20,1,.1524,-.3167,-.2417,-.375,-.2083,0.0*
1,1,.1524,-.375,-.2083*
20,1,.1524,-.375,-.2083,-.425,-.1583,0.0*
1,1,.1524,-.425,-.1583*
20,1,.1524,-.425,-.1583,-.4583,-.1,0.0*
1,1,.1524,-.4583,-.1*
20,1,.1524,-.4583,-.1,-.475,-.0333,0.0*
1,1,.1524,-.475,-.0333*
20,1,.1524,-.475,-.0333,-.475,.0333,0.0*
1,1,.1524,-.475,.0333*
20,1,.1524,-.475,.0333,-.4583,.1,0.0*
1,1,.1524,-.4583,.1*
20,1,.1524,-.4583,.1,-.425,.1583,0.0*
1,1,.1524,-.425,.1583*
20,1,.1524,-.425,.1583,-.375,.2083,0.0*
1,1,.1524,-.375,.2083*
20,1,.1524,-.375,.2083,-.3167,.2417,0.0*
1,1,.1524,-.3167,.2417*
20,1,.1524,-.3167,.2417,-.25,.25,0.0*
1,1,.1524,-.25,.25*
20,1,.1524,-.25,.25,-.1833,.2417,0.0*
1,1,.1524,-.1833,.2417*
20,1,.1524,-.1833,.2417,-.125,.2083,0.0*
1,1,.1524,-.125,.2083*
20,1,.1524,-.125,.2083,-.075,.1583,0.0*
1,1,.1524,-.075,.1583*
20,1,.1524,-.075,.1583,-.0417,.1,0.0*
1,1,.1524,-.0417,.1*
20,1,.1524,-.0417,.1,-.025,.0333,0.0*
1,1,.1524,-.025,.0333*
20,1,.1524,-.025,.0333,-.025,-.0333,0.0*
1,1,.1524,-.025,-.0333*
20,1,.1524,-.025,-.0333,-.0417,-.1,0.0*
1,1,.1524,-.0417,-.1*
20,1,.1524,-.0417,-.1,-.075,-.1583,0.0*
1,1,.1524,-.075,-.1583*
20,1,.1524,-.075,-.1583,-.125,-.2083,0.0*
1,1,.1524,-.125,-.2083*
20,1,.1524,-.125,-.2083,-.1833,-.2417,0.0*
1,1,.1524,-.1833,-.2417*
20,1,.1524,-.1833,-.2417,-.25,-.25,0.0*
1,1,.1524,-.25,-.25*
1,1,.1524,.0418,-.25*
20,1,.1524,.0418,-.25,.2501,.25,0.0*
1,1,.1524,.2501,.25*
20,1,.1524,.2501,.25,.4584,-.25,0.0*
1,1,.1524,.4584,-.25*
1,1,.1524,.3834,-.075*
20,1,.1524,.3834,-.075,.1168,-.075,0.0*
1,1,.1524,.1168,-.075*
%
%ADD15MACRO15*%
%AMMACRO11*
1,1,.1524,.227817,-.55*
20,1,.1524,.227817,-.55,-.227817,-.55,0.0*
1,1,.1524,-.227817,-.55*
20,1,.1524,-.227817,-.55,-.55,-.227817,0.0*
1,1,.1524,-.55,-.227817*
20,1,.1524,-.55,-.227817,-.55,.227817,0.0*
1,1,.1524,-.55,.227817*
20,1,.1524,-.55,.227817,-.227817,.55,0.0*
1,1,.1524,-.227817,.55*
20,1,.1524,-.227817,.55,.227817,.55,0.0*
1,1,.1524,.227817,.55*
20,1,.1524,.227817,.55,.55,.227817,0.0*
1,1,.1524,.55,.227817*
20,1,.1524,.55,.227817,.55,-.227817,0.0*
1,1,.1524,.55,-.227817*
20,1,.1524,.55,-.227817,.227817,-.55,0.0*
1,1,.1524,.227817,-.55*
%
%ADD11MACRO11*%
%ADD18C,.1*%
%ADD19C,.2*%
%ADD20C,.1524*%
G75*
%LPD*%
G75*
G54D10*
X472710Y1514370D03*
Y2014370D03*
Y2514370D03*
X770000Y2940000D03*
X564250Y3544590D03*
X691510Y4532670D03*
Y5032670D03*
X770050Y5710820D03*
Y6210820D03*
X1095430Y179130D03*
Y679130D03*
X1064250Y3544590D03*
X1191510Y4532670D03*
Y5032670D03*
X1270050Y5710820D03*
Y6210820D03*
X943970Y7219990D03*
Y7719990D03*
X1277410Y7726990D03*
X943970Y8219990D03*
X1277410Y8226990D03*
X1270000Y8380000D03*
X1595430Y179130D03*
Y679130D03*
X1347900Y1716340D03*
Y2216340D03*
X1564250Y3544590D03*
X1691510Y4532670D03*
Y5032670D03*
X1770050Y5710820D03*
Y6210820D03*
X1388400Y6828990D03*
X1430000Y7720000D03*
X2095430Y179130D03*
Y679130D03*
X1888400Y6828990D03*
X1863010Y7117410D03*
X2595430Y179130D03*
Y679130D03*
X2388400Y6828990D03*
X2363010Y7117410D03*
X3095430Y179130D03*
Y679130D03*
X2888400Y6828990D03*
X2863010Y7117410D03*
X2883010Y7847410D03*
X3110000Y7850000D03*
X3130000Y8510000D03*
X2903010Y8507410D03*
X3595430Y179130D03*
Y679130D03*
X3388400Y6828990D03*
X3363010Y7117410D03*
X3383010Y7847410D03*
X3643010D03*
X3663010Y8507410D03*
X3403010D03*
X4095430Y179130D03*
Y679130D03*
X4153010Y5587410D03*
Y6087410D03*
X4213010Y7117410D03*
X3883010Y7847410D03*
X4143010D03*
X4595430Y179130D03*
Y679130D03*
X4384250Y2174590D03*
X4394250Y1814590D03*
X4404250Y2874590D03*
X4394250Y3434590D03*
Y4044590D03*
X4653010Y5587410D03*
Y6087410D03*
X4713010Y7117410D03*
X4383010Y7847410D03*
X4643010D03*
X4633010Y8207410D03*
X4373010D03*
X4643010Y8537410D03*
X4383010D03*
X4653010Y8827410D03*
X4393010D03*
X5095430Y179130D03*
Y679130D03*
X4884250Y2174590D03*
X4894250Y1814590D03*
X4904250Y2874590D03*
X4894250Y3434590D03*
Y4044590D03*
X4904250Y4544590D03*
X5153010Y5587410D03*
Y6087410D03*
X5213010Y7117410D03*
X4883010Y7847410D03*
X5143010D03*
X4873010Y8207410D03*
X4883010Y8537410D03*
X4893010Y8827410D03*
X5595430Y179130D03*
Y679130D03*
X5384250Y2174590D03*
X5394250Y1814590D03*
X5404250Y2874590D03*
X5394250Y3434590D03*
Y4044590D03*
X5404250Y4544590D03*
X5653010Y5587410D03*
Y6087410D03*
X5713010Y7117410D03*
X5383010Y7847410D03*
X5643010D03*
X6095430Y179130D03*
Y679130D03*
X5884250Y2174590D03*
X5894250Y1814590D03*
X5904250Y2874590D03*
X5894250Y3434590D03*
Y4044590D03*
X5904250Y4544590D03*
X6153010Y5587410D03*
Y6087410D03*
X6213010Y7117410D03*
X6143010Y7847410D03*
X6595430Y179130D03*
Y679130D03*
X6384250Y2174590D03*
X6394250Y1814590D03*
X6404250Y2874590D03*
X6394250Y3434590D03*
Y4044590D03*
X6404250Y4544590D03*
X6653010Y5587410D03*
Y6087410D03*
X6713010Y7117410D03*
X6904250Y4544590D03*
X7579040Y2849960D03*
X7600000Y3090200D03*
Y3010200D03*
Y3170200D03*
Y3250200D03*
X7599040Y3409960D03*
Y3599960D03*
X7700200Y3410200D03*
Y5529800D03*
X7610000Y5730200D03*
Y5810200D03*
Y5890200D03*
X7693010Y8817410D03*
X7928690Y212800D03*
Y712800D03*
X7844250Y1824590D03*
X8079040Y2849960D03*
X8083010Y6437410D03*
X8073010Y6637410D03*
X7810000Y6570000D03*
X7880000D03*
X7810000Y6640000D03*
X7880000D03*
Y6710000D03*
Y6780000D03*
X8193010Y8817410D03*
X8428690Y212800D03*
Y712800D03*
X8344250Y1824590D03*
X8449040Y3869960D03*
Y4059960D03*
X8520000Y4610000D03*
Y5250200D03*
Y5090200D03*
Y5010200D03*
Y4850200D03*
Y4930200D03*
Y5170200D03*
X8409040Y5639960D03*
Y5449960D03*
X8280000Y5410000D03*
X8520000Y5330200D03*
X8583010Y6437410D03*
X8573010Y6637410D03*
X8530000Y6789020D03*
Y6862680D03*
Y7010000D03*
Y6936340D03*
X8483010Y8127410D03*
X8693010Y8817410D03*
X8928690Y212800D03*
Y712800D03*
X8844250Y1824590D03*
X8959040Y2699960D03*
Y2889960D03*
X8950000Y3090200D03*
Y3010200D03*
Y3170200D03*
X8949800Y3250200D03*
X8950000Y3490200D03*
Y3570200D03*
Y3730200D03*
Y3650200D03*
X8949040Y3869960D03*
Y4059960D03*
X9060000Y4690200D03*
Y5070000D03*
X8983010Y8127410D03*
X9428690Y212800D03*
Y712800D03*
X9344250Y1824590D03*
X9459040Y2699960D03*
Y2889960D03*
X9570000Y4550000D03*
X9450000Y4440000D03*
X9570000Y5100000D03*
X9450000Y5220000D03*
X9489040Y5709960D03*
Y5519960D03*
X9500000Y6210000D03*
X9400000Y6289020D03*
Y6362680D03*
Y6510000D03*
Y6436340D03*
X9483010Y8127410D03*
X9663010Y7777410D03*
X9928690Y212800D03*
Y712800D03*
X9844250Y1824590D03*
X10090000Y3600000D03*
Y3770000D03*
Y3940000D03*
Y4120000D03*
X10070000Y4520000D03*
X9740000Y5100000D03*
X10220000Y5430000D03*
X10110000Y5530000D03*
X10100000Y5710000D03*
X9923010Y8097410D03*
X10163010D03*
Y7777410D03*
X9903010D03*
X10183010Y8317410D03*
X9943010Y8827410D03*
X10428690Y212800D03*
Y712800D03*
X10510000Y2570000D03*
Y2940000D03*
Y3250000D03*
X10310000Y3600000D03*
X10520000D03*
Y3780000D03*
Y3940000D03*
X10260000Y4120000D03*
X10480000Y4220000D03*
X10240000Y4520000D03*
X10385000Y4505000D03*
X10645000Y4610000D03*
X10570000Y4970000D03*
X10490000Y5540000D03*
X10480000Y5710000D03*
Y5880000D03*
X10423010Y8097410D03*
X10663010D03*
X10403010Y7777410D03*
X10423010Y8507410D03*
X10663010D03*
X10683010Y8317410D03*
X10423010D03*
X10443010Y8827410D03*
X10928690Y212800D03*
Y712800D03*
X10740000Y2240000D03*
Y2120000D03*
X10820000Y2240000D03*
Y2120000D03*
X10796200Y2840000D03*
X10820000Y3600000D03*
X10850000Y4610000D03*
X11030000Y4745360D03*
X10945000Y4610000D03*
X11018660D03*
X11092320D03*
X11165980D03*
X11030000Y5040000D03*
Y4819020D03*
Y4966340D03*
Y4892680D03*
X10923010Y8507410D03*
X11163010D03*
X10923010Y8317410D03*
X10943010Y8827410D03*
X11428690Y212800D03*
Y712800D03*
X11390000Y2250000D03*
X11530000D03*
X11390000Y2130000D03*
X11530000D03*
X11690000Y4490000D03*
X11380000Y4610000D03*
X11250000D03*
X11380000Y4770000D03*
X11690000Y5230000D03*
Y5070000D03*
X11691000Y5549000D03*
X11603010Y6017410D03*
X11593010Y6267410D03*
X11703010Y7297410D03*
X11493010Y8817410D03*
X11928690Y212800D03*
Y712800D03*
X12069040Y1289960D03*
Y1789960D03*
X12170000Y2490000D03*
Y2670000D03*
X11940000Y3320000D03*
X11770000Y3850000D03*
X12190000Y4500000D03*
X12090000D03*
Y4420000D03*
X12190000D03*
Y4340000D03*
X12090000D03*
X12190000Y4820000D03*
X11956200Y4973800D03*
X12203010Y7297410D03*
X11943010D03*
X11953010Y7547410D03*
X12193010D03*
Y7717410D03*
X11993010Y8817410D03*
X12428690Y212800D03*
Y712800D03*
X12569040Y1289960D03*
Y1789960D03*
X12422490Y3309640D03*
X12382490Y4009640D03*
X12487410Y5186990D03*
X12483010Y5687410D03*
X12487410Y5426990D03*
X12463010Y6027410D03*
X12703010D03*
X12453010Y6277410D03*
X12693010D03*
X12443010Y7117410D03*
X12703010D03*
X12443010Y7297410D03*
X12453010Y7547410D03*
X12693010D03*
X12453010Y7717410D03*
X12493010Y8817410D03*
X12928690Y212800D03*
Y712800D03*
X13069040Y1289960D03*
Y1789960D03*
X12922490Y3309640D03*
X12882490Y4009640D03*
X13193010Y4497410D03*
X12907410Y5186990D03*
X12723010Y5687410D03*
X12907410Y5426990D03*
X12883010Y7117410D03*
Y7297410D03*
X13200000Y8110000D03*
X13133010Y8807410D03*
X13428690Y212800D03*
Y712800D03*
X13569040Y1289960D03*
Y1789960D03*
X13422490Y3309640D03*
X13382490Y4009640D03*
X13693010Y4497410D03*
X13223010Y5177410D03*
X13393010Y6017410D03*
X13383010Y6267410D03*
X13320000Y7720000D03*
Y7640000D03*
Y7550000D03*
X13560000Y7640000D03*
Y7470000D03*
X13650000Y7520000D03*
X13540000Y7920000D03*
Y8110000D03*
X13370000D03*
X13633010Y8807410D03*
X13928690Y212800D03*
Y712800D03*
X14069040Y1289960D03*
Y1789960D03*
X13922490Y3309640D03*
X14193010Y4497410D03*
X13723010Y5177410D03*
X14043010Y6017410D03*
X14033010Y6267410D03*
X13810000Y6730000D03*
X13890000D03*
X13730000D03*
Y6890000D03*
X13810000D03*
X13890000D03*
X13810000Y6810000D03*
X13890000D03*
X13730000D03*
X14176990Y7342590D03*
X14076990Y7502590D03*
X13956990Y7642590D03*
X14136990D03*
X13950000Y7810000D03*
X14133010Y8807410D03*
X14223010Y5177410D03*
X14447410Y7206990D03*
Y7026990D03*
X14356990Y7342590D03*
X14256990Y7502590D03*
X14907410Y2086990D03*
Y2586990D03*
Y3086990D03*
Y4146990D03*
Y4646990D03*
Y5146990D03*
Y6546990D03*
Y7046990D03*
Y7546990D03*
X17261730Y4852500D03*
G54D20*
G01X-2915550Y3566970D02*
X-2898960Y3551100D01*
X-2879990Y3544750D01*
X-2861030Y3551100D01*
X-2844430Y3570140D01*
X-2832580Y3598730D01*
X-2827840Y3627300D01*
Y3662220D01*
X-2832580Y3690800D01*
X-2844430Y3716200D01*
X-2858660Y3728900D01*
X-2875250Y3735250D01*
X-2894220Y3728900D01*
X-2908440Y3716200D01*
X-2917920Y3697150D01*
X-2922660Y3671750D01*
X-2917920Y3649530D01*
X-2906070Y3627300D01*
X-2891840Y3614600D01*
X-2875250Y3611420D01*
X-2856290Y3617770D01*
X-2842060Y3633650D01*
X-2827840Y3662220D01*
G01X-2684750Y3735250D02*
X-2703720Y3728900D01*
X-2717940Y3713020D01*
X-2727420Y3693980D01*
X-2734530Y3668570D01*
X-2736900Y3640000D01*
X-2734530Y3611420D01*
X-2727420Y3586020D01*
X-2717940Y3566970D01*
X-2703720Y3551100D01*
X-2684750Y3544750D01*
X-2665790Y3551100D01*
X-2651560Y3566970D01*
X-2642080Y3586020D01*
X-2634970Y3611420D01*
X-2632600Y3640000D01*
X-2634970Y3668570D01*
X-2642080Y3693980D01*
X-2651560Y3713020D01*
X-2665790Y3728900D01*
X-2684750Y3735250D01*
G01X-2435750Y2964750D02*
X-2419160Y2967920D01*
X-2400190Y2977450D01*
X-2388340Y2993320D01*
X-2383600Y3015550D01*
X-2388340Y3037770D01*
X-2402560Y3056820D01*
X-2423900Y3066350D01*
X-2447600D01*
X-2461830Y3072700D01*
X-2473680Y3088570D01*
X-2478420Y3110800D01*
X-2471310Y3133020D01*
X-2454720Y3148900D01*
X-2435750Y3155250D01*
X-2416790Y3148900D01*
X-2400190Y3133020D01*
X-2393080Y3110800D01*
X-2397820Y3088570D01*
X-2409670Y3072700D01*
X-2423900Y3066350D01*
X-2447600D01*
X-2468940Y3056820D01*
X-2483160Y3037770D01*
X-2487900Y3015550D01*
X-2483160Y2993320D01*
X-2471310Y2977450D01*
X-2452340Y2967920D01*
X-2435750Y2964750D01*
G01X-2290290Y3044120D02*
X-2273700Y3066350D01*
X-2259470Y3079050D01*
X-2240510Y3085400D01*
X-2223910Y3079050D01*
X-2212060Y3066350D01*
X-2202580Y3047300D01*
X-2200210Y3025070D01*
X-2202580Y3006020D01*
X-2212060Y2986970D01*
X-2226290Y2971100D01*
X-2242880Y2964750D01*
X-2261840Y2971100D01*
X-2278440Y2990140D01*
X-2287920Y3018730D01*
X-2290290Y3050470D01*
X-2285550Y3091750D01*
X-2278440Y3113980D01*
X-2266590Y3136200D01*
X-2249990Y3152080D01*
X-2233400Y3155250D01*
X-2216800Y3148900D01*
X-2204950Y3133020D01*
G01X-2054750Y2958400D02*
X-2059490Y2961580D01*
Y2967920D01*
X-2054750Y2971100D01*
X-2050010Y2967920D01*
Y2961580D01*
X-2054750Y2958400D01*
G01X-1864250Y2964750D02*
X-1847660Y2967920D01*
X-1828690Y2977450D01*
X-1816840Y2993320D01*
X-1812100Y3015550D01*
X-1816840Y3037770D01*
X-1831060Y3056820D01*
X-1852400Y3066350D01*
X-1876100D01*
X-1890330Y3072700D01*
X-1902180Y3088570D01*
X-1906920Y3110800D01*
X-1899810Y3133020D01*
X-1883220Y3148900D01*
X-1864250Y3155250D01*
X-1845290Y3148900D01*
X-1828690Y3133020D01*
X-1821580Y3110800D01*
X-1826320Y3088570D01*
X-1838170Y3072700D01*
X-1852400Y3066350D01*
X-1876100D01*
X-1897440Y3056820D01*
X-1911660Y3037770D01*
X-1916400Y3015550D01*
X-1911660Y2993320D01*
X-1899810Y2977450D01*
X-1880840Y2967920D01*
X-1864250Y2964750D01*
G01X-1755750Y2254750D02*
X-1739160Y2257920D01*
X-1720190Y2267450D01*
X-1708340Y2283320D01*
X-1703600Y2305550D01*
X-1708340Y2327770D01*
X-1722560Y2346820D01*
X-1743900Y2356350D01*
X-1767600D01*
X-1781830Y2362700D01*
X-1793680Y2378570D01*
X-1798420Y2400800D01*
X-1791310Y2423020D01*
X-1774720Y2438900D01*
X-1755750Y2445250D01*
X-1736790Y2438900D01*
X-1720190Y2423020D01*
X-1713080Y2400800D01*
X-1717820Y2378570D01*
X-1729670Y2362700D01*
X-1743900Y2356350D01*
X-1767600D01*
X-1788940Y2346820D01*
X-1803160Y2327770D01*
X-1807900Y2305550D01*
X-1803160Y2283320D01*
X-1791310Y2267450D01*
X-1772340Y2257920D01*
X-1755750Y2254750D01*
G01X-1565250Y2445250D02*
X-1584220Y2438900D01*
X-1598440Y2423020D01*
X-1607920Y2403980D01*
X-1615030Y2378570D01*
X-1617400Y2350000D01*
X-1615030Y2321420D01*
X-1607920Y2296020D01*
X-1598440Y2276970D01*
X-1584220Y2261100D01*
X-1565250Y2254750D01*
X-1546290Y2261100D01*
X-1532060Y2276970D01*
X-1522580Y2296020D01*
X-1515470Y2321420D01*
X-1513100Y2350000D01*
X-1515470Y2378570D01*
X-1522580Y2403980D01*
X-1532060Y2423020D01*
X-1546290Y2438900D01*
X-1565250Y2445250D01*
G01X-1374750Y2248400D02*
X-1379490Y2251580D01*
Y2257920D01*
X-1374750Y2261100D01*
X-1370010Y2257920D01*
Y2251580D01*
X-1374750Y2248400D01*
G01X-1236400Y2283320D02*
X-1222180Y2267450D01*
X-1205590Y2257920D01*
X-1184250Y2254750D01*
X-1162910Y2261100D01*
X-1146320Y2273800D01*
X-1134470Y2296020D01*
X-1132100Y2321420D01*
X-1136840Y2346820D01*
X-1148690Y2362700D01*
X-1165290Y2375400D01*
X-1181880Y2378570D01*
X-1198470Y2375400D01*
X-1219810Y2362700D01*
X-1212700Y2445250D01*
X-1148690D01*
G01X-1350800Y1296970D02*
X-1334210Y1281100D01*
X-1315240Y1274750D01*
X-1296280Y1281100D01*
X-1279680Y1300140D01*
X-1267830Y1328730D01*
X-1263090Y1357300D01*
Y1392220D01*
X-1267830Y1420800D01*
X-1279680Y1446200D01*
X-1293910Y1458900D01*
X-1310500Y1465250D01*
X-1329470Y1458900D01*
X-1343690Y1446200D01*
X-1353170Y1427150D01*
X-1357910Y1401750D01*
X-1353170Y1379530D01*
X-1341320Y1357300D01*
X-1327090Y1344600D01*
X-1310500Y1341420D01*
X-1291540Y1347770D01*
X-1277310Y1363650D01*
X-1263090Y1392220D01*
G01X-1120000Y1268400D02*
X-1124740Y1271580D01*
Y1277920D01*
X-1120000Y1281100D01*
X-1115260Y1277920D01*
Y1271580D01*
X-1120000Y1268400D01*
G01X-981650Y1303320D02*
X-967430Y1287450D01*
X-950840Y1277920D01*
X-929500Y1274750D01*
X-908160Y1281100D01*
X-891570Y1293800D01*
X-879720Y1316020D01*
X-877350Y1341420D01*
X-882090Y1366820D01*
X-893940Y1382700D01*
X-910540Y1395400D01*
X-927130Y1398570D01*
X-943720Y1395400D01*
X-965060Y1382700D01*
X-957950Y1465250D01*
X-893940D01*
G01X-812650Y772850D02*
X-798430Y750620D01*
X-779470Y737920D01*
X-758130Y734750D01*
X-739160Y737920D01*
X-720200Y753800D01*
X-708350Y772850D01*
X-705980Y791900D01*
X-710720Y814120D01*
X-727310Y830000D01*
X-743910Y836350D01*
X-765240D01*
G01X-743910D02*
X-729680Y845870D01*
X-717830Y861750D01*
X-713090Y880800D01*
X-717830Y899850D01*
X-729680Y915720D01*
X-751020Y925250D01*
X-772350Y922080D01*
X-793690Y909370D01*
G01X-570000Y728400D02*
X-574740Y731580D01*
Y737920D01*
X-570000Y741100D01*
X-565260Y737920D01*
Y731580D01*
X-570000Y728400D01*
G01X-424540Y893500D02*
X-410320Y912550D01*
X-393720Y922080D01*
X-374760Y925250D01*
X-351050Y918900D01*
X-334460Y903020D01*
X-329720Y883980D01*
X-332090Y864920D01*
X-341570Y849050D01*
X-388980Y817300D01*
X-410320Y795070D01*
X-424540Y763320D01*
X-429280Y734750D01*
X-329720D01*
G01X947350Y-337150D02*
X961570Y-359380D01*
X980530Y-372080D01*
X1001870Y-375250D01*
X1020840Y-372080D01*
X1039800Y-356200D01*
X1051650Y-337150D01*
X1054020Y-318100D01*
X1049280Y-295880D01*
X1032690Y-280000D01*
X1016090Y-273650D01*
X994760D01*
G01X1016090D02*
X1030320Y-264130D01*
X1042170Y-248250D01*
X1046910Y-229200D01*
X1042170Y-210150D01*
X1030320Y-194280D01*
X1008980Y-184750D01*
X987650Y-187920D01*
X966310Y-200630D01*
G01X1190000Y-381600D02*
X1185260Y-378420D01*
Y-372080D01*
X1190000Y-368900D01*
X1194740Y-372080D01*
Y-378420D01*
X1190000Y-381600D01*
G01X1335460Y-216500D02*
X1349680Y-197450D01*
X1366280Y-187920D01*
X1385240Y-184750D01*
X1408950Y-191100D01*
X1425540Y-206980D01*
X1430280Y-226020D01*
X1427910Y-245080D01*
X1418430Y-260950D01*
X1371020Y-292700D01*
X1349680Y-314930D01*
X1335460Y-346680D01*
X1330720Y-375250D01*
X1430280D01*
G01X2020010Y-655250D02*
X2024750Y-613980D01*
X2031860Y-579050D01*
X2041340Y-547300D01*
X2053200Y-512380D01*
X2072160Y-464750D01*
X1977340D01*
G01X2163100Y-626680D02*
X2177320Y-642550D01*
X2193910Y-652080D01*
X2215250Y-655250D01*
X2236590Y-648900D01*
X2253180Y-636200D01*
X2265030Y-613980D01*
X2267400Y-588580D01*
X2262660Y-563180D01*
X2250810Y-547300D01*
X2234210Y-534600D01*
X2217620Y-531430D01*
X2201030Y-534600D01*
X2179690Y-547300D01*
X2186800Y-464750D01*
X2250810D01*
G01X2593950Y-1013030D02*
X2610540Y-1028900D01*
X2629510Y-1035250D01*
X2648470Y-1028900D01*
X2665070Y-1009860D01*
X2676920Y-981270D01*
X2681660Y-952700D01*
Y-917780D01*
X2676920Y-889200D01*
X2665070Y-863800D01*
X2650840Y-851100D01*
X2634250Y-844750D01*
X2615280Y-851100D01*
X2601060Y-863800D01*
X2591580Y-882850D01*
X2586840Y-908250D01*
X2591580Y-930470D01*
X2603430Y-952700D01*
X2617660Y-965400D01*
X2634250Y-968580D01*
X2653210Y-962230D01*
X2667440Y-946350D01*
X2681660Y-917780D01*
G01X2824750Y-1035250D02*
Y-844750D01*
X2796300Y-882850D01*
G01Y-1035250D02*
X2853190D01*
G01X3015250Y-1041600D02*
X3010510Y-1038420D01*
Y-1032080D01*
X3015250Y-1028900D01*
X3019990Y-1032080D01*
Y-1038420D01*
X3015250Y-1041600D01*
G01X3153600Y-1006680D02*
X3167820Y-1022550D01*
X3184410Y-1032080D01*
X3205750Y-1035250D01*
X3227090Y-1028900D01*
X3243680Y-1016200D01*
X3255530Y-993980D01*
X3257900Y-968580D01*
X3253160Y-943180D01*
X3241310Y-927300D01*
X3224710Y-914600D01*
X3208120Y-911430D01*
X3191530Y-914600D01*
X3170190Y-927300D01*
X3177300Y-844750D01*
X3241310D01*
G01X4759000Y-1365250D02*
Y-1174750D01*
X4730550Y-1212850D01*
G01Y-1365250D02*
X4787440D01*
G01X4977950D02*
Y-1174750D01*
X4890230Y-1311270D01*
X5008770D01*
G01X5094960Y-1285880D02*
X5111550Y-1263650D01*
X5125780Y-1250950D01*
X5144740Y-1244600D01*
X5161340Y-1250950D01*
X5173190Y-1263650D01*
X5182670Y-1282700D01*
X5185040Y-1304930D01*
X5182670Y-1323980D01*
X5173190Y-1343030D01*
X5158960Y-1358900D01*
X5142370Y-1365250D01*
X5123410Y-1358900D01*
X5106810Y-1339860D01*
X5097330Y-1311270D01*
X5094960Y-1279530D01*
X5099700Y-1238250D01*
X5106810Y-1216020D01*
X5118660Y-1193800D01*
X5135260Y-1177920D01*
X5151850Y-1174750D01*
X5168450Y-1181100D01*
X5180300Y-1196980D01*
G01X5330500Y-1371600D02*
X5325760Y-1368420D01*
Y-1362080D01*
X5330500Y-1358900D01*
X5335240Y-1362080D01*
Y-1368420D01*
X5330500Y-1371600D01*
G01X5521000Y-1365250D02*
X5537590Y-1362080D01*
X5556560Y-1352550D01*
X5568410Y-1336680D01*
X5573150Y-1314450D01*
X5568410Y-1292230D01*
X5554190Y-1273180D01*
X5532850Y-1263650D01*
X5509150D01*
X5494920Y-1257300D01*
X5483070Y-1241430D01*
X5478330Y-1219200D01*
X5485440Y-1196980D01*
X5502030Y-1181100D01*
X5521000Y-1174750D01*
X5539960Y-1181100D01*
X5556560Y-1196980D01*
X5563670Y-1219200D01*
X5558930Y-1241430D01*
X5547080Y-1257300D01*
X5532850Y-1263650D01*
X5509150D01*
X5487810Y-1273180D01*
X5473590Y-1292230D01*
X5468850Y-1314450D01*
X5473590Y-1336680D01*
X5485440Y-1352550D01*
X5504410Y-1362080D01*
X5521000Y-1365250D01*
G01X5859500Y-1835250D02*
Y-1644750D01*
X5831050Y-1682850D01*
G01Y-1835250D02*
X5887940D01*
G01X5997850Y-1806680D02*
X6012070Y-1822550D01*
X6028660Y-1832080D01*
X6050000Y-1835250D01*
X6071340Y-1828900D01*
X6087930Y-1816200D01*
X6099780Y-1793980D01*
X6102150Y-1768580D01*
X6097410Y-1743180D01*
X6085560Y-1727300D01*
X6068960Y-1714600D01*
X6052370Y-1711430D01*
X6035780Y-1714600D01*
X6014440Y-1727300D01*
X6021550Y-1644750D01*
X6085560D01*
G01X6240500D02*
X6221530Y-1651100D01*
X6207310Y-1666980D01*
X6197830Y-1686020D01*
X6190720Y-1711430D01*
X6188350Y-1740000D01*
X6190720Y-1768580D01*
X6197830Y-1793980D01*
X6207310Y-1813030D01*
X6221530Y-1828900D01*
X6240500Y-1835250D01*
X6259460Y-1828900D01*
X6273690Y-1813030D01*
X6283170Y-1793980D01*
X6290280Y-1768580D01*
X6292650Y-1740000D01*
X6290280Y-1711430D01*
X6283170Y-1686020D01*
X6273690Y-1666980D01*
X6259460Y-1651100D01*
X6240500Y-1644750D01*
G01X-250000Y0D02*
X-3030000D01*
G01X-2780000Y3394260D02*
Y0D01*
G01X-2842500Y400000D02*
X-2780000Y0D01*
X-2717500Y400000D01*
X-2842500D01*
G01X-2780000Y3885740D02*
Y9000000D01*
G01X-2717500Y8600000D02*
X-2780000Y9000000D01*
X-2842500Y8600000D01*
X-2717500D01*
G01X-220000Y9000000D02*
X-3030000D01*
G01X-250000Y0D02*
X-2400000D01*
G01X-2212500Y400000D02*
X-2150000Y0D01*
X-2087500Y400000D01*
X-2212500D01*
G01X70000Y8680000D02*
X-2400000D01*
G01X-2087500Y8280000D02*
X-2150000Y8680000D01*
X-2212500Y8280000D01*
X-2087500D01*
G01X-250000Y0D02*
X-1720000D01*
G01X-2150000Y2814260D02*
Y0D01*
G01Y3305740D02*
Y8680000D01*
G01X70000Y8050000D02*
X-1720000D01*
G01X-250000Y0D02*
X-1370000D01*
G01X-1470000Y2104260D02*
Y0D01*
G01X-1532500Y400000D02*
X-1470000Y0D01*
X-1407500Y400000D01*
X-1532500D01*
G01X70000Y950000D02*
X-1370000D01*
G01X-1470000Y2595740D02*
Y8050000D01*
G01X-1407500Y7650000D02*
X-1470000Y8050000D01*
X-1532500Y7650000D01*
X-1407500D01*
G01X-800000Y-280000D02*
X0D01*
G01X-250000Y0D02*
X-820000D01*
G01X-1120000Y950000D02*
Y0D01*
G01X-1182500Y400000D02*
X-1120000Y0D01*
X-1057500Y400000D01*
X-1182500D01*
G01X70000Y320000D02*
X-820000D01*
G01X-1057500Y550000D02*
X-1120000Y950000D01*
X-1182500Y550000D01*
X-1057500D01*
G01X-1120000Y1124260D02*
Y950000D01*
G01X-570000Y-800000D02*
Y0D01*
G01X-507500Y-400000D02*
X-570000Y0D01*
X-632500Y-400000D01*
X-507500D01*
G01X-400000Y-342500D02*
X0Y-280000D01*
X-400000Y-217500D01*
Y-342500D01*
G01X-570000Y584260D02*
Y320000D01*
G01X-632500Y720000D02*
X-570000Y320000D01*
X-507500Y720000D01*
X-632500D01*
G01X0Y-250000D02*
Y-1990000D01*
G01X5637890Y-1740000D02*
X0D01*
G01X400000Y-1677500D02*
X0Y-1740000D01*
X400000Y-1802500D01*
Y-1677500D01*
G01X0Y-250000D02*
Y-1520000D01*
G01X4537390Y-1270000D02*
X0D01*
G01X400000Y-1207500D02*
X0Y-1270000D01*
X400000Y-1332500D01*
Y-1207500D01*
G01X0Y-250000D02*
Y-810000D01*
G01Y-250000D02*
Y-1190000D01*
G01X2412640Y-940000D02*
X0D01*
G01X400000Y-877500D02*
X0Y-940000D01*
X400000Y-1002500D01*
Y-877500D01*
G01X0Y-250000D02*
Y-530000D01*
G01X1803140Y-560000D02*
X0D01*
G01X400000Y-497500D02*
X0Y-560000D01*
X400000Y-622500D01*
Y-497500D01*
G01X320000Y70000D02*
Y-530000D01*
G01X777890Y-280000D02*
X320000D01*
G01X720000Y-217500D02*
X320000Y-280000D01*
X720000Y-342500D01*
Y-217500D01*
G01X2436860Y-560000D02*
X7500000D01*
G01X3427360Y-940000D02*
X9150000D01*
G01X5742610Y-1270000D02*
X14680000D01*
G01X6462110Y-1740000D02*
X15000000D01*
G01X7100000Y-622500D02*
X7500000Y-560000D01*
X7100000Y-497500D01*
Y-622500D01*
G01X7500000Y70000D02*
Y-810000D01*
G01X9150000Y8430000D02*
Y-1190000D01*
G01X8750000Y-1002500D02*
X9150000Y-940000D01*
X8750000Y-877500D01*
Y-1002500D01*
G01X14600000Y-1802500D02*
X15000000Y-1740000D01*
X14600000Y-1677500D01*
Y-1802500D01*
G01X14280000Y-1332500D02*
X14680000Y-1270000D01*
X14280000Y-1207500D01*
Y-1332500D01*
G01X15000000Y-250000D02*
Y-1990000D01*
G01X14680000Y70000D02*
Y-1520000D01*
G01X16120000Y90000D02*
Y7090000D01*
X31946740D01*
Y90000D01*
X16120000D01*
G01Y725000D02*
X31946740D01*
G01X16120000Y1360000D02*
X31946740D01*
G01X16120000Y1995000D02*
X31946740D01*
G01X16120000Y2630000D02*
X31946740D01*
G01X16120000Y3265000D02*
X31946740D01*
G01X16120000Y3900000D02*
X31946740D01*
G01X16120000Y4535000D02*
X31946740D01*
G01X16120000Y5170000D02*
X31946740D01*
G01X16120000Y5805000D02*
X31946740D01*
G01X16120000Y6440000D02*
X31946740D01*
G01X16399520Y5328750D02*
Y5646250D01*
X16549140D01*
G01X16494010Y5492800D02*
X16399520D01*
G01X16742050Y5646250D02*
X16836530D01*
G01X16789290D02*
Y5328750D01*
G01X16742050D02*
X16836530D01*
G01X17127870Y5487500D02*
X17206620D01*
Y5392250D01*
X17182990Y5360490D01*
X17155430Y5339330D01*
X17116060Y5328750D01*
X17076690Y5339330D01*
X17049130Y5360490D01*
X17025510Y5392250D01*
X17009760Y5429290D01*
X17001880Y5471620D01*
Y5508670D01*
X17009760Y5540410D01*
X17025510Y5577460D01*
X17049130Y5609210D01*
X17072750Y5630370D01*
X17104250Y5646250D01*
X17131810D01*
X17163300Y5635670D01*
X17186930Y5614500D01*
G01X17332600Y5646250D02*
Y5418710D01*
X17348340Y5371070D01*
X17379840Y5339330D01*
X17419210Y5328750D01*
X17458580Y5339330D01*
X17490080Y5371070D01*
X17505820Y5418710D01*
Y5646250D01*
G01X17655430Y5328750D02*
Y5646250D01*
X17753850D01*
X17785350Y5630370D01*
X17805040Y5609210D01*
X17812910Y5566870D01*
X17805040Y5524540D01*
X17781410Y5498090D01*
X17753850Y5482200D01*
X17655430D01*
G01X17753850D02*
X17812910Y5328750D01*
G01X18127870D02*
X17970390D01*
Y5646250D01*
X18127870D01*
G01X18064880Y5492800D02*
X17970390D01*
G01X18403460Y5805000D02*
Y90000D01*
G01X18997940Y5328750D02*
Y5646250D01*
X19147560D01*
G01X19092430Y5492800D02*
X18997940D01*
G01X19340470Y5646250D02*
X19434950D01*
G01X19387710D02*
Y5328750D01*
G01X19340470D02*
X19434950D01*
G01X19612120D02*
Y5646250D01*
X19793220Y5328750D01*
Y5646250D01*
G01X19970390D02*
X20064870D01*
G01X20017630D02*
Y5328750D01*
G01X19970390D02*
X20064870D01*
G01X20249910Y5371070D02*
X20281410Y5344620D01*
X20316840Y5328750D01*
X20348340D01*
X20379830Y5344620D01*
X20403460Y5371070D01*
X20415270Y5408130D01*
X20407400Y5445160D01*
X20387710Y5476910D01*
X20352270Y5498090D01*
X20305030Y5508670D01*
X20277470Y5529830D01*
X20265660Y5566870D01*
X20273540Y5603920D01*
X20293220Y5630370D01*
X20320780Y5646250D01*
X20348340D01*
X20375900Y5635670D01*
X20399520Y5609210D01*
G01X20564870Y5328750D02*
Y5646250D01*
G01X20730230D02*
Y5328750D01*
G01Y5487500D02*
X20564870D01*
G01X21041250Y5328750D02*
X20883770D01*
Y5646250D01*
X21041250D01*
G01X20978260Y5492800D02*
X20883770D01*
G01X21190860Y5328750D02*
Y5646250D01*
X21269590D01*
X21301090Y5630370D01*
X21324710Y5609210D01*
X21344400Y5577460D01*
X21360150Y5540410D01*
X21364080Y5487500D01*
X21360150Y5434580D01*
X21344400Y5397540D01*
X21324710Y5365780D01*
X21301090Y5344620D01*
X21269590Y5328750D01*
X21190860D01*
G01X21474320Y5222920D02*
X21710540D01*
G01X21824710Y5371070D02*
X21856210Y5344620D01*
X21891640Y5328750D01*
X21923140D01*
X21954630Y5344620D01*
X21978260Y5371070D01*
X21990070Y5408130D01*
X21982200Y5445160D01*
X21962510Y5476910D01*
X21927070Y5498090D01*
X21879830Y5508670D01*
X21852270Y5529830D01*
X21840460Y5566870D01*
X21848340Y5603920D01*
X21868020Y5630370D01*
X21895580Y5646250D01*
X21923140D01*
X21950700Y5635670D01*
X21974320Y5609210D01*
G01X22175110Y5646250D02*
X22269590D01*
G01X22222350D02*
Y5328750D01*
G01X22175110D02*
X22269590D01*
G01X22462500Y5646250D02*
X22612120D01*
X22462500Y5328750D01*
X22612120D01*
G01X22931010D02*
X22773530D01*
Y5646250D01*
X22931010D01*
G01X22868020Y5492800D02*
X22773530D01*
G01X19931020Y312250D02*
X19954630Y275200D01*
X19986130Y254040D01*
X20021570Y248750D01*
X20053070Y254040D01*
X20084560Y280490D01*
X20104240Y312250D01*
X20108180Y344000D01*
X20100310Y381030D01*
X20072750Y407500D01*
X20045190Y418090D01*
X20009750D01*
G01X20045190D02*
X20068810Y433960D01*
X20088500Y460410D01*
X20096370Y492160D01*
X20088500Y523920D01*
X20068810Y550370D01*
X20033380Y566250D01*
X19997950Y560960D01*
X19962510Y539790D01*
G01X20332590Y238170D02*
X20324710Y243460D01*
Y254040D01*
X20332590Y259330D01*
X20340470Y254040D01*
Y243460D01*
X20332590Y238170D01*
G01X20647550Y566250D02*
X20616050Y555670D01*
X20592430Y529210D01*
X20576680Y497460D01*
X20564870Y455120D01*
X20560940Y407500D01*
X20564870Y359870D01*
X20576680Y317540D01*
X20592430Y285780D01*
X20616050Y259330D01*
X20647550Y248750D01*
X20679040Y259330D01*
X20702670Y285780D01*
X20718420Y317540D01*
X20730230Y359870D01*
X20734160Y407500D01*
X20730230Y455120D01*
X20718420Y497460D01*
X20702670Y529210D01*
X20679040Y555670D01*
X20647550Y566250D01*
G01X20903460Y460410D02*
X21021560Y248750D01*
G01Y460410D02*
X20903460Y248750D01*
G01X21277470D02*
Y566250D01*
X21230230Y502750D01*
G01Y248750D02*
X21324710D01*
G01X21592430Y238170D02*
X21584550Y243460D01*
Y254040D01*
X21592430Y259330D01*
X21600310Y254040D01*
Y243460D01*
X21592430Y238170D01*
G01X21907390Y566250D02*
X21875890Y555670D01*
X21852270Y529210D01*
X21836520Y497460D01*
X21824710Y455120D01*
X21820780Y407500D01*
X21824710Y359870D01*
X21836520Y317540D01*
X21852270Y285780D01*
X21875890Y259330D01*
X21907390Y248750D01*
X21938880Y259330D01*
X21962510Y285780D01*
X21978260Y317540D01*
X21990070Y359870D01*
X21994000Y407500D01*
X21990070Y455120D01*
X21978260Y497460D01*
X21962510Y529210D01*
X21938880Y555670D01*
X21907390Y566250D01*
G01X19931020Y947250D02*
X19954630Y910200D01*
X19986130Y889040D01*
X20021570Y883750D01*
X20053070Y889040D01*
X20084560Y915490D01*
X20104240Y947250D01*
X20108180Y979000D01*
X20100310Y1016030D01*
X20072750Y1042500D01*
X20045190Y1053090D01*
X20009750D01*
G01X20045190D02*
X20068810Y1068960D01*
X20088500Y1095410D01*
X20096370Y1127160D01*
X20088500Y1158920D01*
X20068810Y1185370D01*
X20033380Y1201250D01*
X19997950Y1195960D01*
X19962510Y1174790D01*
G01X20332590Y873170D02*
X20324710Y878460D01*
Y889040D01*
X20332590Y894330D01*
X20340470Y889040D01*
Y878460D01*
X20332590Y873170D01*
G01X20647550Y1201250D02*
X20616050Y1190670D01*
X20592430Y1164210D01*
X20576680Y1132460D01*
X20564870Y1090120D01*
X20560940Y1042500D01*
X20564870Y994870D01*
X20576680Y952540D01*
X20592430Y920780D01*
X20616050Y894330D01*
X20647550Y883750D01*
X20679040Y894330D01*
X20702670Y920780D01*
X20718420Y952540D01*
X20730230Y994870D01*
X20734160Y1042500D01*
X20730230Y1090120D01*
X20718420Y1132460D01*
X20702670Y1164210D01*
X20679040Y1190670D01*
X20647550Y1201250D01*
G01X20903460Y1095410D02*
X21021560Y883750D01*
G01Y1095410D02*
X20903460Y883750D01*
G01X21277470D02*
Y1201250D01*
X21230230Y1137750D01*
G01Y883750D02*
X21324710D01*
G01X21592430Y873170D02*
X21584550Y878460D01*
Y889040D01*
X21592430Y894330D01*
X21600310Y889040D01*
Y878460D01*
X21592430Y873170D01*
G01X21907390Y1201250D02*
X21875890Y1190670D01*
X21852270Y1164210D01*
X21836520Y1132460D01*
X21824710Y1090120D01*
X21820780Y1042500D01*
X21824710Y994870D01*
X21836520Y952540D01*
X21852270Y920780D01*
X21875890Y894330D01*
X21907390Y883750D01*
X21938880Y894330D01*
X21962510Y920780D01*
X21978260Y952540D01*
X21990070Y994870D01*
X21994000Y1042500D01*
X21990070Y1090120D01*
X21978260Y1132460D01*
X21962510Y1164210D01*
X21938880Y1190670D01*
X21907390Y1201250D01*
G01X20175110Y5011250D02*
X20143610Y5000670D01*
X20119990Y4974210D01*
X20104240Y4942460D01*
X20092430Y4900120D01*
X20088500Y4852500D01*
X20092430Y4804870D01*
X20104240Y4762540D01*
X20119990Y4730780D01*
X20143610Y4704330D01*
X20175110Y4693750D01*
X20206600Y4704330D01*
X20230230Y4730780D01*
X20245980Y4762540D01*
X20257790Y4804870D01*
X20261720Y4852500D01*
X20257790Y4900120D01*
X20245980Y4942460D01*
X20230230Y4974210D01*
X20206600Y5000670D01*
X20175110Y5011250D01*
G01X20490070Y4683170D02*
X20482190Y4688460D01*
Y4699040D01*
X20490070Y4704330D01*
X20497950Y4699040D01*
Y4688460D01*
X20490070Y4683170D01*
G01X20718420Y4757250D02*
X20742030Y4720200D01*
X20773530Y4699040D01*
X20808970Y4693750D01*
X20840470Y4699040D01*
X20871960Y4725490D01*
X20891640Y4757250D01*
X20895580Y4789000D01*
X20887710Y4826030D01*
X20860150Y4852500D01*
X20832590Y4863090D01*
X20797150D01*
G01X20832590D02*
X20856210Y4878960D01*
X20875900Y4905410D01*
X20883770Y4937160D01*
X20875900Y4968920D01*
X20856210Y4995370D01*
X20820780Y5011250D01*
X20785350Y5005960D01*
X20749910Y4984790D01*
G01X21119990Y5011250D02*
X21088490Y5000670D01*
X21064870Y4974210D01*
X21049120Y4942460D01*
X21037310Y4900120D01*
X21033380Y4852500D01*
X21037310Y4804870D01*
X21049120Y4762540D01*
X21064870Y4730780D01*
X21088490Y4704330D01*
X21119990Y4693750D01*
X21151480Y4704330D01*
X21175110Y4730780D01*
X21190860Y4762540D01*
X21202670Y4804870D01*
X21206600Y4852500D01*
X21202670Y4900120D01*
X21190860Y4942460D01*
X21175110Y4974210D01*
X21151480Y5000670D01*
X21119990Y5011250D01*
G01X21482190Y4693750D02*
Y5011250D01*
X21336520Y4783710D01*
X21533380D01*
G01X21749910Y4693750D02*
X21777470Y4699040D01*
X21808960Y4714910D01*
X21828650Y4741360D01*
X21836520Y4778420D01*
X21828650Y4815450D01*
X21805030Y4847200D01*
X21769590Y4863090D01*
X21730230D01*
X21706600Y4873670D01*
X21686910Y4900120D01*
X21679040Y4937160D01*
X21690860Y4974210D01*
X21718410Y5000670D01*
X21749910Y5011250D01*
X21781400Y5000670D01*
X21808960Y4974210D01*
X21820780Y4937160D01*
X21812900Y4900120D01*
X21793220Y4873670D01*
X21769590Y4863090D01*
X21730230D01*
X21694790Y4847200D01*
X21671170Y4815450D01*
X21663300Y4778420D01*
X21671170Y4741360D01*
X21690860Y4714910D01*
X21722350Y4699040D01*
X21749910Y4693750D01*
G01X19682980Y5963750D02*
X19781410Y6281250D01*
X19879840Y5963750D01*
G01X19844400Y6074870D02*
X19718410D01*
G01X20017630Y6281250D02*
Y5963750D01*
X20175110D01*
G01X20332590Y6281250D02*
Y5963750D01*
X20490070D01*
G01X20954640Y6281250D02*
Y6053710D01*
X20970380Y6006070D01*
X21001880Y5974330D01*
X21041250Y5963750D01*
X21080620Y5974330D01*
X21112120Y6006070D01*
X21127860Y6053710D01*
Y6281250D01*
G01X21265660Y5963750D02*
Y6281250D01*
X21446760Y5963750D01*
Y6281250D01*
G01X21623930D02*
X21718410D01*
G01X21671170D02*
Y5963750D01*
G01X21623930D02*
X21718410D01*
G01X21986130Y6281250D02*
Y5963750D01*
G01X21895580Y6281250D02*
X22076680D01*
G01X22218410Y6006070D02*
X22249910Y5979620D01*
X22285340Y5963750D01*
X22316840D01*
X22348330Y5979620D01*
X22371960Y6006070D01*
X22383770Y6043130D01*
X22375900Y6080160D01*
X22356210Y6111910D01*
X22320770Y6133090D01*
X22273530Y6143670D01*
X22245970Y6164830D01*
X22234160Y6201870D01*
X22242040Y6238920D01*
X22261720Y6265370D01*
X22289280Y6281250D01*
X22316840D01*
X22344400Y6270670D01*
X22368020Y6244210D01*
G01X22832580Y5963750D02*
X22931010Y6281250D01*
X23029440Y5963750D01*
G01X22994000Y6074870D02*
X22868010D01*
G01X23167230Y5963750D02*
Y6281250D01*
X23265650D01*
X23297150Y6265370D01*
X23316840Y6244210D01*
X23324710Y6201870D01*
X23316840Y6159540D01*
X23293210Y6133090D01*
X23265650Y6117200D01*
X23167230D01*
G01X23265650D02*
X23324710Y5963750D01*
G01X23639670D02*
X23482190D01*
Y6281250D01*
X23639670D01*
G01X23576680Y6127800D02*
X23482190D01*
G01X24143610Y6281250D02*
X24238090D01*
G01X24190850D02*
Y5963750D01*
G01X24143610D02*
X24238090D01*
G01X24415260D02*
Y6281250D01*
X24596360Y5963750D01*
Y6281250D01*
G01X25033360Y5963750D02*
Y6281250D01*
X25135730Y6016670D01*
X25238100Y6281250D01*
Y5963750D01*
G01X25403450Y6281250D02*
X25497930D01*
G01X25450690D02*
Y5963750D01*
G01X25403450D02*
X25497930D01*
G01X25686910Y6281250D02*
Y5963750D01*
X25844390D01*
G01X26001870Y6281250D02*
Y5963750D01*
X26159350D01*
G01X26348330Y6281250D02*
X26442810D01*
G01X26395570D02*
Y5963750D01*
G01X26348330D02*
X26442810D01*
G01X26608160D02*
Y6281250D01*
X26710530Y6016670D01*
X26812900Y6281250D01*
Y5963750D01*
G01X27104230D02*
X26946750D01*
Y6281250D01*
X27104230D01*
G01X27041240Y6127800D02*
X26946750D01*
G01X27340450Y6281250D02*
Y5963750D01*
G01X27249900Y6281250D02*
X27431000D01*
G01X27734150Y5963750D02*
X27576670D01*
Y6281250D01*
X27734150D01*
G01X27671160Y6127800D02*
X27576670D01*
G01X27891630Y5963750D02*
Y6281250D01*
X27990050D01*
X28021550Y6265370D01*
X28041240Y6244210D01*
X28049110Y6201870D01*
X28041240Y6159540D01*
X28017610Y6133090D01*
X27990050Y6117200D01*
X27891630D01*
G01X27990050D02*
X28049110Y5963750D01*
G01X28202650Y6006070D02*
X28234150Y5979620D01*
X28269580Y5963750D01*
X28301080D01*
X28332570Y5979620D01*
X28356200Y6006070D01*
X28368010Y6043130D01*
X28360140Y6080160D01*
X28340450Y6111910D01*
X28305010Y6133090D01*
X28257770Y6143670D01*
X28230210Y6164830D01*
X28218400Y6201870D01*
X28226280Y6238920D01*
X28245960Y6265370D01*
X28273520Y6281250D01*
X28301080D01*
X28328640Y6270670D01*
X28352260Y6244210D01*
G01X20009760Y6613750D02*
Y6931250D01*
X20088490D01*
X20119990Y6915370D01*
X20143610Y6894210D01*
X20163300Y6862460D01*
X20179050Y6825410D01*
X20182980Y6772500D01*
X20179050Y6719580D01*
X20163300Y6682540D01*
X20143610Y6650780D01*
X20119990Y6629620D01*
X20088490Y6613750D01*
X20009760D01*
G01X20332590D02*
Y6931250D01*
X20431010D01*
X20462510Y6915370D01*
X20482200Y6894210D01*
X20490070Y6851870D01*
X20482200Y6809540D01*
X20458570Y6783090D01*
X20431010Y6767200D01*
X20332590D01*
G01X20431010D02*
X20490070Y6613750D01*
G01X20679050Y6931250D02*
X20773530D01*
G01X20726290D02*
Y6613750D01*
G01X20679050D02*
X20773530D01*
G01X20962510Y6931250D02*
Y6613750D01*
X21119990D01*
G01X21277470Y6931250D02*
Y6613750D01*
X21434950D01*
G01X22072740Y6904790D02*
X22049120Y6920670D01*
X22021570Y6931250D01*
X21990070D01*
X21954630Y6915370D01*
X21927080Y6888920D01*
X21907390Y6857160D01*
X21891640Y6804250D01*
X21887700Y6756620D01*
X21895580Y6709000D01*
X21907390Y6677250D01*
X21931010Y6645490D01*
X21958570Y6624330D01*
X21986130Y6613750D01*
X22013690D01*
X22041250Y6624330D01*
X22064870Y6640200D01*
X22084560Y6661360D01*
G01X22218410Y6613750D02*
Y6931250D01*
G01X22383770D02*
Y6613750D01*
G01Y6772500D02*
X22218410D01*
G01X22517620Y6613750D02*
X22616050Y6931250D01*
X22714480Y6613750D01*
G01X22679040Y6724870D02*
X22553050D01*
G01X22852270Y6613750D02*
Y6931250D01*
X22950690D01*
X22982190Y6915370D01*
X23001880Y6894210D01*
X23009750Y6851870D01*
X23001880Y6809540D01*
X22978250Y6783090D01*
X22950690Y6767200D01*
X22852270D01*
G01X22950690D02*
X23009750Y6613750D01*
G01X23245970Y6931250D02*
Y6613750D01*
G01X23155420Y6931250D02*
X23336520D01*
G01X23560930Y6603170D02*
X23553050Y6608460D01*
Y6619040D01*
X23560930Y6624330D01*
X23568810Y6619040D01*
Y6608460D01*
X23560930Y6603170D01*
G01Y6746030D02*
X23553050Y6751330D01*
Y6761910D01*
X23560930Y6767200D01*
X23568810Y6761910D01*
Y6751330D01*
X23560930Y6746030D01*
G01X24190850Y6931250D02*
Y6613750D01*
G01X24100300Y6931250D02*
X24281400D01*
G01X24505810Y6613750D02*
X24474310Y6619040D01*
X24446760Y6640200D01*
X24423130Y6671960D01*
X24407380Y6709000D01*
X24399510Y6751330D01*
Y6793670D01*
X24407380Y6836000D01*
X24423130Y6873040D01*
X24446760Y6904790D01*
X24474310Y6925960D01*
X24505810Y6931250D01*
X24537300Y6925960D01*
X24564860Y6904790D01*
X24588490Y6873040D01*
X24604240Y6836000D01*
X24612110Y6793670D01*
Y6751330D01*
X24604240Y6709000D01*
X24588490Y6671960D01*
X24564860Y6640200D01*
X24537300Y6619040D01*
X24505810Y6613750D01*
G01X24742030D02*
Y6931250D01*
X24836520D01*
X24868010Y6915370D01*
X24891640Y6878330D01*
X24899510Y6836000D01*
X24891640Y6793670D01*
X24871950Y6761910D01*
X24836520Y6746030D01*
X24742030D01*
G01X25450690Y6931250D02*
Y6613750D01*
G01X25395570Y6825410D02*
X25505810D01*
G01X25765650Y6613750D02*
X25742030Y6619040D01*
X25718410Y6640200D01*
X25702650Y6677250D01*
X25694780Y6719580D01*
X25702650Y6761910D01*
X25718410Y6798960D01*
X25742030Y6820120D01*
X25765650Y6825410D01*
X25789270Y6820120D01*
X25812890Y6798960D01*
X25828640Y6761910D01*
X25832580Y6719580D01*
X25828640Y6677250D01*
X25812890Y6640200D01*
X25789270Y6619040D01*
X25765650Y6613750D01*
G01X26427060Y6783090D02*
X26442810Y6798960D01*
X26454620Y6825410D01*
X26462500Y6862460D01*
X26454620Y6894210D01*
X26438880Y6915370D01*
X26411320Y6931250D01*
X26305020D01*
Y6613750D01*
X26434940D01*
X26462500Y6634910D01*
X26478250Y6666670D01*
X26486120Y6703710D01*
X26478250Y6740740D01*
X26454620Y6772500D01*
X26427060Y6783090D01*
X26305020D01*
G01X26710530Y6613750D02*
X26679030Y6619040D01*
X26651480Y6640200D01*
X26627850Y6671960D01*
X26612100Y6709000D01*
X26604230Y6751330D01*
Y6793670D01*
X26612100Y6836000D01*
X26627850Y6873040D01*
X26651480Y6904790D01*
X26679030Y6925960D01*
X26710530Y6931250D01*
X26742020Y6925960D01*
X26769580Y6904790D01*
X26793210Y6873040D01*
X26808960Y6836000D01*
X26816830Y6793670D01*
Y6751330D01*
X26808960Y6709000D01*
X26793210Y6671960D01*
X26769580Y6640200D01*
X26742020Y6619040D01*
X26710530Y6613750D01*
G01X27025490Y6931250D02*
Y6613750D01*
G01X26934940Y6931250D02*
X27116040D01*
G01X27340450D02*
Y6613750D01*
G01X27249900Y6931250D02*
X27431000D01*
G01X27655410Y6613750D02*
X27623910Y6619040D01*
X27596360Y6640200D01*
X27572730Y6671960D01*
X27556980Y6709000D01*
X27549110Y6751330D01*
Y6793670D01*
X27556980Y6836000D01*
X27572730Y6873040D01*
X27596360Y6904790D01*
X27623910Y6925960D01*
X27655410Y6931250D01*
X27686900Y6925960D01*
X27714460Y6904790D01*
X27738090Y6873040D01*
X27753840Y6836000D01*
X27761710Y6793670D01*
Y6751330D01*
X27753840Y6709000D01*
X27738090Y6671960D01*
X27714460Y6640200D01*
X27686900Y6619040D01*
X27655410Y6613750D01*
G01X27868000D02*
Y6931250D01*
X27970370Y6666670D01*
X28072740Y6931250D01*
Y6613750D01*
G01X20647550Y1518750D02*
Y1836250D01*
X20600310Y1772750D01*
G01Y1518750D02*
X20694790D01*
G01X20962510Y1508170D02*
X20954630Y1513460D01*
Y1524040D01*
X20962510Y1529330D01*
X20970390Y1524040D01*
Y1513460D01*
X20962510Y1508170D01*
G01X21190860Y1582250D02*
X21214470Y1545200D01*
X21245970Y1524040D01*
X21281410Y1518750D01*
X21312910Y1524040D01*
X21344400Y1550490D01*
X21364080Y1582250D01*
X21368020Y1614000D01*
X21360150Y1651030D01*
X21332590Y1677500D01*
X21305030Y1688090D01*
X21269590D01*
G01X21305030D02*
X21328650Y1703960D01*
X21348340Y1730410D01*
X21356210Y1762160D01*
X21348340Y1793920D01*
X21328650Y1820370D01*
X21293220Y1836250D01*
X21257790Y1830960D01*
X21222350Y1809790D01*
G01X20647550Y2153750D02*
Y2471250D01*
X20600310Y2407750D01*
G01Y2153750D02*
X20694790D01*
G01X20962510Y2143170D02*
X20954630Y2148460D01*
Y2159040D01*
X20962510Y2164330D01*
X20970390Y2159040D01*
Y2148460D01*
X20962510Y2143170D01*
G01X21202660Y2418330D02*
X21226290Y2450080D01*
X21253850Y2465960D01*
X21285350Y2471250D01*
X21324710Y2460670D01*
X21352280Y2434210D01*
X21360150Y2402460D01*
X21356210Y2370700D01*
X21340460Y2344250D01*
X21261720Y2291330D01*
X21226290Y2254290D01*
X21202660Y2201360D01*
X21194790Y2153750D01*
X21360150D01*
G01X20647550Y2788750D02*
Y3106250D01*
X20600310Y3042750D01*
G01Y2788750D02*
X20694790D01*
G01X20962510Y2778170D02*
X20954630Y2783460D01*
Y2794040D01*
X20962510Y2799330D01*
X20970390Y2794040D01*
Y2783460D01*
X20962510Y2778170D01*
G01X21277470Y2788750D02*
Y3106250D01*
X21230230Y3042750D01*
G01Y2788750D02*
X21324710D01*
G01X20647550Y3423750D02*
Y3741250D01*
X20600310Y3677750D01*
G01Y3423750D02*
X20694790D01*
G01X20962510Y3413170D02*
X20954630Y3418460D01*
Y3429040D01*
X20962510Y3434330D01*
X20970390Y3429040D01*
Y3418460D01*
X20962510Y3413170D01*
G01X21277470Y3741250D02*
X21245970Y3730670D01*
X21222350Y3704210D01*
X21206600Y3672460D01*
X21194790Y3630120D01*
X21190860Y3582500D01*
X21194790Y3534870D01*
X21206600Y3492540D01*
X21222350Y3460780D01*
X21245970Y3434330D01*
X21277470Y3423750D01*
X21308960Y3434330D01*
X21332590Y3460780D01*
X21348340Y3492540D01*
X21360150Y3534870D01*
X21364080Y3582500D01*
X21360150Y3630120D01*
X21348340Y3672460D01*
X21332590Y3704210D01*
X21308960Y3730670D01*
X21277470Y3741250D01*
G01X20647550Y4376250D02*
X20616050Y4365670D01*
X20592430Y4339210D01*
X20576680Y4307460D01*
X20564870Y4265120D01*
X20560940Y4217500D01*
X20564870Y4169870D01*
X20576680Y4127540D01*
X20592430Y4095780D01*
X20616050Y4069330D01*
X20647550Y4058750D01*
X20679040Y4069330D01*
X20702670Y4095780D01*
X20718420Y4127540D01*
X20730230Y4169870D01*
X20734160Y4217500D01*
X20730230Y4265120D01*
X20718420Y4307460D01*
X20702670Y4339210D01*
X20679040Y4365670D01*
X20647550Y4376250D01*
G01X20962510Y4048170D02*
X20954630Y4053460D01*
Y4064040D01*
X20962510Y4069330D01*
X20970390Y4064040D01*
Y4053460D01*
X20962510Y4048170D01*
G01X21210540Y4095780D02*
X21238100Y4069330D01*
X21269590Y4058750D01*
X21301090Y4069330D01*
X21328650Y4101070D01*
X21348340Y4148710D01*
X21356210Y4196330D01*
Y4254540D01*
X21348340Y4302160D01*
X21328650Y4344500D01*
X21305030Y4365670D01*
X21277470Y4376250D01*
X21245970Y4365670D01*
X21222350Y4344500D01*
X21206600Y4312750D01*
X21198730Y4270410D01*
X21206600Y4233380D01*
X21226290Y4196330D01*
X21249910Y4175160D01*
X21277470Y4169870D01*
X21308960Y4180450D01*
X21332590Y4206910D01*
X21356210Y4254540D01*
G01X23521560Y5805000D02*
Y90000D01*
G01X23954630Y5328750D02*
Y5646250D01*
X24053050D01*
X24084550Y5630370D01*
X24104240Y5609210D01*
X24112110Y5566870D01*
X24104240Y5524540D01*
X24080610Y5498090D01*
X24053050Y5482200D01*
X23954630D01*
G01X24053050D02*
X24112110Y5328750D01*
G01X24348330D02*
X24316830Y5334040D01*
X24289280Y5355200D01*
X24265650Y5386960D01*
X24249900Y5424000D01*
X24242030Y5466330D01*
Y5508670D01*
X24249900Y5551000D01*
X24265650Y5588040D01*
X24289280Y5619790D01*
X24316830Y5640960D01*
X24348330Y5646250D01*
X24379820Y5640960D01*
X24407380Y5619790D01*
X24431010Y5588040D01*
X24446760Y5551000D01*
X24454630Y5508670D01*
Y5466330D01*
X24446760Y5424000D01*
X24431010Y5386960D01*
X24407380Y5355200D01*
X24379820Y5334040D01*
X24348330Y5328750D01*
G01X24663290Y5646250D02*
Y5328750D01*
G01X24572740Y5646250D02*
X24753840D01*
G01X24879820Y5328750D02*
X24978250Y5646250D01*
X25076680Y5328750D01*
G01X25041240Y5439870D02*
X24915250D01*
G01X25293210Y5646250D02*
Y5328750D01*
G01X25202660Y5646250D02*
X25383760D01*
G01X25560930D02*
X25655410D01*
G01X25608170D02*
Y5328750D01*
G01X25560930D02*
X25655410D01*
G01X25923130D02*
X25891630Y5334040D01*
X25864080Y5355200D01*
X25840450Y5386960D01*
X25824700Y5424000D01*
X25816830Y5466330D01*
Y5508670D01*
X25824700Y5551000D01*
X25840450Y5588040D01*
X25864080Y5619790D01*
X25891630Y5640960D01*
X25923130Y5646250D01*
X25954620Y5640960D01*
X25982180Y5619790D01*
X26005810Y5588040D01*
X26021560Y5551000D01*
X26029430Y5508670D01*
Y5466330D01*
X26021560Y5424000D01*
X26005810Y5386960D01*
X25982180Y5355200D01*
X25954620Y5334040D01*
X25923130Y5328750D01*
G01X26147540D02*
Y5646250D01*
X26328640Y5328750D01*
Y5646250D01*
G01X24505810Y566250D02*
X24474310Y555670D01*
X24450690Y529210D01*
X24434940Y497460D01*
X24423130Y455120D01*
X24419200Y407500D01*
X24423130Y359870D01*
X24434940Y317540D01*
X24450690Y285780D01*
X24474310Y259330D01*
X24505810Y248750D01*
X24537300Y259330D01*
X24560930Y285780D01*
X24576680Y317540D01*
X24588490Y359870D01*
X24592420Y407500D01*
X24588490Y455120D01*
X24576680Y497460D01*
X24560930Y529210D01*
X24537300Y555670D01*
X24505810Y566250D01*
G01X24820770Y238170D02*
X24812890Y243460D01*
Y254040D01*
X24820770Y259330D01*
X24828650Y254040D01*
Y243460D01*
X24820770Y238170D01*
G01X25135730Y566250D02*
X25104230Y555670D01*
X25080610Y529210D01*
X25064860Y497460D01*
X25053050Y455120D01*
X25049120Y407500D01*
X25053050Y359870D01*
X25064860Y317540D01*
X25080610Y285780D01*
X25104230Y259330D01*
X25135730Y248750D01*
X25167220Y259330D01*
X25190850Y285780D01*
X25206600Y317540D01*
X25218410Y359870D01*
X25222340Y407500D01*
X25218410Y455120D01*
X25206600Y497460D01*
X25190850Y529210D01*
X25167220Y555670D01*
X25135730Y566250D01*
G01X25450690D02*
X25419190Y555670D01*
X25395570Y529210D01*
X25379820Y497460D01*
X25368010Y455120D01*
X25364080Y407500D01*
X25368010Y359870D01*
X25379820Y317540D01*
X25395570Y285780D01*
X25419190Y259330D01*
X25450690Y248750D01*
X25482180Y259330D01*
X25505810Y285780D01*
X25521560Y317540D01*
X25533370Y359870D01*
X25537300Y407500D01*
X25533370Y455120D01*
X25521560Y497460D01*
X25505810Y529210D01*
X25482180Y555670D01*
X25450690Y566250D01*
G01X25765650D02*
X25734150Y555670D01*
X25710530Y529210D01*
X25694780Y497460D01*
X25682970Y455120D01*
X25679040Y407500D01*
X25682970Y359870D01*
X25694780Y317540D01*
X25710530Y285780D01*
X25734150Y259330D01*
X25765650Y248750D01*
X25797140Y259330D01*
X25820770Y285780D01*
X25836520Y317540D01*
X25848330Y359870D01*
X25852260Y407500D01*
X25848330Y455120D01*
X25836520Y497460D01*
X25820770Y529210D01*
X25797140Y555670D01*
X25765650Y566250D01*
G01X24281400Y920780D02*
X24308960Y894330D01*
X24340450Y883750D01*
X24371950Y894330D01*
X24399510Y926070D01*
X24419200Y973710D01*
X24427070Y1021330D01*
Y1079540D01*
X24419200Y1127160D01*
X24399510Y1169500D01*
X24375890Y1190670D01*
X24348330Y1201250D01*
X24316830Y1190670D01*
X24293210Y1169500D01*
X24277460Y1137750D01*
X24269590Y1095410D01*
X24277460Y1058380D01*
X24297150Y1021330D01*
X24320770Y1000160D01*
X24348330Y994870D01*
X24379820Y1005450D01*
X24403450Y1031910D01*
X24427070Y1079540D01*
G01X24663290Y1201250D02*
X24631790Y1190670D01*
X24608170Y1164210D01*
X24592420Y1132460D01*
X24580610Y1090120D01*
X24576680Y1042500D01*
X24580610Y994870D01*
X24592420Y952540D01*
X24608170Y920780D01*
X24631790Y894330D01*
X24663290Y883750D01*
X24694780Y894330D01*
X24718410Y920780D01*
X24734160Y952540D01*
X24745970Y994870D01*
X24749900Y1042500D01*
X24745970Y1090120D01*
X24734160Y1132460D01*
X24718410Y1164210D01*
X24694780Y1190670D01*
X24663290Y1201250D01*
G01X24978250Y873170D02*
X24970370Y878460D01*
Y889040D01*
X24978250Y894330D01*
X24986130Y889040D01*
Y878460D01*
X24978250Y873170D01*
G01X25293210Y1201250D02*
X25261710Y1190670D01*
X25238090Y1164210D01*
X25222340Y1132460D01*
X25210530Y1090120D01*
X25206600Y1042500D01*
X25210530Y994870D01*
X25222340Y952540D01*
X25238090Y920780D01*
X25261710Y894330D01*
X25293210Y883750D01*
X25324700Y894330D01*
X25348330Y920780D01*
X25364080Y952540D01*
X25375890Y994870D01*
X25379820Y1042500D01*
X25375890Y1090120D01*
X25364080Y1132460D01*
X25348330Y1164210D01*
X25324700Y1190670D01*
X25293210Y1201250D01*
G01X25608170D02*
X25576670Y1190670D01*
X25553050Y1164210D01*
X25537300Y1132460D01*
X25525490Y1090120D01*
X25521560Y1042500D01*
X25525490Y994870D01*
X25537300Y952540D01*
X25553050Y920780D01*
X25576670Y894330D01*
X25608170Y883750D01*
X25639660Y894330D01*
X25663290Y920780D01*
X25679040Y952540D01*
X25690850Y994870D01*
X25694780Y1042500D01*
X25690850Y1090120D01*
X25679040Y1132460D01*
X25663290Y1164210D01*
X25639660Y1190670D01*
X25608170Y1201250D01*
G01X25923130D02*
X25891630Y1190670D01*
X25868010Y1164210D01*
X25852260Y1132460D01*
X25840450Y1090120D01*
X25836520Y1042500D01*
X25840450Y994870D01*
X25852260Y952540D01*
X25868010Y920780D01*
X25891630Y894330D01*
X25923130Y883750D01*
X25954620Y894330D01*
X25978250Y920780D01*
X25994000Y952540D01*
X26005810Y994870D01*
X26009740Y1042500D01*
X26005810Y1090120D01*
X25994000Y1132460D01*
X25978250Y1164210D01*
X25954620Y1190670D01*
X25923130Y1201250D01*
G01X25084550Y1624580D02*
X25186910D01*
G01X25084550Y2259580D02*
X25186910D01*
G01X25084550Y2894580D02*
X25186910D01*
G01X25084550Y3529580D02*
X25186910D01*
G01X25084550Y4164580D02*
X25186910D01*
G01X25084550Y4799580D02*
X25186910D01*
G01X26078070Y-68750D02*
Y-386250D01*
G01X25987520Y-68750D02*
X26168620D01*
G01X26393030Y-386250D02*
X26361530Y-380960D01*
X26333980Y-359800D01*
X26310350Y-328040D01*
X26294600Y-291000D01*
X26286730Y-248670D01*
Y-206330D01*
X26294600Y-164000D01*
X26310350Y-126960D01*
X26333980Y-95210D01*
X26361530Y-74040D01*
X26393030Y-68750D01*
X26424520Y-74040D01*
X26452080Y-95210D01*
X26475710Y-126960D01*
X26491460Y-164000D01*
X26499330Y-206330D01*
Y-248670D01*
X26491460Y-291000D01*
X26475710Y-328040D01*
X26452080Y-359800D01*
X26424520Y-380960D01*
X26393030Y-386250D01*
G01X26707990Y-68750D02*
Y-386250D01*
G01X26617440Y-68750D02*
X26798540D01*
G01X26924520Y-386250D02*
X27022950Y-68750D01*
X27121380Y-386250D01*
G01X27085940Y-275130D02*
X26959950D01*
G01X27259170Y-68750D02*
Y-386250D01*
X27416650D01*
G01X27885150D02*
Y-68750D01*
G01X28050510D02*
Y-386250D01*
G01Y-227500D02*
X27885150D01*
G01X28282790Y-386250D02*
X28251290Y-380960D01*
X28223740Y-359800D01*
X28200110Y-328040D01*
X28184360Y-291000D01*
X28176490Y-248670D01*
Y-206330D01*
X28184360Y-164000D01*
X28200110Y-126960D01*
X28223740Y-95210D01*
X28251290Y-74040D01*
X28282790Y-68750D01*
X28314280Y-74040D01*
X28341840Y-95210D01*
X28365470Y-126960D01*
X28381220Y-164000D01*
X28389090Y-206330D01*
Y-248670D01*
X28381220Y-291000D01*
X28365470Y-328040D01*
X28341840Y-359800D01*
X28314280Y-380960D01*
X28282790Y-386250D01*
G01X28519010Y-68750D02*
Y-386250D01*
X28676490D01*
G01X28991450D02*
X28833970D01*
Y-68750D01*
X28991450D01*
G01X28928460Y-222200D02*
X28833970D01*
G01X29144990Y-343930D02*
X29176490Y-370380D01*
X29211920Y-386250D01*
X29243420D01*
X29274910Y-370380D01*
X29298540Y-343930D01*
X29310350Y-306870D01*
X29302480Y-269840D01*
X29282790Y-238090D01*
X29247350Y-216910D01*
X29200110Y-206330D01*
X29172550Y-185170D01*
X29160740Y-148130D01*
X29168620Y-111080D01*
X29188300Y-84630D01*
X29215860Y-68750D01*
X29243420D01*
X29270980Y-79330D01*
X29294600Y-105790D01*
G01X29542630Y-396830D02*
X29534750Y-391540D01*
Y-380960D01*
X29542630Y-375670D01*
X29550510Y-380960D01*
Y-391540D01*
X29542630Y-396830D01*
G01Y-253970D02*
X29534750Y-248670D01*
Y-238090D01*
X29542630Y-232800D01*
X29550510Y-238090D01*
Y-248670D01*
X29542630Y-253970D01*
G01X26749900Y5805000D02*
Y90000D01*
G01X27497930Y248750D02*
Y566250D01*
X27592420D01*
X27623910Y550370D01*
X27647540Y513330D01*
X27655410Y471000D01*
X27647540Y428670D01*
X27627850Y396910D01*
X27592420Y381030D01*
X27497930D01*
G01X27812890Y566250D02*
Y248750D01*
X27970370D01*
G01X28108160D02*
X28206590Y566250D01*
X28305020Y248750D01*
G01X28269580Y359870D02*
X28143590D01*
G01X28521550Y566250D02*
Y248750D01*
G01X28431000Y566250D02*
X28612100D01*
G01X28915250Y248750D02*
X28757770D01*
Y566250D01*
X28915250D01*
G01X28852260Y412800D02*
X28757770D01*
G01X29064860Y248750D02*
Y566250D01*
X29143590D01*
X29175090Y550370D01*
X29198710Y529210D01*
X29218400Y497460D01*
X29234150Y460410D01*
X29238080Y407500D01*
X29234150Y354580D01*
X29218400Y317540D01*
X29198710Y285780D01*
X29175090Y264620D01*
X29143590Y248750D01*
X29064860D01*
G01X27497930Y883750D02*
Y1201250D01*
X27592420D01*
X27623910Y1185370D01*
X27647540Y1148330D01*
X27655410Y1106000D01*
X27647540Y1063670D01*
X27627850Y1031910D01*
X27592420Y1016030D01*
X27497930D01*
G01X27812890Y1201250D02*
Y883750D01*
X27970370D01*
G01X28108160D02*
X28206590Y1201250D01*
X28305020Y883750D01*
G01X28269580Y994870D02*
X28143590D01*
G01X28521550Y1201250D02*
Y883750D01*
G01X28431000Y1201250D02*
X28612100D01*
G01X28915250Y883750D02*
X28757770D01*
Y1201250D01*
X28915250D01*
G01X28852260Y1047800D02*
X28757770D01*
G01X29064860Y883750D02*
Y1201250D01*
X29143590D01*
X29175090Y1185370D01*
X29198710Y1164210D01*
X29218400Y1132460D01*
X29234150Y1095410D01*
X29238080Y1042500D01*
X29234150Y989580D01*
X29218400Y952540D01*
X29198710Y920780D01*
X29175090Y899620D01*
X29143590Y883750D01*
X29064860D01*
G01X27497930Y1518750D02*
Y1836250D01*
X27592420D01*
X27623910Y1820370D01*
X27647540Y1783330D01*
X27655410Y1741000D01*
X27647540Y1698670D01*
X27627850Y1666910D01*
X27592420Y1651030D01*
X27497930D01*
G01X27812890Y1836250D02*
Y1518750D01*
X27970370D01*
G01X28108160D02*
X28206590Y1836250D01*
X28305020Y1518750D01*
G01X28269580Y1629870D02*
X28143590D01*
G01X28521550Y1836250D02*
Y1518750D01*
G01X28431000Y1836250D02*
X28612100D01*
G01X28915250Y1518750D02*
X28757770D01*
Y1836250D01*
X28915250D01*
G01X28852260Y1682800D02*
X28757770D01*
G01X29064860Y1518750D02*
Y1836250D01*
X29143590D01*
X29175090Y1820370D01*
X29198710Y1799210D01*
X29218400Y1767460D01*
X29234150Y1730410D01*
X29238080Y1677500D01*
X29234150Y1624580D01*
X29218400Y1587540D01*
X29198710Y1555780D01*
X29175090Y1534620D01*
X29143590Y1518750D01*
X29064860D01*
G01X27497930Y2153750D02*
Y2471250D01*
X27592420D01*
X27623910Y2455370D01*
X27647540Y2418330D01*
X27655410Y2376000D01*
X27647540Y2333670D01*
X27627850Y2301910D01*
X27592420Y2286030D01*
X27497930D01*
G01X27812890Y2471250D02*
Y2153750D01*
X27970370D01*
G01X28108160D02*
X28206590Y2471250D01*
X28305020Y2153750D01*
G01X28269580Y2264870D02*
X28143590D01*
G01X28521550Y2471250D02*
Y2153750D01*
G01X28431000Y2471250D02*
X28612100D01*
G01X28915250Y2153750D02*
X28757770D01*
Y2471250D01*
X28915250D01*
G01X28852260Y2317800D02*
X28757770D01*
G01X29064860Y2153750D02*
Y2471250D01*
X29143590D01*
X29175090Y2455370D01*
X29198710Y2434210D01*
X29218400Y2402460D01*
X29234150Y2365410D01*
X29238080Y2312500D01*
X29234150Y2259580D01*
X29218400Y2222540D01*
X29198710Y2190780D01*
X29175090Y2169620D01*
X29143590Y2153750D01*
X29064860D01*
G01X27497930Y2788750D02*
Y3106250D01*
X27592420D01*
X27623910Y3090370D01*
X27647540Y3053330D01*
X27655410Y3011000D01*
X27647540Y2968670D01*
X27627850Y2936910D01*
X27592420Y2921030D01*
X27497930D01*
G01X27812890Y3106250D02*
Y2788750D01*
X27970370D01*
G01X28108160D02*
X28206590Y3106250D01*
X28305020Y2788750D01*
G01X28269580Y2899870D02*
X28143590D01*
G01X28521550Y3106250D02*
Y2788750D01*
G01X28431000Y3106250D02*
X28612100D01*
G01X28915250Y2788750D02*
X28757770D01*
Y3106250D01*
X28915250D01*
G01X28852260Y2952800D02*
X28757770D01*
G01X29064860Y2788750D02*
Y3106250D01*
X29143590D01*
X29175090Y3090370D01*
X29198710Y3069210D01*
X29218400Y3037460D01*
X29234150Y3000410D01*
X29238080Y2947500D01*
X29234150Y2894580D01*
X29218400Y2857540D01*
X29198710Y2825780D01*
X29175090Y2804620D01*
X29143590Y2788750D01*
X29064860D01*
G01X27497930Y3423750D02*
Y3741250D01*
X27592420D01*
X27623910Y3725370D01*
X27647540Y3688330D01*
X27655410Y3646000D01*
X27647540Y3603670D01*
X27627850Y3571910D01*
X27592420Y3556030D01*
X27497930D01*
G01X27812890Y3741250D02*
Y3423750D01*
X27970370D01*
G01X28108160D02*
X28206590Y3741250D01*
X28305020Y3423750D01*
G01X28269580Y3534870D02*
X28143590D01*
G01X28521550Y3741250D02*
Y3423750D01*
G01X28431000Y3741250D02*
X28612100D01*
G01X28915250Y3423750D02*
X28757770D01*
Y3741250D01*
X28915250D01*
G01X28852260Y3587800D02*
X28757770D01*
G01X29064860Y3423750D02*
Y3741250D01*
X29143590D01*
X29175090Y3725370D01*
X29198710Y3704210D01*
X29218400Y3672460D01*
X29234150Y3635410D01*
X29238080Y3582500D01*
X29234150Y3529580D01*
X29218400Y3492540D01*
X29198710Y3460780D01*
X29175090Y3439620D01*
X29143590Y3423750D01*
X29064860D01*
G01X27497930Y4058750D02*
Y4376250D01*
X27592420D01*
X27623910Y4360370D01*
X27647540Y4323330D01*
X27655410Y4281000D01*
X27647540Y4238670D01*
X27627850Y4206910D01*
X27592420Y4191030D01*
X27497930D01*
G01X27812890Y4376250D02*
Y4058750D01*
X27970370D01*
G01X28108160D02*
X28206590Y4376250D01*
X28305020Y4058750D01*
G01X28269580Y4169870D02*
X28143590D01*
G01X28521550Y4376250D02*
Y4058750D01*
G01X28431000Y4376250D02*
X28612100D01*
G01X28915250Y4058750D02*
X28757770D01*
Y4376250D01*
X28915250D01*
G01X28852260Y4222800D02*
X28757770D01*
G01X29064860Y4058750D02*
Y4376250D01*
X29143590D01*
X29175090Y4360370D01*
X29198710Y4339210D01*
X29218400Y4307460D01*
X29234150Y4270410D01*
X29238080Y4217500D01*
X29234150Y4164580D01*
X29218400Y4127540D01*
X29198710Y4095780D01*
X29175090Y4074620D01*
X29143590Y4058750D01*
X29064860D01*
G01X27497930Y4693750D02*
Y5011250D01*
X27592420D01*
X27623910Y4995370D01*
X27647540Y4958330D01*
X27655410Y4916000D01*
X27647540Y4873670D01*
X27627850Y4841910D01*
X27592420Y4826030D01*
X27497930D01*
G01X27812890Y5011250D02*
Y4693750D01*
X27970370D01*
G01X28108160D02*
X28206590Y5011250D01*
X28305020Y4693750D01*
G01X28269580Y4804870D02*
X28143590D01*
G01X28521550Y5011250D02*
Y4693750D01*
G01X28431000Y5011250D02*
X28612100D01*
G01X28915250Y4693750D02*
X28757770D01*
Y5011250D01*
X28915250D01*
G01X28852260Y4857800D02*
X28757770D01*
G01X29064860Y4693750D02*
Y5011250D01*
X29143590D01*
X29175090Y4995370D01*
X29198710Y4974210D01*
X29218400Y4942460D01*
X29234150Y4905410D01*
X29238080Y4852500D01*
X29234150Y4799580D01*
X29218400Y4762540D01*
X29198710Y4730780D01*
X29175090Y4709620D01*
X29143590Y4693750D01*
X29064860D01*
G01X27497930Y5328750D02*
Y5646250D01*
X27592420D01*
X27623910Y5630370D01*
X27647540Y5593330D01*
X27655410Y5551000D01*
X27647540Y5508670D01*
X27627850Y5476910D01*
X27592420Y5461030D01*
X27497930D01*
G01X27812890Y5646250D02*
Y5328750D01*
X27970370D01*
G01X28108160D02*
X28206590Y5646250D01*
X28305020Y5328750D01*
G01X28269580Y5439870D02*
X28143590D01*
G01X28521550Y5646250D02*
Y5328750D01*
G01X28431000Y5646250D02*
X28612100D01*
G01X28915250Y5328750D02*
X28757770D01*
Y5646250D01*
X28915250D01*
G01X28852260Y5492800D02*
X28757770D01*
G01X29064860Y5328750D02*
Y5646250D01*
X29143590D01*
X29175090Y5630370D01*
X29198710Y5609210D01*
X29218400Y5577460D01*
X29234150Y5540410D01*
X29238080Y5487500D01*
X29234150Y5434580D01*
X29218400Y5397540D01*
X29198710Y5365780D01*
X29175090Y5344620D01*
X29143590Y5328750D01*
X29064860D01*
G01X29978240Y5805000D02*
Y90000D01*
G01X30694770Y-386250D02*
Y-68750D01*
X30549100Y-296290D01*
X30745960D01*
G01X30895560Y-349220D02*
X30923120Y-375670D01*
X30954610Y-386250D01*
X30986110Y-375670D01*
X31013670Y-343930D01*
X31033360Y-296290D01*
X31041230Y-248670D01*
Y-190460D01*
X31033360Y-142840D01*
X31013670Y-100500D01*
X30990050Y-79330D01*
X30962490Y-68750D01*
X30930990Y-79330D01*
X30907370Y-100500D01*
X30891620Y-132250D01*
X30883750Y-174590D01*
X30891620Y-211620D01*
X30911310Y-248670D01*
X30934930Y-269840D01*
X30962490Y-275130D01*
X30993980Y-264550D01*
X31017610Y-238090D01*
X31041230Y-190460D01*
G01X31210520Y-349220D02*
X31238080Y-375670D01*
X31269570Y-386250D01*
X31301070Y-375670D01*
X31328630Y-343930D01*
X31348320Y-296290D01*
X31356190Y-248670D01*
Y-190460D01*
X31348320Y-142840D01*
X31328630Y-100500D01*
X31305010Y-79330D01*
X31277450Y-68750D01*
X31245950Y-79330D01*
X31222330Y-100500D01*
X31206580Y-132250D01*
X31198710Y-174590D01*
X31206580Y-211620D01*
X31226270Y-248670D01*
X31249890Y-269840D01*
X31277450Y-275130D01*
X31308940Y-264550D01*
X31332570Y-238090D01*
X31356190Y-190460D01*
G01X30694770Y4693750D02*
Y5011250D01*
X30549100Y4783710D01*
X30745960D01*
G01X30962490Y4693750D02*
Y5011250D01*
X30915250Y4947750D01*
G01Y4693750D02*
X31009730D01*
G01X31277450D02*
X31305010Y4699040D01*
X31336500Y4714910D01*
X31356190Y4741360D01*
X31364060Y4778420D01*
X31356190Y4815450D01*
X31332570Y4847200D01*
X31297130Y4863090D01*
X31257770D01*
X31234140Y4873670D01*
X31214450Y4900120D01*
X31206580Y4937160D01*
X31218400Y4974210D01*
X31245950Y5000670D01*
X31277450Y5011250D01*
X31308940Y5000670D01*
X31336500Y4974210D01*
X31348320Y4937160D01*
X31340440Y4900120D01*
X31320760Y4873670D01*
X31297130Y4863090D01*
X31257770D01*
X31222330Y4847200D01*
X31198710Y4815450D01*
X31190840Y4778420D01*
X31198710Y4741360D01*
X31218400Y4714910D01*
X31249890Y4699040D01*
X31277450Y4693750D01*
G01X30647530Y5328750D02*
X30616030Y5334040D01*
X30588480Y5355200D01*
X30564850Y5386960D01*
X30549100Y5424000D01*
X30541230Y5466330D01*
Y5508670D01*
X30549100Y5551000D01*
X30564850Y5588040D01*
X30588480Y5619790D01*
X30616030Y5640960D01*
X30647530Y5646250D01*
X30679020Y5640960D01*
X30706580Y5619790D01*
X30730210Y5588040D01*
X30745960Y5551000D01*
X30753830Y5508670D01*
Y5466330D01*
X30745960Y5424000D01*
X30730210Y5386960D01*
X30706580Y5355200D01*
X30679020Y5334040D01*
X30647530Y5328750D01*
G01X30679020Y5413420D02*
X30726270Y5328750D01*
G01X30962490Y5646250D02*
Y5328750D01*
G01X30871940Y5646250D02*
X31053040D01*
G01X31277450Y5328750D02*
Y5471620D01*
X31198710Y5646250D01*
G01X31356190D02*
X31277450Y5471620D01*
G01X30887680Y513330D02*
X30911310Y545080D01*
X30938870Y560960D01*
X30970370Y566250D01*
X31009730Y555670D01*
X31037300Y529210D01*
X31045170Y497460D01*
X31041230Y465700D01*
X31025480Y439250D01*
X30946740Y386330D01*
X30911310Y349290D01*
X30887680Y296360D01*
X30879810Y248750D01*
X31045170D01*
G01X30962490Y883750D02*
Y1201250D01*
X30915250Y1137750D01*
G01Y883750D02*
X31009730D01*
G01X30805010Y1518750D02*
Y1836250D01*
X30757770Y1772750D01*
G01Y1518750D02*
X30852250D01*
G01X31045160Y1783330D02*
X31068790Y1815080D01*
X31096350Y1830960D01*
X31127850Y1836250D01*
X31167210Y1825670D01*
X31194780Y1799210D01*
X31202650Y1767460D01*
X31198710Y1735700D01*
X31182960Y1709250D01*
X31104220Y1656330D01*
X31068790Y1619290D01*
X31045160Y1566360D01*
X31037290Y1518750D01*
X31202650D01*
G01X31009730Y2153750D02*
Y2471250D01*
X30864060Y2243710D01*
X31060920D01*
G01X30730200Y3053330D02*
X30753830Y3085080D01*
X30781390Y3100960D01*
X30812890Y3106250D01*
X30852250Y3095670D01*
X30879820Y3069210D01*
X30887690Y3037460D01*
X30883750Y3005700D01*
X30868000Y2979250D01*
X30789260Y2926330D01*
X30753830Y2889290D01*
X30730200Y2836360D01*
X30722330Y2788750D01*
X30887690D01*
G01X31119970Y3106250D02*
X31088470Y3095670D01*
X31064850Y3069210D01*
X31049100Y3037460D01*
X31037290Y2995120D01*
X31033360Y2947500D01*
X31037290Y2899870D01*
X31049100Y2857540D01*
X31064850Y2825780D01*
X31088470Y2799330D01*
X31119970Y2788750D01*
X31151460Y2799330D01*
X31175090Y2825780D01*
X31190840Y2857540D01*
X31202650Y2899870D01*
X31206580Y2947500D01*
X31202650Y2995120D01*
X31190840Y3037460D01*
X31175090Y3069210D01*
X31151460Y3095670D01*
X31119970Y3106250D01*
G01X31009730Y3423750D02*
Y3741250D01*
X30864060Y3513710D01*
X31060920D01*
G01X30718400Y4122250D02*
X30742010Y4085200D01*
X30773510Y4064040D01*
X30808950Y4058750D01*
X30840450Y4064040D01*
X30871940Y4090490D01*
X30891620Y4122250D01*
X30895560Y4154000D01*
X30887690Y4191030D01*
X30860130Y4217500D01*
X30832570Y4228090D01*
X30797130D01*
G01X30832570D02*
X30856190Y4243960D01*
X30875880Y4270410D01*
X30883750Y4302160D01*
X30875880Y4333920D01*
X30856190Y4360370D01*
X30820760Y4376250D01*
X30785330Y4370960D01*
X30749890Y4349790D01*
G01X31119970Y4058750D02*
X31147530Y4064040D01*
X31179020Y4079910D01*
X31198710Y4106360D01*
X31206580Y4143420D01*
X31198710Y4180450D01*
X31175090Y4212200D01*
X31139650Y4228090D01*
X31100290D01*
X31076660Y4238670D01*
X31056970Y4265120D01*
X31049100Y4302160D01*
X31060920Y4339210D01*
X31088470Y4365670D01*
X31119970Y4376250D01*
X31151460Y4365670D01*
X31179020Y4339210D01*
X31190840Y4302160D01*
X31182960Y4265120D01*
X31163280Y4238670D01*
X31139650Y4228090D01*
X31100290D01*
X31064850Y4212200D01*
X31041230Y4180450D01*
X31033360Y4143420D01*
X31041230Y4106360D01*
X31060920Y4079910D01*
X31092410Y4064040D01*
X31119970Y4058750D01*
G54D11*
X380000Y5288000D03*
Y5542000D03*
Y5796000D03*
Y6050000D03*
Y6488000D03*
Y6742000D03*
Y7250000D03*
Y6996000D03*
X1800000Y7490000D03*
Y8760000D03*
Y8506000D03*
X2562000Y7490000D03*
Y8760000D03*
Y8506000D03*
X6630000Y7490000D03*
Y8760000D03*
Y8506000D03*
X7392000Y7490000D03*
Y8760000D03*
Y8506000D03*
X17261730Y2947500D03*
G54D12*
X1020000Y4037360D03*
X1520000D03*
X2620000Y2168200D03*
Y2676200D03*
Y2422200D03*
Y3184200D03*
Y2930200D03*
Y3692200D03*
Y3438200D03*
Y4200200D03*
Y3946200D03*
Y4708200D03*
Y4454200D03*
Y5216200D03*
Y4962200D03*
Y5724200D03*
Y5470200D03*
Y6232200D03*
Y5978200D03*
X2874000Y2168200D03*
Y2676200D03*
Y2422200D03*
Y3184200D03*
Y2930200D03*
Y3692200D03*
Y3438200D03*
Y4200200D03*
Y3946200D03*
Y4708200D03*
Y4454200D03*
Y5216200D03*
Y4962200D03*
Y5724200D03*
Y5470200D03*
Y6232200D03*
Y5978200D03*
X10590000Y7420000D03*
Y7920000D03*
X17261730Y4217500D03*
G54D13*
X3299000Y8241200D03*
X4061000D03*
X5139000D03*
X5901000D03*
X17261730Y2312500D03*
G54D14*
X11000000Y8070000D03*
X17261730Y1042500D03*
G54D15*
X11480000Y7790000D03*
Y8390000D03*
X17261730Y407500D03*
G54D16*
X13075000Y2270000D03*
Y2770000D03*
Y4247350D03*
Y4747350D03*
Y5600000D03*
Y6100000D03*
X14325000Y2270000D03*
Y2770000D03*
Y4247350D03*
Y4747350D03*
Y5600000D03*
Y6100000D03*
X17261730Y1677500D03*
G54D17*
X12975000Y8450000D03*
X13225000D03*
X13475000D03*
X13725000D03*
X17261730Y3582500D03*
G54D18*
G01X480000Y320000D02*
G03I-160000J0D01*
G01X0Y0D02*
X15000000D01*
Y9000000D01*
X0D01*
Y0D01*
G01X480000Y950000D02*
G03I-160000J0D01*
G01Y8050000D02*
G03I-160000J0D01*
G01Y8680000D02*
G03I-160000J0D01*
G01X7660000Y320000D02*
G03I-160000J0D01*
G01X9310000Y8680000D02*
G03I-160000J0D01*
G01X13790000Y2070000D02*
G03I-90000J0D01*
G01Y2970000D02*
G03I-90000J0D01*
G01Y4047350D02*
G03I-90000J0D01*
G01Y4947350D02*
G03I-90000J0D01*
G01Y5400000D02*
G03I-90000J0D01*
G01Y6300000D02*
G03I-90000J0D01*
G01X14840000Y320000D02*
G03I-160000J0D01*
G01Y950000D02*
G03I-160000J0D01*
G01Y8050000D02*
G03I-160000J0D01*
G01Y8680000D02*
G03I-160000J0D01*
G54D19*
G01X10489000Y1964200D02*
G03I-160000J0D01*
G01Y6422200D02*
G03I-160000J0D01*
G01X11847000Y1749200D02*
G03I-160000J0D01*
G01Y6613200D02*
G03I-160000J0D01*
M02*
