M48
METRIC,TZ
T01C.3048
T02C.9
T03C1.
T04C1.1
T05C1.2
T06C1.3
;LEADER: 12 
;HEADER: 
;CODE  : ASCII 
;FILE  : F103_LIQUID_V10A-1-2.drl for board H:/2019-Graduation-Project/HARDWARE/F103_LIQUID_V10A/PCB/#Taaaaey04536.tmp ... layers TOP and BOTTOM
;T01 Holesize 1. = 0.304800 Tolerance = +0.000000/-0.000000 PLATED MM Quantity = 418
;T02 Holesize 2. = 0.900000 Tolerance = +0.000000/-0.000000 PLATED MM Quantity = 38
;T03 Holesize 3. = 1.000000 Tolerance = +0.000000/-0.000000 PLATED MM Quantity = 4
;T04 Holesize 4. = 1.100000 Tolerance = +0.000000/-0.000000 PLATED MM Quantity = 20
;T05 Holesize 5. = 1.200000 Tolerance = +0.000000/-0.000000 PLATED MM Quantity = 4
;T06 Holesize 6. = 1.300000 Tolerance = +0.000000/-0.000000 PLATED MM Quantity = 12
%
G90
T01
X1095430Y179130
X1095430Y679130
X1595430Y179130
X1595430Y679130
X2095430Y179130
X2095430Y679130
X2595430Y179130
X2595430Y679130
X3095430Y179130
X3095430Y679130
X3595430Y179130
X3595430Y679130
X4095430Y179130
X4095430Y679130
X4595430Y179130
X4595430Y679130
X5095430Y179130
X5095430Y679130
X5595430Y179130
X5595430Y679130
X6095430Y179130
X6095430Y679130
X6595430Y179130
X6595430Y679130
X7928690Y212800
X7928690Y712800
X8428690Y212800
X8428690Y712800
X8928690Y212800
X8928690Y712800
X9428690Y212800
X9428690Y712800
X9928690Y212800
X9928690Y712800
X10428690Y212800
X10428690Y712800
X10928690Y212800
X10928690Y712800
X11428690Y212800
X11428690Y712800
X11928690Y212800
X11928690Y712800
X12428690Y212800
X12428690Y712800
X12928690Y212800
X12928690Y712800
X13428690Y212800
X13428690Y712800
X13928690Y212800
X13928690Y712800
X14907410Y2086990
X14069040Y1789960
X14069040Y1289960
X13569040Y1789960
X13569040Y1289960
X13069040Y1789960
X13069040Y1289960
X12569040Y1789960
X12569040Y1289960
X12170000Y2490000
X12069040Y1789960
X12069040Y1289960
X11530000Y2250000
X11530000Y2130000
X11390000Y2250000
X11390000Y2130000
X10820000Y2240000
X10820000Y2120000
X10740000Y2240000
X10740000Y2120000
X9844250Y1824590
X9344250Y1824590
X8844250Y1824590
X8344250Y1824590
X7844250Y1824590
X6394250Y1814590
X6384250Y2174590
X5894250Y1814590
X5884250Y2174590
X5394250Y1814590
X5384250Y2174590
X4894250Y1814590
X4884250Y2174590
X4394250Y1814590
X4384250Y2174590
X1347900Y2216340
X1347900Y1716340
X472710Y2514370
X472710Y2014370
X472710Y1514370
X564250Y3544590
X770000Y2940000
X1064250Y3544590
X1564250Y3544590
X4394250Y3434590
X4404250Y2874590
X4894250Y3434590
X4904250Y2874590
X5394250Y3434590
X5404250Y2874590
X5894250Y3434590
X5904250Y2874590
X6394250Y3434590
X6404250Y2874590
X7579040Y2849960
X7600000Y3010200
X7600000Y3090200
X7600000Y3170200
X7600000Y3250200
X7599040Y3409960
X7599040Y3599960
X7700200Y3410200
X8079040Y2849960
X8950000Y3010200
X8950000Y3090200
X8950000Y3170200
X8949800Y3250200
X8950000Y3490200
X8950000Y3570200
X8950000Y3650200
X8950000Y3730200
X8959040Y2699960
X8959040Y2889960
X9459040Y2699960
X9459040Y2889960
X10090000Y3600000
X10090000Y3770000
X10310000Y3600000
X10510000Y2570000
X10510000Y2940000
X10510000Y3250000
X10520000Y3600000
X10520000Y3780000
X10796200Y2840000
X10820000Y3600000
X11940000Y3320000
X12170000Y2670000
X12422490Y3309640
X12922490Y3309640
X13422490Y3309640
X13922490Y3309640
X14907410Y2586990
X14907410Y3086990
X14907410Y4646990
X14907410Y4146990
X14193010Y4497410
X13693010Y4497410
X13382490Y4009640
X13193010Y4497410
X12882490Y4009640
X12382490Y4009640
X12190000Y4820000
X12190000Y4500000
X12190000Y4420000
X12190000Y4340000
X12090000Y4500000
X12090000Y4420000
X12090000Y4340000
X11956200Y4973800
X11770000Y3850000
X11690000Y5070000
X11690000Y4490000
X11380000Y4770000
X11380000Y4610000
X11250000Y4610000
X11165980Y4610000
X11092320Y4610000
X11030000Y5040000
X11030000Y4966340
X11030000Y4892680
X11030000Y4819020
X11030000Y4745360
X11018660Y4610000
X10945000Y4610000
X10850000Y4610000
X10645000Y4610000
X10570000Y4970000
X10520000Y3940000
X10480000Y4220000
X10385000Y4505000
X10260000Y4120000
X10240000Y4520000
X10090000Y4120000
X10090000Y3940000
X10070000Y4520000
X9570000Y4550000
X9450000Y4440000
X9060000Y5070000
X9060000Y4690200
X8949040Y4059960
X8949040Y3869960
X8520000Y5010200
X8520000Y4930200
X8520000Y4850200
X8520000Y4610000
X8449040Y4059960
X8449040Y3869960
X6904250Y4544590
X6404250Y4544590
X6394250Y4044590
X5904250Y4544590
X5894250Y4044590
X5404250Y4544590
X5394250Y4044590
X4904250Y4544590
X4894250Y4044590
X4394250Y4044590
X1691510Y5032670
X1691510Y4532670
X1191510Y5032670
X1191510Y4532670
X691510Y5032670
X691510Y4532670
X770050Y5710820
X770050Y6210820
X1270050Y5710820
X1270050Y6210820
X1770050Y5710820
X1770050Y6210820
X4153010Y5587410
X4153010Y6087410
X4653010Y5587410
X4653010Y6087410
X5153010Y5587410
X5153010Y6087410
X5653010Y5587410
X5653010Y6087410
X6153010Y5587410
X6153010Y6087410
X6653010Y5587410
X6653010Y6087410
X7610000Y5730200
X7610000Y5810200
X7610000Y5890200
X7700200Y5529800
X8280000Y5410000
X8409040Y5449960
X8409040Y5639960
X8520000Y5090200
X8520000Y5170200
X8520000Y5250200
X8520000Y5330200
X9400000Y6289020
X9450000Y5220000
X9489040Y5519960
X9489040Y5709960
X9500000Y6210000
X9570000Y5100000
X9740000Y5100000
X10100000Y5710000
X10110000Y5530000
X10220000Y5430000
X10480000Y5710000
X10480000Y5880000
X10490000Y5540000
X11593010Y6267410
X11603010Y6017410
X11690000Y5230000
X11691000Y5549000
X12453010Y6277410
X12463010Y6027410
X12483010Y5687410
X12487410Y5186990
X12487410Y5426990
X12693010Y6277410
X12703010Y6027410
X12723010Y5687410
X12907410Y5186990
X12907410Y5426990
X13223010Y5177410
X13383010Y6267410
X13393010Y6017410
X13723010Y5177410
X14033010Y6267410
X14043010Y6017410
X14223010Y5177410
X14907410Y5146990
X14907410Y7546990
X14907410Y7046990
X14907410Y6546990
X14447410Y7206990
X14447410Y7026990
X14356990Y7342590
X14256990Y7502590
X14176990Y7342590
X14076990Y7502590
X13890000Y6890000
X13890000Y6810000
X13890000Y6730000
X13810000Y6890000
X13810000Y6810000
X13810000Y6730000
X13730000Y6890000
X13730000Y6810000
X13730000Y6730000
X13650000Y7520000
X13560000Y7470000
X13320000Y7550000
X12883010Y7297410
X12883010Y7117410
X12703010Y7117410
X12693010Y7547410
X12453010Y7547410
X12443010Y7297410
X12443010Y7117410
X12203010Y7297410
X12193010Y7547410
X11953010Y7547410
X11943010Y7297410
X11703010Y7297410
X9400000Y6510000
X9400000Y6436340
X9400000Y6362680
X8583010Y6437410
X8573010Y6637410
X8530000Y7010000
X8530000Y6936340
X8530000Y6862680
X8530000Y6789020
X8083010Y6437410
X8073010Y6637410
X7880000Y6780000
X7880000Y6710000
X7880000Y6640000
X7880000Y6570000
X7810000Y6640000
X7810000Y6570000
X6713010Y7117410
X6213010Y7117410
X5713010Y7117410
X5213010Y7117410
X4713010Y7117410
X4213010Y7117410
X3388400Y6828990
X3363010Y7117410
X2888400Y6828990
X2863010Y7117410
X2388400Y6828990
X2363010Y7117410
X1888400Y6828990
X1863010Y7117410
X1388400Y6828990
X943970Y7219990
X943970Y7719990
X943970Y8219990
X1270000Y8380000
X1277410Y7726990
X1277410Y8226990
X1430000Y7720000
X2883010Y7847410
X2903010Y8507410
X3110000Y7850000
X3130000Y8510000
X3383010Y7847410
X3403010Y8507410
X3643010Y7847410
X3663010Y8507410
X3883010Y7847410
X4143010Y7847410
X4373010Y8207410
X4383010Y7847410
X4383010Y8537410
X4393010Y8827410
X4633010Y8207410
X4643010Y7847410
X4643010Y8537410
X4653010Y8827410
X4873010Y8207410
X4883010Y7847410
X4883010Y8537410
X4893010Y8827410
X5143010Y7847410
X5383010Y7847410
X5643010Y7847410
X6143010Y7847410
X7693010Y8817410
X8193010Y8817410
X8483010Y8127410
X8693010Y8817410
X8983010Y8127410
X9483010Y8127410
X9663010Y7777410
X9903010Y7777410
X9923010Y8097410
X9943010Y8827410
X10163010Y7777410
X10163010Y8097410
X10183010Y8317410
X10403010Y7777410
X10423010Y8097410
X10423010Y8317410
X10423010Y8507410
X10443010Y8827410
X10663010Y8097410
X10663010Y8507410
X10683010Y8317410
X10923010Y8317410
X10923010Y8507410
X10943010Y8827410
X11163010Y8507410
X11493010Y8817410
X11993010Y8817410
X12193010Y7717410
X12453010Y7717410
X12493010Y8817410
X13133010Y8807410
X13200000Y8110000
X13320000Y7640000
X13320000Y7720000
X13370000Y8110000
X13540000Y7920000
X13540000Y8110000
X13560000Y7640000
X13633010Y8807410
X13950000Y7810000
X13956990Y7642590
X14133010Y8807410
X14136990Y7642590
T02
X2620000Y2168200
X2874000Y2168200
X2874000Y2422200
X2620000Y2422200
X2620000Y2676200
X2874000Y2676200
X2874000Y2930200
X2620000Y2930200
X2620000Y3184200
X2874000Y3184200
X2874000Y3438200
X2620000Y3438200
X2620000Y3692200
X2874000Y3692200
X2874000Y3946200
X2620000Y3946200
X1520000Y4037360
X1020000Y4037360
X2620000Y4200200
X2874000Y4200200
X2874000Y4454200
X2620000Y4454200
X2620000Y4708200
X2874000Y4708200
X2874000Y4962200
X2620000Y4962200
X2620000Y5216200
X2874000Y5216200
X2874000Y5470200
X2620000Y5470200
X2620000Y5724200
X2874000Y5724200
X2874000Y5978200
X2620000Y5978200
X2620000Y6232200
X2874000Y6232200
X10590000Y7420000
X10590000Y7920000
T03
X12975000Y8450000
X13225000Y8450000
X13475000Y8450000
X13725000Y8450000
T04
X380000Y5288000
X380000Y5542000
X380000Y5796000
X380000Y6050000
X380000Y6488000
X380000Y6742000
X380000Y6996000
X380000Y7250000
X1800000Y7490000
X1800000Y8506000
X1800000Y8760000
X2562000Y8760000
X2562000Y8506000
X2562000Y7490000
X6630000Y7490000
X6630000Y8506000
X6630000Y8760000
X7392000Y8760000
X7392000Y8506000
X7392000Y7490000
T05
X3299000Y8241200
X4061000Y8241200
X5139000Y8241200
X5901000Y8241200
T06
X13075000Y2270000
X13075000Y2770000
X13075000Y4247350
X13075000Y4747350
X13075000Y5600000
X13075000Y6100000
X14325000Y6100000
X14325000Y5600000
X14325000Y4747350
X14325000Y4247350
X14325000Y2770000
X14325000Y2270000
M30
