G04 ================== begin FILE IDENTIFICATION RECORD ==================*
G04 Layout Name:  F103_LIQUID_V10A.brd*
G04 Film Name:    PasteMask_Top*
G04 File Format:  Gerber RS274X*
G04 File Origin:  Cadence Allegro 17.2-S045*
G04 Origin Date:  Sat Mar 09 18:29:50 2019*
G04 *
G04 Layer:  BOARD GEOMETRY/OUTLINE*
G04 Layer:  PIN/PASTEMASK_TOP*
G04 Layer:  PACKAGE GEOMETRY/PASTEMASK_TOP*
G04 *
G04 Offset:    (0.0000 0.0000)*
G04 Mirror:    No*
G04 Mode:      Positive*
G04 Rotation:  0*
G04 FullContactRelief:  No*
G04 UndefLineWidth:     0.1524*
G04 ================== end FILE IDENTIFICATION RECORD ====================*
%FSLAX55Y55*MOMM*%
%IR0*IPPOS*OFA0.00000B0.00000*MIA0B0*SFA1.00000B1.00000*%
%ADD20R,.3X1.2*%
%ADD19R,1.2X.3*%
%ADD17R,.5X2.*%
%ADD27R,1.1X.6*%
%ADD16R,4.X.4*%
%ADD18R,.7X1.1*%
%ADD23R,1.5X.6*%
%ADD22R,1.6X.6*%
%ADD21R,1.55X.3*%
%ADD11R,.8X1.4*%
%ADD10R,.9X1.3*%
%ADD29C,.75*%
%ADD13R,.5X.5*%
%ADD12R,.8X.8*%
%ADD15R,1.X1.2*%
%ADD28R,2.X2.4*%
%ADD24R,5.X5.*%
%ADD25R,1.5X1.4*%
%ADD14R,.4X.5*%
%ADD26R,2.1X5.7*%
%ADD30C,.1*%
%ADD31C,.2*%
G75*
%LPD*%
G75*
G54D10*
X1152000Y2630000D03*
X952000D03*
X1152000Y3139430D03*
X952000D03*
X1152000Y2940000D03*
X952000D03*
G54D11*
X1115000Y8080000D03*
X1465000D03*
X8115000Y8090000D03*
X7765000D03*
X12675000Y7400000D03*
X13025000D03*
G54D20*
X10695000Y4365000D03*
X10645000D03*
X10595000D03*
Y5535000D03*
X10645000D03*
X10695000D03*
X11195000Y4365000D03*
X11145000D03*
X11095000D03*
X11045000D03*
X10995000D03*
X10945000D03*
X10895000D03*
X10845000D03*
X10795000D03*
X10745000D03*
Y5535000D03*
X10795000D03*
X10845000D03*
X10895000D03*
X10945000D03*
X10995000D03*
X11045000D03*
X11095000D03*
X11145000D03*
X11195000D03*
X11345000Y4365000D03*
X11295000D03*
X11245000D03*
Y5535000D03*
X11295000D03*
X11345000D03*
G54D30*
G01X480000Y320000D02*
G03I-160000J0D01*
G01X0Y0D02*
X15000000D01*
Y9000000D01*
X0D01*
Y0D01*
G01X480000Y950000D02*
G03I-160000J0D01*
G01Y8050000D02*
G03I-160000J0D01*
G01Y8680000D02*
G03I-160000J0D01*
G01X7660000Y320000D02*
G03I-160000J0D01*
G01X9310000Y8680000D02*
G03I-160000J0D01*
G01X13790000Y2070000D02*
G03I-90000J0D01*
G01Y2970000D02*
G03I-90000J0D01*
G01Y4047350D02*
G03I-90000J0D01*
G01Y4947350D02*
G03I-90000J0D01*
G01Y5400000D02*
G03I-90000J0D01*
G01Y6300000D02*
G03I-90000J0D01*
G01X14840000Y320000D02*
G03I-160000J0D01*
G01Y950000D02*
G03I-160000J0D01*
G01Y8050000D02*
G03I-160000J0D01*
G01Y8680000D02*
G03I-160000J0D01*
G54D12*
X1115000Y7850000D03*
X1267400D03*
X1526200Y2630000D03*
X1373800D03*
X1526200Y2940000D03*
X1373800D03*
X1526200Y3139430D03*
X1373800D03*
X2033800Y3870000D03*
X2186200D03*
X7676200Y6570000D03*
X7523800D03*
X7733800Y7890000D03*
X7886200D03*
X10233800Y2690000D03*
Y2550000D03*
Y3110000D03*
Y3250000D03*
Y2970000D03*
Y2830000D03*
Y3390000D03*
X10213800Y4220000D03*
Y4390000D03*
Y5535000D03*
Y5710000D03*
Y5880000D03*
X10386200Y2690000D03*
Y2550000D03*
Y3110000D03*
Y3250000D03*
Y2970000D03*
Y2830000D03*
X10643800Y2945220D03*
X10386200Y3390000D03*
X10630000Y3693800D03*
X10366200Y4220000D03*
X10630000Y3846200D03*
X10366200Y4390000D03*
Y5535000D03*
Y5710000D03*
Y5880000D03*
X11186200Y3110000D03*
X11033800D03*
X10796200Y2945220D03*
X10770000Y3693800D03*
Y3846200D03*
X11513800Y3693800D03*
X11666200D03*
X11370000D03*
X11513800Y3846200D03*
X11666200D03*
X11370000D03*
X12056200Y2670000D03*
X11903800D03*
X12056200Y2520220D03*
X11903800D03*
X11873800Y4220000D03*
X12026200D03*
X12203800D03*
X11803800Y5070000D03*
X11956200D03*
Y5230000D03*
X11803800D03*
X11956200Y5549000D03*
X11803800D03*
X11956200Y5390000D03*
X11803800D03*
X12522600Y4220000D03*
X12675000D03*
X12356200D03*
X12926200Y7643990D03*
X12773800D03*
X13673800Y7620000D03*
X13396200Y7380000D03*
X13243800D03*
X13673800Y7763990D03*
Y7910000D03*
X13243800D03*
X13396200D03*
X14003800Y6850000D03*
X14156200D03*
X13826200Y7620000D03*
Y7763990D03*
Y7910000D03*
G54D21*
X11090000Y2490220D03*
Y2555220D03*
Y2620220D03*
Y2685220D03*
Y2750220D03*
Y2815220D03*
Y2880220D03*
Y2945220D03*
X11650000Y2750220D03*
Y2685220D03*
Y2620220D03*
Y2555220D03*
Y2490220D03*
Y2945220D03*
Y2880220D03*
Y2815220D03*
G54D31*
G01X10489000Y1964200D02*
G03I-160000J0D01*
G01Y6422200D02*
G03I-160000J0D01*
G01X11847000Y1749200D02*
G03I-160000J0D01*
G01Y6613200D02*
G03I-160000J0D01*
G54D13*
X1465000Y7900000D03*
X2110000Y4020000D03*
X8100000Y7940000D03*
G54D22*
X11885000Y4429500D03*
Y4556500D03*
Y4683500D03*
Y4810500D03*
X12675000Y4683500D03*
Y4556500D03*
Y4429500D03*
Y4810500D03*
G54D14*
X1505000Y7800000D03*
X1425000D03*
X2070000Y4120000D03*
X2150000D03*
X8140000Y7840000D03*
X8060000D03*
G54D23*
X12140000Y5070000D03*
Y5197000D03*
Y5324000D03*
Y5451000D03*
X12680000Y5197000D03*
Y5070000D03*
Y5451000D03*
Y5324000D03*
G54D24*
X12295000Y8060000D03*
G54D15*
X7701600Y6740000D03*
X7498400D03*
G54D25*
X12196000Y8445000D03*
X12404000D03*
G54D16*
X7980000Y3250200D03*
Y3170200D03*
Y3090200D03*
Y3010200D03*
Y3730200D03*
Y3650200D03*
Y3570200D03*
Y3490200D03*
Y3410200D03*
Y3330200D03*
Y4210200D03*
Y4130200D03*
Y4050200D03*
Y3970200D03*
Y3890200D03*
Y3810200D03*
Y4690200D03*
Y4610200D03*
Y4530200D03*
Y4450200D03*
Y4370200D03*
Y4290200D03*
Y5250200D03*
Y5170200D03*
Y5090200D03*
Y5010200D03*
Y4930200D03*
Y4850200D03*
Y4770200D03*
Y5730200D03*
Y5650200D03*
Y5570200D03*
Y5490200D03*
Y5410200D03*
Y5330200D03*
Y5890200D03*
Y5810200D03*
G54D26*
X13075000Y6970000D03*
X13565000D03*
G54D17*
X10190000Y3770000D03*
X10310000D03*
X10430000D03*
G54D18*
X10620000Y3130000D03*
X10720000Y3370000D03*
X10820000Y3130000D03*
G54D27*
X13190000Y7643990D03*
Y7548990D03*
Y7738990D03*
X13450000D03*
Y7643990D03*
Y7548990D03*
G54D28*
X14241400Y7120000D03*
X13918500D03*
G54D19*
X10385000Y4575000D03*
Y4625000D03*
Y4675000D03*
Y4725000D03*
Y4775000D03*
Y4825000D03*
Y4875000D03*
Y4925000D03*
Y4975000D03*
Y5025000D03*
Y5075000D03*
Y5125000D03*
Y5175000D03*
Y5225000D03*
Y5275000D03*
Y5325000D03*
X11555000Y4725000D03*
Y4675000D03*
Y4625000D03*
Y4575000D03*
Y5225000D03*
Y5175000D03*
Y5125000D03*
Y5075000D03*
Y5025000D03*
Y4975000D03*
Y4925000D03*
Y4875000D03*
Y4825000D03*
Y4775000D03*
Y5325000D03*
Y5275000D03*
G54D29*
X13918500Y7400000D03*
M02*
