G04 ================== begin FILE IDENTIFICATION RECORD ==================*
G04 Layout Name:  F103_LIQUID_V10A.brd*
G04 Film Name:    TOP*
G04 File Format:  Gerber RS274X*
G04 File Origin:  Cadence Allegro 17.2-S045*
G04 Origin Date:  Sat Mar 09 18:29:50 2019*
G04 *
G04 Layer:  BOARD GEOMETRY/OUTLINE*
G04 Layer:  VIA CLASS/TOP*
G04 Layer:  PIN/TOP*
G04 Layer:  ETCH/TOP*
G04 *
G04 Offset:    (0.0000 0.0000)*
G04 Mirror:    No*
G04 Mode:      Positive*
G04 Rotation:  0*
G04 FullContactRelief:  No*
G04 UndefLineWidth:     0.1524*
G04 ================== end FILE IDENTIFICATION RECORD ====================*
%FSLAX55Y55*MOMM*%
%IR0*IPPOS*OFA0.00000B0.00000*MIA0B0*SFA1.00000B1.00000*%
%ADD25R,.3X1.2*%
%ADD24R,1.2X.3*%
%ADD23R,.6X1.*%
%ADD22R,.5X2.*%
%ADD35R,1.1X.6*%
%ADD21R,4.X.4*%
%ADD30R,1.5X.6*%
%ADD29R,1.6X.6*%
%ADD26R,1.55X.3*%
%ADD14R,.8X1.4*%
%ADD13R,.9X1.3*%
%ADD39C,.75*%
%ADD17R,.5X.5*%
%ADD15R,.8X.8*%
%ADD10C,.6096*%
%ADD28O,4.X2.*%
%ADD27O,2.X4.*%
%ADD20R,1.X1.2*%
%ADD38R,2.X2.4*%
%ADD31R,5.X5.*%
%ADD32R,1.5X1.4*%
%ADD18R,.4X.5*%
%ADD34R,2.X5.7*%
%ADD33C,2.*%
%ADD19C,2.2*%
%ADD16C,1.7*%
%ADD11C,1.8*%
%ADD36C,1.65*%
%ADD12R,1.9X1.9*%
%ADD37R,1.65X1.65*%
%ADD40C,.1*%
%ADD41C,.2*%
%ADD42C,.4*%
%ADD43C,.2032*%
%ADD44C,.254*%
%ADD45C,.508*%
%ADD49R,1.6X.4*%
%ADD47C,2.0004*%
%ADD48C,3.0164*%
%ADD46C,5.0362*%
G75*
%LPD*%
G75*
G36*
G01X14638110Y7740000D02*
X14970000D01*
Y1270000D01*
X14350000D01*
Y30000D01*
X7820000D01*
Y640000D01*
X7190000D01*
Y30000D01*
X650000D01*
Y1280000D01*
X30000D01*
Y3271890D01*
G02X64690Y3286260I20321J1D01*
G01X266850Y3084100D01*
X829650D01*
X861260Y3054570D01*
G02Y3024870I-13871J-14850D01*
G01X830230Y2995900D01*
X821950D01*
X819110Y2998290D01*
G03X770000Y3016220I-49110J-58291D01*
G03Y2863780I0J-76220D01*
G03X819110Y2881710I0J76221D01*
G01X821950Y2884100D01*
X830230D01*
X875780Y2841570D01*
G03X907000Y2829260I31220J33434D01*
G01X997000D01*
G03X1035080Y2849660I0J45741D01*
G02X1068920I16920J-11251D01*
G03X1107000Y2829260I38080J25341D01*
G01X1197000D01*
G03X1228220Y2841570I0J45744D01*
G01X1273770Y2884100D01*
X1282950D01*
X1303320Y2865890D01*
G03X1333800Y2854260I30475J34112D01*
G01X1413800D01*
G03X1428300Y2856620I-2J45740D01*
G02X1455060Y2837350I6440J-19272D01*
G01Y2732650D01*
G02X1428300Y2713380I-20320J2D01*
G03X1413800Y2715740I-14502J-43380D01*
G01X1333800D01*
G03X1303320Y2704110I-5J-45742D01*
G01X1282950Y2685900D01*
X1273770D01*
X1228220Y2728430D01*
G03X1197000Y2740740I-31220J-33434D01*
G01X1107000D01*
G03X1061260Y2695000I0J-45740D01*
G01Y2565000D01*
G03X1107000Y2519260I45740J0D01*
G01X1197000D01*
G03X1228220Y2531570I0J45744D01*
G01X1273770Y2574100D01*
X1282950D01*
X1303320Y2555890D01*
G03X1333800Y2544260I30475J34112D01*
G01X1413800D01*
G03X1443420Y2555150I0J45727D01*
G02X1456580I6580J-7745D01*
G03X1486200Y2544260I29620J34837D01*
G01X1566200D01*
G03X1611940Y2590000I0J45740D01*
G01Y2670000D01*
G03X1601670Y2698880I-45741J0D01*
G01X1597340Y2704200D01*
Y2865800D01*
X1601670Y2871120D01*
G03X1611940Y2900000I-35471J28880D01*
G01Y2980000D01*
G03X1601670Y3008880I-45741J0D01*
G01X1597340Y3014200D01*
Y3058860D01*
X1969470D01*
X2104940Y3194330D01*
Y3767350D01*
G02X2131700Y3786620I20320J-2D01*
G03X2146200Y3784260I14502J43380D01*
G01X2226200D01*
G03X2271940Y3830000I0J45740D01*
G01Y3910000D01*
G03X2261670Y3938880I-45741J0D01*
G01X2257340Y3944200D01*
Y3973270D01*
X2199430Y4031180D01*
G02X2200330Y4060760I14368J14367D01*
G03X2215740Y4095000I-30335J34240D01*
G01Y4145000D01*
G03X2184620Y4188340I-45739J0D01*
G01X2160780Y4196380D01*
X1991260Y4365900D01*
X233150D01*
X196540Y4402510D01*
Y5597350D01*
G02X231230Y5611720I20321J1D01*
G01X239180Y5603770D01*
Y5542000D01*
G03X293330Y5431010I140822J0D01*
G02Y5398990I-12512J-16010D01*
G03X239180Y5288000I86672J-110990D01*
G03X520820I140820J0D01*
G01Y5328210D01*
X591670Y5399060D01*
X2492000D01*
X2519070Y5372000D01*
X2519120Y5371950D01*
G03X2620000Y5329380I100880J98245D01*
G03X2760820Y5470200I0J140820D01*
G03X2706670Y5581190I-140822J0D01*
G02Y5613210I12512J16010D01*
G03X2730990Y5637530I-86670J110990D01*
G02X2763010I16010J-12512D01*
G03X2874000Y5583380I110990J86672D01*
G03X3014820Y5724200I0J140820D01*
G03X2960670Y5835190I-140822J0D01*
G02Y5867210I12512J16010D01*
G03Y6089190I-86672J110990D01*
G02Y6121210I12512J16010D01*
G03X3014820Y6232200I-86672J110990D01*
G03X2956080Y6346630I-140829J0D01*
G02X2967920Y6383460I11841J16512D01*
G01X6856850D01*
X7196210Y6044100D01*
X7475990D01*
G02X7490360Y6009410I1J-20321D01*
G01X7423460Y5942510D01*
Y5787490D01*
X7536650Y5674300D01*
X7558190D01*
G03X7661810I51810J55890D01*
G01X7751480D01*
X7754080Y5672510D01*
G03X7780000Y5664460I25916J37691D01*
G01X8180000D01*
G03X8225740Y5710200I0J45740D01*
G01Y5750200D01*
G03X8221140Y5770200I-45742J8D01*
G03X8225740Y5790200I-41142J19992D01*
G01Y5834300D01*
X8295210D01*
X8734100Y5395410D01*
Y4985410D01*
X8858720Y4860790D01*
G02X8844350Y4826100I-14369J-14369D01*
G01X8616470D01*
G02X8596160Y4847220I-5J20320D01*
G03X8596220Y4850200I-76159J3024D01*
G03X8584880Y4890200I-76217J0D01*
G03Y4970200I-64877J40000D01*
G03Y5050200I-64877J40000D01*
G03Y5130200I-64877J40000D01*
G03Y5210200I-64877J40000D01*
G03Y5290200I-64877J40000D01*
G03X8596220Y5330200I-64877J40000D01*
G03X8520000Y5406420I-76220J0D01*
G03X8468190Y5386100I0J-76210D01*
G01X8376470D01*
G02X8356170Y5407170I5J20319D01*
G03X8356220Y5410000I-76171J2761D01*
G03X8280000Y5486220I-76220J0D01*
G03X8253200Y5481350I8J-76219D01*
G02X8225740Y5500380I-7139J19025D01*
G01Y5510200D01*
G03X8221140Y5530200I-45742J8D01*
G03X8225740Y5550200I-41142J19992D01*
G01Y5590200D01*
G03X8180000Y5635940I-45740J0D01*
G01X8007250D01*
X8005490Y5636610D01*
G03X7980000Y5641340I-25507J-66407D01*
G01X7711130D01*
X7669280Y5599490D01*
X7667680Y5598740D01*
G03Y5460860I32529J-68940D01*
G01X7669280Y5460110D01*
X7710330Y5419060D01*
X7734260D01*
Y5386100D01*
X4315300D01*
X3693300Y4764100D01*
X3017240D01*
X2974530Y4806810D01*
G03X2960670Y4819190I-100535J-98605D01*
G02Y4851210I12512J16010D01*
G03Y5073190I-86672J110990D01*
G02Y5105210I12512J16010D01*
G03X3014820Y5216200I-86672J110990D01*
G03X2733180I-140820J0D01*
G03X2787330Y5105210I140822J0D01*
G02Y5073190I-12512J-16010D01*
G03X2763010Y5048870I86670J-110990D01*
G02X2730990I-16010J12512D01*
G03X2620000Y5103020I-110990J-86672D01*
G03Y4821380I0J-140820D01*
G03X2730990Y4875530I0J140822D01*
G02X2763010I16010J-12512D01*
G03X2787330Y4851210I110990J86670D01*
G02Y4819190I-12512J-16010D01*
G03X2733180Y4708200I86672J-110990D01*
G03X2740780Y4662560I140821J-3D01*
G02X2722420Y4635680I-19224J-6580D01*
G01X2681770Y4595020D01*
X2620000D01*
G03X2479180Y4454200I0J-140820D01*
G03X2533330Y4343210I140822J0D01*
G02Y4311190I-12512J-16010D01*
G03Y4089210I86672J-110990D01*
G02Y4057190I-12512J-16010D01*
G03Y3835210I86672J-110990D01*
G02Y3803190I-12512J-16010D01*
G03Y3581210I86672J-110990D01*
G02Y3549190I-12512J-16010D01*
G03Y3327210I86672J-110990D01*
G02Y3295190I-12512J-16010D01*
G03Y3073210I86672J-110990D01*
G02Y3041190I-12512J-16010D01*
G03Y2819210I86672J-110990D01*
G02Y2787190I-12512J-16010D01*
G03Y2565210I86672J-110990D01*
G02Y2533190I-12512J-16010D01*
G03Y2311210I86672J-110990D01*
G02Y2279190I-12512J-16010D01*
G03X2479180Y2168200I86672J-110990D01*
G03X2620000Y2027380I140820J0D01*
G03X2730990Y2081530I0J140822D01*
G02X2763010I16010J-12512D01*
G03X2874000Y2027380I110990J86672D01*
G03X3014820Y2168200I0J140820D01*
G03X2960670Y2279190I-140822J0D01*
G02Y2311210I12512J16010D01*
G03Y2533190I-86672J110990D01*
G02Y2565210I12512J16010D01*
G03Y2787190I-86672J110990D01*
G02Y2819210I12512J16010D01*
G03Y3041190I-86672J110990D01*
G02Y3073210I12512J16010D01*
G03X3014820Y3184200I-86672J110990D01*
G03X3008060Y3227320I-140822J13D01*
G02X3027400Y3253860I19342J6222D01*
G01X3246280D01*
X4626720Y4634300D01*
X7734260D01*
Y4590200D01*
G03X7738860Y4570200I45742J-8D01*
G03X7734260Y4550200I41142J-19992D01*
G01Y4510200D01*
G03X7738860Y4490200I45742J-8D01*
G03X7734260Y4470200I41142J-19992D01*
G01Y4430200D01*
G03X7738860Y4410200I45742J-8D01*
G03X7734260Y4390200I41142J-19992D01*
G01Y4350200D01*
G03X7738860Y4330200I45742J-8D01*
G03X7734260Y4310200I41142J-19992D01*
G01Y4270200D01*
G03X7738860Y4250200I45742J-8D01*
G03X7734260Y4230200I41142J-19992D01*
G01Y4186100D01*
X7397050D01*
X7109100Y3898150D01*
Y2641850D01*
X7496850Y2254100D01*
X10593150D01*
X10968370Y2629320D01*
X10991910D01*
X10993880Y2628440D01*
G03X11002140Y2625670I18607J41784D01*
G01X11010000Y2623840D01*
Y2570000D01*
X11170000D01*
Y2623840D01*
X11177860Y2625670D01*
G03X11192620Y2632000I-10367J44548D01*
G02X11224100Y2615010I11159J-16983D01*
G01Y2546850D01*
X11400520Y2370430D01*
G02X11386150Y2335740I-14369J-14369D01*
G01X10721050D01*
X10664260Y2278950D01*
Y2248560D01*
X10664200Y2248020D01*
G03X10663780Y2240000I75802J-7991D01*
G03X10664200Y2231980I76222J-29D01*
G01X10664260Y2231440D01*
Y2128560D01*
X10664200Y2128020D01*
G03X10663780Y2120000I75802J-7991D01*
G03X10664200Y2111980I76222J-29D01*
G01X10664260Y2111440D01*
Y2081050D01*
X10731050Y2014260D01*
X11568950D01*
X11625740Y2071050D01*
Y2268950D01*
G02X11640280Y2303460I14543J14191D01*
G01X12319990D01*
X12436540Y2420010D01*
Y2869990D01*
X12250630Y3055900D01*
X11535260D01*
Y3455950D01*
X11400500Y3590720D01*
G02X11407680Y3608060I7185J7181D01*
G01X11410000D01*
G03X11441900Y3621020I0J45740D01*
G03X11473800Y3608060I31900J32780D01*
G01X11553800D01*
G03X11599540Y3653800I0J45740D01*
G01Y3733800D01*
G03X11599310Y3738420I-45742J39D01*
G02X11621580Y3760690I20213J2057D01*
G03X11626200Y3760460I4581J45512D01*
G01X11706200D01*
G03X11735040Y3770700I0J45733D01*
G01X11744150Y3778100D01*
X11749230Y3776660D01*
G03X11770000Y3773780I20754J73342D01*
G03X11828500Y3801140I0J76221D01*
G02X11858460Y3802480I15593J-13027D01*
G01X12006850Y3654100D01*
X14426850D01*
X14624100Y3456850D01*
Y2648150D01*
X14396770Y2420820D01*
X14325000D01*
G03X14217260Y2375540I0J-150819D01*
G01X14167620Y2325900D01*
X13232380D01*
X13182740Y2375540D01*
G03X13075000Y2420820I-107740J-105539D01*
G03Y2119180I0J-150820D01*
G03X13182740Y2164460I0J150819D01*
G01X13232380Y2214100D01*
X14167620D01*
X14217260Y2164460D01*
G03X14325000Y2119180I107740J105539D01*
G03X14475820Y2270000I0J150820D01*
G01Y2341770D01*
X14735900Y2601850D01*
Y3503150D01*
X14504050Y3735000D01*
X14745900Y3976850D01*
Y7583150D01*
X14623740Y7705310D01*
G02X14638110Y7740000I14369J14369D01*
G37*
G36*
G01X155900Y3353150D02*
Y4260520D01*
G02X173240Y4267700I10159J-5D01*
G01X186850Y4254100D01*
X1944960D01*
X2030000Y4169060D01*
Y4091140D01*
X1665360D01*
X1620930Y4135560D01*
X1620890Y4135610D01*
G03X1520000Y4178180I-100883J-98253D01*
G03X1379180Y4037360I0J-140820D01*
G03X1406830Y3953550I140822J-7D01*
G02X1390500Y3921140I-16328J-12092D01*
G01X1236830D01*
X1160820Y3997150D01*
Y4037360D01*
G03X1020000Y3896540I-140820J0D01*
G01X1060210D01*
X1177890Y3778860D01*
X1962660D01*
Y3253270D01*
X1910530Y3201140D01*
X1611910D01*
X1595160Y3214840D01*
G03X1566200Y3225170I-28954J-35412D01*
G01X1486200D01*
G03X1456580Y3214280I0J-45727D01*
G02X1443420I-6580J7745D01*
G03X1413800Y3225170I-29620J-34837D01*
G01X1333800D01*
G03X1303320Y3213540I-5J-45742D01*
G01X1282950Y3195330D01*
X1273770D01*
X1228220Y3237860D01*
G03X1197000Y3250170I-31220J-33434D01*
G01X1107000D01*
G03X1068920Y3229770I0J-45741D01*
G02X1035080I-16920J11251D01*
G03X997000Y3250170I-38080J-25341D01*
G01X907000D01*
G03X876100Y3238160I-5J-45742D01*
G01X829980Y3195900D01*
X313150D01*
X155900Y3353150D01*
G37*
G36*
G01X630000Y8970000D02*
X1610000D01*
Y8577140D01*
X1186530D01*
X1043860Y8434470D01*
Y8184200D01*
X1039530Y8178880D01*
G03X1029260Y8150000I35471J-28880D01*
G01Y8010000D01*
G03X1039530Y7981120I45741J0D01*
G01X1043860Y7975800D01*
Y7924200D01*
X1039530Y7918880D01*
G03X1029260Y7890000I35471J-28880D01*
G01Y7810000D01*
G03X1039530Y7781120I45741J0D01*
G01X1043860Y7775800D01*
Y7585530D01*
X1210530Y7418860D01*
X1584260D01*
Y7331050D01*
X1610000Y7305310D01*
Y7270000D01*
X1645310D01*
X1721050Y7194260D01*
X7600520D01*
G02X7614890Y7159570I0J-20321D01*
G01X7594260Y7138950D01*
Y6628350D01*
X7593570Y6626580D01*
G03X7590460Y6610000I42641J-16580D01*
G01Y6530000D01*
G03X7593570Y6513420I45751J0D01*
G01X7594260Y6511650D01*
Y6501050D01*
X7651050Y6444260D01*
X7878950D01*
X7955740Y6521050D01*
Y6561440D01*
X7955800Y6561980D01*
G03X7956220Y6570000I-75802J7991D01*
G03X7955800Y6578020I-76222J29D01*
G01X7955740Y6578560D01*
Y6631440D01*
X7955800Y6631980D01*
G03X7956220Y6640000I-75802J7991D01*
G03X7955800Y6648020I-76222J29D01*
G01X7955740Y6648560D01*
Y6701440D01*
X7955800Y6701980D01*
G03X7956220Y6710000I-75802J7991D01*
G03X7955800Y6718020I-76222J29D01*
G01X7955740Y6718560D01*
Y6771440D01*
X7955800Y6771980D01*
G03X7956220Y6780000I-75802J7991D01*
G03X7955800Y6788020I-76222J29D01*
G01X7955740Y6788560D01*
Y6921050D01*
X8028950Y6994260D01*
X8455050D01*
X8457290Y6987150D01*
G03X8463270Y6973170I72716J22836D01*
G03Y6899510I66722J-36830D01*
G03Y6825850I66722J-36830D01*
G03X8453780Y6789020I66722J-36830D01*
G03X8530000Y6712800I76220J0D01*
G03X8581810Y6733120I0J76210D01*
G01X8642170D01*
X8713150Y6804100D01*
X9795990D01*
G02X9810360Y6769410I1J-20321D01*
G01X9606850Y6565900D01*
X9451810D01*
G03X9400000Y6586220I-51810J-55890D01*
G03X9323780Y6510000I0J-76220D01*
G03X9333270Y6473170I76212J0D01*
G03Y6399510I66722J-36830D01*
G03Y6325850I66722J-36830D01*
G03X9323780Y6289020I66722J-36830D01*
G03X9400000Y6212800I76220J0D01*
G03X9451810Y6233120I0J76210D01*
G01X9644330D01*
X10052750Y6641540D01*
X10144410D01*
G02X10158260Y6606360I-6J-20319D01*
G03X10078190Y6422200I171748J-184160D01*
G03X10204590Y6203840I251812J0D01*
G02X10194470Y6165900I-10119J-17621D01*
G01X8675310D01*
X8439240Y6401970D01*
X7337080D01*
X7003150Y6735900D01*
X683150D01*
X498900Y6920150D01*
X502690Y6926870D01*
G03X520820Y6996000I-122693J69120D01*
G03X239180I-140820J0D01*
G03X246780Y6950360I140821J-3D01*
G02X227560Y6923460I-19224J-6581D01*
G01X154410D01*
X64690Y6833740D01*
G02X30000Y6848110I-14369J14369D01*
G01Y7730000D01*
X630000D01*
Y8970000D01*
G37*
G36*
G01X729990Y6383460D02*
X2526080D01*
G02X2537920Y6346630I-1J-20318D01*
G03X2479180Y6232200I82089J-114430D01*
G03X2533330Y6121210I140822J0D01*
G02Y6089190I-12512J-16010D01*
G03Y5867210I86672J-110990D01*
G02Y5835190I-12512J-16010D01*
G03Y5613210I86672J-110990D01*
G02Y5581190I-12512J-16010D01*
G03X2519120Y5568450I86682J-110979D01*
G01X2519070Y5568400D01*
X2492000Y5541340D01*
X521140D01*
X520540Y5550860D01*
G03X466670Y5652990I-140541J-8858D01*
G02Y5685010I12512J16010D01*
G03X520820Y5796000I-86672J110990D01*
G03X380000Y5936820I-140820J0D01*
G01X318230D01*
X284640Y5970410D01*
Y6158110D01*
X289990Y6163460D01*
X509990D01*
X729990Y6383460D01*
G37*
G36*
G01X444600Y5378000D02*
X380000D01*
X375510Y5283510D01*
X470000Y5288000D01*
Y5352600D01*
G03X444600Y5378000I-25400J0D01*
G37*
G36*
G01X290000Y5621840D02*
Y5542000D01*
X381800Y5540200D01*
X380000Y5632000D01*
X300160D01*
G03X290000Y5621840I0J-10160D01*
G37*
G36*
G01Y5875840D02*
Y5796000D01*
X381800Y5794200D01*
X380000Y5886000D01*
X300160D01*
G03X290000Y5875840I0J-10160D01*
G37*
G36*
G01X470000Y6662160D02*
Y6742000D01*
X378200Y6743800D01*
X380000Y6652000D01*
X459840D01*
G03X470000Y6662160I0J10160D01*
G37*
G36*
G01X459840Y6578000D02*
X380000D01*
X378200Y6486200D01*
X470000Y6488000D01*
Y6567840D01*
G03X459840Y6578000I-10160J0D01*
G37*
G36*
G01X1259600Y2636550D02*
X1197000Y2695000D01*
X1149460Y2630000D01*
X1197000Y2565000D01*
X1259600Y2623450D01*
G03Y2636550I-7770J6550D01*
G37*
G36*
G01X844400Y2933450D02*
X907000Y2875000D01*
X954540Y2940000D01*
X907000Y3005000D01*
X844400Y2946550D01*
G03Y2933450I7770J-6550D01*
G37*
G36*
G01X805920Y2947180D02*
X791550Y2961550D01*
X767460Y2940000D01*
X791550Y2918450D01*
X805920Y2932820D01*
G03Y2947180I-7180J7180D01*
G37*
G36*
G01X843840Y3133440D02*
X907000Y3074430D01*
X954540Y3139420D01*
X907000Y3204430D01*
X843900Y3146620D01*
G03X843840Y3133440I7701J-6625D01*
G37*
G36*
G01X1259600Y2946550D02*
X1197000Y3005000D01*
X1149460Y2940000D01*
X1197000Y2875000D01*
X1259600Y2933450D01*
G03Y2946550I-7770J6550D01*
G37*
G36*
G01Y3145980D02*
X1197000Y3204430D01*
X1149460Y3139430D01*
X1197000Y3074430D01*
X1259600Y3132880D01*
G03Y3145980I-7770J6550D01*
G37*
G36*
G01X1110000Y3972760D02*
Y4037360D01*
X1015510Y4041850D01*
X1020000Y3947360D01*
X1084600D01*
G03X1110000Y3972760I0J25400D01*
G37*
G36*
G01X1245470Y8434860D02*
X1610000D01*
Y8151140D01*
X1574110D01*
X1534700Y8184790D01*
G03X1505000Y8195740I-29700J-34803D01*
G01X1425000D01*
G03X1379260Y8150000I0J-45740D01*
G01Y8010000D01*
G03X1389530Y7981120I45741J0D01*
G01X1393860Y7975800D01*
Y7900000D01*
G03X1394210Y7892950I71140J-2D01*
G01X1394260Y7892450D01*
Y7869990D01*
X1387900Y7867420D01*
G03X1359260Y7825000I17095J-42420D01*
G01Y7775000D01*
G03X1363130Y7756580I45741J-6D01*
G03X1353780Y7720000I66881J-36580D01*
G03X1506220I76220J0D01*
G03X1505840Y7727640I-76222J38D01*
G02X1526050Y7750000I20216J2042D01*
G01X1540000D01*
Y7830000D01*
X1533710D01*
G02X1525770Y7846490I6J10159D01*
G03X1535740Y7875000I-35778J28510D01*
G01Y7892450D01*
X1535790Y7892950D01*
G03X1536140Y7900000I-70790J7048D01*
G01Y7976440D01*
X1574110Y8008860D01*
X1610000D01*
Y7594690D01*
X1584260Y7568950D01*
Y7561140D01*
X1269470D01*
X1186140Y7644470D01*
Y7775800D01*
X1190470Y7781120D01*
G03X1200740Y7810000I-35471J28880D01*
G01Y7890000D01*
G03X1190470Y7918880I-45741J0D01*
G01X1186140Y7924200D01*
Y7975800D01*
X1190470Y7981120D01*
G03X1200740Y8010000I-35471J28880D01*
G01Y8150000D01*
G03X1190470Y8178880I-45741J0D01*
G01X1186140Y8184200D01*
Y8375530D01*
X1245470Y8434860D01*
G37*
G36*
G01X1106300Y8188450D02*
X1075000Y8150000D01*
X1115000Y8073650D01*
X1155000Y8150000D01*
X1123700Y8188450D01*
G03X1106300I-8700J-23860D01*
G37*
G36*
G01X1123700Y7971550D02*
X1155000Y8010000D01*
X1115000Y8086350D01*
X1075000Y8010000D01*
X1106300Y7971550D01*
G03X1123700I8700J23860D01*
G37*
G36*
G01Y7771550D02*
X1155000Y7810000D01*
X1115000Y7856350D01*
X1075000Y7810000D01*
X1106300Y7771550D01*
G03X1123700I8700J23860D01*
G37*
G36*
G01X1106300Y7928450D02*
X1075000Y7890000D01*
X1115000Y7843650D01*
X1155000Y7890000D01*
X1123700Y7928450D01*
G03X1106300I-8700J-23860D01*
G37*
G36*
G01X1517500Y2708450D02*
X1486200Y2670000D01*
X1526200Y2623650D01*
X1566200Y2670000D01*
X1534900Y2708450D01*
G03X1517500I-8700J-23860D01*
G37*
G36*
G01X1295830Y2623930D02*
X1333800Y2590000D01*
X1376340Y2630000D01*
X1333800Y2670000D01*
X1295830Y2636070D01*
G03Y2623930I8140J-6070D01*
G37*
G36*
G01X1534900Y2861550D02*
X1566200Y2900000D01*
X1526200Y2946350D01*
X1486200Y2900000D01*
X1517500Y2861550D01*
G03X1534900I8700J23860D01*
G37*
G36*
G01X1517500Y3018450D02*
X1486200Y2980000D01*
X1526200Y2933650D01*
X1566200Y2980000D01*
X1534900Y3018450D01*
G03X1517500I-8700J-23860D01*
G37*
G36*
G01X1613070Y3141100D02*
X1566200Y3179430D01*
X1519920Y3140360D01*
X1566200Y3099430D01*
X1610190Y3114310D01*
G03X1613070Y3141100I-19969J15697D01*
G37*
G36*
G01X1534900Y3060980D02*
X1566200Y3099430D01*
X1526200Y3145780D01*
X1486200Y3099430D01*
X1517500Y3060980D01*
G03X1534900I8700J23860D01*
G37*
G36*
G01X1295830Y2933930D02*
X1333800Y2900000D01*
X1376340Y2940000D01*
X1333800Y2980000D01*
X1295830Y2946070D01*
G03Y2933930I8140J-6070D01*
G37*
G36*
G01Y3133360D02*
X1333800Y3099430D01*
X1376340Y3139430D01*
X1333800Y3179430D01*
X1295830Y3145500D01*
G03Y3133360I8140J-6070D01*
G37*
G36*
G01X1646680Y4037960D02*
X1583630Y4100990D01*
X1513730Y4038360D01*
X1576080Y3968520D01*
X1639130Y3996830D01*
G03X1646680Y4037960I-10410J23169D01*
G37*
G36*
G01X1630000Y7350000D02*
Y7550000D01*
X1740000Y7660000D01*
X10960000D01*
X11280000Y7980000D01*
X11690000D01*
X12030000Y8320000D01*
X12920000D01*
X13080000Y8160000D01*
Y7600000D01*
X12880000D01*
Y7740000D01*
X12810000Y7810000D01*
X12040000D01*
X11470000Y7240000D01*
X1740000D01*
X1630000Y7350000D01*
G37*
G36*
G01X1548690Y7805600D02*
X1525000Y7825000D01*
X1501820Y7800000D01*
X1525000Y7775000D01*
X1548690Y7794400D01*
G03Y7805600I-11400J5600D01*
G37*
G36*
G01X1509350Y7755780D02*
X1525000Y7775000D01*
X1505000Y7803180D01*
X1485000Y7775000D01*
X1500650Y7755780D01*
G03X1509350I4350J11930D01*
G37*
G36*
G01X1571010Y8093650D02*
X1505000Y8150000D01*
X1458650Y8080000D01*
X1505000Y8010000D01*
X1571010Y8066350D01*
G03Y8093650I-21420J13650D01*
G37*
G36*
G01X1473700Y7971550D02*
X1505000Y8010000D01*
X1465000Y8086350D01*
X1425000Y8010000D01*
X1456300Y7971550D01*
G03X1473700I8700J23860D01*
G37*
G36*
G01X1437140Y7752940D02*
X1445000Y7775000D01*
X1424680Y7802520D01*
X1405000Y7775000D01*
X1424820Y7751430D01*
G03X1437140Y7752940I5181J8740D01*
G37*
G36*
G01X1422820Y7755920D02*
X1408450Y7741550D01*
X1430000Y7717460D01*
X1451550Y7741550D01*
X1437180Y7755920D01*
G03X1422820I-7180J-7180D01*
G37*
G36*
G01X1697750Y8488040D02*
X1739910Y8445900D01*
X1806350Y8506000D01*
X1739910Y8566100D01*
X1697750Y8523960D01*
G03Y8488040I17960J-17960D01*
G37*
G36*
G01X2026310Y4114400D02*
X2050000Y4095000D01*
X2073180Y4120000D01*
X2050000Y4145000D01*
X2026310Y4125600D01*
G03Y4114400I11400J-5600D01*
G37*
G36*
G01X2042500Y3791550D02*
X2073800Y3830000D01*
X2033800Y3876350D01*
X1993800Y3830000D01*
X2025100Y3791550D01*
G03X2042500I8700J23860D01*
G37*
G36*
G01X1954840Y3824980D02*
X2073800Y3830000D01*
X2039930Y3871640D01*
X1993800Y3910000D01*
X1937200Y3862690D01*
G03X1954840Y3824980I22007J-12686D01*
G37*
G36*
G01X2119840Y4148100D02*
X2130000Y4095000D01*
X2151470Y4117930D01*
X2170000Y4145000D01*
X2130790Y4158230D01*
G03X2119840Y4148100I-789J-10130D01*
G37*
G36*
G01X2177500Y3948450D02*
X2146200Y3910000D01*
X2186200Y3863650D01*
X2226200Y3910000D01*
X2194900Y3948450D01*
G03X2177500I-8700J-23860D01*
G37*
G36*
G01X2699840Y3274200D02*
X2620000D01*
X2618200Y3182400D01*
X2710000Y3184200D01*
Y3264040D01*
G03X2699840Y3274200I-10160J0D01*
G37*
G36*
G01Y3782200D02*
X2620000D01*
X2618200Y3690400D01*
X2710000Y3692200D01*
Y3772040D01*
G03X2699840Y3782200I-10160J0D01*
G37*
G36*
G01Y4290200D02*
X2620000D01*
X2618200Y4198400D01*
X2710000Y4200200D01*
Y4280040D01*
G03X2699840Y4290200I-10160J0D01*
G37*
G36*
G01Y4036200D02*
X2620000D01*
X2618200Y3944400D01*
X2710000Y3946200D01*
Y4026040D01*
G03X2699840Y4036200I-10160J0D01*
G37*
G36*
G01Y4544200D02*
X2620000D01*
X2618200Y4452400D01*
X2710000Y4454200D01*
Y4534040D01*
G03X2699840Y4544200I-10160J0D01*
G37*
G36*
G01X2510680Y5452240D02*
X2556370Y5406570D01*
X2626350Y5470200D01*
X2556370Y5533830D01*
X2510680Y5488160D01*
G03Y5452240I17960J-17960D01*
G37*
G36*
G01X4293740Y8970000D02*
X5696260D01*
G02X5710630Y8935310I0J-20321D01*
G01X5654260Y8878950D01*
Y8121050D01*
X5751050Y8024260D01*
X6048950D01*
X6165740Y8141050D01*
Y8471050D01*
X6253950Y8559260D01*
X6430000D01*
Y7705740D01*
X2750000D01*
Y8594260D01*
X3721050D01*
X3784260Y8531050D01*
Y8151050D01*
X3931050Y8004260D01*
X4218950D01*
X4335740Y8121050D01*
Y8878950D01*
X4279370Y8935310D01*
G02X4293740Y8970000I14370J14369D01*
G37*
G36*
G01X2579960Y8403750D02*
X2622100Y8445910D01*
X2562000Y8512350D01*
X2501900Y8445910D01*
X2544040Y8403750D01*
G03X2579960I17960J17960D01*
G37*
G36*
G01X2510000Y8950000D02*
X4200000D01*
X4290000Y8860000D01*
Y8140000D01*
X4200000Y8050000D01*
X3950000D01*
X3830000Y8170000D01*
Y8550000D01*
X3740000Y8640000D01*
X2584170D01*
X2583380Y8640130D01*
G03X2562000Y8641820I-21359J-134132D01*
G03X2540620Y8640130I-21J-135822D01*
G01X2539830Y8640000D01*
X2500000D01*
X2440000Y8700000D01*
Y8880000D01*
X2510000Y8950000D01*
G37*
G36*
G01X2994090Y4207380D02*
X2937640Y4263830D01*
X2871460Y4200200D01*
X2937640Y4136570D01*
X2994090Y4193020D01*
G03Y4207380I-7180J7180D01*
G37*
G36*
G01Y3953380D02*
X2937640Y4009830D01*
X2871460Y3946200D01*
X2937640Y3882570D01*
X2994090Y3939020D01*
G03Y3953380I-7180J7180D01*
G37*
G36*
G01Y4715380D02*
X2937640Y4771830D01*
X2871460Y4708200D01*
X2937640Y4644570D01*
X2994090Y4701020D01*
G03Y4715380I-7180J7180D01*
G37*
G36*
G01Y4461380D02*
X2937640Y4517830D01*
X2871460Y4454200D01*
X2937640Y4390570D01*
X2994090Y4447020D01*
G03Y4461380I-7180J7180D01*
G37*
G36*
G01X5820000Y8980000D02*
X7510000D01*
X7570000Y8920000D01*
Y8710000D01*
X7474160Y8614160D01*
G03X7392000Y8641820I-82150J-108163D01*
G01X7391450D01*
X7390510Y8641810D01*
G03X7299020Y8605000I1492J-135810D01*
G01X6722980D01*
G03X6709010Y8616470I-92979J-99002D01*
G02Y8649530I11823J16530D01*
G03X6765820Y8760000I-79002J110470D01*
G03X6494180I-135820J0D01*
G03X6550990Y8649530I135812J0D01*
G02Y8616470I-11823J-16530D01*
G03X6537020Y8605000I79009J-110472D01*
G01X6235000D01*
X6120000Y8490000D01*
Y8160000D01*
X6030000Y8070000D01*
X5770000D01*
X5700000Y8140000D01*
Y8860000D01*
X5820000Y8980000D01*
G37*
G36*
G01X6647960Y8403750D02*
X6690100Y8445910D01*
X6630000Y8512350D01*
X6569900Y8445910D01*
X6612040Y8403750D01*
G03X6647960I17960J17960D01*
G37*
G36*
G01X8225740Y4144460D02*
X9050010D01*
X9144260Y4050210D01*
Y3370210D01*
X9750210Y2764260D01*
X10129230D01*
G02X10149090Y2739650I-2J-20320D01*
G03X10148060Y2730000I44710J-9652D01*
G01Y2650000D01*
G03X10154300Y2626950I45737J12D01*
G01X10158480Y2619780D01*
X10142950Y2605900D01*
X7683150D01*
X7455900Y2833150D01*
Y3686850D01*
X7523350Y3754300D01*
X7734260D01*
Y3710200D01*
G03X7738860Y3690200I45742J-8D01*
G03X7734260Y3670200I41142J-19992D01*
G01Y3630200D01*
G03X7738860Y3610200I45742J-8D01*
G03X7734260Y3590200I41142J-19992D01*
G01Y3550200D01*
G03X7738860Y3530200I45742J-8D01*
G03X7734260Y3510200I41142J-19992D01*
G01Y3505760D01*
G02X7711050Y3485640I-20321J-5D01*
G03X7700200Y3486420I-10876J-75438D01*
G03Y3333980I0J-76220D01*
G03X7725950Y3338460I4J76221D01*
G01X7727620Y3339060D01*
X7980000D01*
G03X8005490Y3343790I-17J71137D01*
G01X8007250Y3344460D01*
X8180000D01*
G03X8225740Y3390200I0J45740D01*
G01Y3434300D01*
X8898190D01*
G03X8950000Y3413980I51810J55890D01*
G03X9026220Y3490200I0J76220D01*
G03X9014880Y3530200I-76217J0D01*
G03Y3610200I-64877J40000D01*
G03Y3690200I-64877J40000D01*
G03X9026220Y3730200I-64877J40000D01*
G03X8950000Y3806420I-76220J0D01*
G03X8898190Y3786100I0J-76210D01*
G01X8225740D01*
Y3830200D01*
G03X8221140Y3850200I-45742J8D01*
G03X8225740Y3870200I-41142J19992D01*
G01Y3910200D01*
G03X8221140Y3930200I-45742J8D01*
G03X8225740Y3950200I-41142J19992D01*
G01Y3990200D01*
G03X8221140Y4010200I-45742J8D01*
G03X8225740Y4030200I-41142J19992D01*
G01Y4070200D01*
G03X8221140Y4090200I-45742J8D01*
G03X8225740Y4110200I-41142J19992D01*
G01Y4144460D01*
G37*
G36*
G01X7645920Y5737380D02*
X7631550Y5751750D01*
X7607460Y5730200D01*
X7631550Y5708650D01*
X7645920Y5723020D01*
G03Y5737380I-7180J7180D01*
G37*
G36*
G01X7574080Y5723020D02*
X7588450Y5708650D01*
X7612540Y5730200D01*
X7588450Y5751750D01*
X7574080Y5737380D01*
G03Y5723020I7180J-7180D01*
G37*
G36*
G01X7645920Y5817380D02*
X7631550Y5831750D01*
X7607460Y5810200D01*
X7631550Y5788650D01*
X7645920Y5803020D01*
G03Y5817380I-7180J7180D01*
G37*
G36*
G01X7574080Y5803020D02*
X7588450Y5788650D01*
X7612540Y5810200D01*
X7588450Y5831750D01*
X7574080Y5817380D01*
G03Y5803020I7180J-7180D01*
G37*
G36*
G01X7645920Y5897380D02*
X7631550Y5911750D01*
X7607460Y5890200D01*
X7631550Y5868650D01*
X7645920Y5883020D01*
G03Y5897380I-7180J7180D01*
G37*
G36*
G01X11034090Y7040000D02*
X11008190Y7065900D01*
X8581810D01*
G03X8530000Y7086220I-51810J-55890D01*
G03X8462520Y7045440I0J-76221D01*
G01X8459660Y7040000D01*
X8010000D01*
X7910000Y6940000D01*
Y6540000D01*
X7860000Y6490000D01*
X7670000D01*
X7640000Y6520000D01*
Y7120000D01*
X7714260Y7194260D01*
X11488950D01*
X11494690Y7200000D01*
X12200000D01*
X12820000Y6580000D01*
X13660000D01*
X13690000Y6610000D01*
Y6630000D01*
X13640000Y6680000D01*
X13490000D01*
X13460000Y6710000D01*
Y7260000D01*
X13650000Y7450000D01*
X13980000D01*
X14030000Y7400000D01*
Y6510000D01*
X13950000Y6430000D01*
X12750000D01*
X12140000Y7040000D01*
X11034090D01*
G37*
G36*
G01X10383150Y8604100D02*
X13896850D01*
X13974100Y8526850D01*
Y8329010D01*
G02X13939410Y8314640I-20321J-1D01*
G01X13858320Y8395730D01*
Y8532500D01*
G03X13807500Y8583320I-50820J0D01*
G01X13642500D01*
G03X13596780Y8554680I0J-50813D01*
G02X13564810Y8548530I-18283J8871D01*
G03X13475000Y8583320I-89810J-98527D01*
G03Y8316680I0J-133320D01*
G01X13529270D01*
X13815520Y8030430D01*
G02X13801150Y7995740I-14369J-14369D01*
G01X13786200D01*
G03X13740460Y7950000I0J-45740D01*
G01Y7870000D01*
Y7869820D01*
G02X13718190Y7849520I-20319J-75D01*
G03X13713800Y7849730I-4378J-45531D01*
G01X13633800D01*
G03X13602580Y7837420I0J-45744D01*
G01X13557030Y7794890D01*
X13545010D01*
X13534860Y7803640D01*
G03X13505000Y7814730I-29860J-34654D01*
G01X13492260D01*
G02X13475010Y7845800I-5J20321D01*
G03X13481940Y7870000I-38808J24206D01*
G01Y7950000D01*
G03X13436200Y7995740I-45740J0D01*
G01X13356200D01*
G03X13326580Y7984850I0J-45727D01*
G02X13313420I-6580J7745D01*
G03X13283800Y7995740I-29620J-34837D01*
G01X13203800D01*
G03X13173320Y7984110I-5J-45742D01*
G01X13152950Y7965900D01*
X13125740D01*
Y8178950D01*
X13013360Y8291320D01*
G02X13020760Y8324780I14368J14371D01*
G03X13108320Y8450000I-45759J125220D01*
G03X12841680I-133320J0D01*
G03X12853770Y8394520I133321J-4D01*
G02X12835300Y8365740I-18474J-8461D01*
G01X12011050D01*
X11671050Y8025740D01*
X11261050D01*
X10941050Y7705740D01*
X7804940D01*
Y7815800D01*
X7809270Y7821120D01*
G03X7819540Y7850000I-35471J28880D01*
G01Y7930000D01*
G03X7814450Y7950960I-45738J-9D01*
G01X7811320Y7957040D01*
X7839750Y7990260D01*
G03X7850740Y8020000I-34745J29740D01*
G01Y8160000D01*
G03X7805000Y8205740I-45740J0D01*
G01X7725000D01*
G03X7695300Y8194790I0J-45753D01*
G01X7655890Y8161140D01*
X7570000D01*
Y8434860D01*
X7914530D01*
X8038860Y8310530D01*
Y8189320D01*
X8034770Y8181770D01*
G03X8029260Y8160030I40231J-21765D01*
G01X8029200Y8081980D01*
X8029160Y8081520D01*
G03X8028860Y8075000I70840J-6526D01*
G01Y7940000D01*
G03X8029210Y7932950I71140J-2D01*
G01X8029260Y7932450D01*
Y7909990D01*
X8022900Y7907420D01*
G03X7994260Y7865000I17095J-42420D01*
G01Y7815000D01*
G03X8025380Y7771660I45739J0D01*
G01X8049220Y7763620D01*
X8084220Y7728620D01*
X9507670D01*
X10383150Y8604100D01*
G37*
G36*
G01X7742500Y7811550D02*
X7773800Y7850000D01*
X7733800Y7896350D01*
X7693800Y7850000D01*
X7725100Y7811550D01*
G03X7742500I8700J23860D01*
G37*
G36*
G01X7725100Y7968450D02*
X7693800Y7930000D01*
X7733800Y7883650D01*
X7773800Y7930000D01*
X7742500Y7968450D01*
G03X7725100I-8700J-23860D01*
G37*
G36*
G01X7658990Y8076350D02*
X7725000Y8020000D01*
X7771350Y8090000D01*
X7725000Y8160000D01*
X7658990Y8103650D01*
G03Y8076350I21420J-13650D01*
G37*
G36*
G01X7747540Y7952850D02*
X7805000Y8020000D01*
X7771610Y8114530D01*
X7725000Y8160000D01*
X7708430Y7973010D01*
G03X7747540Y7952850I25370J1201D01*
G37*
G36*
G01X9480000Y8970000D02*
X14360000D01*
Y8018110D01*
G02X14325310Y8003740I-20321J-1D01*
G01X14085900Y8243150D01*
Y8573150D01*
X13943150Y8715900D01*
X10336850D01*
X9461370Y7840420D01*
X8170000D01*
Y7906760D01*
X8170130Y7907580D01*
G03X8170740Y7915000I-45128J7445D01*
G01Y7932450D01*
X8170790Y7932950D01*
G03X8171140Y7940000I-70790J7048D01*
G01Y7967740D01*
X8190250Y7990850D01*
G03X8200740Y8020000I-35257J29150D01*
G01Y8160000D01*
G03X8190490Y8188850I-45726J0D01*
G01X8181140Y8200360D01*
Y8369470D01*
X7973470Y8577140D01*
X7570000D01*
Y8645310D01*
X7615740Y8691050D01*
Y8938950D01*
X7602030Y8952660D01*
G02X7609210Y8970000I7186J7181D01*
G01X8820000D01*
Y8330000D01*
X9480000D01*
Y8970000D01*
G37*
G36*
G01X7494250Y8523960D02*
X7452090Y8566100D01*
X7385650Y8506000D01*
X7452090Y8445900D01*
X7494250Y8488040D01*
G03Y8523960I-17960J17960D01*
G37*
G36*
G01X8112030Y7968040D02*
X8155000Y8020000D01*
X8118780Y8115120D01*
X8075000Y8160000D01*
X8074870Y7986710D01*
G03X8112030Y7968040I25129J3700D01*
G37*
G36*
G01X8097590Y8201750D02*
X8075000Y8160000D01*
X8115350Y8083660D01*
X8155000Y8160000D01*
X8120140Y8202880D01*
G03X8097590Y8201750I-10136J-23290D01*
G37*
G36*
G01X8090160Y7811900D02*
X8080000Y7865000D01*
X8058530Y7842070D01*
X8040000Y7815000D01*
X8079210Y7801770D01*
G03X8090160Y7811900I789J10130D01*
G37*
G36*
G01X8555920Y4617180D02*
X8541550Y4631550D01*
X8517460Y4610000D01*
X8541550Y4588450D01*
X8555920Y4602820D01*
G03Y4617180I-7180J7180D01*
G37*
G36*
G01X8484080Y5243020D02*
X8498450Y5228650D01*
X8522540Y5250200D01*
X8498450Y5271750D01*
X8484080Y5257380D01*
G03Y5243020I7180J-7180D01*
G37*
G36*
G01Y5083020D02*
X8498450Y5068650D01*
X8522540Y5090200D01*
X8498450Y5111750D01*
X8484080Y5097380D01*
G03Y5083020I7180J-7180D01*
G37*
G36*
G01Y5003020D02*
X8498450Y4988650D01*
X8522540Y5010200D01*
X8498450Y5031750D01*
X8484080Y5017380D01*
G03Y5003020I7180J-7180D01*
G37*
G36*
G01Y4843020D02*
X8498450Y4828650D01*
X8522540Y4850200D01*
X8498450Y4871750D01*
X8484080Y4857380D01*
G03Y4843020I7180J-7180D01*
G37*
G36*
G01Y4923020D02*
X8498450Y4908650D01*
X8522540Y4930200D01*
X8498450Y4951750D01*
X8484080Y4937380D01*
G03Y4923020I7180J-7180D01*
G37*
G36*
G01Y5163020D02*
X8498450Y5148650D01*
X8522540Y5170200D01*
X8498450Y5191750D01*
X8484080Y5177380D01*
G03Y5163020I7180J-7180D01*
G37*
G36*
G01X8694650Y5783460D02*
X9817490D01*
X10036850Y5564100D01*
X10266850D01*
X10272950Y5557990D01*
X10280760Y5489800D01*
G03X10292650Y5463910I45443J5195D01*
G01X10329100Y5424580D01*
Y5411650D01*
X10291480Y5371120D01*
G03X10279260Y5340000I33516J-31120D01*
G01Y5310000D01*
G03X10280370Y5300000I45738J15D01*
G03X10279270Y5290870I44630J-10008D01*
G01X10279080Y5280900D01*
X9495830D01*
G03X9450000Y5296220I-45830J-60891D01*
G03Y5143780I0J-76220D01*
G03X9506730Y5169100I0J76212D01*
G01X10279080D01*
X10279270Y5159130D01*
G03X10280370Y5150000I45730J878D01*
G03X10279260Y5140000I44628J-10015D01*
G01Y5110000D01*
G03X10280370Y5100000I45738J15D01*
G03X10279260Y5090000I44628J-10015D01*
G01Y5060000D01*
G03X10280370Y5050000I45738J15D01*
G03X10279270Y5040870I44630J-10008D01*
G01X10279080Y5030900D01*
X9178150D01*
X9136260Y5072800D01*
X9135940Y5076490D01*
G03X9060000Y5146220I-75940J-6487D01*
G03X8984520Y5080580I0J-76218D01*
G02X8950030Y5069030I-20123J2818D01*
G01X8945900Y5073150D01*
Y5483150D01*
X8680280Y5748770D01*
G02X8694650Y5783460I14369J14369D01*
G37*
G36*
G01X8244080Y5402820D02*
X8258450Y5388450D01*
X8282540Y5410000D01*
X8258450Y5431550D01*
X8244080Y5417180D01*
G03Y5402820I7180J-7180D01*
G37*
G36*
G01X8484080Y5323020D02*
X8498450Y5308650D01*
X8522540Y5330200D01*
X8498450Y5351750D01*
X8484080Y5337380D01*
G03Y5323020I7180J-7180D01*
G37*
G36*
G01X8565920Y6796200D02*
X8551550Y6810570D01*
X8527460Y6789020D01*
X8551550Y6767470D01*
X8565920Y6781840D01*
G03Y6796200I-7180J7180D01*
G37*
G36*
G01Y6869860D02*
X8551550Y6884230D01*
X8527460Y6862680D01*
X8551550Y6841130D01*
X8565920Y6855500D01*
G03Y6869860I-7180J7180D01*
G37*
G36*
G01Y7017180D02*
X8551550Y7031550D01*
X8527460Y7010000D01*
X8551550Y6988450D01*
X8565920Y7002820D01*
G03Y7017180I-7180J7180D01*
G37*
G36*
G01Y6943520D02*
X8551550Y6957890D01*
X8527460Y6936340D01*
X8551550Y6914790D01*
X8565920Y6929160D01*
G03Y6943520I-7180J7180D01*
G37*
G36*
G01X8914080Y3483020D02*
X8928450Y3468650D01*
X8952540Y3490200D01*
X8928450Y3511750D01*
X8914080Y3497380D01*
G03Y3483020I7180J-7180D01*
G37*
G36*
G01Y3563020D02*
X8928450Y3548650D01*
X8952540Y3570200D01*
X8928450Y3591750D01*
X8914080Y3577380D01*
G03Y3563020I7180J-7180D01*
G37*
G36*
G01Y3723020D02*
X8928450Y3708650D01*
X8952540Y3730200D01*
X8928450Y3751750D01*
X8914080Y3737380D01*
G03Y3723020I7180J-7180D01*
G37*
G36*
G01Y3643020D02*
X8928450Y3628650D01*
X8952540Y3650200D01*
X8928450Y3671750D01*
X8914080Y3657380D01*
G03Y3643020I7180J-7180D01*
G37*
G36*
G01X9024080Y4683020D02*
X9038450Y4668650D01*
X9062540Y4690200D01*
X9038450Y4711750D01*
X9024080Y4697380D01*
G03Y4683020I7180J-7180D01*
G37*
G36*
G01X9090480Y5049680D02*
Y5070000D01*
X9058200Y5071800D01*
X9060000Y5039520D01*
X9080320D01*
G03X9090480Y5049680I0J10160D01*
G37*
G36*
G01X9258150Y4619100D02*
X10259530D01*
G02X10279670Y4596080I-1J-20321D01*
G03X10279260Y4590000I45328J-6110D01*
G01Y4560000D01*
G03X10291180Y4529200I45752J0D01*
G01X10308830Y4509820D01*
X10308780Y4505830D01*
Y4505000D01*
G03X10311920Y4483360I76218J12D01*
G02X10306540Y4471300I-9743J-2884D01*
G03X10280460Y4430000I19661J-41300D01*
G01Y4355900D01*
X10026850D01*
X9874100Y4203150D01*
Y3556850D01*
X9888340Y3542600D01*
G02X9881160Y3525260I-7185J-7181D01*
G01X9743790D01*
X9675900Y3593150D01*
Y4293150D01*
X9526260Y4442800D01*
X9525940Y4446490D01*
G03X9450000Y4516220I-75940J-6487D01*
G03X9386110Y4481560I0J-76215D01*
G02X9354700Y4478270I-17037J11075D01*
G01X9236010Y4596960D01*
X9258150Y4619100D01*
G37*
G36*
G01X9480480Y4419680D02*
Y4440000D01*
X9448200Y4441800D01*
X9450000Y4409520D01*
X9470320D01*
G03X9480480Y4419680I0J10160D01*
G37*
G36*
G01X9488160Y5234150D02*
X9468790Y5243510D01*
X9447490Y5219630D01*
X9471550Y5198450D01*
X9490920Y5217820D01*
G03X9488160Y5234150I-7182J7184D01*
G37*
G36*
G01X9435920Y6296200D02*
X9421550Y6310570D01*
X9397460Y6289020D01*
X9421550Y6267470D01*
X9435920Y6281840D01*
G03Y6296200I-7180J7180D01*
G37*
G36*
G01Y6369860D02*
X9421550Y6384230D01*
X9397460Y6362680D01*
X9421550Y6341130D01*
X9435920Y6355500D01*
G03Y6369860I-7180J7180D01*
G37*
G36*
G01Y6517180D02*
X9421550Y6531550D01*
X9397460Y6510000D01*
X9421550Y6488450D01*
X9435920Y6502820D01*
G03Y6517180I-7180J7180D01*
G37*
G36*
G01Y6443520D02*
X9421550Y6457890D01*
X9397460Y6436340D01*
X9421550Y6414790D01*
X9435920Y6429160D01*
G03Y6443520I-7180J7180D01*
G37*
G36*
G01X10239870Y2612030D02*
X10273800Y2650000D01*
X10233800Y2692540D01*
X10193800Y2650000D01*
X10227730Y2612030D01*
G03X10239870I6070J8140D01*
G37*
G36*
G01X10227730Y2627970D02*
X10193800Y2590000D01*
X10233800Y2547460D01*
X10273800Y2590000D01*
X10239870Y2627970D01*
G03X10227730I-6070J-8140D01*
G37*
G36*
G01X10155830Y2543930D02*
X10193800Y2510000D01*
X10236340Y2550000D01*
X10193800Y2590000D01*
X10155830Y2556070D01*
G03Y2543930I8140J-6070D01*
G37*
G36*
G01X10155920Y2961060D02*
X10193800Y2930000D01*
X10238800Y2970000D01*
X10193800Y3010000D01*
X10155920Y2978940D01*
G03Y2961060I17890J-8940D01*
G37*
G36*
G01Y3101060D02*
X10193800Y3070000D01*
X10238800Y3110000D01*
X10193800Y3150000D01*
X10155920Y3118940D01*
G03Y3101060I17890J-8940D01*
G37*
G36*
G01Y2821060D02*
X10193800Y2790000D01*
X10238800Y2830000D01*
X10193800Y2870000D01*
X10155920Y2838940D01*
G03Y2821060I17890J-8940D01*
G37*
G36*
G01Y3241060D02*
X10193800Y3210000D01*
X10238800Y3250000D01*
X10193800Y3290000D01*
X10155920Y3258940D01*
G03Y3241060I17890J-8940D01*
G37*
G36*
G01X10073150Y4244100D02*
X10280460D01*
Y4180000D01*
G03X10326200Y4134260I45740J0D01*
G01X10340680D01*
G02X10347860Y4116920I-5J-10159D01*
G01X10249090Y4018140D01*
Y3978130D01*
X10192560Y3921610D01*
X10156690Y3914980D01*
G03X10119260Y3870000I8311J-44980D01*
G01Y3670000D01*
G03X10165000Y3624260I45740J0D01*
G01X10215000D01*
G03X10260610Y3666540I0J45741D01*
G01X10274160Y3845100D01*
X10315010Y3885940D01*
X10350250Y3850700D01*
X10359320Y3667740D01*
G03X10405000Y3624260I45680J2256D01*
G01X10455000D01*
G03X10500740Y3670000I0J45740D01*
G01Y3870000D01*
G03X10468480Y3913710I-45742J0D01*
G01X10435030Y3924030D01*
X10429640Y3929410D01*
G02X10444010Y3964100I14369J14369D01*
G01X10713870D01*
X10801870Y4052100D01*
G02X10836560Y4037730I14369J-14369D01*
G01Y3951960D01*
G02X10814320Y3931740I-20318J7D01*
G03X10810000Y3931940I-4273J-45542D01*
G01X10730000D01*
G03X10700000Y3920730I0J-45748D01*
G03X10670000Y3931940I-30000J-34538D01*
G01X10590000D01*
G03X10544260Y3886200I0J-45740D01*
G01Y3806200D01*
G03X10590000Y3760460I45740J0D01*
G01X10670000D01*
G03X10675500Y3760790I15J45741D01*
G02X10686400Y3747630I1217J-10086D01*
G03X10684260Y3733800I43600J-13827D01*
G01Y3653800D01*
G03X10730000Y3608060I45740J0D01*
G01X10743560D01*
X10743800Y3598150D01*
G03X10744560Y3589120I76198J1866D01*
G02X10724450Y3565900I-20111J-2900D01*
G01X10023150D01*
X9985900Y3603150D01*
Y4156850D01*
X10073150Y4244100D01*
G37*
G36*
G01X10220000Y3880160D02*
X10165000Y3870000D01*
X10187080Y3760270D01*
X10215000Y3670000D01*
X10230160Y3869750D01*
G03X10220000Y3880160I-10160J247D01*
G37*
G36*
G01X10155920Y3381060D02*
X10193800Y3350000D01*
X10238800Y3390000D01*
X10193800Y3430000D01*
X10155920Y3398940D01*
G03Y3381060I17890J-8940D01*
G37*
G36*
G01X9984010Y5824100D02*
X10122950D01*
X10143320Y5805890D01*
G03X10173800Y5794260I30475J34112D01*
G01X10220490D01*
X10270650Y5744100D01*
X10280460D01*
Y5675900D01*
X10083150D01*
X9969640Y5789410D01*
G02X9984010Y5824100I14369J14369D01*
G37*
G36*
G01X10135830Y5873930D02*
X10173800Y5840000D01*
X10216340Y5880000D01*
X10173800Y5920000D01*
X10135830Y5886070D01*
G03Y5873930I8140J-6070D01*
G37*
G36*
G01X10332370Y2606400D02*
G03X10346200Y2604260I13827J43600D01*
G01X10426200D01*
G03X10455080Y2614530I0J45741D01*
G01X10460400Y2618860D01*
X10570750D01*
G02X10585120Y2584170I1J-20321D01*
G01X10494110Y2493160D01*
X10319140D01*
Y2503930D01*
X10319210Y2504530D01*
G03X10319540Y2510000I-45409J5484D01*
G01Y2590000D01*
G03X10319210Y2595500I-45741J15D01*
G02X10332370Y2606400I10086J1217D01*
G37*
G36*
G01X10464650Y2698700D02*
X10426200Y2730000D01*
X10379850Y2690000D01*
X10426200Y2650000D01*
X10464650Y2681300D01*
G03Y2698700I-23860J8700D01*
G37*
G36*
G01X10377500Y2768450D02*
X10346200Y2730000D01*
X10386200Y2683650D01*
X10426200Y2730000D01*
X10394900Y2768450D01*
G03X10377500I-8700J-23860D01*
G37*
G36*
G01X10394900Y2751550D02*
X10426200Y2790000D01*
X10386200Y2836350D01*
X10346200Y2790000D01*
X10377500Y2751550D01*
G03X10394900I8700J23860D01*
G37*
G36*
G01X10491710Y3318860D02*
X10620890D01*
X10660300Y3285210D01*
G03X10660460Y3285080I28924J35435D01*
G01X10660780Y3284800D01*
X10668270Y3277320D01*
X10616690Y3225740D01*
X10590000D01*
G03X10544260Y3180000I0J-45740D01*
G01Y3080000D01*
G03X10590000Y3034260I45740J0D01*
G01X10650000D01*
G03X10695740Y3080000I0J45740D01*
G01Y3146690D01*
X10723150Y3174100D01*
X10886850D01*
X10938090Y3122860D01*
X10948750Y3062100D01*
G03X10993800Y3024260I45050J7897D01*
G01X11007770D01*
Y3006370D01*
X11000320Y3004310D01*
G03X10999510Y3004080I12089J-44115D01*
G01X10998100Y3003660D01*
X10884710D01*
X10866210Y3019740D01*
G03X10836200Y3030960I-30010J-34524D01*
G01X10756200D01*
G03X10710460Y2985220I0J-45740D01*
G01Y2905220D01*
G03X10720110Y2877120I45737J0D01*
G01X10725630Y2870030D01*
X10616730Y2761140D01*
X10491710D01*
G02X10471560Y2784090I-3J20319D01*
G03X10471940Y2790000I-45362J5884D01*
G01Y2870000D01*
G03X10460730Y2900000I-45748J0D01*
G03X10471940Y2930000I-34538J30000D01*
G01Y3010000D01*
G03X10460730Y3040000I-45748J0D01*
G03X10471940Y3070000I-34538J30000D01*
G01Y3150000D01*
G03X10460730Y3180000I-45748J0D01*
G03X10471940Y3210000I-34538J30000D01*
G01Y3290000D01*
G03X10471560Y3295910I-45742J26D01*
G02X10491710Y3318860I20147J2631D01*
G37*
G36*
G01X10377500Y3328450D02*
X10346200Y3290000D01*
X10386200Y3243650D01*
X10426200Y3290000D01*
X10394900Y3328450D01*
G03X10377500I-8700J-23860D01*
G37*
G36*
G01X10394900Y3171550D02*
X10426200Y3210000D01*
X10386200Y3256350D01*
X10346200Y3210000D01*
X10377500Y3171550D01*
G03X10394900I8700J23860D01*
G37*
G36*
G01X10377500Y3188450D02*
X10346200Y3150000D01*
X10386200Y3103650D01*
X10426200Y3150000D01*
X10394900Y3188450D01*
G03X10377500I-8700J-23860D01*
G37*
G36*
G01X10394900Y3031550D02*
X10426200Y3070000D01*
X10386200Y3116350D01*
X10346200Y3070000D01*
X10377500Y3031550D01*
G03X10394900I8700J23860D01*
G37*
G36*
G01X10377500Y3048450D02*
X10346200Y3010000D01*
X10386200Y2963650D01*
X10426200Y3010000D01*
X10394900Y3048450D01*
G03X10377500I-8700J-23860D01*
G37*
G36*
G01X10394840Y3875000D02*
X10405000Y3670000D01*
X10432350Y3760120D01*
X10455000Y3870000D01*
X10406010Y3885110D01*
G03X10394840Y3875000I-1010J-10110D01*
G37*
G36*
G01X10623990Y3376350D02*
X10690000Y3320000D01*
X10726130Y3368360D01*
X10690000Y3420000D01*
X10631230Y3411070D01*
G03X10623990Y3376350I14180J-21072D01*
G37*
G36*
G01X10464650Y3398700D02*
X10426200Y3430000D01*
X10379850Y3390000D01*
X10426200Y3350000D01*
X10464650Y3381300D01*
G03Y3398700I-23860J8700D01*
G37*
G36*
G01X10394900Y3311550D02*
X10426200Y3350000D01*
X10386200Y3396350D01*
X10346200Y3350000D01*
X10377500Y3311550D01*
G03X10394900I8700J23860D01*
G37*
G36*
G01X10514120Y4228980D02*
X10501540Y4241540D01*
X10476820Y4220000D01*
X10501540Y4198460D01*
X10514120Y4211020D01*
G03Y4228980I-8980J8980D01*
G37*
G36*
G01X10445880Y4211020D02*
X10458460Y4198460D01*
X10483180Y4220000D01*
X10458460Y4241540D01*
X10445880Y4228980D01*
G03Y4211020I8980J-8980D01*
G37*
G36*
G01X10443980Y4227160D02*
X10406200Y4260000D01*
X10363020Y4220000D01*
X10406200Y4180000D01*
X10443980Y4212840D01*
G03Y4227160I-10490J7160D01*
G37*
G36*
G01X10707780Y3853360D02*
X10670000Y3886200D01*
X10626820Y3846200D01*
X10670000Y3806200D01*
X10707780Y3839040D01*
G03Y3853360I-10490J7160D01*
G37*
G36*
G01X10692220Y3839040D02*
X10730000Y3806200D01*
X10773180Y3846200D01*
X10730000Y3886200D01*
X10692220Y3853360D01*
G03Y3839040I10490J-7160D01*
G37*
G36*
G01X10310160Y4623080D02*
X10325000Y4610000D01*
X10388180Y4625000D01*
X10325000Y4640000D01*
X10310160Y4626920D01*
G03Y4623080I12550J-1920D01*
G37*
G36*
G01X10596920Y4290160D02*
X10610000Y4305000D01*
X10595000Y4368180D01*
X10580000Y4305000D01*
X10593080Y4290160D01*
G03X10596920I1920J12550D01*
G37*
G36*
G01X10392860Y4502740D02*
X10445000Y4560000D01*
X10385000Y4578180D01*
X10325000Y4560000D01*
X10377140Y4502740D01*
G03X10392860I7860J9970D01*
G37*
G36*
G01X10310500Y4671890D02*
X10325000Y4660000D01*
X10387540Y4675000D01*
X10325000Y4690000D01*
X10310500Y4678110D01*
G03Y4671890I9670J-3110D01*
G37*
G36*
G01Y4721890D02*
X10325000Y4710000D01*
X10387540Y4725000D01*
X10325000Y4740000D01*
X10310500Y4728110D01*
G03Y4721890I9670J-3110D01*
G37*
G36*
G01X10623360Y4579520D02*
X10645000D01*
X10646850Y4611740D01*
X10614550Y4610660D01*
X10613220Y4590340D01*
G03X10623360Y4579520I10140J-659D01*
G37*
G36*
G01X10652180Y4574080D02*
X10666550Y4588450D01*
X10645000Y4612540D01*
X10623450Y4588450D01*
X10637820Y4574080D01*
G03X10652180I7180J7180D01*
G37*
G36*
G01X10641890Y4439500D02*
X10630000Y4425000D01*
X10645000Y4362460D01*
X10660000Y4425000D01*
X10648110Y4439500D01*
G03X10641890I-3110J-9670D01*
G37*
G36*
G01X10459500Y4778110D02*
X10445000Y4790000D01*
X10382460Y4775000D01*
X10445000Y4760000D01*
X10459500Y4771890D01*
G03Y4778110I-9670J3110D01*
G37*
G36*
G01Y5078110D02*
X10445000Y5090000D01*
X10382460Y5075000D01*
X10445000Y5060000D01*
X10459500Y5071890D01*
G03Y5078110I-9670J3110D01*
G37*
G36*
G01Y5178110D02*
X10445000Y5190000D01*
X10382460Y5175000D01*
X10445000Y5160000D01*
X10459500Y5171890D01*
G03Y5178110I-9670J3110D01*
G37*
G36*
G01Y5128110D02*
X10445000Y5140000D01*
X10382460Y5125000D01*
X10445000Y5110000D01*
X10459500Y5121890D01*
G03Y5128110I-9670J3110D01*
G37*
G36*
G01X10310500Y4871890D02*
X10325000Y4860000D01*
X10387540Y4875000D01*
X10325000Y4890000D01*
X10310500Y4878110D01*
G03Y4871890I9670J-3110D01*
G37*
G36*
G01Y4821890D02*
X10325000Y4810000D01*
X10387540Y4825000D01*
X10325000Y4840000D01*
X10310500Y4828110D01*
G03Y4821890I9670J-3110D01*
G37*
G36*
G01Y4921890D02*
X10325000Y4910000D01*
X10387540Y4925000D01*
X10325000Y4940000D01*
X10310500Y4928110D01*
G03Y4921890I9670J-3110D01*
G37*
G36*
G01Y5221890D02*
X10325000Y5210000D01*
X10387540Y5225000D01*
X10325000Y5240000D01*
X10310500Y5228110D01*
G03Y5221890I9670J-3110D01*
G37*
G36*
G01Y4971890D02*
X10325000Y4960000D01*
X10387540Y4975000D01*
X10325000Y4990000D01*
X10310500Y4978110D01*
G03Y4971890I9670J-3110D01*
G37*
G36*
G01X10539520Y4990320D02*
Y4970000D01*
X10571800Y4968200D01*
X10570000Y5000480D01*
X10549680D01*
G03X10539520Y4990320I0J-10160D01*
G37*
G36*
G01X10459500Y5028110D02*
X10445000Y5040000D01*
X10382460Y5025000D01*
X10445000Y5010000D01*
X10459500Y5021890D01*
G03Y5028110I-9670J3110D01*
G37*
G36*
G01X10646920Y5460160D02*
X10660000Y5475000D01*
X10645000Y5538180D01*
X10630000Y5475000D01*
X10643080Y5460160D01*
G03X10646920I1920J12550D01*
G37*
G36*
G01X10444190Y5642420D02*
X10450040Y5639910D01*
G03X10480000Y5633780I29948J70092D01*
G03X10520640Y5645520I0J76211D01*
G01X10527510Y5649850D01*
X10536560Y5640790D01*
Y5609400D01*
X10536140Y5607990D01*
G03X10534260Y5595000I43862J-12979D01*
G01Y5475000D01*
G03X10580000Y5429260I45740J0D01*
G01X10610000D01*
G03X10638640Y5439340I0J45727D01*
G02X10651360I6360J-7927D01*
G03X10680000Y5429260I28640J35647D01*
G01X10710000D01*
G03X10720000Y5430370I-15J45738D01*
G03X10730000Y5429260I10015J44628D01*
G01X10760000D01*
G03X10770000Y5430370I-15J45738D01*
G03X10780000Y5429260I10015J44628D01*
G01X10810000D01*
G03X10820000Y5430370I-15J45738D01*
G03X10830000Y5429260I10015J44628D01*
G01X10860000D01*
G03X10870000Y5430370I-15J45738D01*
G03X10880000Y5429260I10015J44628D01*
G01X10910000D01*
G03X10920000Y5430370I-15J45738D01*
G03X10930000Y5429260I10015J44628D01*
G01X10960000D01*
G03X10970000Y5430370I-15J45738D01*
G03X10980000Y5429260I10015J44628D01*
G01X11010000D01*
G03X11020000Y5430370I-15J45738D01*
G03X11030000Y5429260I10015J44628D01*
G01X11060000D01*
G03X11070000Y5430370I-15J45738D01*
G03X11080000Y5429260I10015J44628D01*
G01X11110000D01*
G03X11120000Y5430370I-15J45738D01*
G03X11130000Y5429260I10015J44628D01*
G01X11160000D01*
G03X11170000Y5430370I-15J45738D01*
G03X11180000Y5429260I10015J44628D01*
G01X11210000D01*
G03X11220000Y5430370I-15J45738D01*
G03X11230000Y5429260I10015J44628D01*
G01X11260000D01*
G03X11270000Y5430370I-15J45738D01*
G03X11275170Y5429520I9993J44632D01*
G01X11278740Y5429140D01*
X11288470Y5419410D01*
X11199960Y5330900D01*
X10490920D01*
X10490730Y5340870D01*
G03X10478520Y5371120I-45731J-869D01*
G01X10440900Y5411650D01*
Y5440980D01*
X10450820Y5484930D01*
G03X10451940Y5495000I-44621J10060D01*
G01Y5575000D01*
G03X10430310Y5613870I-45740J0D01*
G02Y5631130I5361J8630D01*
G03X10436210Y5635480I-24107J38872D01*
G01X10444190Y5642420D01*
G37*
G36*
G01X10445880Y5701020D02*
X10458460Y5688460D01*
X10483180Y5710000D01*
X10458460Y5731540D01*
X10445880Y5718980D01*
G03Y5701020I8980J-8980D01*
G37*
G36*
G01X10514120Y5718980D02*
X10501540Y5731540D01*
X10476820Y5710000D01*
X10501540Y5688460D01*
X10514120Y5701020D01*
G03Y5718980I-8980J8980D01*
G37*
G36*
G01X10443980Y5717160D02*
X10406200Y5750000D01*
X10363020Y5710000D01*
X10406200Y5670000D01*
X10443980Y5702840D01*
G03Y5717160I-10490J7160D01*
G37*
G36*
G01X10593080Y5609840D02*
X10580000Y5595000D01*
X10595000Y5531820D01*
X10610000Y5595000D01*
X10596920Y5609840D01*
G03X10593080I-1920J-12550D01*
G37*
G36*
G01X10691890Y5609500D02*
X10680000Y5595000D01*
X10695000Y5532460D01*
X10710000Y5595000D01*
X10698110Y5609500D01*
G03X10691890I-3110J-9670D01*
G37*
G36*
G01X10378510Y5397650D02*
X10325000Y5340000D01*
X10385000Y5322460D01*
X10445000Y5340000D01*
X10391490Y5397650D01*
G03X10378510I-6490J-7820D01*
G37*
G36*
G01X10316040Y5583800D02*
X10326200Y5495000D01*
X10367810Y5533040D01*
X10406200Y5575000D01*
X10327310Y5593900D01*
G03X10316040Y5583800I-1109J-10100D01*
G37*
G36*
G01X10394310Y5442310D02*
X10406200Y5495000D01*
X10365670Y5537480D01*
X10326200Y5495000D01*
X10378520Y5438540D01*
G03X10394310Y5442310I6476J7829D01*
G37*
G36*
G01X10459500Y5278110D02*
X10445000Y5290000D01*
X10382460Y5275000D01*
X10445000Y5260000D01*
X10459500Y5271890D01*
G03Y5278110I-9670J3110D01*
G37*
G36*
G01X10445880Y5871020D02*
X10458460Y5858460D01*
X10483180Y5880000D01*
X10458460Y5901540D01*
X10445880Y5888980D01*
G03Y5871020I8980J-8980D01*
G37*
G36*
G01X10443980Y5887160D02*
X10406200Y5920000D01*
X10363020Y5880000D01*
X10406200Y5840000D01*
X10443980Y5872840D01*
G03Y5887160I-10490J7160D01*
G37*
G36*
G01X11540000Y2290000D02*
X11580000Y2250000D01*
Y2090000D01*
X11550000Y2060000D01*
X10750000D01*
X10710000Y2100000D01*
Y2260000D01*
X10740000Y2290000D01*
X11540000D01*
G37*
G36*
G01X10997660Y2618300D02*
X11012500Y2605220D01*
X11093180Y2620220D01*
X11012500Y2635220D01*
X10997660Y2622140D01*
G03Y2618300I12550J-1920D01*
G37*
G36*
G01X11182340Y2622140D02*
X11167500Y2635220D01*
X11086820Y2620220D01*
X11167500Y2605220D01*
X11182340Y2618300D01*
G03Y2622140I-12550J1920D01*
G37*
G36*
G01X10998000Y2747110D02*
X11012500Y2735220D01*
X11092540Y2750220D01*
X11012500Y2765220D01*
X10998000Y2753330D01*
G03Y2747110I9670J-3110D01*
G37*
G36*
G01Y2682110D02*
X11012500Y2670220D01*
X11092540Y2685220D01*
X11012500Y2700220D01*
X10998000Y2688330D01*
G03Y2682110I9670J-3110D01*
G37*
G36*
G01X10804900Y2866770D02*
X10836200Y2905220D01*
X10796200Y2951570D01*
X10756200Y2905220D01*
X10787500Y2866770D01*
G03X10804900I8700J23860D01*
G37*
G36*
G01X10873980Y2952380D02*
X10836200Y2985220D01*
X10793020Y2945220D01*
X10836200Y2905220D01*
X10873980Y2938060D01*
G03Y2952380I-10490J7160D01*
G37*
G36*
G01X10997660Y2943300D02*
X11012500Y2930220D01*
X11093180Y2945220D01*
X11012500Y2960220D01*
X10997660Y2947140D01*
G03Y2943300I12550J-1920D01*
G37*
G36*
G01X10998000Y2812110D02*
X11012500Y2800220D01*
X11092540Y2815220D01*
X11012500Y2830220D01*
X10998000Y2818330D01*
G03Y2812110I9670J-3110D01*
G37*
G36*
G01Y2877110D02*
X11012500Y2865220D01*
X11092540Y2880220D01*
X11012500Y2895220D01*
X10998000Y2883330D01*
G03Y2877110I9670J-3110D01*
G37*
G36*
G01X10979850Y3149520D02*
X10993800Y3070000D01*
X11035680Y3108290D01*
X11073800Y3150000D01*
X10990000Y3160160D01*
G03X10979850Y3149520I0J-10161D01*
G37*
G36*
G01X11180130Y3187970D02*
X11146200Y3150000D01*
X11186200Y3107460D01*
X11226200Y3150000D01*
X11192270Y3187970D01*
G03X11180130I-6070J-8140D01*
G37*
G36*
G01X10846120Y3853010D02*
X10810000Y3886200D01*
X10766820Y3846200D01*
X10810000Y3806200D01*
X10846120Y3839390D01*
G03Y3853010I-10720J6810D01*
G37*
G36*
G01X11255490Y4723560D02*
X11277310Y4745380D01*
G02X11310270Y4739220I14371J-14367D01*
G03X11380000Y4693780I69730J30782D01*
G03X11432220Y4714480I0J76218D01*
G02X11449320Y4707610I6955J-7405D01*
G03X11450370Y4700000I45675J2425D01*
G03X11449260Y4690000I44628J-10015D01*
G01Y4660000D01*
G03X11459340Y4631360I45727J0D01*
G02Y4618640I-7927J-6360D01*
G03X11449260Y4590000I35647J-28640D01*
G01Y4560000D01*
G03X11461480Y4528880I45736J0D01*
G01X11499100Y4488350D01*
Y4420900D01*
X11431650D01*
X11391120Y4458520D01*
G03X11360000Y4470740I-31120J-33516D01*
G01X11330000D01*
G03X11320000Y4469630I15J-45738D01*
G03X11310000Y4470740I-10015J-44628D01*
G01X11280000D01*
G03X11270000Y4469630I15J-45738D01*
G03X11260000Y4470740I-10015J-44628D01*
G01X11230000D01*
G03X11220000Y4469630I15J-45738D01*
G03X11210000Y4470740I-10015J-44628D01*
G01X11191260D01*
G02X11184080Y4488080I5J10159D01*
G01X11231790Y4535800D01*
X11236990Y4534900D01*
G03X11250000Y4533780I13018J75099D01*
G03X11326220Y4610000I0J76220D01*
G03X11308290Y4659110I-76221J0D01*
G01X11305900Y4661950D01*
Y4673150D01*
X11255490Y4723560D01*
G37*
G36*
G01X11146920Y4290160D02*
X11160000Y4305000D01*
X11145000Y4368180D01*
X11130000Y4305000D01*
X11143080Y4290160D01*
G03X11146920I1920J12550D01*
G37*
G36*
G01X11196920D02*
X11210000Y4305000D01*
X11195000Y4368180D01*
X11180000Y4305000D01*
X11193080Y4290160D01*
G03X11196920I1920J12550D01*
G37*
G36*
G01X10880480Y4589680D02*
Y4610000D01*
X10848200Y4611800D01*
X10850000Y4579520D01*
X10870320D01*
G03X10880480Y4589680I0J10160D01*
G37*
G36*
G01X10896920Y4290160D02*
X10910000Y4305000D01*
X10895000Y4368180D01*
X10880000Y4305000D01*
X10893080Y4290160D01*
G03X10896920I1920J12550D01*
G37*
G36*
G01X10891890Y4439500D02*
X10880000Y4425000D01*
X10895000Y4362460D01*
X10910000Y4425000D01*
X10898110Y4439500D01*
G03X10891890I-3110J-9670D01*
G37*
G36*
G01X10798110Y4290500D02*
X10810000Y4305000D01*
X10795000Y4367540D01*
X10780000Y4305000D01*
X10791890Y4290500D01*
G03X10798110I3110J9670D01*
G37*
G36*
G01X10848110D02*
X10860000Y4305000D01*
X10845000Y4367540D01*
X10830000Y4305000D01*
X10841890Y4290500D01*
G03X10848110I3110J9670D01*
G37*
G36*
G01X11065920Y4752540D02*
X11051550Y4766910D01*
X11027460Y4745360D01*
X11051550Y4723810D01*
X11065920Y4738180D01*
G03Y4752540I-7180J7180D01*
G37*
G36*
G01X10952180Y4574080D02*
X10966550Y4588450D01*
X10945000Y4612540D01*
X10923450Y4588450D01*
X10937820Y4574080D01*
G03X10952180I7180J7180D01*
G37*
G36*
G01X10948110Y4290500D02*
X10960000Y4305000D01*
X10945000Y4367540D01*
X10930000Y4305000D01*
X10941890Y4290500D01*
G03X10948110I3110J9670D01*
G37*
G36*
G01X10941890Y4439500D02*
X10930000Y4425000D01*
X10945000Y4362460D01*
X10960000Y4425000D01*
X10948110Y4439500D01*
G03X10941890I-3110J-9670D01*
G37*
G36*
G01X11025840Y4574080D02*
X11040210Y4588450D01*
X11018660Y4612540D01*
X10997110Y4588450D01*
X11011480Y4574080D01*
G03X11025840I7180J7180D01*
G37*
G36*
G01X10998110Y4290500D02*
X11010000Y4305000D01*
X10995000Y4367540D01*
X10980000Y4305000D01*
X10991890Y4290500D01*
G03X10998110I3110J9670D01*
G37*
G36*
G01X10991890Y4439500D02*
X10980000Y4425000D01*
X10995000Y4362460D01*
X11010000Y4425000D01*
X10998110Y4439500D01*
G03X10991890I-3110J-9670D01*
G37*
G36*
G01X11099500Y4574080D02*
X11113870Y4588450D01*
X11092320Y4612540D01*
X11070770Y4588450D01*
X11085140Y4574080D01*
G03X11099500I7180J7180D01*
G37*
G36*
G01X11048110Y4290500D02*
X11060000Y4305000D01*
X11045000Y4367540D01*
X11030000Y4305000D01*
X11041890Y4290500D01*
G03X11048110I3110J9670D01*
G37*
G36*
G01X11041890Y4439500D02*
X11030000Y4425000D01*
X11045000Y4362460D01*
X11060000Y4425000D01*
X11048110Y4439500D01*
G03X11041890I-3110J-9670D01*
G37*
G36*
G01X11173160Y4574080D02*
X11187530Y4588450D01*
X11165980Y4612540D01*
X11144430Y4588450D01*
X11158800Y4574080D01*
G03X11173160I7180J7180D01*
G37*
G36*
G01X11098110Y4290500D02*
X11110000Y4305000D01*
X11095000Y4367540D01*
X11080000Y4305000D01*
X11091890Y4290500D01*
G03X11098110I3110J9670D01*
G37*
G36*
G01X11091890Y4439500D02*
X11080000Y4425000D01*
X11095000Y4362460D01*
X11110000Y4425000D01*
X11098110Y4439500D01*
G03X11091890I-3110J-9670D01*
G37*
G36*
G01X11065920Y5047180D02*
X11051550Y5061550D01*
X11027460Y5040000D01*
X11051550Y5018450D01*
X11065920Y5032820D01*
G03Y5047180I-7180J7180D01*
G37*
G36*
G01Y4826200D02*
X11051550Y4840570D01*
X11027460Y4819020D01*
X11051550Y4797470D01*
X11065920Y4811840D01*
G03Y4826200I-7180J7180D01*
G37*
G36*
G01Y4973520D02*
X11051550Y4987890D01*
X11027460Y4966340D01*
X11051550Y4944790D01*
X11065920Y4959160D01*
G03Y4973520I-7180J7180D01*
G37*
G36*
G01Y4899860D02*
X11051550Y4914230D01*
X11027460Y4892680D01*
X11051550Y4871130D01*
X11065920Y4885500D01*
G03Y4899860I-7180J7180D01*
G37*
G36*
G01X10891890Y5609500D02*
X10880000Y5595000D01*
X10895000Y5532460D01*
X10910000Y5595000D01*
X10898110Y5609500D01*
G03X10891890I-3110J-9670D01*
G37*
G36*
G01X10841890D02*
X10830000Y5595000D01*
X10845000Y5532460D01*
X10860000Y5595000D01*
X10848110Y5609500D01*
G03X10841890I-3110J-9670D01*
G37*
G36*
G01X10941890D02*
X10930000Y5595000D01*
X10945000Y5532460D01*
X10960000Y5595000D01*
X10948110Y5609500D01*
G03X10941890I-3110J-9670D01*
G37*
G36*
G01X10791890D02*
X10780000Y5595000D01*
X10795000Y5532460D01*
X10810000Y5595000D01*
X10798110Y5609500D01*
G03X10791890I-3110J-9670D01*
G37*
G36*
G01X11191890D02*
X11180000Y5595000D01*
X11195000Y5532460D01*
X11210000Y5595000D01*
X11198110Y5609500D01*
G03X11191890I-3110J-9670D01*
G37*
G36*
G01X10991890D02*
X10980000Y5595000D01*
X10995000Y5532460D01*
X11010000Y5595000D01*
X10998110Y5609500D01*
G03X10991890I-3110J-9670D01*
G37*
G36*
G01X11041890D02*
X11030000Y5595000D01*
X11045000Y5532460D01*
X11060000Y5595000D01*
X11048110Y5609500D01*
G03X11041890I-3110J-9670D01*
G37*
G36*
G01X11141890D02*
X11130000Y5595000D01*
X11145000Y5532460D01*
X11160000Y5595000D01*
X11148110Y5609500D01*
G03X11141890I-3110J-9670D01*
G37*
G36*
G01X11091890D02*
X11080000Y5595000D01*
X11095000Y5532460D01*
X11110000Y5595000D01*
X11098110Y5609500D01*
G03X11091890I-3110J-9670D01*
G37*
G36*
G01X13911940Y7870000D02*
Y7884950D01*
G02X13946630Y7899320I20321J1D01*
G01X14545360Y7300590D01*
Y5782750D01*
G02X14510670Y5768380I-20321J-1D01*
G01X14393150Y5885900D01*
X11754960D01*
X11440430Y5571370D01*
G02X11405740Y5585740I-14369J14369D01*
G01Y5595000D01*
G03X11401780Y5613620I-45741J3D01*
G01X11400900Y5615590D01*
Y6673190D01*
X11114520Y6959570D01*
G02X11128890Y6994260I14369J14369D01*
G01X12121050D01*
X12731050Y6384260D01*
X13598050D01*
G02X13615270Y6353140I5J-20321D01*
G03X13599980Y6300000I84728J-53148D01*
G03X13800020I100020J0D01*
G03X13784730Y6353140I-100018J-8D01*
G02X13801950Y6384260I17215J10799D01*
G01X13968950D01*
X14075740Y6491050D01*
Y6777260D01*
G03X14089540Y6810000I-31937J32740D01*
G01Y6890000D01*
G03X14075740Y6922740I-45737J0D01*
G01Y7418950D01*
X13998950Y7495740D01*
X13882100D01*
Y7529150D01*
X13900310Y7549520D01*
G03X13911940Y7580000I-34112J30475D01*
G01Y7660000D01*
G03X13898890Y7692000I-45743J7D01*
G03X13911940Y7723990I-32684J31990D01*
G01Y7803990D01*
G03X13903120Y7831000I-45743J8D01*
G02Y7842990I8196J5995D01*
G03X13911940Y7870000I-36923J27002D01*
G37*
G36*
G01X11742340Y2492140D02*
X11727500Y2505220D01*
X11646820Y2490220D01*
X11727500Y2475220D01*
X11742340Y2488300D01*
G03Y2492140I-12550J1920D01*
G37*
G36*
G01Y2557140D02*
X11727500Y2570220D01*
X11646820Y2555220D01*
X11727500Y2540220D01*
X11742340Y2553300D01*
G03Y2557140I-12550J1920D01*
G37*
G36*
G01X11554590Y2632570D02*
X11572500Y2605220D01*
X11660010Y2618470D01*
X11727500Y2635220D01*
X11564400Y2645380D01*
G03X11554590Y2632570I0J-10161D01*
G37*
G36*
G01X11742000Y2623330D02*
X11727500Y2635220D01*
X11647460Y2620220D01*
X11727500Y2605220D01*
X11742000Y2617110D01*
G03Y2623330I-9670J3110D01*
G37*
G36*
G01X11554590Y2697570D02*
X11572500Y2670220D01*
X11660010Y2683470D01*
X11727500Y2700220D01*
X11564400Y2710380D01*
G03X11554590Y2697570I0J-10161D01*
G37*
G36*
G01X11558000Y2877110D02*
X11572500Y2865220D01*
X11652540Y2880220D01*
X11572500Y2895220D01*
X11558000Y2883330D01*
G03Y2877110I9670J-3110D01*
G37*
G36*
G01X11744510Y2956960D02*
X11727500Y2960220D01*
X11647460Y2945080D01*
X11727500Y2930220D01*
X11746250Y2945560D01*
G03X11744510Y2956960I-9140J4438D01*
G37*
G36*
G01X11558000Y2812110D02*
X11572500Y2800220D01*
X11652540Y2815220D01*
X11572500Y2830220D01*
X11558000Y2818330D01*
G03Y2812110I9670J-3110D01*
G37*
G36*
G01X11436020Y3686640D02*
X11473800Y3653800D01*
X11516980Y3693800D01*
X11473800Y3733800D01*
X11436020Y3700960D01*
G03Y3686640I10490J-7160D01*
G37*
G36*
G01X11447780Y3700960D02*
X11410000Y3733800D01*
X11366820Y3693800D01*
X11410000Y3653800D01*
X11447780Y3686640D01*
G03Y3700960I-10490J7160D01*
G37*
G36*
G01X11278640Y3728120D02*
X11330000Y3653800D01*
X11372840Y3692380D01*
X11410000Y3733800D01*
X11290000Y3746500D01*
G03X11278640Y3728120I0J-12701D01*
G37*
G36*
G01X11747240Y3861500D02*
X11706200Y3886200D01*
X11659860Y3845790D01*
X11706200Y3806200D01*
X11748010Y3840170D01*
G03X11747240Y3861500I-23420J9833D01*
G37*
G36*
G01X11436020Y3839040D02*
X11473800Y3806200D01*
X11516980Y3846200D01*
X11473800Y3886200D01*
X11436020Y3853360D01*
G03Y3839040I10490J-7160D01*
G37*
G36*
G01X11447780Y3853360D02*
X11410000Y3886200D01*
X11366820Y3846200D01*
X11410000Y3806200D01*
X11447780Y3839040D01*
G03Y3853360I-10490J7160D01*
G37*
G36*
G01X11278640Y3880520D02*
X11330000Y3806200D01*
X11372840Y3844780D01*
X11410000Y3886200D01*
X11290000Y3898900D01*
G03X11278640Y3880520I0J-12701D01*
G37*
G36*
G01X11480160Y4623080D02*
X11495000Y4610000D01*
X11558180Y4625000D01*
X11495000Y4640000D01*
X11480160Y4626920D01*
G03Y4623080I12550J-1920D01*
G37*
G36*
G01X11629840Y4626920D02*
X11615000Y4640000D01*
X11551820Y4625000D01*
X11615000Y4610000D01*
X11629840Y4623080D01*
G03Y4626920I-12550J1920D01*
G37*
G36*
G01X13232380Y5544100D02*
X14167620D01*
X14217260Y5494460D01*
G03X14325000Y5449180I107740J105539D01*
G03X14412050Y5476840I0J150809D01*
G02X14444100Y5460250I11730J-16593D01*
G01Y4445500D01*
X14396770Y4398170D01*
X14325000D01*
G03X14217260Y4352890I0J-150819D01*
G01X14167620Y4303250D01*
X13232380D01*
X13182740Y4352890D01*
G03X13075000Y4398170I-107740J-105539D01*
G03Y4096530I0J-150820D01*
G03X13182740Y4141810I0J150819D01*
G01X13232380Y4191450D01*
X14167620D01*
X14217260Y4141810D01*
G03X14325000Y4096530I107740J105539D01*
G03X14475820Y4247350I0J150820D01*
G01Y4319120D01*
X14510670Y4353970D01*
G02X14545360Y4339600I14369J-14369D01*
G01Y4061890D01*
X14380010Y3896540D01*
X12109350D01*
X11610900Y4394990D01*
Y4488350D01*
X11648520Y4528880D01*
G03X11660740Y4560000I-33516J31120D01*
G01Y4562090D01*
G02X11678080Y4569270I10159J-6D01*
G01X11746090Y4501260D01*
G02X11761810Y4474550I-3468J-20022D01*
G03X11759260Y4459500I43189J-15059D01*
G01Y4399500D01*
G03X11805000Y4353760I45740J0D01*
G01X11934260D01*
Y4114260D01*
X12258950D01*
X12295740Y4151050D01*
Y4268860D01*
X12380530D01*
X12420860Y4228530D01*
X12438680Y4167240D01*
G03X12482600Y4134260I43920J12754D01*
G01X12562600D01*
G03X12592220Y4145150I0J45727D01*
G02X12605380I6580J-7745D01*
G03X12635000Y4134260I29620J34837D01*
G01X12715000D01*
G03X12760740Y4180000I0J45740D01*
G01Y4260000D01*
G03X12749110Y4290480I-45742J5D01*
G01X12729930Y4311940D01*
X12778010Y4359950D01*
X12779010Y4360570D01*
G03X12800740Y4399500I-24007J38930D01*
G01Y4459500D01*
G03X12791620Y4486910I-45750J0D01*
G02Y4499090I8130J6090D01*
G03X12800740Y4526500I-36630J27410D01*
G01Y4586500D01*
G03X12791620Y4613910I-45750J0D01*
G02Y4626090I8130J6090D01*
G03X12800740Y4653500I-36630J27410D01*
G01Y4713500D01*
G03X12755000Y4759240I-45740J0D01*
G01X12595000D01*
G03X12576830Y4755480I-8J-45742D01*
G01X12574900Y4754640D01*
X12525970D01*
X12471200Y4809410D01*
G02X12485560Y4844100I14364J14371D01*
G01X12933150D01*
X13125900Y5036850D01*
Y5437620D01*
X13180540Y5492260D01*
X13180580Y5492290D01*
G03X13182740Y5494460I-105808J107480D01*
G01X13232380Y5544100D01*
G37*
G36*
G01X11629840Y4676920D02*
X11615000Y4690000D01*
X11551820Y4675000D01*
X11615000Y4660000D01*
X11629840Y4673080D01*
G03Y4676920I-12550J1920D01*
G37*
G36*
G01X11242820Y4645920D02*
X11228450Y4631550D01*
X11250000Y4607460D01*
X11271550Y4631550D01*
X11257180Y4645920D01*
G03X11242820I-7180J-7180D01*
G37*
G36*
G01X11248110Y4290500D02*
X11260000Y4305000D01*
X11245000Y4367540D01*
X11230000Y4305000D01*
X11241890Y4290500D01*
G03X11248110I3110J9670D01*
G37*
G36*
G01X11629500Y4728110D02*
X11615000Y4740000D01*
X11552460Y4725000D01*
X11615000Y4710000D01*
X11629500Y4721890D01*
G03Y4728110I-9670J3110D01*
G37*
G36*
G01X11417650Y4371490D02*
X11360000Y4425000D01*
X11342460Y4365000D01*
X11360000Y4305000D01*
X11417650Y4358510D01*
G03Y4371490I-7820J6490D01*
G37*
G36*
G01X11561490Y4502350D02*
X11615000Y4560000D01*
X11555000Y4577540D01*
X11495000Y4560000D01*
X11548510Y4502350D01*
G03X11561490I6490J7820D01*
G37*
G36*
G01X11298110Y4290500D02*
X11310000Y4305000D01*
X11295000Y4367540D01*
X11280000Y4305000D01*
X11291890Y4290500D01*
G03X11298110I3110J9670D01*
G37*
G36*
G01X11659520Y5250320D02*
Y5230000D01*
X11691800Y5228200D01*
X11690000Y5260480D01*
X11669680D01*
G03X11659520Y5250320I0J-10160D01*
G37*
G36*
G01X11658280Y5266560D02*
X11684590D01*
X11718060Y5233090D01*
Y5190000D01*
G03X11745950Y5147890I45735J0D01*
G01X11801070Y5124530D01*
X11870460Y5055130D01*
Y5030000D01*
G03X11880730Y5001120I45741J0D01*
G01X11883740Y4997430D01*
G03X11880420Y4982010I72452J-23667D01*
G01X11880040Y4978450D01*
X11870320Y4968730D01*
X11808150Y5030900D01*
X11660920D01*
X11660730Y5040870D01*
G03X11659630Y5050000I-45730J-878D01*
G03X11660740Y5060000I-44628J10015D01*
G01Y5090000D01*
G03X11659630Y5100000I-45738J-15D01*
G03X11660740Y5110000I-44628J10015D01*
G01Y5140000D01*
G03X11659630Y5150000I-45738J-15D01*
G03X11660740Y5160000I-44628J10015D01*
G01Y5190000D01*
G03X11659630Y5200000I-45738J-15D01*
G03X11660740Y5210000I-44628J10015D01*
G01Y5240000D01*
G03X11658730Y5253420I-45741J10D01*
G01X11658280Y5254880D01*
Y5266560D01*
G37*
G36*
G01X11629500Y4828110D02*
X11615000Y4840000D01*
X11552460Y4825000D01*
X11615000Y4810000D01*
X11629500Y4821890D01*
G03Y4828110I-9670J3110D01*
G37*
G36*
G01Y4878110D02*
X11615000Y4890000D01*
X11552460Y4875000D01*
X11615000Y4860000D01*
X11629500Y4871890D01*
G03Y4878110I-9670J3110D01*
G37*
G36*
G01Y4778110D02*
X11615000Y4790000D01*
X11552460Y4775000D01*
X11615000Y4760000D01*
X11629500Y4771890D01*
G03Y4778110I-9670J3110D01*
G37*
G36*
G01Y4978110D02*
X11615000Y4990000D01*
X11552460Y4975000D01*
X11615000Y4960000D01*
X11629500Y4971890D01*
G03Y4978110I-9670J3110D01*
G37*
G36*
G01X11480500Y5221890D02*
X11495000Y5210000D01*
X11557540Y5225000D01*
X11495000Y5240000D01*
X11480500Y5228110D01*
G03Y5221890I9670J-3110D01*
G37*
G36*
G01Y5071890D02*
X11495000Y5060000D01*
X11557540Y5075000D01*
X11495000Y5090000D01*
X11480500Y5078110D01*
G03Y5071890I9670J-3110D01*
G37*
G36*
G01Y5021890D02*
X11495000Y5010000D01*
X11557540Y5025000D01*
X11495000Y5040000D01*
X11480500Y5028110D01*
G03Y5021890I9670J-3110D01*
G37*
G36*
G01Y5171890D02*
X11495000Y5160000D01*
X11557540Y5175000D01*
X11495000Y5190000D01*
X11480500Y5178110D01*
G03Y5171890I9670J-3110D01*
G37*
G36*
G01Y5121890D02*
X11495000Y5110000D01*
X11557540Y5125000D01*
X11495000Y5140000D01*
X11480500Y5128110D01*
G03Y5121890I9670J-3110D01*
G37*
G36*
G01X11372820Y4805920D02*
X11358450Y4791550D01*
X11380000Y4767460D01*
X11401550Y4791550D01*
X11387180Y4805920D01*
G03X11372820I-7180J-7180D01*
G37*
G36*
G01X11480500Y4921890D02*
X11495000Y4910000D01*
X11557540Y4925000D01*
X11495000Y4940000D01*
X11480500Y4928110D01*
G03Y4921890I9670J-3110D01*
G37*
G36*
G01X11629500Y5278110D02*
X11615000Y5290000D01*
X11552460Y5275000D01*
X11615000Y5260000D01*
X11629500Y5271890D01*
G03Y5278110I-9670J3110D01*
G37*
G36*
G01X11629840Y5326920D02*
X11615000Y5340000D01*
X11551820Y5325000D01*
X11615000Y5310000D01*
X11629840Y5323080D01*
G03Y5326920I-12550J1920D01*
G37*
G36*
G01X11241890Y5609500D02*
X11230000Y5595000D01*
X11245000Y5532460D01*
X11260000Y5595000D01*
X11248110Y5609500D01*
G03X11241890I-3110J-9670D01*
G37*
G36*
G01X11341890D02*
X11330000Y5595000D01*
X11345000Y5532460D01*
X11360000Y5595000D01*
X11348110Y5609500D01*
G03X11341890I-3110J-9670D01*
G37*
G36*
G01X11291890D02*
X11280000Y5595000D01*
X11295000Y5532460D01*
X11310000Y5595000D01*
X11298110Y5609500D01*
G03X11291890I-3110J-9670D01*
G37*
G36*
G01X12058950Y7764260D02*
X12791050D01*
X12834260Y7721050D01*
Y7554260D01*
X12940520D01*
G02X12954890Y7519570I0J-20321D01*
G01X12934260Y7498950D01*
Y7275910D01*
X12933350Y7273910D01*
G03X12929260Y7255000I41651J-18906D01*
G01Y6685000D01*
G03X12933350Y6666090I45741J-4D01*
G01X12934260Y6664090D01*
Y6625740D01*
X12838950D01*
X12218950Y7245740D01*
X11589480D01*
G02X11575110Y7280430I0J20321D01*
G01X12058950Y7764260D01*
G37*
G36*
G01X11773240Y2894100D02*
X12196850D01*
X12284100Y2806850D01*
Y2483150D01*
X12256850Y2455900D01*
X12009740D01*
G02X11989460Y2477450I1J20318D01*
G03X11989540Y2480220I-45662J2705D01*
G01Y2505350D01*
X12053080Y2568890D01*
X12109640Y2586280D01*
G03X12125080Y2594530I-13437J43721D01*
G01X12130400Y2598860D01*
X12142580D01*
X12144250Y2598260D01*
G03X12170000Y2593780I25746J71741D01*
G03Y2746220I0J76220D01*
G03X12144250Y2741740I-4J-76221D01*
G01X12142580Y2741140D01*
X12130400D01*
X12125080Y2745470D01*
G03X12096200Y2755740I-28880J-35471D01*
G01X12016200D01*
G03X11986580Y2744850I0J-45727D01*
G02X11973420I-6580J7745D01*
G03X11943800Y2755740I-29620J-34837D01*
G01X11863800D01*
G03X11818060Y2710000I0J-45740D01*
G01Y2676120D01*
X11773240D01*
Y2700220D01*
G03X11769760Y2717720I-45741J0D01*
G03X11773240Y2735220I-42261J17500D01*
G01Y2765220D01*
G03X11769760Y2782720I-45741J0D01*
G03X11773240Y2800220I-42261J17500D01*
G01Y2830220D01*
G03X11769760Y2847720I-45741J0D01*
G03X11773240Y2865220I-42261J17500D01*
G01Y2894100D01*
G37*
G36*
G01X12134650Y2678700D02*
X12096200Y2710000D01*
X12049850Y2670000D01*
X12096200Y2630000D01*
X12134650Y2661300D01*
G03Y2678700I-23860J8700D01*
G37*
G36*
G01X12013580Y2604600D02*
X12096200Y2630000D01*
X12060830Y2674350D01*
X12016200Y2710000D01*
X11988190Y2630830D01*
G03X12013580Y2604600I25390J-827D01*
G37*
G36*
G01X11805590Y2477550D02*
X11943800Y2480220D01*
X11906830Y2521160D01*
X11863800Y2560220D01*
X11796680Y2498260D01*
G03X11805590Y2477550I9830J-8043D01*
G37*
G36*
G01X11791740Y2547110D02*
X11863800Y2480220D01*
X11906800Y2519190D01*
X11943800Y2560220D01*
X11801060Y2567910D01*
G03X11791740Y2547110I452J-12690D01*
G37*
G36*
G01X11980000Y4530000D02*
X12014100Y4564100D01*
X12225900D01*
X12250000Y4540000D01*
Y4170000D01*
X12240000Y4160000D01*
X11980000D01*
Y4530000D01*
G37*
G36*
G01X11994700Y4433340D02*
X11965000Y4459500D01*
X11878650Y4429500D01*
X11965000Y4399500D01*
X11994700Y4425660D01*
G03Y4433340I-25110J3840D01*
G37*
G36*
G01X11773420Y4553300D02*
X11805000Y4526500D01*
X11888170Y4556390D01*
X11805000Y4586500D01*
X11774220Y4567840D01*
G03X11773420Y4553300I9990J-7842D01*
G37*
G36*
G01X11994700Y4560340D02*
X11965000Y4586500D01*
X11878650Y4556500D01*
X11965000Y4526500D01*
X11994700Y4552660D01*
G03Y4560340I-25110J3840D01*
G37*
G36*
G01X11776690Y4677900D02*
X11805000Y4653500D01*
X11887540Y4683500D01*
X11805000Y4713500D01*
X11776690Y4689100D01*
G03Y4677900I8480J-5600D01*
G37*
G36*
G01X11801260Y5774100D02*
X14346850D01*
X14361490Y5759450D01*
X14350740Y5748690D01*
X14345730Y5749390D01*
G03X14325000Y5750820I-20720J-149391D01*
G03X14217260Y5705540I0J-150819D01*
G01X14167620Y5655900D01*
X13232380D01*
X13182740Y5705540D01*
G03X13075000Y5750820I-107740J-105539D01*
G03X12924180Y5600000I0J-150820D01*
G03X12966310Y5495440I150816J0D01*
G01X12966520Y5495220D01*
X13014100Y5439500D01*
Y5083150D01*
X12886850Y4955900D01*
X12052710D01*
G02X12032400Y4975710I2J20318D01*
G03X12031280Y4986950I-76198J-1917D01*
G01X12031130Y4987820D01*
Y4998860D01*
X12044900D01*
X12046830Y4998020D01*
G03X12065000Y4994260I18162J41982D01*
G01X12215000D01*
G03X12260740Y5040000I0J45740D01*
G01Y5100000D01*
G03X12215000Y5145740I-45740J0D01*
G01X12065000D01*
G03X12046830Y5141980I-8J-45742D01*
G01X12044900Y5141140D01*
X12030400D01*
X12025080Y5145470D01*
G03X11996200Y5155740I-28880J-35471D01*
G01X11971070D01*
X11905560Y5221250D01*
X11887730Y5282740D01*
G03X11882300Y5294690I-43926J-12751D01*
G02X11895460Y5309230I8553J5484D01*
G03X11916200Y5304260I20736J40771D01*
G01X11962890D01*
X11999050Y5268100D01*
X12024990D01*
X12035140Y5259350D01*
G03X12065000Y5248260I29860J34654D01*
G01X12215000D01*
G03X12260740Y5294000I0J45740D01*
G01Y5354000D01*
G03X12251620Y5381410I-45750J0D01*
G02Y5393590I8130J6090D01*
G03X12260740Y5421000I-36630J27410D01*
G01Y5481000D01*
G03X12215000Y5526740I-45740J0D01*
G01X12065000D01*
G03X12062390Y5526670I-79J-45742D01*
G01X12057850Y5526410D01*
X12041940Y5542310D01*
Y5589000D01*
G03X11996200Y5634740I-45740J0D01*
G01X11949510D01*
X11893360Y5690890D01*
X11767110D01*
G02X11752740Y5725580I-1J20321D01*
G01X11801260Y5774100D01*
G37*
G36*
G01X12035300Y5066160D02*
X12065000Y5040000D01*
X12146350Y5070000D01*
X12065000Y5100000D01*
X12035300Y5073840D01*
G03Y5066160I25110J-3840D01*
G37*
G36*
G01X11964900Y4991550D02*
X11996200Y5030000D01*
X11956200Y5076350D01*
X11916200Y5030000D01*
X11947500Y4991550D01*
G03X11964900I8700J23860D01*
G37*
G36*
G01X12034650Y5078700D02*
X11996200Y5110000D01*
X11949850Y5070000D01*
X11996200Y5030000D01*
X12034650Y5061300D01*
G03Y5078700I-23860J8700D01*
G37*
G36*
G01X11869200Y5182400D02*
X11843800Y5270000D01*
X11799710Y5234860D01*
X11763800Y5190000D01*
X11841400Y5157110D01*
G03X11869200Y5182400I2397J25290D01*
G37*
G36*
G01X11795100Y5308450D02*
X11763800Y5270000D01*
X11803800Y5223650D01*
X11843800Y5270000D01*
X11812500Y5308450D01*
G03X11795100I-8700J-23860D01*
G37*
G36*
G01X11794840Y4845000D02*
X11805000Y4780500D01*
X11894330Y4806480D01*
X11965000Y4840500D01*
X11805290Y4855160D01*
G03X11794840Y4845000I-286J-10160D01*
G37*
G36*
G01X11812500Y5311550D02*
X11843800Y5350000D01*
X11803800Y5396350D01*
X11763800Y5350000D01*
X11795100Y5311550D01*
G03X11812500I8700J23860D01*
G37*
G36*
G01X11725350Y5540300D02*
X11763800Y5509000D01*
X11810150Y5549000D01*
X11763800Y5589000D01*
X11725350Y5557700D01*
G03Y5540300I23860J-8700D01*
G37*
G36*
G01X12044860Y5446990D02*
X12065000Y5425830D01*
X12142540Y5451000D01*
X12065000Y5476170D01*
X12044860Y5455010D01*
G03Y5446990I9340J-4010D01*
G37*
G36*
G01X12036690Y5318400D02*
X12065000Y5294000D01*
X12142540Y5324000D01*
X12065000Y5354000D01*
X12036690Y5329600D01*
G03Y5318400I8480J-5600D01*
G37*
G36*
G01X12457200Y4267400D02*
X12482600Y4180000D01*
X12526700Y4215150D01*
X12562600Y4260000D01*
X12484940Y4292690D01*
G03X12457200Y4267400I-2342J-25290D01*
G37*
G36*
G01X12668930Y4297970D02*
X12635000Y4260000D01*
X12675000Y4217460D01*
X12715000Y4260000D01*
X12681070Y4297970D01*
G03X12668930I-6070J-8140D01*
G37*
G36*
G01X12565300Y4679660D02*
X12595000Y4653500D01*
X12681350Y4683500D01*
X12595000Y4713500D01*
X12565300Y4687340D01*
G03Y4679660I25110J-3840D01*
G37*
G36*
G01X12563330Y4554190D02*
X12595000Y4526500D01*
X12677540Y4556410D01*
X12595000Y4586500D01*
X12564040Y4566710D01*
G03X12563330Y4554190I7629J-6713D01*
G37*
G36*
G01X12681420Y4328130D02*
X12752880Y4399500D01*
X12675000Y4432040D01*
X12597120Y4399500D01*
X12668580Y4328130D01*
G03X12681420I6420J7870D01*
G37*
G36*
G01X12566220Y4424360D02*
X12595000Y4399500D01*
X12677540Y4429490D01*
X12595000Y4459500D01*
X12566300Y4435770D01*
G03X12566220Y4424360I8369J-5764D01*
G37*
G36*
G01X13209230Y2277180D02*
X13145710Y2340700D01*
X13072460Y2270000D01*
X13145710Y2199300D01*
X13209230Y2262820D01*
G03Y2277180I-7180J7180D01*
G37*
G36*
G01Y4254530D02*
X13145710Y4318050D01*
X13072460Y4247350D01*
X13145710Y4176650D01*
X13209230Y4240170D01*
G03Y4254530I-7180J7180D01*
G37*
G36*
G01X13077180Y5460770D02*
X13145700Y5529290D01*
X13075100Y5602540D01*
X13003750Y5529880D01*
X13062270Y5461350D01*
G03X13077180Y5460770I7723J6601D01*
G37*
G36*
G01X13209230Y5607180D02*
X13145710Y5670700D01*
X13072460Y5600000D01*
X13145710Y5529300D01*
X13209230Y5592820D01*
G03Y5607180I-7180J7180D01*
G37*
G36*
G01X13125740Y7554260D02*
Y7568250D01*
X13223490D01*
G02X13243800Y7548370I-6J-20321D01*
G03X13249270Y7521600I76201J1627D01*
G01X13250000Y7519780D01*
Y7460000D01*
X13300000Y7410000D01*
Y6720000D01*
X13260000Y6680000D01*
X12980000D01*
Y7480000D01*
X13054260Y7554260D01*
X13125740D01*
G37*
G36*
G01X13105300Y7640150D02*
X13135000Y7613990D01*
X13196350Y7643990D01*
X13135000Y7673990D01*
X13105300Y7647830D01*
G03Y7640150I25110J-3840D01*
G37*
G36*
G01X13165830Y7903930D02*
X13203800Y7870000D01*
X13246340Y7910000D01*
X13203800Y7950000D01*
X13165830Y7916070D01*
G03Y7903930I8140J-6070D01*
G37*
G36*
G01X13255180Y7779140D02*
X13135000Y7768980D01*
X13180770Y7734740D01*
X13245000Y7708990D01*
X13265200Y7767280D01*
G03X13255180Y7779140I-10020J1697D01*
G37*
G36*
G01X13303570Y7738320D02*
X13314570Y7749320D01*
G02X13349260Y7734950I14369J-14369D01*
G01Y7708990D01*
G03X13395000Y7663250I45740J0D01*
G01X13505000D01*
G03X13534860Y7674340I0J45744D01*
G01X13545010Y7683090D01*
X13578210D01*
X13590410Y7681990D01*
X13589440Y7671160D01*
X13589270Y7670460D01*
G03X13588060Y7660000I44531J-10451D01*
G01Y7580000D01*
G03X13633800Y7534260I45740J0D01*
G01X13713800D01*
G03X13743090Y7544870I0J45734D01*
G01X13750630Y7551160D01*
X13770300Y7529150D01*
Y7495740D01*
X13631050D01*
X13555830Y7420510D01*
G02X13521140Y7434880I-14369J14370D01*
G01Y7466730D01*
X13540250Y7489840D01*
G03X13550740Y7518990I-35257J29150D01*
G01Y7578990D01*
G03X13505000Y7624730I-45740J0D01*
G01X13395000D01*
G03X13349260Y7578990I0J-45740D01*
G01Y7518990D01*
G03X13359750Y7489840I45747J0D01*
G01X13365930Y7482370D01*
G02X13358100Y7465740I-7834J-6470D01*
G01X13308950D01*
X13295740Y7478950D01*
Y7625740D01*
X13290740D01*
Y7673990D01*
G03X13288440Y7688300I-45738J-12D01*
G01X13287370Y7691560D01*
X13303570Y7738320D01*
G37*
G36*
G01X13667730Y7697970D02*
X13633800Y7660000D01*
X13673800Y7617460D01*
X13713800Y7660000D01*
X13679870Y7697970D01*
G03X13667730I-6070J-8140D01*
G37*
G36*
G01X13533310Y7744590D02*
X13505000Y7768990D01*
X13447460Y7738990D01*
X13505000Y7708990D01*
X13533310Y7733390D01*
G03Y7744590I-8480J5600D01*
G37*
G36*
G01X13679870Y7686020D02*
X13713800Y7723990D01*
X13673800Y7766530D01*
X13633800Y7723990D01*
X13667730Y7686020D01*
G03X13679870I6070J8140D01*
G37*
G36*
G01X13462030Y7467030D02*
X13505000Y7518990D01*
X13450000Y7555340D01*
X13395000Y7518990D01*
X13437970Y7467030D01*
G03X13462030I12030J22370D01*
G37*
G36*
G01X13576290Y7729190D02*
X13633800Y7723990D01*
X13676260Y7764640D01*
X13633800Y7803990D01*
X13571200Y7745540D01*
G03X13576290Y7729190I7769J-6549D01*
G37*
G36*
G01X13557500Y8377660D02*
Y8450000D01*
X13473200Y8451800D01*
X13475000Y8367500D01*
X13547340D01*
G03X13557500Y8377660I0J10160D01*
G37*
G36*
G01X13832270Y7542030D02*
X13866200Y7580000D01*
X13826200Y7622540D01*
X13786200Y7580000D01*
X13820130Y7542030D01*
G03X13832270I6070J8140D01*
G37*
G36*
G01X13820130Y7841960D02*
X13786200Y7803990D01*
X13826200Y7761450D01*
X13866200Y7803990D01*
X13832270Y7841960D01*
G03X13820130I-6070J-8140D01*
G37*
G36*
G01X13832270Y7832030D02*
X13866200Y7870000D01*
X13826200Y7912540D01*
X13786200Y7870000D01*
X13820130Y7832030D01*
G03X13832270I6070J8140D01*
G37*
G36*
G01X14190770Y2262820D02*
X14254290Y2199300D01*
X14327540Y2270000D01*
X14254290Y2340700D01*
X14190770Y2277180D01*
G03Y2262820I7180J-7180D01*
G37*
G36*
G01X14414840Y2370000D02*
X14325000D01*
X14323200Y2268200D01*
X14425000Y2270000D01*
Y2359840D01*
G03X14414840Y2370000I-10160J0D01*
G37*
G36*
G01X14190770Y4240170D02*
X14254290Y4176650D01*
X14327540Y4247350D01*
X14254290Y4318050D01*
X14190770Y4254530D01*
G03Y4240170I7180J-7180D01*
G37*
G36*
G01X14414840Y4347350D02*
X14325000D01*
X14323200Y4245550D01*
X14425000Y4247350D01*
Y4337190D01*
G03X14414840Y4347350I-10160J0D01*
G37*
G36*
G01X14190770Y5592820D02*
X14254290Y5529300D01*
X14327540Y5600000D01*
X14254290Y5670700D01*
X14190770Y5607180D01*
G03Y5592820I7180J-7180D01*
G37*
%LPC*%
G75*
G36*
G01X8205920Y3307890D02*
X8208520Y3306100D01*
X8897990D01*
G02X8949800Y3326420I51810J-55890D01*
G02X9026020Y3250200I0J-76220D01*
G02X9014780Y3210360I-76226J0D01*
G02X9026220Y3170200I-64771J-40160D01*
G02X9014880Y3130200I-76217J0D01*
G02Y3050200I-64877J-40000D01*
G02X9026220Y3010200I-64877J-40000D01*
G02X8950000Y2933980I-76220J0D01*
G02X8898190Y2954300I0J76210D01*
G01X8208520D01*
X8205920Y2952510D01*
G02X8180000Y2944460I-25916J37691D01*
G01X7780000D01*
G02X7754080Y2952510I-4J45741D01*
G01X7751480Y2954300D01*
X7651810D01*
G02X7600000Y2933980I-51810J55890D01*
G02X7523780Y3010200I0J76220D01*
G02X7535120Y3050200I76217J0D01*
G02Y3130200I64877J40000D01*
G02Y3210200I64877J40000D01*
G02X7523780Y3250200I64877J40000D01*
G02X7600000Y3326420I76220J0D01*
G02X7651810Y3306100I0J-76210D01*
G01X7751480D01*
X7754080Y3307890D01*
G02X7780000Y3315940I25916J-37691D01*
G01X8180000D01*
G02X8205920Y3307890I4J-45741D01*
G37*
G54D49*
X11090000Y2520000D03*
G54D47*
X13700000Y2070000D03*
Y2970000D03*
Y4047350D03*
Y4947350D03*
Y5400000D03*
G54D48*
X13075000Y2770000D03*
X14325000D03*
G54D46*
X10330000Y1962200D03*
X11680000Y1752200D03*
X11690000Y6612200D03*
%LPD*%
G75*
G36*
G01X1697750Y7472040D02*
X1739910Y7429900D01*
X1806350Y7490000D01*
X1739910Y7550100D01*
X1697750Y7507960D01*
G03Y7472040I17960J-17960D01*
G37*
G36*
G01X7635920Y3097380D02*
X7621550Y3111750D01*
X7597460Y3090200D01*
X7621550Y3068650D01*
X7635920Y3083020D01*
G03Y3097380I-7180J7180D01*
G37*
G36*
G01Y3017380D02*
X7621550Y3031750D01*
X7597460Y3010200D01*
X7621550Y2988650D01*
X7635920Y3003020D01*
G03Y3017380I-7180J7180D01*
G37*
G36*
G01Y3177380D02*
X7621550Y3191750D01*
X7597460Y3170200D01*
X7621550Y3148650D01*
X7635920Y3163020D01*
G03Y3177380I-7180J7180D01*
G37*
G36*
G01Y3257380D02*
X7621550Y3271750D01*
X7597460Y3250200D01*
X7621550Y3228650D01*
X7635920Y3243020D01*
G03Y3257380I-7180J7180D01*
G37*
G36*
G01X8914080Y3083020D02*
X8928450Y3068650D01*
X8952540Y3090200D01*
X8928450Y3111750D01*
X8914080Y3097380D01*
G03Y3083020I7180J-7180D01*
G37*
G36*
G01Y3003020D02*
X8928450Y2988650D01*
X8952540Y3010200D01*
X8928450Y3031750D01*
X8914080Y3017380D01*
G03Y3003020I7180J-7180D01*
G37*
G36*
G01Y3163020D02*
X8928450Y3148650D01*
X8952540Y3170200D01*
X8928450Y3191750D01*
X8914080Y3177380D01*
G03Y3163020I7180J-7180D01*
G37*
G36*
G01X8913880Y3243020D02*
X8928250Y3228650D01*
X8952340Y3250200D01*
X8928250Y3271750D01*
X8913880Y3257380D01*
G03Y3243020I7180J-7180D01*
G37*
G36*
G01X10376020Y4539120D02*
X10363460Y4526540D01*
X10385000Y4501820D01*
X10406540Y4526540D01*
X10393980Y4539120D01*
G03X10376020I-8980J-8980D01*
G37*
G36*
G01X11681020Y4524120D02*
X11668460Y4511540D01*
X11690000Y4486820D01*
X11711540Y4511540D01*
X11698980Y4524120D01*
G03X11681020I-8980J-8980D01*
G37*
G54D10*
X472710Y1514370D03*
Y2014370D03*
Y2514370D03*
X770000Y2940000D03*
X564250Y3544590D03*
X691510Y4532670D03*
Y5032670D03*
X770050Y5710820D03*
Y6210820D03*
X1095430Y179130D03*
Y679130D03*
X1064250Y3544590D03*
X1191510Y4532670D03*
Y5032670D03*
X1270050Y5710820D03*
Y6210820D03*
X943970Y7219990D03*
Y7719990D03*
X1277410Y7726990D03*
X943970Y8219990D03*
X1277410Y8226990D03*
X1270000Y8380000D03*
X1595430Y179130D03*
Y679130D03*
X1347900Y1716340D03*
Y2216340D03*
X1564250Y3544590D03*
X1691510Y4532670D03*
Y5032670D03*
X1770050Y5710820D03*
Y6210820D03*
X1388400Y6828990D03*
X1430000Y7720000D03*
X2095430Y179130D03*
Y679130D03*
X1888400Y6828990D03*
X1863010Y7117410D03*
X2595430Y179130D03*
Y679130D03*
X2388400Y6828990D03*
X2363010Y7117410D03*
X3095430Y179130D03*
Y679130D03*
X2888400Y6828990D03*
X2863010Y7117410D03*
X2883010Y7847410D03*
X3110000Y7850000D03*
X3130000Y8510000D03*
X2903010Y8507410D03*
X3595430Y179130D03*
Y679130D03*
X3388400Y6828990D03*
X3363010Y7117410D03*
X3383010Y7847410D03*
X3643010D03*
X3663010Y8507410D03*
X3403010D03*
X4095430Y179130D03*
Y679130D03*
X4153010Y5587410D03*
Y6087410D03*
X4213010Y7117410D03*
X3883010Y7847410D03*
X4143010D03*
X4595430Y179130D03*
Y679130D03*
X4384250Y2174590D03*
X4394250Y1814590D03*
X4404250Y2874590D03*
X4394250Y3434590D03*
Y4044590D03*
X4653010Y5587410D03*
Y6087410D03*
X4713010Y7117410D03*
X4383010Y7847410D03*
X4643010D03*
X4633010Y8207410D03*
X4373010D03*
X4643010Y8537410D03*
X4383010D03*
X4653010Y8827410D03*
X4393010D03*
X5095430Y179130D03*
Y679130D03*
X4884250Y2174590D03*
X4894250Y1814590D03*
X4904250Y2874590D03*
X4894250Y3434590D03*
Y4044590D03*
X4904250Y4544590D03*
X5153010Y5587410D03*
Y6087410D03*
X5213010Y7117410D03*
X4883010Y7847410D03*
X5143010D03*
X4873010Y8207410D03*
X4883010Y8537410D03*
X4893010Y8827410D03*
X5595430Y179130D03*
Y679130D03*
X5384250Y2174590D03*
X5394250Y1814590D03*
X5404250Y2874590D03*
X5394250Y3434590D03*
Y4044590D03*
X5404250Y4544590D03*
X5653010Y5587410D03*
Y6087410D03*
X5713010Y7117410D03*
X5383010Y7847410D03*
X5643010D03*
X6095430Y179130D03*
Y679130D03*
X5884250Y2174590D03*
X5894250Y1814590D03*
X5904250Y2874590D03*
X5894250Y3434590D03*
Y4044590D03*
X5904250Y4544590D03*
X6153010Y5587410D03*
Y6087410D03*
X6213010Y7117410D03*
X6143010Y7847410D03*
X6595430Y179130D03*
Y679130D03*
X6384250Y2174590D03*
X6394250Y1814590D03*
X6404250Y2874590D03*
X6394250Y3434590D03*
Y4044590D03*
X6404250Y4544590D03*
X6653010Y5587410D03*
Y6087410D03*
X6713010Y7117410D03*
X6904250Y4544590D03*
X7579040Y2849960D03*
X7600000Y3090200D03*
Y3010200D03*
Y3170200D03*
Y3250200D03*
X7599040Y3409960D03*
Y3599960D03*
X7700200Y3410200D03*
Y5529800D03*
X7610000Y5730200D03*
Y5810200D03*
Y5890200D03*
X7693010Y8817410D03*
X7928690Y212800D03*
Y712800D03*
X7844250Y1824590D03*
X8079040Y2849960D03*
X8083010Y6437410D03*
X8073010Y6637410D03*
X7810000Y6570000D03*
X7880000D03*
X7810000Y6640000D03*
X7880000D03*
Y6710000D03*
Y6780000D03*
X8193010Y8817410D03*
X8428690Y212800D03*
Y712800D03*
X8344250Y1824590D03*
X8449040Y3869960D03*
Y4059960D03*
X8520000Y4610000D03*
Y5250200D03*
Y5090200D03*
Y5010200D03*
Y4850200D03*
Y4930200D03*
Y5170200D03*
X8409040Y5639960D03*
Y5449960D03*
X8280000Y5410000D03*
X8520000Y5330200D03*
X8583010Y6437410D03*
X8573010Y6637410D03*
X8530000Y6789020D03*
Y6862680D03*
Y7010000D03*
Y6936340D03*
X8483010Y8127410D03*
X8693010Y8817410D03*
X8928690Y212800D03*
Y712800D03*
X8844250Y1824590D03*
X8959040Y2699960D03*
Y2889960D03*
X8950000Y3090200D03*
Y3010200D03*
Y3170200D03*
X8949800Y3250200D03*
X8950000Y3490200D03*
Y3570200D03*
Y3730200D03*
Y3650200D03*
X8949040Y3869960D03*
Y4059960D03*
X9060000Y4690200D03*
Y5070000D03*
X8983010Y8127410D03*
X9428690Y212800D03*
Y712800D03*
X9344250Y1824590D03*
X9459040Y2699960D03*
Y2889960D03*
X9570000Y4550000D03*
X9450000Y4440000D03*
X9570000Y5100000D03*
X9450000Y5220000D03*
X9489040Y5709960D03*
Y5519960D03*
X9500000Y6210000D03*
X9400000Y6289020D03*
Y6362680D03*
Y6510000D03*
Y6436340D03*
X9483010Y8127410D03*
X9663010Y7777410D03*
X9928690Y212800D03*
Y712800D03*
X9844250Y1824590D03*
X10090000Y3600000D03*
Y3770000D03*
Y3940000D03*
Y4120000D03*
X10070000Y4520000D03*
X9740000Y5100000D03*
X10220000Y5430000D03*
X10110000Y5530000D03*
X10100000Y5710000D03*
X9923010Y8097410D03*
X10163010D03*
Y7777410D03*
X9903010D03*
X10183010Y8317410D03*
X9943010Y8827410D03*
X10428690Y212800D03*
Y712800D03*
X10510000Y2570000D03*
Y2940000D03*
Y3250000D03*
X10310000Y3600000D03*
X10520000D03*
Y3780000D03*
Y3940000D03*
X10260000Y4120000D03*
X10480000Y4220000D03*
X10240000Y4520000D03*
X10385000Y4505000D03*
X10645000Y4610000D03*
X10570000Y4970000D03*
X10490000Y5540000D03*
X10480000Y5710000D03*
Y5880000D03*
X10423010Y8097410D03*
X10663010D03*
X10403010Y7777410D03*
X10423010Y8507410D03*
X10663010D03*
X10683010Y8317410D03*
X10423010D03*
X10443010Y8827410D03*
X10928690Y212800D03*
Y712800D03*
X10740000Y2240000D03*
Y2120000D03*
X10820000Y2240000D03*
Y2120000D03*
X10796200Y2840000D03*
X10820000Y3600000D03*
X10850000Y4610000D03*
X11030000Y4745360D03*
X10945000Y4610000D03*
X11018660D03*
X11092320D03*
X11165980D03*
X11030000Y5040000D03*
Y4819020D03*
Y4966340D03*
Y4892680D03*
X10923010Y8507410D03*
X11163010D03*
X10923010Y8317410D03*
X10943010Y8827410D03*
X11428690Y212800D03*
Y712800D03*
X11390000Y2250000D03*
X11530000D03*
X11390000Y2130000D03*
X11530000D03*
X11690000Y4490000D03*
X11380000Y4610000D03*
X11250000D03*
X11380000Y4770000D03*
X11690000Y5230000D03*
Y5070000D03*
X11691000Y5549000D03*
X11603010Y6017410D03*
X11593010Y6267410D03*
X11703010Y7297410D03*
X11493010Y8817410D03*
X11928690Y212800D03*
Y712800D03*
X12069040Y1289960D03*
Y1789960D03*
X12170000Y2490000D03*
Y2670000D03*
X11940000Y3320000D03*
X11770000Y3850000D03*
X12190000Y4500000D03*
X12090000D03*
Y4420000D03*
X12190000D03*
Y4340000D03*
X12090000D03*
X12190000Y4820000D03*
X11956200Y4973800D03*
X12203010Y7297410D03*
X11943010D03*
X11953010Y7547410D03*
X12193010D03*
Y7717410D03*
X11993010Y8817410D03*
X12428690Y212800D03*
Y712800D03*
X12569040Y1289960D03*
Y1789960D03*
X12422490Y3309640D03*
X12382490Y4009640D03*
X12487410Y5186990D03*
X12483010Y5687410D03*
X12487410Y5426990D03*
X12463010Y6027410D03*
X12703010D03*
X12453010Y6277410D03*
X12693010D03*
X12443010Y7117410D03*
X12703010D03*
X12443010Y7297410D03*
X12453010Y7547410D03*
X12693010D03*
X12453010Y7717410D03*
X12493010Y8817410D03*
X12928690Y212800D03*
Y712800D03*
X13069040Y1289960D03*
Y1789960D03*
X12922490Y3309640D03*
X12882490Y4009640D03*
X13193010Y4497410D03*
X12907410Y5186990D03*
X12723010Y5687410D03*
X12907410Y5426990D03*
X12883010Y7117410D03*
Y7297410D03*
X13200000Y8110000D03*
X13133010Y8807410D03*
X13428690Y212800D03*
Y712800D03*
X13569040Y1289960D03*
Y1789960D03*
X13422490Y3309640D03*
X13382490Y4009640D03*
X13693010Y4497410D03*
X13223010Y5177410D03*
X13393010Y6017410D03*
X13383010Y6267410D03*
X13320000Y7720000D03*
Y7640000D03*
Y7550000D03*
X13560000Y7640000D03*
Y7470000D03*
X13650000Y7520000D03*
X13540000Y7920000D03*
Y8110000D03*
X13370000D03*
X13633010Y8807410D03*
X13928690Y212800D03*
Y712800D03*
X14069040Y1289960D03*
Y1789960D03*
X13922490Y3309640D03*
X14193010Y4497410D03*
X13723010Y5177410D03*
X14043010Y6017410D03*
X14033010Y6267410D03*
X13810000Y6730000D03*
X13890000D03*
X13730000D03*
Y6890000D03*
X13810000D03*
X13890000D03*
X13810000Y6810000D03*
X13890000D03*
X13730000D03*
X14176990Y7342590D03*
X14076990Y7502590D03*
X13956990Y7642590D03*
X14136990D03*
X13950000Y7810000D03*
X14133010Y8807410D03*
X14223010Y5177410D03*
X14447410Y7206990D03*
Y7026990D03*
X14356990Y7342590D03*
X14256990Y7502590D03*
X14907410Y2086990D03*
Y2586990D03*
Y3086990D03*
Y4146990D03*
Y4646990D03*
Y5146990D03*
Y6546990D03*
Y7046990D03*
Y7546990D03*
G54D11*
X380000Y5288000D03*
Y5542000D03*
Y5796000D03*
Y6488000D03*
Y6742000D03*
Y6996000D03*
X1020000Y4037360D03*
X1520000D03*
X2620000Y2168200D03*
Y2676200D03*
Y2422200D03*
Y3184200D03*
Y2930200D03*
Y3692200D03*
Y3438200D03*
Y4200200D03*
Y3946200D03*
Y4708200D03*
Y4454200D03*
Y5216200D03*
Y4962200D03*
Y5724200D03*
Y5470200D03*
Y6232200D03*
Y5978200D03*
X2874000Y2168200D03*
Y2676200D03*
Y2422200D03*
Y3184200D03*
Y2930200D03*
Y3692200D03*
Y3438200D03*
Y4200200D03*
Y3946200D03*
Y4708200D03*
Y4454200D03*
Y5216200D03*
Y4962200D03*
Y5724200D03*
Y5470200D03*
Y6232200D03*
Y5978200D03*
X10590000Y7420000D03*
Y7920000D03*
G54D20*
X7701600Y6740000D03*
X7498400D03*
G54D12*
X380000Y6050000D03*
Y7250000D03*
G54D30*
X12140000Y5070000D03*
Y5197000D03*
Y5324000D03*
Y5451000D03*
X12680000Y5197000D03*
Y5070000D03*
Y5451000D03*
Y5324000D03*
G54D21*
X7980000Y3250200D03*
Y3170200D03*
Y3090200D03*
Y3010200D03*
Y3730200D03*
Y3650200D03*
Y3570200D03*
Y3490200D03*
Y3410200D03*
Y3330200D03*
Y4210200D03*
Y4130200D03*
Y4050200D03*
Y3970200D03*
Y3890200D03*
Y3810200D03*
Y4690200D03*
Y4610200D03*
Y4530200D03*
Y4450200D03*
Y4370200D03*
Y4290200D03*
Y5250200D03*
Y5170200D03*
Y5090200D03*
Y5010200D03*
Y4930200D03*
Y4850200D03*
Y4770200D03*
Y5730200D03*
Y5650200D03*
Y5570200D03*
Y5490200D03*
Y5410200D03*
Y5330200D03*
Y5890200D03*
Y5810200D03*
G54D40*
G01X480000Y320000D02*
G03I-160000J0D01*
G01X0Y0D02*
X15000000D01*
Y9000000D01*
X0D01*
Y0D01*
G01X480000Y950000D02*
G03I-160000J0D01*
G01Y8050000D02*
G03I-160000J0D01*
G01Y8680000D02*
G03I-160000J0D01*
G01X7660000Y320000D02*
G03I-160000J0D01*
G01X9310000Y8680000D02*
G03I-160000J0D01*
G01X13790000Y2070000D02*
G03I-90000J0D01*
G01Y2970000D02*
G03I-90000J0D01*
G01Y4047350D02*
G03I-90000J0D01*
G01Y4947350D02*
G03I-90000J0D01*
G01Y5400000D02*
G03I-90000J0D01*
G01Y6300000D02*
G03I-90000J0D01*
G01X14840000Y320000D02*
G03I-160000J0D01*
G01Y950000D02*
G03I-160000J0D01*
G01Y8050000D02*
G03I-160000J0D01*
G01Y8680000D02*
G03I-160000J0D01*
G54D31*
X12295000Y8060000D03*
G54D13*
X1152000Y2630000D03*
X952000D03*
X1152000Y3139430D03*
X952000D03*
X1152000Y2940000D03*
X952000D03*
G54D22*
X10190000Y3770000D03*
X10310000D03*
X10430000D03*
G54D41*
G01X10489000Y1964200D02*
G03I-160000J0D01*
G01Y6422200D02*
G03I-160000J0D01*
G01X11847000Y1749200D02*
G03I-160000J0D01*
G01Y6613200D02*
G03I-160000J0D01*
G54D32*
X12196000Y8445000D03*
X12404000D03*
G54D14*
X1115000Y8080000D03*
X1465000D03*
X8115000Y8090000D03*
X7765000D03*
X12675000Y7400000D03*
X13025000D03*
G54D23*
X10620000Y3130000D03*
X10720000Y3370000D03*
X10820000Y3130000D03*
G54D42*
G01X10233800Y2830000D02*
X9777440D01*
X9210000Y3397440D01*
Y4077440D01*
X9077240Y4210200D01*
X7980000D01*
G01X10233800Y3390000D02*
X9670000D01*
X9530000Y3530000D01*
Y4210000D01*
X9209800Y4530200D01*
X7980000D01*
G01X10233800Y2970000D02*
X9750580D01*
X9290000Y3430580D01*
Y4110580D01*
X9110380Y4290200D01*
X7980000D01*
G01X10233800Y3110000D02*
X9723720D01*
X9370000Y3463720D01*
Y4143720D01*
X9143520Y4370200D01*
X7980000D01*
G01X10233800Y3250000D02*
X9696860D01*
X9450000Y3496860D01*
Y4176860D01*
X9176660Y4450200D01*
X7980000D01*
G54D33*
X13075000Y2270000D03*
Y2770000D03*
Y4247350D03*
Y4747350D03*
Y5600000D03*
Y6100000D03*
X14325000Y2270000D03*
Y2770000D03*
Y4247350D03*
Y4747350D03*
Y5600000D03*
Y6100000D03*
G54D15*
X1115000Y7850000D03*
X1267400D03*
X1526200Y2630000D03*
X1373800D03*
X1526200Y2940000D03*
X1373800D03*
X1526200Y3139430D03*
X1373800D03*
X2033800Y3870000D03*
X2186200D03*
X7676200Y6570000D03*
X7523800D03*
X7733800Y7890000D03*
X7886200D03*
X10233800Y2690000D03*
Y2550000D03*
Y3110000D03*
Y3250000D03*
Y2970000D03*
Y2830000D03*
Y3390000D03*
X10213800Y4220000D03*
Y4390000D03*
Y5535000D03*
Y5710000D03*
Y5880000D03*
X10386200Y2690000D03*
Y2550000D03*
Y3110000D03*
Y3250000D03*
Y2970000D03*
Y2830000D03*
X10643800Y2945220D03*
X10386200Y3390000D03*
X10630000Y3693800D03*
X10366200Y4220000D03*
X10630000Y3846200D03*
X10366200Y4390000D03*
Y5535000D03*
Y5710000D03*
Y5880000D03*
X11186200Y3110000D03*
X11033800D03*
X10796200Y2945220D03*
X10770000Y3693800D03*
Y3846200D03*
X11513800Y3693800D03*
X11666200D03*
X11370000D03*
X11513800Y3846200D03*
X11666200D03*
X11370000D03*
X12056200Y2670000D03*
X11903800D03*
X12056200Y2520220D03*
X11903800D03*
X11873800Y4220000D03*
X12026200D03*
X12203800D03*
X11803800Y5070000D03*
X11956200D03*
Y5230000D03*
X11803800D03*
X11956200Y5549000D03*
X11803800D03*
X11956200Y5390000D03*
X11803800D03*
X12522600Y4220000D03*
X12675000D03*
X12356200D03*
X12926200Y7643990D03*
X12773800D03*
X13673800Y7620000D03*
X13396200Y7380000D03*
X13243800D03*
X13673800Y7763990D03*
Y7910000D03*
X13243800D03*
X13396200D03*
X14003800Y6850000D03*
X14156200D03*
X13826200Y7620000D03*
Y7763990D03*
Y7910000D03*
G54D24*
X10385000Y4575000D03*
Y4625000D03*
Y4675000D03*
Y4725000D03*
Y4775000D03*
Y4825000D03*
Y4875000D03*
Y4925000D03*
Y4975000D03*
Y5025000D03*
Y5075000D03*
Y5125000D03*
Y5175000D03*
Y5225000D03*
Y5275000D03*
Y5325000D03*
X11555000Y4725000D03*
Y4675000D03*
Y4625000D03*
Y4575000D03*
Y5225000D03*
Y5175000D03*
Y5125000D03*
Y5075000D03*
Y5025000D03*
Y4975000D03*
Y4925000D03*
Y4875000D03*
Y4825000D03*
Y4775000D03*
Y5325000D03*
Y5275000D03*
G54D43*
G01X10945000Y5535000D02*
Y5867160D01*
X10702160Y6110000D01*
X8652160D01*
X8416090Y6346070D01*
X7313930D01*
X6980000Y6680000D01*
X660000D01*
X472440Y6867560D01*
X177560D01*
X100000Y6790000D01*
Y3330000D01*
X290000Y3140000D01*
X951430D01*
X952000Y3139430D01*
G01X2150000Y4120000D02*
Y4128110D01*
X1968110Y4310000D01*
X210000D01*
X140640Y4379360D01*
Y6210640D01*
X240000Y6310000D01*
X440000D01*
X660000Y6530000D01*
X6930000D01*
X7259990Y6200010D01*
X8349990D01*
X8590000Y5960000D01*
X10640000D01*
X10795000Y5805000D01*
Y5535000D01*
G01X10213800Y5880000D02*
X8600000D01*
X8329990Y6150010D01*
X7239990D01*
X6910000Y6480000D01*
X690000D01*
X470000Y6260000D01*
X250000D01*
X188100Y6198100D01*
Y5733900D01*
X380000Y5542000D01*
G01X10366200Y5535000D02*
Y5543800D01*
X10290000Y5620000D01*
X10060000D01*
X9840640Y5839360D01*
X8583160D01*
X8322520Y6100000D01*
X7219360D01*
X6880000Y6439360D01*
X706840D01*
X486840Y6219360D01*
X266840D01*
X228740Y6181260D01*
Y5947260D01*
X380000Y5796000D01*
G01X770000Y2940000D02*
X952000D01*
G01X10895000Y5535000D02*
Y5846440D01*
X10681440Y6060000D01*
X8631440D01*
X8395720Y6295720D01*
X7304280D01*
X6970000Y6630000D01*
X492000D01*
X380000Y6742000D01*
G01Y6488000D02*
X472000Y6580000D01*
X6950000D01*
X7279630Y6250370D01*
X8370350D01*
X8610720Y6010000D01*
X10660720D01*
X10845000Y5825720D01*
Y5535000D01*
G01X1373800Y2630000D02*
X1152000D01*
G01Y2940000D02*
X1373800D01*
G01Y3139430D02*
X1152000D01*
G01X1430000Y7720000D02*
Y7795000D01*
X1425000Y7800000D01*
G01X7980000Y4690200D02*
X4603570D01*
X3223130Y3309760D01*
X2745560D01*
X2620000Y3184200D01*
G01X7980000Y4770200D02*
X4570430D01*
X3617990Y3817760D01*
X2745560D01*
X2620000Y3692200D01*
G01X7980000Y5090200D02*
X4437870D01*
X3673430Y4325760D01*
X2745560D01*
X2620000Y4200200D01*
G01X7980000Y4930200D02*
X4504150D01*
X3645710Y4071760D01*
X2745560D01*
X2620000Y3946200D01*
G01X7980000Y5250200D02*
X4371590D01*
X3701150Y4579760D01*
X2745560D01*
X2620000Y4454200D01*
G01X2874000Y4200200D02*
X3661010D01*
X4471010Y5010200D01*
X7980000D01*
G01X2874000Y3946200D02*
X3633290D01*
X4537290Y4850200D01*
X7980000D01*
G01X2874000Y4708200D02*
X3716450D01*
X4338450Y5330200D01*
X7980000D01*
G01X2874000Y4454200D02*
X3688730D01*
X4404730Y5170200D01*
X7980000D01*
G01X11090000Y2750220D02*
X10950220D01*
X10552420Y2352420D01*
X7537580D01*
X7207420Y2682580D01*
Y3857420D01*
X7400200Y4050200D01*
X7980000D01*
G01X11090000Y2685220D02*
X10945220D01*
X10570000Y2310000D01*
X7520000D01*
X7165000Y2665000D01*
Y3875000D01*
X7420200Y4130200D01*
X7980000D01*
G01Y3810200D02*
X7500200D01*
X7400000Y3710000D01*
Y2810000D01*
X7660000Y2550000D01*
X10233800D01*
G01X11090000Y2815220D02*
X10955220D01*
X10534840Y2394840D01*
X7555160D01*
X7249840Y2700160D01*
Y3839840D01*
X7380200Y3970200D01*
X7980000D01*
G01X11090000Y2880220D02*
X10960220D01*
X10517260Y2437260D01*
X7572740D01*
X7292260Y2717740D01*
Y3822260D01*
X7360200Y3890200D01*
X7980000D01*
G01Y3090200D02*
X7600000D01*
G01X7980000Y3010200D02*
X7600000D01*
G01X7980000Y3170200D02*
X7600000D01*
G01X7980000Y3250200D02*
X7600000D01*
G01X7980000Y5730200D02*
X7610000D01*
G01D02*
X7559800D01*
X7479360Y5810640D01*
Y5919360D01*
X7600000Y6040000D01*
X8310000D01*
X8890000Y5460000D01*
Y5050000D01*
X9015000Y4925000D01*
X10385000D01*
G01X7980000Y5810200D02*
X7610000D01*
G01D02*
X7569800D01*
X7520000Y5860000D01*
Y5902520D01*
X7587480Y5970000D01*
X8309280D01*
X8840000Y5439280D01*
Y5029280D01*
X8994280Y4875000D01*
X10385000D01*
G01X7980000Y5890200D02*
X7610000D01*
G01X7980000Y3090200D02*
X8950000D01*
G01X7980000Y3010200D02*
X8950000D01*
G01X7980000Y3170200D02*
X8950000D01*
G01X7980000Y3250200D02*
X8949800D01*
G01X7980000Y3490200D02*
X8950000D01*
G01X7980000Y3570200D02*
X8950000D01*
G01X7980000Y3730200D02*
X8950000D01*
G01X7980000Y3650200D02*
X8950000D01*
G01X7980000Y4690200D02*
X9060000D01*
G01X7980000Y5090200D02*
X8520000D01*
G01X7980000Y5010200D02*
X8520000D01*
G01X7980000Y4850200D02*
X8520000D01*
G01X7980000Y4770200D02*
X9179800D01*
X9225000Y4725000D01*
X10385000D01*
G01X7980000Y4930200D02*
X8520000D01*
G01X7980000Y5170200D02*
X8520000D01*
G01X8280000Y5410000D02*
X7980200D01*
X7980000Y5410200D01*
G01Y5330200D02*
X8520000D01*
G01X7980000Y5250200D02*
X8520000D01*
G01X7980000Y5890200D02*
X8318360D01*
X8790000Y5418560D01*
Y5008560D01*
X8973560Y4825000D01*
X10385000D01*
G01X8060000Y7840000D02*
Y7831890D01*
X8107370Y7784520D01*
X9484520D01*
X10360000Y8660000D01*
X13920000D01*
X14030000Y8550000D01*
Y8220000D01*
X14690000Y7560000D01*
Y4000000D01*
X14449360Y3759360D01*
X12040640D01*
X11810000Y3990000D01*
X11400000D01*
X11295000Y4095000D01*
Y4365000D01*
G01X8520000Y4610000D02*
X9170000D01*
X9235000Y4675000D01*
X10385000D01*
G01X8530000Y6789020D02*
X8619020D01*
X8690000Y6860000D01*
X10922880D01*
X11195000Y6587880D01*
Y5535000D01*
G01X8530000Y6862680D02*
X8632680D01*
X8680000Y6910000D01*
X10943600D01*
X11245000Y6608600D01*
Y5535000D01*
G01X8530000Y7010000D02*
X10985040D01*
X11345000Y6650040D01*
Y5535000D01*
G01X8530000Y6936340D02*
X8646340D01*
X8670000Y6960000D01*
X10964320D01*
X11295000Y6629320D01*
Y5535000D01*
G01X10385000Y4975000D02*
X9155000D01*
X9060000Y5070000D01*
G01X9450000Y4440000D02*
X9620000Y4270000D01*
Y3570000D01*
X9720640Y3469360D01*
X10937520D01*
X11186200Y3220680D01*
Y3110000D01*
G01X9450000Y5220000D02*
X9455000Y5225000D01*
X10385000D01*
G01X9400000Y6289020D02*
X9621180D01*
X10029600Y6697440D01*
X10802560D01*
X10995000Y6505000D01*
Y5535000D01*
G01X9400000Y6362680D02*
X9624120D01*
X9999520Y6738080D01*
X10832640D01*
X11045000Y6525720D01*
Y5535000D01*
G01X9400000Y6510000D02*
X9630000D01*
X9939360Y6819360D01*
X10892800D01*
X11145000Y6567160D01*
Y5535000D01*
G01X9400000Y6436340D02*
X9627060D01*
X9969440Y6778720D01*
X10862720D01*
X11095000Y6546440D01*
Y5535000D01*
G01X10645000Y4610000D02*
X10643680D01*
X10480000Y4446320D01*
Y4350000D01*
X10430000Y4300000D01*
X10050000D01*
X9930000Y4180000D01*
Y3580000D01*
X10000000Y3510000D01*
X10954360D01*
X11280000Y3184360D01*
Y2570000D01*
X11490640Y2359360D01*
X12296840D01*
X12380640Y2443160D01*
Y2846840D01*
X12227480Y3000000D01*
X11550640D01*
X11520000Y2969360D01*
Y2910010D01*
X11549790Y2880220D01*
X11650000D01*
G01X10795000Y4365000D02*
Y4195000D01*
X10670000Y4070000D01*
X10380000D01*
X10304990Y3994990D01*
Y3954980D01*
X10200000Y3849990D01*
Y3780000D01*
X10190000Y3770000D01*
G01X10233800Y2550000D02*
Y2690000D01*
G01X10620000Y3130000D02*
Y3150000D01*
X10700000Y3230000D01*
X10910000D01*
X11030000Y3110000D01*
X11033800D01*
G01X10430000Y3770000D02*
Y3850000D01*
X10349990Y3930010D01*
Y3979990D01*
X10390000Y4020000D01*
X10690720D01*
X10845000Y4174280D01*
Y4365000D01*
G01X10366200Y4390000D02*
X10510000Y4533800D01*
Y4740000D01*
X10475000Y4775000D01*
X10385000D01*
G01X10645000Y4610000D02*
Y4365000D01*
G01X11250000Y4610000D02*
Y4650000D01*
X11220000Y4680000D01*
X11058040D01*
X11057360Y4679320D01*
X10980680D01*
X10585000Y5075000D01*
X10385000D01*
G01X11956200Y5549000D02*
X11870210Y5634990D01*
X11654990D01*
X11195000Y5175000D01*
X10385000D01*
G01X11956200Y5390000D02*
X11876570Y5469630D01*
X11560350D01*
X11215720Y5125000D01*
X10385000D01*
G01Y5025000D02*
X10515000D01*
X10570000Y4970000D01*
G01X10213800Y5880000D02*
X10293800Y5800000D01*
X10610000D01*
X10695000Y5715000D01*
Y5535000D01*
G01X10385000Y5325000D02*
Y5516200D01*
X10366200Y5535000D01*
G01X10385000Y5275000D02*
X11223110D01*
X11778110Y5830000D01*
X14370000D01*
X14500000Y5700000D01*
Y4422350D01*
X14325000Y4247350D01*
G01X10945000Y4365000D02*
Y3755000D01*
X11330000Y3370000D01*
Y2590000D01*
X11520000Y2400000D01*
X12280000D01*
X12340000Y2460000D01*
Y2830000D01*
X12220000Y2950000D01*
X11654780D01*
X11650000Y2945220D01*
G01X10995000Y4365000D02*
Y3775720D01*
X11380000Y3390720D01*
Y2819610D01*
X11579390Y2620220D01*
X11650000D01*
G01X11045000Y4365000D02*
Y3796440D01*
X11430000Y3411440D01*
Y2834610D01*
X11579390Y2685220D01*
X11650000D01*
G01X11095000Y4365000D02*
Y3817160D01*
X11479360Y3432800D01*
Y2860640D01*
X11524780Y2815220D01*
X11650000D01*
G01X10895000Y4365000D02*
Y4565000D01*
X10850000Y4610000D01*
G01X11030000Y4745360D02*
X11198240D01*
X11477880Y5025000D01*
X11555000D01*
G01X10945000Y4365000D02*
Y4610000D01*
G01X10995000Y4365000D02*
Y4525380D01*
X11018660Y4549040D01*
Y4610000D01*
G01X11045000Y4365000D02*
Y4501720D01*
X11092320Y4549040D01*
Y4610000D01*
G01X11095000Y4365000D02*
Y4478060D01*
X11165980Y4549040D01*
Y4610000D01*
G01X11030000Y5040000D02*
X11210000D01*
X11395000Y5225000D01*
X11555000D01*
G01X11030000Y4819020D02*
X11201180D01*
X11457160Y5075000D01*
X11555000D01*
G01X11030000Y4966340D02*
X11207060D01*
X11415720Y5175000D01*
X11555000D01*
G01X11030000Y4892680D02*
X11204120D01*
X11436440Y5125000D01*
X11555000D01*
G01X11650000Y2620220D02*
X11854020D01*
X11903800Y2670000D01*
G01X14325000Y2270000D02*
X14680000Y2625000D01*
Y3480000D01*
X14450000Y3710000D01*
X12030000D01*
X11800000Y3940000D01*
X11370000D01*
X11245000Y4065000D01*
Y4365000D01*
G01X11345000D02*
X11504360D01*
X12069360Y3800000D01*
X14420000D01*
X14641900Y4021900D01*
Y7533100D01*
X13725000Y8450000D01*
G01X11555000Y4575000D02*
Y4371840D01*
X12086200Y3840640D01*
X14403160D01*
X14601260Y4038740D01*
Y7323740D01*
X13475000Y8450000D01*
G01X12675000Y4429500D02*
X12674500Y4430000D01*
X12450000D01*
X12260000Y4620000D01*
X11780000D01*
X11675000Y4725000D01*
X11555000D01*
G01X11690000Y5230000D02*
X11645000Y5275000D01*
X11555000D01*
G01Y4825000D02*
X11705000D01*
X11786020Y4743980D01*
X12226020D01*
X12410000Y4560000D01*
X12671500D01*
X12675000Y4556500D01*
G01X11555000Y4875000D02*
X11775000D01*
X11839500Y4810500D01*
X11885000D01*
G01Y4683500D02*
X11776500D01*
X11685000Y4775000D01*
X11555000D01*
G01Y4975000D02*
X11785000D01*
X11860000Y4900000D01*
X12910000D01*
X13070000Y5060000D01*
Y5595000D01*
X13075000Y5600000D01*
G01X11380000Y4770000D02*
Y4850000D01*
X11455000Y4925000D01*
X11555000D01*
G01X12140000Y5451000D02*
X12054200D01*
X11956200Y5549000D01*
G01X12140000Y5324000D02*
X12022200D01*
X11956200Y5390000D01*
G01X12675000Y4220000D02*
Y4429500D01*
G01X13075000Y2270000D02*
X14325000D01*
G01X13075000Y4247350D02*
X14325000D01*
G01X13075000Y5600000D02*
X14325000D01*
G01X13020000Y7920000D02*
X13030000Y7910000D01*
G01D02*
X13243800D01*
G01X13673800Y7620000D02*
Y7763990D01*
G01X13190000Y7738990D02*
X13225190D01*
X13396200Y7910000D01*
G01X13450000Y7738990D02*
X13648800D01*
X13673800Y7763990D01*
G01X13820000Y7430000D02*
X13826200Y7436200D01*
G01D02*
Y7620000D01*
G01Y7763990D02*
Y7910000D01*
G54D16*
X1800000Y7490000D03*
Y8760000D03*
Y8506000D03*
X2562000Y7490000D03*
Y8760000D03*
Y8506000D03*
X6630000Y7490000D03*
Y8760000D03*
Y8506000D03*
X7392000Y7490000D03*
Y8760000D03*
Y8506000D03*
G54D34*
X13075000Y6970000D03*
X13565000D03*
G54D25*
X10695000Y4365000D03*
X10645000D03*
X10595000D03*
Y5535000D03*
X10645000D03*
X10695000D03*
X11195000Y4365000D03*
X11145000D03*
X11095000D03*
X11045000D03*
X10995000D03*
X10945000D03*
X10895000D03*
X10845000D03*
X10795000D03*
X10745000D03*
Y5535000D03*
X10795000D03*
X10845000D03*
X10895000D03*
X10945000D03*
X10995000D03*
X11045000D03*
X11095000D03*
X11145000D03*
X11195000D03*
X11345000Y4365000D03*
X11295000D03*
X11245000D03*
Y5535000D03*
X11295000D03*
X11345000D03*
G54D44*
G01X1520000Y7720000D02*
X1505000Y7735000D01*
Y7800000D01*
G01X1560000Y7810000D02*
X1550000Y7800000D01*
G01D02*
X1505000D01*
G01X2070000Y4120000D02*
X2000000D01*
G01X6770000Y8630000D02*
X6520000D01*
G01X8190000Y7850000D02*
X8180000Y7840000D01*
X8140000D01*
G01X10595000Y4365000D02*
Y4265000D01*
X10550000Y4220000D01*
X10480000D01*
G01D02*
X10366200D01*
G01X10770000Y3846200D02*
X10630000D01*
G01X10260000Y4590000D02*
X10295000Y4625000D01*
X10385000D01*
G01Y4575000D02*
Y4505000D01*
G01X10650000Y5410000D02*
X10645000Y5415000D01*
G01D02*
Y5535000D01*
G01X10366200Y5710000D02*
X10480000D01*
G01D02*
X10550000D01*
X10595000Y5665000D01*
Y5535000D01*
G01X10366200Y5880000D02*
X10480000D01*
G01X11200000Y2620000D02*
X11199780Y2620220D01*
G01X10970000Y2620000D02*
X10970220Y2620220D01*
G01X11199780D02*
X11090000D01*
G01X10970220D02*
X11090000D01*
G01Y2945220D02*
X10796200D01*
G01X11145000Y4365000D02*
Y3878800D01*
X11330000Y3693800D01*
X11370000D01*
G01X11195000Y4365000D02*
Y3981200D01*
X11330000Y3846200D01*
X11370000D01*
G01X10895000Y4365000D02*
Y3905800D01*
X10835400Y3846200D01*
X10770000D01*
G01X11650000Y2555220D02*
X11868800D01*
X11903800Y2520220D01*
G01X11650000Y2490220D02*
X11873800D01*
X11903800Y2520220D01*
G01X11513800Y3693800D02*
X11370000D01*
G01X11513800Y3846200D02*
X11370000D01*
G01X11690000Y4490000D02*
Y4575340D01*
X11640340Y4625000D01*
X11555000D01*
G01D02*
X11440880D01*
G01X11555000Y4675000D02*
X11655000D01*
X11770000Y4560000D01*
X11881500D01*
X11885000Y4556500D01*
G01X11803800Y5230000D02*
X11708800Y5325000D01*
X11555000D01*
G54D17*
X1465000Y7900000D03*
X2110000Y4020000D03*
X8100000Y7940000D03*
G54D26*
X11090000Y2490220D03*
Y2555220D03*
Y2620220D03*
Y2685220D03*
Y2750220D03*
Y2815220D03*
Y2880220D03*
Y2945220D03*
X11650000Y2750220D03*
Y2685220D03*
Y2620220D03*
Y2555220D03*
Y2490220D03*
Y2945220D03*
Y2880220D03*
Y2815220D03*
G54D35*
X13190000Y7643990D03*
Y7548990D03*
Y7738990D03*
X13450000D03*
Y7643990D03*
Y7548990D03*
G54D45*
G01X2620000Y5470200D02*
X562200D01*
X380000Y5288000D01*
G01X1020000Y4037360D02*
X1207360Y3850000D01*
X2013800D01*
X2033800Y3870000D01*
G01X1800000Y7490000D02*
X1240000D01*
X1115000Y7615000D01*
Y7850000D01*
G01Y8080000D02*
Y7850000D01*
G01Y8080000D02*
Y8405000D01*
X1216000Y8506000D01*
X1800000D01*
G01X1526200Y2630000D02*
Y2940000D01*
G01D02*
Y3139430D01*
G01D02*
X1535630Y3130000D01*
X1940000D01*
X2033800Y3223800D01*
Y3870000D01*
G01X2110000Y4020000D02*
X1537360D01*
X1520000Y4037360D01*
G01X1465000Y7900000D02*
Y8080000D01*
G01X2562000Y8506000D02*
Y8232000D01*
X2410000Y8080000D01*
X1465000D01*
G01X2186200Y3870000D02*
Y3943800D01*
X2110000Y4020000D01*
G01X6630000Y8506000D02*
Y8230000D01*
X6770000Y8090000D01*
X7765000D01*
G01X7980000Y3410200D02*
X7700200D01*
G01X7980000Y5490200D02*
X7739800D01*
X7700200Y5529800D01*
G01X7980000Y5570200D02*
X7740600D01*
X7700200Y5529800D01*
G01X7740000Y7610000D02*
X7733800Y7616200D01*
G01D02*
Y7890000D01*
G01D02*
Y8058800D01*
X7765000Y8090000D01*
G01X8115000D02*
X8110000Y8095000D01*
Y8340000D01*
X7944000Y8506000D01*
X7392000D01*
G01X8100000Y7940000D02*
Y8075000D01*
X8115000Y8090000D01*
G01X10796200Y2840000D02*
X10646200Y2690000D01*
X10386200D01*
G01Y2830000D02*
Y2690000D01*
G01Y3110000D02*
Y2970000D01*
G01Y3250000D02*
Y3110000D01*
G01Y3390000D02*
Y3250000D01*
G01Y3390000D02*
X10700000D01*
X10720000Y3370000D01*
G01X10796200Y2945220D02*
Y2840000D01*
G01X10770000Y3693800D02*
X10820000Y3643800D01*
Y3600000D01*
G01X11666200Y3846200D02*
X11670000Y3850000D01*
X11770000D01*
G01X11803800Y5549000D02*
X11691000D01*
G01X12056200Y2670000D02*
X12053580D01*
X11903800Y2520220D01*
G01X12056200Y2670000D02*
X12170000D01*
G01X11885000Y4556500D02*
X11993500D01*
X12030000Y4520000D01*
G01X12009500Y4429500D02*
X12010000Y4430000D01*
G01X11885000Y4429500D02*
X12009500D01*
G01X12170000Y4340000D02*
X12190000D01*
G01D02*
X12410000D01*
X12522600Y4227400D01*
Y4220000D01*
G01X12190000Y4820000D02*
X12360000D01*
X12496500Y4683500D01*
X12675000D01*
G01X11803800Y5390000D02*
Y5230000D01*
G01D02*
Y5222400D01*
X11956200Y5070000D01*
G01X12140000D02*
X11956200D01*
G01D02*
Y4973800D01*
G01X13116010Y7643990D02*
X13050000Y7710000D01*
G01X13190000Y7643990D02*
X13116010D01*
G01X13030000Y7640000D02*
X13033990Y7643990D01*
G01D02*
X13116010D01*
G01X13450000Y7548990D02*
Y7433800D01*
X13396200Y7380000D01*
G54D36*
X12975000Y8450000D03*
X13225000D03*
X13475000D03*
G54D18*
X1505000Y7800000D03*
X1425000D03*
X2070000Y4120000D03*
X2150000D03*
X8140000Y7840000D03*
X8060000D03*
G54D27*
X11000000Y8070000D03*
G54D37*
X13725000Y8450000D03*
G54D19*
X3299000Y8241200D03*
X4061000D03*
X5139000D03*
X5901000D03*
G54D28*
X11480000Y7790000D03*
Y8390000D03*
G54D38*
X14241400Y7120000D03*
X13918500D03*
G54D29*
X11885000Y4429500D03*
Y4556500D03*
Y4683500D03*
Y4810500D03*
X12675000Y4683500D03*
Y4556500D03*
Y4429500D03*
Y4810500D03*
G54D39*
X13918500Y7400000D03*
M02*
