M48
METRIC,TZ
T01C.3048
T02C.9
T03C1.
T04C1.1
T05C1.3
;LEADER: 12 
;HEADER: 
;CODE  : ASCII 
;FILE  : F103_CH4_V10A-1-2.drl for board H:/2019-Graduation-Project/HARDWARE/F103_CH4_V10A/PCB/#Taaaafh09888.tmp ... layers TOP and BOTTOM
;T01 Holesize 1. = 0.304800 Tolerance = +0.000000/-0.000000 PLATED MM Quantity = 459
;T02 Holesize 2. = 0.900000 Tolerance = +0.000000/-0.000000 PLATED MM Quantity = 6
;T03 Holesize 3. = 1.000000 Tolerance = +0.000000/-0.000000 PLATED MM Quantity = 7
;T04 Holesize 4. = 1.100000 Tolerance = +0.000000/-0.000000 PLATED MM Quantity = 12
;T05 Holesize 5. = 1.300000 Tolerance = +0.000000/-0.000000 PLATED MM Quantity = 5
%
G90
T01
X1580000Y480000
X1690000Y480000
X2010000Y480000
X2670000Y320000
X4090780Y158180
X4090780Y378180
X4330780Y158180
X4330780Y378180
X4710000Y160000
X5250780Y188180
X5490780Y188180
X6420780Y478180
X6660780Y478180
X6910780Y478180
X7150780Y478180
X7620780Y238180
X7860780Y238180
X8130780Y238180
X8370780Y238180
X8720780Y228180
X8960780Y228180
X9200780Y228180
X9230780Y818180
X9210000Y940000
X9210780Y518180
X9120000Y940000
X9030000Y940000
X8990780Y818180
X8970780Y518180
X8940000Y940000
X8850000Y940000
X8750780Y818180
X8730780Y518180
X8380780Y528180
X8140780Y528180
X7870780Y528180
X7630780Y528180
X6960780Y958180
X6720780Y958180
X6320000Y590000
X6230000Y900000
X5870780Y868180
X5870000Y700000
X5630780Y868180
X5630000Y700000
X5380780Y868180
X5380780Y698180
X5140780Y868180
X5140780Y698180
X4790000Y880000
X4550000Y720000
X4550000Y560000
X4340000Y880000
X4200000Y880000
X4090000Y880000
X3970000Y880000
X3550780Y848180
X3310780Y848180
X3310000Y560000
X2640780Y838180
X2280780Y848180
X560780Y808180
X180780Y808180
X180780Y1208180
X560780Y1208180
X1060780Y1138180
X2280780Y1248180
X2640780Y1238180
X3310780Y1248180
X3550780Y1248180
X3970000Y1280000
X3970780Y1508180
X4080000Y1290000
X4080000Y1510000
X4200000Y1290000
X4210780Y1508180
X4300000Y1380000
X4300000Y1510000
X4370000Y1040000
X4400000Y1510000
X4510000Y1260000
X4710000Y1410000
X5670000Y1510000
X5920000Y1380000
X6320000Y1190000
X6730780Y1248180
X6970780Y1248180
X8240000Y1210000
X8240000Y1290000
X8320000Y1210000
X8320000Y1290000
X8400000Y1210000
X8400000Y1290000
X8540000Y1420000
X8850000Y1020000
X8940000Y1020000
X8950000Y1440000
X9030000Y1020000
X9120000Y1020000
X9210000Y1020000
X9870780Y1688180
X9630780Y1688180
X9190000Y1950000
X8740000Y1960000
X8590000Y1960000
X8440000Y1960000
X8250000Y1960000
X7420780Y2018180
X7420780Y1898180
X7420780Y1778180
X7180780Y2018180
X7180780Y1898180
X7180780Y1778180
X6920000Y1780000
X6740000Y1820000
X6740000Y1750000
X6660000Y1820000
X6660000Y1750000
X6580000Y1820000
X6580000Y1750000
X6230000Y1730000
X5670000Y1650000
X5503800Y1786200
X5350000Y1790000
X5260000Y1570000
X4760000Y1880000
X4658200Y1878200
X4210000Y1700000
X3916200Y1703800
X3540780Y1688180
X3300780Y1688180
X2630780Y1678180
X2270780Y1688180
X1690000Y1730000
X1060780Y1538180
X1050780Y1978180
X550780Y1648180
X170780Y1648180
X170780Y2048180
X550780Y2048180
X550000Y2260000
X835540Y2384460
X1050000Y2340000
X1400780Y2368180
X1580780Y2368180
X1760780Y2358180
X1940780Y2358180
X2080000Y2420000
X2220000Y2360000
X2290000Y2420960
X2360000Y2360000
X2430000Y2420960
X2500000Y2360000
X2570000Y2420000
X3530000Y2140000
X4280000Y2090000
X4280000Y2290000
X4500000Y2090000
X4500000Y2290000
X5120000Y2050000
X5120000Y2250000
X5980000Y2460000
X6070000Y2200000
X6070000Y2280000
X6070000Y2370000
X6073660Y2460000
X6630000Y2500000
X6900000Y2210000
X7460000Y2380000
X8110000Y2330000
X8440000Y2060000
X8440000Y2160000
X8530000Y2310000
X8530000Y2430000
X8570000Y2371310
X8590000Y2060000
X8590000Y2160000
X8610000Y2310000
X8610000Y2430000
X8740000Y2060000
X8740000Y2160000
X9190000Y2100000
X9190000Y2250000
X8640000Y2740000
X8640000Y2640000
X8640000Y2540000
X8490000Y2740000
X8490000Y2640000
X8490000Y2540000
X8390000Y2820000
X8350000Y2640000
X8350000Y2560000
X8260000Y2640000
X8260000Y2560000
X8240000Y2950000
X8240000Y2820000
X8170000Y2640000
X8170000Y2560000
X8080000Y2640000
X8080000Y2560000
X7750000Y2950000
X7460000Y2560000
X7440000Y2870000
X7330000Y2870000
X7320000Y2670000
X7220000Y2870000
X7110000Y2870000
X7110000Y2670000
X6990000Y2870000
X6880000Y2870000
X6860000Y2670000
X6760000Y2870000
X6650000Y2870000
X6630000Y2670000
X6220000Y2670000
X6000000Y2670000
X5920000Y2910000
X5800000Y2670000
X5700000Y2910000
X5500000Y2910000
X5450000Y2580000
X5110000Y2610000
X4030000Y2900000
X3650000Y2920000
X2570000Y2900000
X2500000Y2810000
X2430000Y2730000
X1720780Y2858180
X1320780Y2858180
X830000Y2820000
X830000Y2620000
X450000Y3010000
X60000Y2800000
X310000Y3230000
X460000Y3490000
X1320780Y3308180
X1720780Y3308180
X2080000Y3260000
X2220000Y3330000
X2290000Y3410000
X2360000Y3490000
X4960000Y3080000
X5050000Y3080000
X5190000Y3080000
X6250000Y3300000
X6350000Y3050000
X6350000Y3130000
X6350000Y3210000
X6350000Y3300000
X6460000Y3050000
X6460000Y3130000
X6460000Y3210000
X6460000Y3300000
X6660000Y3080000
X6920000Y3080000
X7460000Y3320000
X7460000Y3430000
X7460000Y3540000
X7750000Y3240000
X8250000Y3080000
X8250000Y3290000
X8250000Y3540000
X8570000Y3120000
X8570000Y3370000
X8860000Y3130000
X8860000Y3380000
X9520000Y3730000
X9520000Y3640000
X9410000Y3730000
X9410000Y3640000
X9340000Y3910000
X9300000Y3730000
X9300000Y3640000
X9180000Y3910000
X8610000Y3960000
X8610000Y3730000
X8250000Y3770000
X8180000Y4010000
X7930000Y4010000
X7700000Y4010000
X7560000Y3650000
X7460000Y3650000
X5880000Y3980000
X5880000Y3830000
X5880000Y3660000
X5670000Y3980000
X5670000Y3830000
X5670000Y3660000
X5470000Y3980000
X5470000Y3830000
X4760000Y3630000
X2110780Y3558180
X1710780Y3558180
X1330780Y3568180
X930780Y3568180
X930780Y4188180
X1330780Y4188180
X4000780Y4338180
X4400780Y4338180
X4660000Y4100000
X4960000Y4170000
X5480780Y4248180
X5800000Y4420000
X5880780Y4248180
X8260000Y4270000
X8260000Y4500000
X9130000Y4330000
X9130000Y4560000
X9290000Y4330000
X9290000Y4560000
X9750000Y4330000
X9750000Y4560000
X9910000Y4330000
X9910000Y4560000
X9910000Y4990000
X9910000Y4810000
X9750000Y4990000
X9750000Y4810000
X9610000Y4810000
X9570000Y4990000
X9450000Y4810000
X9410000Y4990000
X9290000Y4810000
X9250000Y4990000
X9130000Y4810000
X9090000Y4990000
X7710780Y4708180
X7310780Y4708180
X6910780Y4708180
X6510780Y4708180
X5800000Y4820000
X5800000Y4590000
X5120000Y4670000
X4400780Y4738180
X4000780Y4738180
X3720780Y5028180
X3320780Y5028180
X2920780Y5028180
X2520780Y5028180
X2120780Y5028180
X1720780Y5028180
X1330780Y4588180
X1320780Y5028180
X930780Y4588180
X920780Y5028180
X920780Y5428180
X1320780Y5428180
X1720780Y5428180
X2120780Y5428180
X2520780Y5428180
X2920780Y5428180
X3320780Y5428180
X3720780Y5428180
X4480780Y5328180
X4880780Y5328180
X5800000Y5080000
X5800000Y5370000
X6510780Y5108180
X6510780Y5508180
X6910780Y5108180
X6910780Y5508180
X7310780Y5108180
X7310780Y5508180
X7710780Y5108180
X7710780Y5508180
X8110780Y5108180
X8610000Y5370000
X8770000Y5370000
X8930000Y5120000
X8930000Y5240000
X8930000Y5370000
X9090000Y5120000
X9090000Y5240000
X9090000Y5370000
X9760000Y6080000
X9600000Y6080000
X9440000Y6080000
X9280000Y6080000
X9100000Y6080000
X9100000Y5940000
X9100000Y5800000
X8940000Y6080000
X8940000Y5940000
X8940000Y5800000
X8940000Y5660000
X8780000Y6080000
X8780000Y5940000
X8780000Y5800000
X8780000Y5660000
X8620000Y6080000
X8620000Y5940000
X8620000Y5800000
X8110780Y5908180
X7710780Y5908180
X7310780Y5908180
X6910780Y5908180
X6510780Y5908180
X5800000Y5870000
X4880780Y5728180
X4480780Y5728180
X3720780Y5828180
X3320780Y5828180
X2920780Y5828180
X2520780Y5828180
X2120780Y5828180
X1720780Y5828180
X1320780Y5828180
X920780Y5828180
X920780Y6228180
X1320780Y6228180
X1720780Y6228180
X2120780Y6228180
X2520780Y6228180
X2920780Y6228180
X3320780Y6228180
X3720780Y6228180
X4480780Y6128180
X4480780Y6528180
X4880780Y6128180
X4880780Y6528180
X5290000Y6540000
X5660000Y6396200
X5660000Y6480000
X5660000Y6570000
X5800000Y6100000
X6110000Y6500000
X6310000Y6500000
X6510780Y6308180
X6910780Y6308180
X7310780Y6308180
X7710780Y6308180
X8110780Y6308180
X8620000Y6220000
X8620000Y6360000
X8780000Y6220000
X8780000Y6360000
X8940000Y6220000
X8940000Y6360000
X9100000Y6220000
X9100000Y6360000
X9280000Y6220000
X9440000Y6220000
X9600000Y6220000
X9760000Y6220000
X9170780Y6848180
X8770780Y6848180
X8370780Y6848180
X6310000Y6670000
X6090000Y6860000
X5930000Y6710000
X5690780Y6888180
X5660000Y6650000
X5290780Y6888180
X4890780Y6888180
X4460780Y6888180
X4060780Y6888180
X3660780Y6888180
X2520780Y6628180
X2120780Y6628180
T02
X6660000Y685000
X7160000Y685000
X9630000Y2035000
X9680000Y3285000
X9680000Y3485000
X9680000Y3685000
T03
X735000Y120000
X1485000Y120000
X1915000Y120000
X2665000Y120000
X3095000Y120000
X3845000Y120000
X9630000Y2285000
T04
X2672000Y3840000
X2418000Y3840000
X2164000Y3840000
X1910000Y3840000
X307400Y3868000
X307400Y4122000
X307400Y4376000
X307400Y4630000
X307400Y5138000
X307400Y5392000
X307400Y5646000
X307400Y5900000
T05
X9296000Y5266000
X9296000Y5774000
X9548400Y5521600
X9804000Y5774000
X9804000Y5266000
M30
