G04 ================== begin FILE IDENTIFICATION RECORD ==================*
G04 Layout Name:  F103_CH4_V10A.brd*
G04 Film Name:    PasteMask_Top*
G04 File Format:  Gerber RS274X*
G04 File Origin:  Cadence Allegro 17.2-S045*
G04 Origin Date:  Fri Mar 08 10:45:16 2019*
G04 *
G04 Layer:  BOARD GEOMETRY/OUTLINE*
G04 Layer:  PIN/PASTEMASK_TOP*
G04 Layer:  PACKAGE GEOMETRY/PASTEMASK_TOP*
G04 *
G04 Offset:    (0.0000 0.0000)*
G04 Mirror:    No*
G04 Mode:      Positive*
G04 Rotation:  0*
G04 FullContactRelief:  No*
G04 UndefLineWidth:     0.1524*
G04 ================== end FILE IDENTIFICATION RECORD ====================*
%FSLAX55Y55*MOMM*%
%IR0*IPPOS*OFA0.00000B0.00000*MIA0B0*SFA1.00000B1.00000*%
%ADD38R,1.2X.3*%
%ADD20R,.3X1.2*%
%ADD16R,1.2X.3*%
%ADD15R,.5X2.*%
%ADD42R,1.4X.4*%
%ADD36R,1.1X.7*%
%ADD33R,1.1X.6*%
%ADD23R,.6X1.1*%
%ADD37R,.7X1.1*%
%ADD25R,1.5X.6*%
%ADD24R,1.6X.6*%
%ADD13R,.4X3.5*%
%ADD35R,.6X1.6*%
%ADD30R,.8X1.4*%
%ADD10R,.9X1.3*%
%ADD18R,.82X1.52*%
%ADD29C,.75*%
%ADD27R,.5X.5*%
%ADD11R,.8X.8*%
%ADD14R,1.2X1.*%
%ADD12R,1.4X1.2*%
%ADD40R,2.5X1.*%
%ADD28R,2.X2.4*%
%ADD43R,2.X1.8*%
%ADD31R,1.1X2.8*%
%ADD26R,.4X.5*%
%ADD41R,2.7X3.3*%
%ADD39R,1.5X1.8*%
%ADD34R,2.1X5.7*%
%ADD21R,.6X.4*%
%ADD17R,1.6X2.6*%
%ADD22R,.6X.5*%
%ADD19R,1.6X3.6*%
%ADD32R,.8X.25*%
%ADD44C,.1*%
G75*
%LPD*%
G75*
G54D10*
X207400Y2620000D03*
Y2820000D03*
Y2384460D03*
X407400Y2620000D03*
Y2820000D03*
Y2384460D03*
X9650000Y2680000D03*
Y2880000D03*
Y4100370D03*
X9850000Y2680000D03*
Y2880000D03*
Y4100370D03*
G54D11*
X726200Y2620000D03*
X573800D03*
X726200Y2384460D03*
X573800D03*
X726200Y2820000D03*
X573800D03*
Y3020000D03*
X726200D03*
X573800Y3230000D03*
X726200D03*
X1213800Y746200D03*
Y593800D03*
X1590000D03*
Y746200D03*
X1730000D03*
Y593800D03*
X1446200D03*
Y746200D03*
X2010000Y593800D03*
Y746200D03*
X1870000D03*
Y593800D03*
X2800000D03*
Y746200D03*
X3763800Y2070000D03*
Y1910000D03*
Y2900000D03*
X3916200Y2070000D03*
Y1910000D03*
Y2900000D03*
X4667000Y560500D03*
X4743800Y1136200D03*
Y983800D03*
X4603200D03*
Y1136200D03*
X4743800Y1295600D03*
X4460000Y1136200D03*
Y983800D03*
X4819400Y560500D03*
X4896200Y1136200D03*
Y983800D03*
Y1295600D03*
X5656200Y1890000D03*
X5503800D03*
X5686200Y2660000D03*
X5533800D03*
X5493800Y4580000D03*
X5646200D03*
X5493800Y4740000D03*
X5646200D03*
Y4420000D03*
X5493800D03*
Y4900000D03*
X5646200D03*
X6186200Y685000D03*
X6033800D03*
Y500000D03*
X6186200D03*
X6033800Y1050000D03*
X6186200D03*
X6033800Y1190000D03*
X6186200D03*
Y1380000D03*
X6033800D03*
X6053800Y3040000D03*
X6206200D03*
Y2900000D03*
X6053800D03*
Y3185000D03*
X6206200D03*
X5800000Y6243800D03*
Y6396200D03*
X6516200Y2275000D03*
X6363800D03*
Y2420000D03*
X6516200D03*
Y2570000D03*
X6363800D03*
X6516200Y2900000D03*
X6363800D03*
X7123800Y2520000D03*
Y2375000D03*
X7276200Y2520000D03*
Y2375000D03*
X7456200Y2995000D03*
X7303800D03*
Y3185000D03*
X7456200D03*
X7620000Y3500000D03*
Y3350000D03*
X8010000Y2106200D03*
Y1953800D03*
X8150000Y2106200D03*
Y1953800D03*
X7772400Y3500000D03*
Y3350000D03*
X8703800Y1230000D03*
Y1530000D03*
Y1380000D03*
X8393800Y1530000D03*
X8546200D03*
X8747600Y5030000D03*
Y4870000D03*
X8660000Y5672200D03*
Y5519800D03*
X8856200Y1230000D03*
Y1530000D03*
Y1380000D03*
X9080000Y2106200D03*
Y1953800D03*
X8910000Y2106200D03*
Y1953800D03*
X8770000Y2693800D03*
X8910000D03*
X9050000D03*
X8770000Y2846200D03*
X8910000D03*
X9050000D03*
X8936200Y3800000D03*
X8783800D03*
X8900000Y5030000D03*
Y4870000D03*
X8966200Y5519800D03*
X8813800D03*
X9120000Y5672200D03*
Y5519800D03*
X9486200Y2680000D03*
X9333800D03*
X9486200Y2880000D03*
X9333800D03*
Y4100000D03*
X9486200D03*
G54D20*
X4708200Y1700000D03*
X4658200D03*
X4608200D03*
X4558200D03*
X4508200D03*
X4458200D03*
X4408200D03*
X4358200D03*
X4308200D03*
Y2870000D03*
X4358200D03*
X4408200D03*
X4458200D03*
X4508200D03*
X4558200D03*
X4608200D03*
X4658200D03*
X4708200D03*
X5058200Y1700000D03*
X5008200D03*
X4958200D03*
X4908200D03*
X4858200D03*
X4808200D03*
X4758200D03*
Y2870000D03*
X4808200D03*
X4858200D03*
X4908200D03*
X4958200D03*
X5008200D03*
X5058200D03*
G54D21*
X4690000Y4700000D03*
X4910000D03*
G54D12*
X890000Y320000D03*
X1330000D03*
X2070000D03*
X2510000D03*
X3250000D03*
X3690000D03*
G54D30*
X6065000Y3830000D03*
X6415000D03*
X8030000Y1070000D03*
Y1750000D03*
X8380000Y1070000D03*
Y1750000D03*
G54D22*
X4690000Y4635000D03*
Y4765000D03*
X4910000D03*
Y4635000D03*
G54D31*
X6750000Y2010000D03*
X7010000D03*
G54D40*
X9120000Y1230000D03*
Y1530000D03*
G54D13*
X1240000Y2054460D03*
X1730000D03*
X1660000D03*
X1590000D03*
X1520000D03*
X1450000D03*
X1380000D03*
X1310000D03*
X2220000D03*
X2150000D03*
X2080000D03*
X2010000D03*
X1940000D03*
X1870000D03*
X1800000D03*
X2710000D03*
X2640000D03*
X2570000D03*
X2500000D03*
X2430000D03*
X2360000D03*
X2290000D03*
X3270000D03*
X3200000D03*
X3130000D03*
X3060000D03*
X2990000D03*
X2920000D03*
X2850000D03*
X2780000D03*
G54D32*
X6760000Y2275000D03*
Y2325000D03*
Y2375000D03*
Y2425000D03*
X6910000D03*
Y2375000D03*
Y2325000D03*
Y2275000D03*
G54D41*
X8860000Y4540000D03*
X9540000D03*
G54D14*
X3160000Y771600D03*
Y568400D03*
X2970000Y771600D03*
Y568400D03*
X5800000Y5518400D03*
Y5721600D03*
G54D23*
X4416500Y5065000D03*
X4516500D03*
X4616500D03*
X4716500D03*
X4895000D03*
X5035500D03*
X5135500D03*
G54D24*
X5053500Y179500D03*
Y306500D03*
Y433500D03*
Y560500D03*
X5843500Y179500D03*
Y560500D03*
Y433500D03*
Y306500D03*
X6048880Y4720000D03*
Y4820000D03*
Y4920000D03*
Y5020000D03*
Y5120000D03*
Y5220000D03*
Y5320000D03*
Y5420000D03*
Y5520000D03*
Y5620000D03*
Y5720000D03*
Y5820000D03*
Y5920000D03*
Y6020000D03*
Y6120000D03*
Y6220000D03*
Y6320000D03*
X8448880Y4719800D03*
Y5219800D03*
Y5119800D03*
Y5019800D03*
Y4919800D03*
Y4819800D03*
Y5719800D03*
Y5619800D03*
Y5519800D03*
Y5419800D03*
Y5319800D03*
Y6219800D03*
Y6119800D03*
Y6019800D03*
Y5919800D03*
Y5819800D03*
Y6319800D03*
G54D33*
X6790000Y2995000D03*
Y3090000D03*
Y3185000D03*
X7050000D03*
Y2995000D03*
G54D42*
X9557000Y999000D03*
Y1064000D03*
Y1129000D03*
Y1194000D03*
Y1259000D03*
G54D15*
X4030000Y1060000D03*
X4150000D03*
X4270000D03*
G54D34*
X6675000Y3650000D03*
X7165000D03*
G54D43*
X9820000Y750000D03*
Y1010000D03*
Y1260000D03*
Y1500000D03*
G54D25*
X5178500Y999000D03*
Y1126000D03*
Y1253000D03*
Y1380000D03*
X5718500Y1253000D03*
Y1126000D03*
Y999000D03*
Y1380000D03*
G54D16*
X4098200Y1910000D03*
Y1960000D03*
Y2010000D03*
Y2060000D03*
Y2110000D03*
Y2160000D03*
Y2210000D03*
Y2260000D03*
Y2310000D03*
Y2360000D03*
Y2410000D03*
Y2460000D03*
Y2510000D03*
Y2560000D03*
Y2610000D03*
Y2660000D03*
X5268200Y2260000D03*
Y2210000D03*
Y2160000D03*
Y2110000D03*
Y2060000D03*
Y2010000D03*
Y1960000D03*
Y1910000D03*
Y2660000D03*
Y2610000D03*
Y2560000D03*
Y2510000D03*
Y2460000D03*
Y2410000D03*
Y2360000D03*
Y2310000D03*
G54D44*
G01X290000Y0D02*
X9710000D01*
G03X10000000Y290000I0J290000D01*
G01Y6710000D01*
G03X9710000Y7000000I-290000J0D01*
G01X290000D01*
G03X0Y6710000I0J-290000D01*
G01Y290000D01*
G03X290000Y0I290000J0D01*
G01X450000Y290000D02*
G03I-160000J0D01*
G01Y6710000D02*
G03I-160000J0D01*
G01X1045000Y150000D02*
G03I-50000J0D01*
G01X1275000D02*
G03I-50000J0D01*
G01X1700000Y3960000D02*
G03I-160000J0D01*
G01Y6660000D02*
G03I-160000J0D01*
G01X2225000Y150000D02*
G03I-50000J0D01*
G01X2455000D02*
G03I-50000J0D01*
G01X3200000Y3960000D02*
G03I-160000J0D01*
G01Y6660000D02*
G03I-160000J0D01*
G01X3405000Y150000D02*
G03I-50000J0D01*
G01X3635000D02*
G03I-50000J0D01*
G01X9870000Y290000D02*
G03I-160000J0D01*
G01X9640000Y930000D02*
G03I-30000J0D01*
G01Y1330000D02*
G03I-30000J0D01*
G01X9870000Y6710000D02*
G03I-160000J0D01*
G54D17*
X3970000Y5180000D03*
X5520000D03*
G54D26*
X5760000Y6625080D03*
X6070000Y910000D03*
X6150000D03*
X5840000Y6625080D03*
X7736200Y3040000D03*
X7656200D03*
X8900000Y3550000D03*
X8820000D03*
G54D35*
X6743800Y4325080D03*
X6643800D03*
X6543800D03*
X6443800D03*
X6444000Y6725080D03*
X6544000D03*
X6644000D03*
X6744000D03*
X7243800Y4325080D03*
X7143800D03*
X7043800D03*
X6943800D03*
X6843800D03*
X6844000Y6725080D03*
X6944000D03*
X7044000D03*
X7144000D03*
X7244000D03*
X7743800Y4325080D03*
X7643800D03*
X7543800D03*
X7443800D03*
X7343800D03*
X7344000Y6725080D03*
X7444000D03*
X7544000D03*
X7644000D03*
X7744000D03*
X8043800Y4325080D03*
X7943800D03*
X7843800D03*
X7844000Y6725080D03*
X7944000D03*
X8044000D03*
G54D27*
X6110000Y810000D03*
X5800000Y6725080D03*
X7696200Y3140000D03*
X8860000Y3650000D03*
G54D18*
X4180000Y5167000D03*
G54D36*
X7556200Y3780000D03*
X7796200Y3680000D03*
Y3880000D03*
G54D19*
X3970000Y6015000D03*
Y6545000D03*
X5520000Y6015000D03*
Y6545000D03*
G54D28*
X6118600Y2010000D03*
X6078500Y3500000D03*
X6441500Y2010000D03*
X6401400Y3500000D03*
G54D37*
X8130000Y1260000D03*
X8030000Y1500000D03*
X8230000D03*
X8960000Y3980000D03*
X8760000D03*
X8860000Y4220000D03*
G54D29*
X5870000Y3185000D03*
X6440000Y1760000D03*
X8380000Y800000D03*
G54D38*
X8325000Y2271310D03*
Y2321310D03*
Y2371310D03*
Y2421310D03*
Y2471310D03*
X8815000Y2271310D03*
Y2471310D03*
Y2421310D03*
Y2371310D03*
Y2321310D03*
G54D39*
X8570000Y2371310D03*
M02*
