G04 ================== begin FILE IDENTIFICATION RECORD ==================*
G04 Layout Name:  F103_CH4_V10A.brd*
G04 Film Name:    SolderMask_Bottom*
G04 File Format:  Gerber RS274X*
G04 File Origin:  Cadence Allegro 17.2-S045*
G04 Origin Date:  Sat Mar 09 18:35:53 2019*
G04 *
G04 Layer:  BOARD GEOMETRY/OUTLINE*
G04 Layer:  PIN/SOLDERMASK_BOTTOM*
G04 Layer:  PACKAGE GEOMETRY/SOLDERMASK_BOTTOM*
G04 Layer:  BOARD GEOMETRY/SOLDERMASK_BOTTOM*
G04 *
G04 Offset:    (0.0000 0.0000)*
G04 Mirror:    No*
G04 Mode:      Positive*
G04 Rotation:  0*
G04 FullContactRelief:  No*
G04 UndefLineWidth:     0.1524*
G04 ================== end FILE IDENTIFICATION RECORD ====================*
%FSLAX55Y55*MOMM*%
%IR0*IPPOS*OFA0.00000B0.00000*MIA0B0*SFA1.00000B1.00000*%
%ADD14O,3.1X1.6*%
%ADD15C,1.7*%
%ADD11R,2.X2.*%
%ADD10C,1.9*%
%ADD12C,1.75*%
%ADD13R,1.7X1.7*%
%ADD16C,.1*%
G75*
%LPD*%
G75*
G36*
G01X8450000Y2490000D02*
Y2230000D01*
X8700000D01*
Y2490000D01*
X8450000D01*
G37*
G54D10*
X307400Y3868000D03*
Y4122000D03*
Y4376000D03*
Y5138000D03*
Y5392000D03*
Y5646000D03*
X2164000Y3840000D03*
X2672000D03*
X2418000D03*
X6660000Y685000D03*
X7160000D03*
X9296000Y5266000D03*
Y5774000D03*
X9548400Y5521600D03*
X9804000Y5266000D03*
Y5774000D03*
G54D11*
X307400Y4630000D03*
Y5900000D03*
X1910000Y3840000D03*
G54D12*
X735000Y120000D03*
X1485000D03*
X1915000D03*
X2665000D03*
X3095000D03*
X3845000D03*
X9630000Y2285000D03*
G54D13*
Y2035000D03*
G54D14*
X9680000Y3070000D03*
Y3900000D03*
G54D15*
Y3285000D03*
Y3685000D03*
Y3485000D03*
G54D16*
G01X290000Y0D02*
X9710000D01*
G03X10000000Y290000I0J290000D01*
G01Y6710000D01*
G03X9710000Y7000000I-290000J0D01*
G01X290000D01*
G03X0Y6710000I0J-290000D01*
G01Y290000D01*
G03X290000Y0I290000J0D01*
G01X450000Y290000D02*
G03I-160000J0D01*
G01Y6710000D02*
G03I-160000J0D01*
G01X1045000Y150000D02*
G03I-50000J0D01*
G01X1275000D02*
G03I-50000J0D01*
G01X1700000Y3960000D02*
G03I-160000J0D01*
G01Y6660000D02*
G03I-160000J0D01*
G01X2225000Y150000D02*
G03I-50000J0D01*
G01X2455000D02*
G03I-50000J0D01*
G01X3200000Y3960000D02*
G03I-160000J0D01*
G01Y6660000D02*
G03I-160000J0D01*
G01X3405000Y150000D02*
G03I-50000J0D01*
G01X3635000D02*
G03I-50000J0D01*
G01X9870000Y290000D02*
G03I-160000J0D01*
G01X9640000Y930000D02*
G03I-30000J0D01*
G01Y1330000D02*
G03I-30000J0D01*
G01X9870000Y6710000D02*
G03I-160000J0D01*
M02*
