G04 ================== begin FILE IDENTIFICATION RECORD ==================*
G04 Layout Name:  F103_CH4_V10A.brd*
G04 Film Name:    TOP*
G04 File Format:  Gerber RS274X*
G04 File Origin:  Cadence Allegro 17.2-S045*
G04 Origin Date:  Fri Mar 08 10:45:16 2019*
G04 *
G04 Layer:  BOARD GEOMETRY/OUTLINE*
G04 Layer:  VIA CLASS/TOP*
G04 Layer:  PIN/TOP*
G04 Layer:  ETCH/TOP*
G04 *
G04 Offset:    (0.0000 0.0000)*
G04 Mirror:    No*
G04 Mode:      Positive*
G04 Rotation:  0*
G04 FullContactRelief:  No*
G04 UndefLineWidth:     0.1524*
G04 ================== end FILE IDENTIFICATION RECORD ====================*
%FSLAX55Y55*MOMM*%
%IR0*IPPOS*OFA0.00000B0.00000*MIA0B0*SFA1.00000B1.00000*%
%ADD42R,1.2X.3*%
%ADD40R,1.X.6*%
%ADD24R,.3X1.2*%
%ADD20R,1.2X.3*%
%ADD41R,.6X1.*%
%ADD19R,.5X2.*%
%ADD46R,1.4X.4*%
%ADD37R,1.1X.6*%
%ADD29R,1.5X.6*%
%ADD27R,.55X1.*%
%ADD28R,1.6X.6*%
%ADD17R,.4X3.5*%
%ADD39R,.6X1.6*%
%ADD34R,.8X1.4*%
%ADD11R,.9X1.3*%
%ADD22R,.8X1.5*%
%ADD33C,.75*%
%ADD31R,.5X.5*%
%ADD15R,.8X.8*%
%ADD10C,.6096*%
%ADD18R,1.2X1.*%
%ADD48O,3.X1.5*%
%ADD16R,1.4X1.2*%
%ADD44R,2.5X1.*%
%ADD32R,2.X2.4*%
%ADD50R,2.X1.8*%
%ADD35R,1.X2.7*%
%ADD21R,1.4X2.4*%
%ADD23R,1.4X3.4*%
%ADD45R,2.6X3.2*%
%ADD30R,.4X.5*%
%ADD38R,2.X5.7*%
%ADD43R,1.5X1.8*%
%ADD25R,.6X.4*%
%ADD26R,.6X.5*%
%ADD36R,.8X.25*%
%ADD49C,1.6*%
%ADD12C,1.8*%
%ADD14C,1.65*%
%ADD47R,1.6X1.6*%
%ADD13R,1.9X1.9*%
%ADD51C,.1*%
%ADD52C,.4*%
%ADD53C,.2032*%
%ADD54C,.254*%
%ADD55C,.7112*%
%ADD56C,.508*%
%ADD57C,2.*%
%ADD64R,2.X.5*%
%ADD63R,2.1X.5*%
%ADD59R,.4X3.5*%
%ADD65R,1.9X.4*%
%ADD66C,.6328*%
%ADD58C,1.2004*%
%ADD60C,5.0004*%
%ADD61C,3.418*%
%ADD62C,2.7148*%
G75*
%LPD*%
G75*
G36*
G01X20000Y2879290D02*
G02X54690Y2893660I20321J1D01*
G01X91650Y2856690D01*
X113630Y2762680D01*
X44100Y2693150D01*
Y2226850D01*
X166850Y2104100D01*
X736850D01*
X844100Y1996850D01*
Y466600D01*
X796990Y419550D01*
X795990Y418930D01*
G03X774260Y380000I24007J-38930D01*
G01Y260000D01*
G03X774420Y256120I45742J-57D01*
G02X762150Y245330I-10123J-860D01*
G03X735000Y248240I-27164J-125329D01*
G03X636010Y201520I0J-128230D01*
G02X600000Y214440I-15689J12915D01*
G01Y600000D01*
X20000D01*
Y2879290D01*
G37*
G36*
G01X2113580Y442630D02*
X1993460Y425270D01*
G03X1954260Y380000I6540J-45270D01*
G01Y260000D01*
G03X1954420Y256120I45742J-57D01*
G02X1942150Y245330I-10123J-860D01*
G03X1915000Y248240I-27164J-125329D01*
G03X1786760Y120000I0J-128240D01*
G03X1806770Y51220I128238J7D01*
G02X1789620Y20000I-17151J-10899D01*
G01X1610380D01*
G02X1593230Y51220I1J20321D01*
G03X1613240Y120000I-108228J68787D01*
G03X1356760I-128240J0D01*
G03X1376770Y51220I128238J7D01*
G02X1359620Y20000I-17151J-10899D01*
G01X860380D01*
G02X843230Y51220I1J20321D01*
G03X863240Y120000I-108228J68787D01*
G03X846230Y183830I-128242J6D01*
G02X863850Y214260I17624J10111D01*
G01X927740D01*
G02X944750Y182830I-1J-20318D01*
G03X934980Y150000I50252J-32823D01*
G03X1055020I60020J0D01*
G03X1011680Y207660I-60026J0D01*
G02X999690Y237270I5646J19519D01*
G03X1005740Y260000I-39689J22734D01*
G01Y380000D01*
G03X989340Y415090I-45740J0D01*
G01X988340Y415930D01*
X955900Y461310D01*
Y2043150D01*
X783150Y2215900D01*
X213150D01*
X155900Y2273150D01*
Y2487030D01*
G02X178440Y2507230I20321J0D01*
G01X229300Y2501650D01*
X276850Y2454100D01*
X316660D01*
Y2319460D01*
G03X362400Y2273720I45740J0D01*
G01X452400D01*
G03X483620Y2286030I0J45744D01*
G01X506300Y2307210D01*
X512680Y2303890D01*
G03X533800Y2298720I21124J40569D01*
G01X613800D01*
G03X643420Y2309610I0J45727D01*
G02X656580I6580J-7745D01*
G03X686200Y2298720I29620J34837D01*
G01X766200D01*
G03X795080Y2308990I0J45741D01*
G01X800400Y2313320D01*
X808120D01*
X809790Y2312720D01*
G03X835540Y2308240I25746J71741D01*
G03X911760Y2384460I0J76220D01*
G03X901060Y2423400I-76206J0D01*
G02X918530Y2454100I17469J10380D01*
G01X1984450D01*
G02X2004560Y2430880I-1J-20320D01*
G03X2003780Y2420000I75440J-10876D01*
G03X2024100Y2368190I76210J0D01*
G01Y2275200D01*
X1780000D01*
G03X1760740Y2270950I-5J-45741D01*
G01X1758700Y2270000D01*
X1631300D01*
X1629260Y2270950D01*
G03X1610000Y2275200I-19255J-41491D01*
G01X1290000D01*
G03X1244260Y2229460I0J-45740D01*
G01Y1037230D01*
X1054260Y847230D01*
Y660370D01*
X1128060Y586570D01*
Y553800D01*
G03X1173800Y508060I45740J0D01*
G01X1253800D01*
G03X1299540Y553800I0J45740D01*
G01Y598430D01*
G02X1334230Y612800I20320J4D01*
G01X1360460Y586570D01*
Y553800D01*
G03X1406200Y508060I45740J0D01*
G01X1486200D01*
G03X1531940Y553800I0J45740D01*
G01Y661020D01*
X1542820D01*
X1543540Y660920D01*
G03X1550000Y660460I6471J45279D01*
G01X1630000D01*
G03X1635500Y660790I15J45741D01*
G02X1646400Y647630I1217J-10086D01*
G03X1644260Y633800I43600J-13827D01*
G01Y608670D01*
X1618860Y583270D01*
Y507420D01*
X1618260Y505750D01*
G03X1613780Y480000I71741J-25746D01*
G03X1766220I76220J0D01*
G03X1765830Y487670I-76218J-31D01*
G02X1781110Y509430I20217J2048D01*
G03X1800000Y519270I-11106J44372D01*
G03X1830000Y508060I30000J34538D01*
G01X1910000D01*
G03X1955740Y553800I0J45740D01*
G01Y633800D01*
G03X1953600Y647630I-45740J3D01*
G02X1964500Y660790I9683J3074D01*
G03X1970000Y660460I5485J45411D01*
G01X2050000D01*
G03X2066470Y663530I-5J45739D01*
G02X2093960Y646990I7313J-18960D01*
G01X2220360Y520590D01*
G02X2205990Y485900I-14369J-14369D01*
G01X2156850D01*
X2113580Y442630D01*
G37*
G36*
G01X265160Y2555200D02*
X252400Y2685000D01*
X205900Y2622050D01*
X162400Y2555000D01*
X255000Y2544840D01*
G03X265160Y2555200I0J10162D01*
G37*
G36*
G01X115900Y3135990D02*
G02X150590Y3150360I20321J1D01*
G01X246850Y3054100D01*
X616850D01*
X633110Y3037830D01*
X640790Y2974490D01*
G03X686200Y2934260I45410J5513D01*
G01X732890D01*
X744060Y2923080D01*
G02X736880Y2905740I-7185J-7181D01*
G01X686200D01*
G03X656580Y2894850I0J-45727D01*
G02X643420I-6580J7745D01*
G03X613800Y2905740I-29620J-34837D01*
G01X533800D01*
G03X512680Y2900570I4J-45739D01*
G01X506300Y2897250D01*
X483620Y2918430D01*
G03X452400Y2930740I-31220J-33434D01*
G01X362400D01*
G03X324320Y2910340I0J-45741D01*
G02X290480I-16920J11251D01*
G03X256610Y2930550I-38083J-25337D01*
G01X167700Y2938760D01*
X115900Y2990550D01*
Y3135990D01*
G37*
G36*
G01X132370Y2883460D02*
X162400Y2755000D01*
X209200Y2818200D01*
X252400Y2885000D01*
X142410Y2895160D01*
G03X132370Y2883460I0J-10158D01*
G37*
G36*
G01X160710Y5461660D02*
X168640D01*
G02X177980Y5447500I0J-10160D01*
G03X166580Y5392000I129419J-55504D01*
G03X220730Y5281010I140822J0D01*
G02Y5248990I-12512J-16010D01*
G03X166580Y5138000I86672J-110990D01*
G03X307400Y4997180I140820J0D01*
G03X407900Y5039350I8J140823D01*
G01X407930Y5039390D01*
X450640Y5082100D01*
X508850D01*
X544100Y5046850D01*
Y3496850D01*
X630360Y3410590D01*
G02X615990Y3375900I-14369J-14369D01*
G01X273150D01*
X215900Y3433150D01*
Y3723430D01*
G02X245200Y3741660I20319J3D01*
G03X307400Y3727180I62200J126353D01*
G03X448220Y3868000I0J140820D01*
G03X394070Y3978990I-140822J0D01*
G02Y4011010I12512J16010D01*
G03Y4232990I-86672J110990D01*
G02Y4265010I12512J16010D01*
G03X448220Y4376000I-86672J110990D01*
G03X417410Y4463920I-140823J9D01*
G02X423780Y4494560I15871J12683D01*
G03X448140Y4535000I-21387J40440D01*
G01Y4725000D01*
G03X402400Y4770740I-45740J0D01*
G01X212400D01*
G03X166660Y4725000I0J-45740D01*
G01Y4535000D01*
G03X191020Y4494560I45747J0D01*
G02X197390Y4463920I-9501J-17957D01*
G03X166580Y4376000I110013J-87911D01*
G01Y4314230D01*
X150590Y4298240D01*
G02X115900Y4312610I-14369J14369D01*
G01Y5416850D01*
X160710Y5461660D01*
G37*
G36*
G01X227560Y4032000D02*
X307400D01*
X309200Y4123800D01*
X217400Y4122000D01*
Y4042160D01*
G03X227560Y4032000I10160J0D01*
G37*
G36*
G01Y4286000D02*
X307400D01*
X309200Y4377800D01*
X217400Y4376000D01*
Y4296160D01*
G03X227560Y4286000I10160J0D01*
G37*
G36*
G01X590000Y6410000D02*
Y6980000D01*
X5926810D01*
G02X5941180Y6945310I1J-20321D01*
G01X5791690Y6795820D01*
X5775000D01*
G03X5729260Y6750080I0J-45740D01*
G01Y6705900D01*
X5711950D01*
X5709110Y6708290D01*
G03X5595120Y6610000I-49110J-58290D01*
G03X5598480Y6525000I64880J-40002D01*
G03X5596330Y6438100I61520J-44999D01*
G03X5704200Y6334110I63671J-41895D01*
G01X5710810Y6338810D01*
X5729520Y6322090D01*
G03X5759990Y6310460I30475J34112D01*
G01X5840010D01*
G03X5870480Y6322090I-5J45742D01*
G01X5890850Y6340300D01*
X6459350D01*
X6599900Y6480850D01*
Y6589320D01*
G02X6610060Y6599480I10160J0D01*
G01X6610780Y6599450D01*
G03X6614000Y6599340I3171J45632D01*
G01X7074020D01*
G03X7094000Y6603940I-12J45742D01*
G03X7113980Y6599340I19992J41142D01*
G01X7174020D01*
G03X7194000Y6603940I-12J45742D01*
G03X7213980Y6599340I19992J41142D01*
G01X7274020D01*
G03X7294000Y6603940I-12J45742D01*
G03X7313980Y6599340I19992J41142D01*
G01X7974020D01*
G03X7994000Y6603940I-12J45742D01*
G03X8013980Y6599340I19992J41142D01*
G01X8074000D01*
G03X8119740Y6645080I0J45740D01*
G01Y6805080D01*
G03X8108650Y6834940I-45744J0D01*
G01X8099900Y6845090D01*
Y6929150D01*
X8083740Y6945310D01*
G02X8098110Y6980000I14369J14369D01*
G01X9400000D01*
Y6400000D01*
X9980000D01*
Y2858110D01*
G02X9945310Y2843740I-20321J-1D01*
G01X9940740Y2848310D01*
Y2945000D01*
G03X9895000Y2990740I-45740J0D01*
G01X9883150D01*
G02X9864690Y3019550I3J20321D01*
G03X9798650Y3182570I-109692J50450D01*
G02X9789050Y3212740I7342J18949D01*
G03X9774370Y3375600I-109050J72262D01*
G01X9767470Y3382780D01*
X9805740Y3421050D01*
Y3448870D01*
X9806110Y3450200D01*
G03X9810820Y3485000I-126112J34787D01*
G03X9806110Y3519800I-130822J13D01*
G01X9805740Y3521130D01*
Y3558950D01*
X9779690Y3585000D01*
X9805740Y3611050D01*
Y3648870D01*
X9806110Y3650200D01*
G03X9810820Y3685000I-126112J34787D01*
G03X9806110Y3719800I-130822J13D01*
G01X9805740Y3721130D01*
Y3768950D01*
X9801330Y3773360D01*
G02X9798360Y3780540I7188J7178D01*
G01X9804360Y3789810D01*
G03X9755000Y4020740I-49360J110190D01*
G01X9740560D01*
Y4031310D01*
X9740590Y4031710D01*
G03X9740740Y4035370I-45588J3701D01*
G01Y4165370D01*
G03X9695000Y4211110I-45740J0D01*
G01X9605000D01*
G03X9573780Y4198800I0J-45744D01*
G01X9551960Y4178420D01*
X9545720Y4181360D01*
G03X9526200Y4185740I-19531J-41357D01*
G01X9446200D01*
G03X9416580Y4174850I0J-45727D01*
G02X9403420I-6580J7745D01*
G03X9373800Y4185740I-29620J-34837D01*
G01X9293790D01*
G03X9263320Y4174110I5J-45742D01*
G01X9242950Y4155900D01*
X9049640D01*
G02X9035270Y4190590I0J20321D01*
G01X9035740Y4191050D01*
Y4755740D01*
X8918950D01*
X8835740Y4838950D01*
Y5218950D01*
X8758950Y5295740D01*
X8313840D01*
Y5434520D01*
G02X8344830Y5450900I20302J-904D01*
G03X8368880Y5444060I24060J38897D01*
G01X8530000D01*
Y5430000D01*
X9440120D01*
X9449900Y5420960D01*
X9450000Y5420870D01*
G03X9447520Y5619850I98401J100732D01*
G01X9447470Y5619800D01*
X9437660Y5610000D01*
X8530000D01*
Y5595540D01*
X8368880D01*
G03X8344830Y5588700I10J-45737D01*
G02X8313840Y5605080I-10688J17284D01*
G01Y5770040D01*
X8313790D01*
G03Y5249960I55724J-260040D01*
G01X8313840D01*
Y5250030D01*
X8323140Y5249050D01*
Y5189800D01*
G03X8324060Y5180690I45738J18D01*
G01X8324260Y5179690D01*
Y5159910D01*
X8324060Y5158910D01*
G03X8323140Y5149800I44818J-9128D01*
G01Y5089800D01*
G03X8324060Y5080690I45738J18D01*
G01X8324260Y5079690D01*
Y5059910D01*
X8324060Y5058910D01*
G03X8323140Y5049800I44818J-9128D01*
G01Y4989800D01*
G03X8324060Y4980690I45738J18D01*
G01X8324260Y4979690D01*
Y4944260D01*
X8364590D01*
X8365010Y4944220D01*
G03X8368880Y4944060I3823J45582D01*
G01X8534260D01*
Y4895540D01*
X8368880D01*
G03X8323140Y4849800I0J-45740D01*
G01Y4789780D01*
G03X8327740Y4769800I45742J12D01*
G03X8323140Y4749820I41142J-19992D01*
G01Y4689800D01*
G03X8347050Y4649610I45732J0D01*
G01X8348340Y4648910D01*
X8394100Y4603200D01*
Y4186850D01*
X8536850Y4044100D01*
X8684400D01*
Y4033580D01*
X8684370Y4033220D01*
G03X8684260Y4030000I45632J-3171D01*
G01Y3930000D01*
G03X8695350Y3900140I45744J0D01*
G01X8703550Y3890630D01*
X8698360Y3845200D01*
G03X8698060Y3840000I45438J-5230D01*
G01Y3760000D01*
G03X8743800Y3714260I45740J0D01*
G01X8790490D01*
X8799660Y3705090D01*
X8795640Y3698300D01*
G03X8789260Y3675000I39356J-23300D01*
G01Y3619990D01*
X8782900Y3617420D01*
G03X8770560Y3610010I17084J-42430D01*
G01X8765680Y3605900D01*
X8563150D01*
X8535900Y3633150D01*
Y4013150D01*
X8343150Y4205900D01*
X8137110D01*
G02X8117640Y4232020I2J20318D01*
G03X8119540Y4245050I-43842J13046D01*
G01Y4405080D01*
G03X8073800Y4450820I-45740J0D01*
G01X7613800D01*
G03X7568060Y4405080I0J-45740D01*
G01Y4245050D01*
G03X7569960Y4232020I45742J16D01*
G02X7550490Y4205900I-19472J-5802D01*
G01X7510000D01*
Y4420000D01*
X7480000D01*
Y4205900D01*
X7437110D01*
G02X7417640Y4232020I2J20318D01*
G03X7419540Y4245050I-43842J13046D01*
G01Y4405080D01*
G03X7373800Y4450820I-45740J0D01*
G01X6913800D01*
G03X6868060Y4405080I0J-45740D01*
G01Y4245050D01*
G03X6869960Y4232020I45742J16D01*
G02X6850490Y4205900I-19472J-5802D01*
G01X6837110D01*
G02X6817640Y4232020I2J20318D01*
G03X6819540Y4245050I-43842J13046D01*
G01Y4405080D01*
G03X6773800Y4450820I-45740J0D01*
G01X6413800D01*
G03X6368060Y4405080I0J-45740D01*
G01Y4245050D01*
G03X6369960Y4232020I45742J16D01*
G02X6350490Y4205900I-19472J-5802D01*
G01X5031890D01*
X5014420Y4223360D01*
X5014390Y4223390D01*
G03X4883940Y4174910I-54391J-53393D01*
G02X4863660Y4155900I-20278J1310D01*
G01X4711810D01*
G03X4586160Y4081100I-51811J-55902D01*
G02X4566480Y4055740I-19684J-5040D01*
G01X4178950D01*
X3578950Y4655740D01*
X1881050D01*
X1744260Y4518950D01*
Y4158110D01*
G02X1710110Y4143220I-20322J1D01*
G03X1728540Y3795790I-170110J-183228D01*
G02X1764180Y3782450I15322J-13344D01*
G01Y3745000D01*
G03X1815000Y3694180I50820J0D01*
G01X2005000D01*
G03X2051280Y3723990I0J50830D01*
G02X2082050Y3731790I18502J-8396D01*
G03X2271710Y3757390I81952J108210D01*
G02X2304240Y3757000I16119J-12371D01*
G03X2528990Y3753330I113760J83000D01*
G02X2561010I16010J-12512D01*
G03X2671360Y3699180I110991J86669D01*
G01X2671470D01*
X2733320Y3697620D01*
X2856850Y3574100D01*
X4708190D01*
G03X4760000Y3553780I51810J55890D01*
G03Y3706220I0J76220D01*
G03X4708190Y3685900I0J-76210D01*
G01X2903150D01*
X2812820Y3776230D01*
Y3785950D01*
G02X2848690Y3799030I20319J2D01*
G03X2790090Y3967470I191309J160970D01*
G02X2757450Y3951930I-20310J611D01*
G03X2561010Y3926670I-85451J-111930D01*
G02X2528990I-16010J12512D01*
G03X2304240Y3923000I-110990J-86670D01*
G02X2271710Y3922610I-16411J11981D01*
G03X2087510Y3952140I-107710J-82609D01*
G02X2055740Y3968920I-11451J16785D01*
G01Y4011050D01*
X2085740Y4041050D01*
Y4331050D01*
X2118950Y4364260D01*
X3461050D01*
X4071050Y3754260D01*
X4931050D01*
X5591050Y3094260D01*
X5968210D01*
Y3083730D01*
X5968180Y3083350D01*
G03X5968060Y3080000I45621J-3311D01*
G01Y3000000D01*
G03X6013800Y2954260I45740J0D01*
G01X6093810D01*
G03X6107630Y2956400I-7J45740D01*
G01X6110700Y2956880D01*
G02X6120860Y2946720I1J-10159D01*
G01X6120790Y2945500D01*
G03X6120460Y2940030I45411J-5485D01*
G01Y2859990D01*
G03X6126890Y2836610I45741J6D01*
G02X6109430Y2805900I-17461J-10391D01*
G01X5118940D01*
Y2930010D01*
G03X5114980Y2948620I-45741J-7D01*
G01X5114100Y2950590D01*
Y2971650D01*
X5154610Y3012150D01*
X5160880Y3009560D01*
G03X5140890Y3138290I29120J70439D01*
G01X5138050Y3135900D01*
X5120250D01*
X5111070Y3126720D01*
X5103890Y3133910D01*
G03X5005000Y3141520I-53886J-53909D01*
G03X4939800Y3153500I-45004J-61518D01*
G02X4914100Y3173090I-5382J19592D01*
G01Y3177830D01*
X4546030Y3545900D01*
X2411810D01*
G03X2283890Y3485970I-51809J-55902D01*
G03X2213890Y3405970I6111J-75972D01*
G03X2144780Y3342280I6111J-75972D01*
G02X2115310Y3327550I-20054J3277D01*
G03X2004560Y3249120I-35310J-67549D01*
G02X1984450Y3225900I-20111J-2900D01*
G01X1123150D01*
X775900Y3573150D01*
Y5310630D01*
X513070Y5573460D01*
X459840D01*
G02X440620Y5600360I4J20319D01*
G03X417410Y5733920I-133220J45646D01*
G02X423780Y5764560I15871J12683D01*
G03X448140Y5805000I-21387J40440D01*
G01Y5995000D01*
G03X402400Y6040740I-45740J0D01*
G01X212400D01*
G03X166660Y5995000I0J-45740D01*
G01Y5805000D01*
G03X191020Y5764560I45747J0D01*
G02X197390Y5733920I-9501J-17957D01*
G03X174180Y5600360I110010J-87914D01*
G02X154960Y5573460I-19224J-6581D01*
G01X114410D01*
X54690Y5513740D01*
G02X20000Y5528110I-14369J14369D01*
G01Y6410000D01*
X590000D01*
G37*
G36*
G01X804650Y2393160D02*
X766200Y2424460D01*
X719850Y2384460D01*
X766200Y2344460D01*
X804650Y2375760D01*
G03Y2393160I-23860J8700D01*
G37*
G36*
G01Y2628700D02*
X766200Y2660000D01*
X719850Y2620000D01*
X766200Y2580000D01*
X804650Y2611300D01*
G03Y2628700I-23860J8700D01*
G37*
G36*
G01X495830Y2378390D02*
X533800Y2344460D01*
X576340Y2384460D01*
X533800Y2424460D01*
X495830Y2390530D01*
G03Y2378390I8140J-6070D01*
G37*
G36*
G01X515000Y2391010D02*
X452400Y2449460D01*
X404860Y2384460D01*
X452400Y2319460D01*
X515000Y2377910D01*
G03Y2391010I-7770J6550D01*
G37*
G36*
G01Y2626550D02*
X452400Y2685000D01*
X404860Y2620000D01*
X452400Y2555000D01*
X515000Y2613450D01*
G03Y2626550I-7770J6550D01*
G37*
G36*
G01X495830Y2613930D02*
X533800Y2580000D01*
X576340Y2620000D01*
X533800Y2660000D01*
X495830Y2626070D01*
G03Y2613930I8140J-6070D01*
G37*
G36*
G01X804650Y2828700D02*
X766200Y2860000D01*
X719850Y2820000D01*
X766200Y2780000D01*
X804650Y2811300D01*
G03Y2828700I-23860J8700D01*
G37*
G36*
G01X495350Y3221300D02*
X533800Y3190000D01*
X580150Y3230000D01*
X533800Y3270000D01*
X495350Y3238700D01*
G03Y3221300I23860J-8700D01*
G37*
G36*
G01X676040Y3273800D02*
X686200Y3190000D01*
X727910Y3228120D01*
X766200Y3270000D01*
X686680Y3283950D01*
G03X676040Y3273800I-479J-10150D01*
G37*
G36*
G01Y3063800D02*
X686200Y2980000D01*
X727910Y3018120D01*
X766200Y3060000D01*
X686680Y3073950D01*
G03X676040Y3063800I-479J-10150D01*
G37*
G36*
G01X515000Y2826550D02*
X452400Y2885000D01*
X404860Y2820000D01*
X452400Y2755000D01*
X515000Y2813450D01*
G03Y2826550I-7770J6550D01*
G37*
G36*
G01X495830Y2813930D02*
X533800Y2780000D01*
X576340Y2820000D01*
X533800Y2860000D01*
X495830Y2826070D01*
G03Y2813930I8140J-6070D01*
G37*
G36*
G01X427490Y5145180D02*
X371040Y5201630D01*
X304860Y5138000D01*
X371040Y5074370D01*
X427490Y5130820D01*
G03Y5145180I-7180J7180D01*
G37*
G36*
G01Y5399180D02*
X371040Y5455630D01*
X304860Y5392000D01*
X371040Y5328370D01*
X427490Y5384820D01*
G03Y5399180I-7180J7180D01*
G37*
G36*
G01X893580Y451370D02*
X822120Y380000D01*
X889800Y317470D01*
X959490Y377630D01*
X907540Y450310D01*
G03X893580Y451370I-7537J-6811D01*
G37*
G36*
G01X1248300Y828330D02*
X1173800Y786200D01*
X1211120Y741980D01*
X1253800Y706200D01*
X1273800Y809100D01*
G03X1248300Y828330I-20001J0D01*
G37*
G36*
G01X829280Y3047860D02*
X913050Y2964100D01*
X2483960D01*
G02X2502070Y2934570I-2J-20320D01*
G03X2493780Y2900000I67935J-34570D01*
G03X2493920Y2895450I76218J68D01*
G02X2485680Y2884860I-10144J-608D01*
G03X2423780Y2810000I14317J-74860D01*
G03X2423890Y2805970I76218J64D01*
G03X2353940Y2734910I6109J-75973D01*
G02X2333660Y2715900I-20278J1310D01*
G01X1109350D01*
X811940Y3013310D01*
Y3040680D01*
G02X829280Y3047860I10159J-5D01*
G37*
G36*
G01X1808450Y602500D02*
X1770000Y633800D01*
X1723650Y593800D01*
X1770000Y553800D01*
X1808450Y585100D01*
G03Y602500I-23860J8700D01*
G37*
G36*
G01X1667970Y752270D02*
X1630000Y786200D01*
X1587460Y746200D01*
X1630000Y706200D01*
X1667970Y740130D01*
G03Y752270I-8140J6070D01*
G37*
G36*
G01X1652030Y740130D02*
X1690000Y706200D01*
X1732540Y746200D01*
X1690000Y786200D01*
X1652030Y752270D01*
G03Y740130I8140J-6070D01*
G37*
G36*
G01X2203150Y374100D02*
X2394260D01*
Y260000D01*
G03X2400310Y237270I45739J4D01*
G02X2388320Y207660I-17636J-10091D01*
G03X2344980Y150000I16686J-57660D01*
G03X2465020I60020J0D01*
G03X2455250Y182830I-60022J7D01*
G02X2472260Y214260I17011J11112D01*
G01X2536150D01*
G02X2553770Y183830I-4J-20319D01*
G03X2536760Y120000I111232J-63824D01*
G03X2556770Y51220I128238J7D01*
G02X2539620Y20000I-17151J-10899D01*
G01X2040380D01*
G02X2023230Y51220I1J20321D01*
G03X2043240Y120000I-108228J68787D01*
G03X2026230Y183830I-128242J6D01*
G02X2043850Y214260I17624J10111D01*
G01X2107740D01*
G02X2124750Y182830I-1J-20318D01*
G03X2114980Y150000I50252J-32823D01*
G03X2235020I60020J0D01*
G03X2191680Y207660I-60026J0D01*
G02X2179690Y237270I5646J19519D01*
G03X2185600Y256440I-39690J22732D01*
G01X2194090Y365030D01*
X2203150Y374100D01*
G37*
G36*
G01X2139280Y400130D02*
X2000000Y380000D01*
X2068200Y318200D01*
X2140000Y260000D01*
X2150160Y390000D01*
G03X2139280Y400130I-10156J0D01*
G37*
G36*
G01X3250000Y2213460D02*
X3664610D01*
X3773970Y2104100D01*
X3830460D01*
Y2030000D01*
G03X3839800Y2002300I45745J0D01*
G02Y1977700I-16173J-12300D01*
G03X3830460Y1950000I36405J-27700D01*
G01Y1870000D01*
G03X3840730Y1841120I45741J0D01*
G01X3845060Y1835800D01*
Y1731220D01*
X3844460Y1729550D01*
G03X3839980Y1703800I71741J-25746D01*
G03X3840220Y1697820I76217J64D01*
G02X3819960Y1675900I-20258J-1599D01*
G01X3756850D01*
X3644100Y1563150D01*
Y813150D01*
X3357490Y526540D01*
X2372510D01*
X2205900Y693150D01*
Y1833720D01*
X2934100D01*
Y1033150D01*
X2744100Y843150D01*
Y837050D01*
X2725890Y816680D01*
G03X2714260Y786200I34112J-30475D01*
G01Y706200D01*
G03X2760000Y660460I45740J0D01*
G01X2840000D01*
G03X2876180Y678220I0J45732D01*
G02X2888900Y681020I8037J-6218D01*
G03X2910000Y675860I21104J40579D01*
G01X3030000D01*
G03X3058640Y685940I0J45727D01*
G02X3071360I6360J-7927D01*
G03X3100000Y675860I28640J35647D01*
G01X3220000D01*
G03X3265740Y721600I0J45740D01*
G01Y821600D01*
G03X3252620Y853660I-45731J0D01*
G01X3195740Y911540D01*
Y2213460D01*
X3220000D01*
Y1870000D01*
X3250000D01*
Y2213460D01*
G37*
G36*
G01X1791550Y585100D02*
X1830000Y553800D01*
X1876350Y593800D01*
X1830000Y633800D01*
X1791550Y602500D01*
G03Y585100I23860J-8700D01*
G37*
G36*
G01X1947970Y752270D02*
X1910000Y786200D01*
X1867460Y746200D01*
X1910000Y706200D01*
X1947970Y740130D01*
G03Y752270I-8140J6070D01*
G37*
G36*
G01X2003930Y824170D02*
X1970000Y786200D01*
X2010000Y743660D01*
X2050000Y786200D01*
X2016070Y824170D01*
G03X2003930I-6070J-8140D01*
G37*
G36*
G01X1932030Y740130D02*
X1970000Y706200D01*
X2012540Y746200D01*
X1970000Y786200D01*
X1932030Y752270D01*
G03Y740130I8140J-6070D01*
G37*
G36*
G01X2227180Y2324080D02*
X2241550Y2338450D01*
X2220000Y2362540D01*
X2198450Y2338450D01*
X2212820Y2324080D01*
G03X2227180I7180J7180D01*
G37*
G36*
G01X2087180Y2384080D02*
X2101550Y2398450D01*
X2080000Y2422540D01*
X2058450Y2398450D01*
X2072820Y2384080D01*
G03X2087180I7180J7180D01*
G37*
G36*
G01X2115920Y3267180D02*
X2101550Y3281550D01*
X2077460Y3260000D01*
X2101550Y3238450D01*
X2115920Y3252820D01*
G03Y3267180I-7180J7180D01*
G37*
G36*
G01X2255920Y3337180D02*
X2241550Y3351550D01*
X2217460Y3330000D01*
X2241550Y3308450D01*
X2255920Y3322820D01*
G03Y3337180I-7180J7180D01*
G37*
G36*
G01X3560000Y4610000D02*
X4160000Y4010000D01*
X5140000D01*
X5770000Y3380000D01*
X5930000D01*
X5960000Y3410000D01*
Y3910000D01*
X5990000Y3940000D01*
X6140000D01*
X6180000Y3900000D01*
Y3380000D01*
X6100000Y3300000D01*
Y3140000D01*
X5610000D01*
X4950000Y3800000D01*
X4090000D01*
X3480000Y4410000D01*
X2100000D01*
X2040000Y4350000D01*
Y4060000D01*
X1990000Y4010000D01*
X1810000D01*
X1790000Y4030000D01*
Y4500000D01*
X1900000Y4610000D01*
X3560000D01*
G37*
G36*
G01X2760440Y374100D02*
X3134260D01*
Y260000D01*
G03X3134420Y256120I45742J-57D01*
G02X3122150Y245330I-10123J-860D01*
G03X3095000Y248240I-27164J-125329D01*
G03X2966760Y120000I0J-128240D01*
G03X2986770Y51220I128238J7D01*
G02X2969620Y20000I-17151J-10899D01*
G01X2790380D01*
G02X2773230Y51220I1J20321D01*
G03X2793240Y120000I-108228J68787D01*
G03X2726840Y232350I-128249J0D01*
G02X2722610Y264850I9797J17800D01*
G03X2746220Y320000I-52607J55150D01*
G03X2741400Y346670I-76219J-4D01*
G02X2760440Y374100I19036J7110D01*
G37*
G36*
G01X2636600Y332690D02*
X2580000Y380000D01*
X2503650Y320000D01*
X2580000Y260000D01*
X2636600Y307310D01*
G03Y332690I-22010J12690D01*
G37*
G36*
G01X2577180Y2384080D02*
X2591550Y2398450D01*
X2570000Y2422540D01*
X2548450Y2398450D01*
X2562820Y2384080D01*
G03X2577180I7180J7180D01*
G37*
G36*
G01X2507180Y2324080D02*
X2521550Y2338450D01*
X2500000Y2362540D01*
X2478450Y2338450D01*
X2492820Y2324080D01*
G03X2507180I7180J7180D01*
G37*
G36*
G01X2475920Y2727180D02*
X2451550Y2751550D01*
X2427540Y2730630D01*
X2446160Y2705640D01*
X2470530Y2710000D01*
G03X2475920Y2727180I-1793J9998D01*
G37*
G36*
G01X2437180Y2385040D02*
X2451550Y2399410D01*
X2430000Y2423500D01*
X2408450Y2399410D01*
X2422820Y2385040D01*
G03X2437180I7180J7180D01*
G37*
G36*
G01X2367180Y2324080D02*
X2381550Y2338450D01*
X2360000Y2362540D01*
X2338450Y2338450D01*
X2352820Y2324080D01*
G03X2367180I7180J7180D01*
G37*
G36*
G01X2297180Y2385040D02*
X2311550Y2399410D01*
X2290000Y2423500D01*
X2268450Y2399410D01*
X2282820Y2385040D01*
G03X2297180I7180J7180D01*
G37*
G36*
G01X2605920Y2907180D02*
X2591550Y2921550D01*
X2567460Y2900000D01*
X2591550Y2878450D01*
X2605920Y2892820D01*
G03Y2907180I-7180J7180D01*
G37*
G36*
G01X2535920Y2817180D02*
X2521550Y2831550D01*
X2497460Y2810000D01*
X2521550Y2788450D01*
X2535920Y2802820D01*
G03Y2817180I-7180J7180D01*
G37*
G36*
G01X2395920Y3497180D02*
X2381550Y3511550D01*
X2357460Y3490000D01*
X2381550Y3468450D01*
X2395920Y3482820D01*
G03Y3497180I-7180J7180D01*
G37*
G36*
G01X2325920Y3417180D02*
X2311550Y3431550D01*
X2287460Y3410000D01*
X2311550Y3388450D01*
X2325920Y3402820D01*
G03Y3417180I-7180J7180D01*
G37*
G36*
G01X2762000Y3758160D02*
Y3840000D01*
X2670230Y3841820D01*
X2671750Y3750010D01*
X2751590Y3748000D01*
G03X2762000Y3758160I247J10160D01*
G37*
G36*
G01X3603150Y454100D02*
X4436850D01*
X4652320Y238630D01*
G02X4653120Y210730I-14366J-14373D01*
G03X4633780Y160000I56878J-50735D01*
G03X4703510Y84060I76217J0D01*
G01X4707200Y83740D01*
X4736260Y54690D01*
G02X4721890Y20000I-14369J-14369D01*
G01X3970380D01*
G02X3953230Y51220I1J20321D01*
G03X3973240Y120000I-108228J68787D01*
G03X3716760I-128240J0D01*
G03X3736770Y51220I128238J7D01*
G02X3719620Y20000I-17151J-10899D01*
G01X3220380D01*
G02X3203230Y51220I1J20321D01*
G03X3223240Y120000I-108228J68787D01*
G03X3206230Y183830I-128242J6D01*
G02X3223850Y214260I17624J10111D01*
G01X3287740D01*
G02X3304750Y182830I-1J-20318D01*
G03X3294980Y150000I50252J-32823D01*
G03X3415020I60020J0D01*
G03X3374150Y206880I-60016J0D01*
G02X3366800Y241040I6474J19264D01*
G01X3391650Y264100D01*
X3413150D01*
X3603150Y454100D01*
G37*
G36*
G01X3028340Y851530D02*
X2910000Y821600D01*
X2966460Y768060D01*
X3030000Y721600D01*
X3050000Y831600D01*
G03X3028340Y851530I-19999J0D01*
G37*
G36*
G01X2793930Y824170D02*
X2760000Y786200D01*
X2800000Y743660D01*
X2840000Y786200D01*
X2806070Y824170D01*
G03X2793930I-6070J-8140D01*
G37*
G36*
G01X3111920Y893640D02*
X3100000Y821600D01*
X3161280Y766770D01*
X3220000Y821600D01*
X3141530Y901440D01*
G03X3111920Y893640I-11528J-16341D01*
G37*
G36*
G01X3377650Y326490D02*
X3320000Y380000D01*
X3247460Y320000D01*
X3320000Y260000D01*
X3377650Y313510D01*
G03Y326490I-7820J6490D01*
G37*
G36*
G01X4013150Y1564100D02*
X4113190Y1664140D01*
G02X4144910Y1660340I14366J-14372D01*
G03X4210000Y1623780I65090J39662D01*
G03X4232120Y1627060I0J76228D01*
G01X4237640Y1628730D01*
X4262400Y1606180D01*
G03X4293200Y1594260I30800J33832D01*
G01X4323200D01*
G03X4333200Y1595370I-15J45738D01*
G03X4343200Y1594260I10015J44628D01*
G01X4452300D01*
Y1468830D01*
X4239370Y1255900D01*
X4071850D01*
X4021690Y1205740D01*
X4005000D01*
G03X3959260Y1160000I0J-45740D01*
G01Y960000D01*
G03X4005000Y914260I45740J0D01*
G01X4055000D01*
G03X4100740Y960000I0J45740D01*
G01Y1126690D01*
X4118150Y1144100D01*
X4199260D01*
Y960000D01*
G03X4245000Y914260I45740J0D01*
G01X4295000D01*
G03X4340740Y960000I0J45740D01*
G01Y1141690D01*
X4356920Y1157860D01*
G02X4374260Y1150680I7181J-7185D01*
G01Y1096200D01*
G03X4420000Y1050460I45740J0D01*
G01X4500000D01*
G03X4508250Y1051210I0J45750D01*
G02X4519740Y1038050I1835J-9994D01*
G03X4517460Y1023800I43458J-14261D01*
G01Y998670D01*
X4478860Y960070D01*
Y747420D01*
X4478260Y745750D01*
G03X4473940Y724910I71742J-25739D01*
G02X4453660Y705900I-20278J1310D01*
G01X3744010D01*
G02X3729640Y740590I-1J20321D01*
G01X3755900Y766850D01*
Y1516850D01*
X3803150Y1564100D01*
X4013150D01*
G37*
G36*
G01X3334010Y2964100D02*
X3810250D01*
G02X3830530Y2942620I-5J-20318D01*
G03X3830460Y2940000I45672J-2531D01*
G01Y2875900D01*
X3373150D01*
X3319640Y2929410D01*
G02X3334010Y2964100I14369J14369D01*
G37*
G36*
G01X4244120Y1708980D02*
X4231540Y1721540D01*
X4206820Y1700000D01*
X4231540Y1678460D01*
X4244120Y1691020D01*
G03Y1708980I-8980J8980D01*
G37*
G36*
G01X4235940Y1692140D02*
X4293200Y1640000D01*
X4311380Y1700000D01*
X4293200Y1760000D01*
X4235940Y1707860D01*
G03Y1692140I9970J-7860D01*
G37*
G36*
G01X4173040Y1961920D02*
X4158200Y1975000D01*
X4095020Y1960000D01*
X4158200Y1945000D01*
X4173040Y1958080D01*
G03Y1961920I-12550J1920D01*
G37*
G36*
G01X4023360Y1958080D02*
X4038200Y1945000D01*
X4101380Y1960000D01*
X4038200Y1975000D01*
X4023360Y1961920D01*
G03Y1958080I12550J-1920D01*
G37*
G36*
G01X4204120Y2404100D02*
X4676130D01*
X4854100Y2226130D01*
Y2006130D01*
X5044790Y1815430D01*
X5034070Y1804710D01*
X5029110Y1805360D01*
G03X5023200Y1805740I-5884J-45362D01*
G01X4993200D01*
G03X4983200Y1804630I15J-45738D01*
G03X4973200Y1805740I-10015J-44628D01*
G01X4943200D01*
G03X4933200Y1804630I15J-45738D01*
G03X4923200Y1805740I-10015J-44628D01*
G01X4893200D01*
G03X4883200Y1804630I15J-45738D01*
G03X4873200Y1805740I-10015J-44628D01*
G01X4843200D01*
G03X4833200Y1804630I15J-45738D01*
G03X4825540Y1805680I-10019J-44628D01*
G02X4815900Y1815830I520J10147D01*
G01Y1828050D01*
X4818290Y1830890D01*
G03X4836220Y1880000I-58291J49110D01*
G03X4760000Y1956220I-76220J0D01*
G03X4708100Y1935820I0J-76220D01*
G03X4658200Y1954420I-49895J-57622D01*
G03X4608990Y1936400I6J-76218D01*
G02X4581500Y1937550I-13120J15520D01*
G01X4563150Y1955900D01*
X4246850D01*
X4231470Y1940530D01*
G02X4198990Y1945700I-14364J14369D01*
G03X4193860Y1953640I-40778J-20719D01*
G02Y1966360I7927J6360D01*
G03X4203940Y1995000I-35647J28640D01*
G01Y2025000D01*
G03X4202830Y2035000I-45738J-15D01*
G03X4203940Y2045000I-44628J10015D01*
G01Y2075000D01*
G03X4202830Y2085000I-45738J-15D01*
G03X4203940Y2095000I-44628J10015D01*
G01Y2125000D01*
G03X4202830Y2135000I-45738J-15D01*
G03X4203940Y2145000I-44628J10015D01*
G01Y2175000D01*
G03X4202830Y2185000I-45738J-15D01*
G03X4203940Y2195000I-44628J10015D01*
G01Y2225000D01*
G03X4202830Y2235000I-45738J-15D01*
G03X4203940Y2245000I-44628J10015D01*
G01Y2275000D01*
G03X4202830Y2285000I-45738J-15D01*
G03X4203940Y2295000I-44628J10015D01*
G01Y2325000D01*
G03X4202830Y2335000I-45738J-15D01*
G03X4203940Y2345000I-44628J10015D01*
G01Y2375000D01*
G03X4202830Y2385000I-45738J-15D01*
G03X4203930Y2394130I-44630J10008D01*
G01X4204120Y2404100D01*
G37*
G36*
G01X4023360Y1908080D02*
X4038200Y1895000D01*
X4101380Y1910000D01*
X4038200Y1925000D01*
X4023360Y1911920D01*
G03Y1908080I12550J-1920D01*
G37*
G36*
G01X3924900Y1831550D02*
X3956200Y1870000D01*
X3916200Y1916350D01*
X3876200Y1870000D01*
X3907500Y1831550D01*
G03X3924900I8700J23860D01*
G37*
G36*
G01X3993980Y1917160D02*
X3956200Y1950000D01*
X3913020Y1910000D01*
X3956200Y1870000D01*
X3993980Y1902840D01*
G03Y1917160I-10490J7160D01*
G37*
G36*
G01X4023700Y2106890D02*
X4038200Y2095000D01*
X4100740Y2110000D01*
X4038200Y2125000D01*
X4023700Y2113110D01*
G03Y2106890I9670J-3110D01*
G37*
G36*
G01X4019700Y2120160D02*
X3876200Y2110000D01*
X3913830Y2069080D01*
X3956200Y2030000D01*
X4027660Y2103680D01*
G03X4019700Y2120160I-7960J6318D01*
G37*
G36*
G01X4023700Y2206890D02*
X4038200Y2195000D01*
X4100740Y2210000D01*
X4038200Y2225000D01*
X4023700Y2213110D01*
G03Y2206890I9670J-3110D01*
G37*
G36*
G01Y2256890D02*
X4038200Y2245000D01*
X4100740Y2260000D01*
X4038200Y2275000D01*
X4023700Y2263110D01*
G03Y2256890I9670J-3110D01*
G37*
G36*
G01Y2156890D02*
X4038200Y2145000D01*
X4100740Y2160000D01*
X4038200Y2175000D01*
X4023700Y2163110D01*
G03Y2156890I9670J-3110D01*
G37*
G36*
G01Y2656890D02*
X4038200Y2645000D01*
X4100740Y2660000D01*
X4038200Y2675000D01*
X4023700Y2663110D01*
G03Y2656890I9670J-3110D01*
G37*
G36*
G01Y2406890D02*
X4038200Y2395000D01*
X4100740Y2410000D01*
X4038200Y2425000D01*
X4023700Y2413110D01*
G03Y2406890I9670J-3110D01*
G37*
G36*
G01Y2606890D02*
X4038200Y2595000D01*
X4100740Y2610000D01*
X4038200Y2625000D01*
X4023700Y2613110D01*
G03Y2606890I9670J-3110D01*
G37*
G36*
G01X4172700Y2513110D02*
X4158200Y2525000D01*
X4095660Y2510000D01*
X4158200Y2495000D01*
X4172700Y2506890D01*
G03Y2513110I-9670J3110D01*
G37*
G36*
G01Y2463110D02*
X4158200Y2475000D01*
X4095660Y2460000D01*
X4158200Y2445000D01*
X4172700Y2456890D01*
G03Y2463110I-9670J3110D01*
G37*
G36*
G01X4023700Y2306890D02*
X4038200Y2295000D01*
X4100740Y2310000D01*
X4038200Y2325000D01*
X4023700Y2313110D01*
G03Y2306890I9670J-3110D01*
G37*
G36*
G01Y2356890D02*
X4038200Y2345000D01*
X4100740Y2360000D01*
X4038200Y2375000D01*
X4023700Y2363110D01*
G03Y2356890I9670J-3110D01*
G37*
G36*
G01X4064120Y2908980D02*
X4051540Y2921540D01*
X4026820Y2900000D01*
X4051540Y2878460D01*
X4064120Y2891020D01*
G03Y2908980I-8980J8980D01*
G37*
G36*
G01X3995880Y2891020D02*
X4008460Y2878460D01*
X4033180Y2900000D01*
X4008460Y2921540D01*
X3995880Y2908980D01*
G03Y2891020I8980J-8980D01*
G37*
G36*
G01X3993980Y2907160D02*
X3956200Y2940000D01*
X3913020Y2900000D01*
X3956200Y2860000D01*
X3993980Y2892840D01*
G03Y2907160I-10490J7160D01*
G37*
G36*
G01X4740480Y139680D02*
Y160000D01*
X4708200Y161800D01*
X4710000Y129520D01*
X4730320D01*
G03X4740480Y139680I0J10160D01*
G37*
G36*
G01X4588180Y550940D02*
X4627000Y520500D01*
X4673350Y560560D01*
X4627000Y600500D01*
X4588110Y568870D01*
G03X4588180Y550940I23800J-8872D01*
G37*
G36*
G01X4675700Y482050D02*
X4707000Y520500D01*
X4667000Y566850D01*
X4627000Y520500D01*
X4658300Y482050D01*
G03X4675700I8700J23860D01*
G37*
G36*
G01X4783800Y1050460D02*
G03X4788420Y1050690I39J45742D01*
G02X4810690Y1028420I2057J-20213D01*
G03X4810460Y1023800I45512J-4581D01*
G01Y943800D01*
G03X4820730Y914920I45741J0D01*
G01X4825060Y909600D01*
Y815670D01*
X4800530Y791140D01*
X4621140D01*
Y898060D01*
X4643200D01*
G03X4688940Y943800I0J45740D01*
G01Y1023800D01*
G03X4686780Y1037700I-45742J10D01*
G02X4697790Y1050860I9679J3088D01*
G03X4703800Y1050460I6036J45338D01*
G01X4783800D01*
G37*
G36*
G01X4455680Y1256630D02*
X4517610Y1318560D01*
G02X4552300Y1304190I14369J-14369D01*
G01Y1232330D01*
X4532050Y1209950D01*
X4524800Y1214630D01*
G03X4500000Y1221940I-24805J-38429D01*
G01X4470050D01*
G02X4455680Y1256630I-1J20321D01*
G37*
G36*
G01X4736640Y1213980D02*
X4703800Y1176200D01*
X4743800Y1133020D01*
X4783800Y1176200D01*
X4750960Y1213980D01*
G03X4736640I-7160J-10490D01*
G37*
G36*
G01X4750960Y1217820D02*
X4783800Y1255600D01*
X4743800Y1298780D01*
X4703800Y1255600D01*
X4736640Y1217820D01*
G03X4750960I7160J10490D01*
G37*
G36*
G01X4537970Y1142270D02*
X4500000Y1176200D01*
X4457460Y1136200D01*
X4500000Y1096200D01*
X4537970Y1130130D01*
G03Y1142270I-8140J6070D01*
G37*
G36*
G01X4601980Y1219060D02*
X4563200Y1176200D01*
X4603030Y1133670D01*
X4643200Y1176200D01*
X4615370Y1218230D01*
G03X4601980Y1219060I-7167J-7201D01*
G37*
G36*
G01X4525230Y1130130D02*
X4563200Y1096200D01*
X4605740Y1136200D01*
X4563200Y1176200D01*
X4525230Y1142270D01*
G03Y1130130I8140J-6070D01*
G37*
G36*
G01X4605090Y1774500D02*
X4593200Y1760000D01*
X4608200Y1697460D01*
X4623200Y1760000D01*
X4611310Y1774500D01*
G03X4605090I-3110J-9670D01*
G37*
G36*
G01X4611310Y1625500D02*
X4623200Y1640000D01*
X4608200Y1702540D01*
X4593200Y1640000D01*
X4605090Y1625500D01*
G03X4611310I3110J9670D01*
G37*
G36*
G01X4511310D02*
X4523200Y1640000D01*
X4508200Y1702540D01*
X4493200Y1640000D01*
X4505090Y1625500D01*
G03X4511310I3110J9670D01*
G37*
G36*
G01X4561310D02*
X4573200Y1640000D01*
X4558200Y1702540D01*
X4543200Y1640000D01*
X4555090Y1625500D01*
G03X4561310I3110J9670D01*
G37*
G36*
G01X4714560Y1624290D02*
X4723200Y1640000D01*
X4708130Y1702540D01*
X4693200Y1640000D01*
X4706270Y1623920D01*
G03X4714560Y1624290I3731J9450D01*
G37*
G36*
G01X4702820Y1445920D02*
X4688450Y1431550D01*
X4710000Y1407460D01*
X4731550Y1431550D01*
X4717180Y1445920D01*
G03X4702820I-7180J-7180D01*
G37*
G36*
G01X4655090Y1774500D02*
X4643200Y1760000D01*
X4658200Y1697460D01*
X4673200Y1760000D01*
X4661310Y1774500D01*
G03X4655090I-3110J-9670D01*
G37*
G36*
G01X4665380Y1842280D02*
X4679750Y1856650D01*
X4658200Y1880740D01*
X4636650Y1856650D01*
X4651020Y1842280D01*
G03X4665380I7180J7180D01*
G37*
G36*
G01X4362520Y2756530D02*
X4374020Y2768030D01*
X4379850Y2766250D01*
G03X4393200Y2764260I13345J43751D01*
G01X4423200D01*
G03X4433200Y2765370I-15J45738D01*
G03X4443200Y2764260I10015J44628D01*
G01X4523200D01*
G03X4533200Y2765370I-15J45738D01*
G03X4543200Y2764260I10015J44628D01*
G01X4573200D01*
G03X4583200Y2765370I-15J45738D01*
G03X4593200Y2764260I10015J44628D01*
G01X4623200D01*
G03X4633200Y2765370I-15J45738D01*
G03X4643200Y2764260I10015J44628D01*
G01X4673200D01*
G03X4683200Y2765370I-15J45738D01*
G03X4693200Y2764260I10015J44628D01*
G01X4723200D01*
G03X4733200Y2765370I-15J45738D01*
G03X4743200Y2764260I10015J44628D01*
G01X4773200D01*
G03X4783200Y2765370I-15J45738D01*
G03X4793200Y2764260I10015J44628D01*
G01X4823200D01*
G03X4833200Y2765370I-15J45738D01*
G03X4843200Y2764260I10015J44628D01*
G01X4856700D01*
X4926860Y2694100D01*
X5163180D01*
Y2683120D01*
X5163050Y2682320D01*
G03X5162460Y2675000I45150J-7323D01*
G01Y2645000D01*
G03X5172540Y2616360I45727J0D01*
G02Y2603640I-7927J-6360D01*
G03X5162460Y2575000I35647J-28640D01*
G01Y2545000D01*
G03X5163570Y2535000I45738J15D01*
G03X5162470Y2525870I44630J-10008D01*
G01X5162280Y2515900D01*
X5023150D01*
X4803150Y2735900D01*
X4383150D01*
X4362520Y2756530D01*
G37*
G36*
G01X4355090Y2944500D02*
X4343200Y2930000D01*
X4358200Y2867460D01*
X4373200Y2930000D01*
X4361310Y2944500D01*
G03X4355090I-3110J-9670D01*
G37*
G36*
G01X4361310Y2795500D02*
X4373200Y2810000D01*
X4358200Y2872540D01*
X4343200Y2810000D01*
X4355090Y2795500D01*
G03X4361310I3110J9670D01*
G37*
G36*
G01X4270180Y2898540D02*
X4293200Y2810000D01*
X4316410Y2860310D01*
X4318370Y2912690D01*
X4278530Y2911960D01*
G03X4270180Y2898540I4267J-11963D01*
G37*
G36*
G01X4405090Y2944500D02*
X4393200Y2930000D01*
X4408200Y2867460D01*
X4423200Y2930000D01*
X4411310Y2944500D01*
G03X4405090I-3110J-9670D01*
G37*
G36*
G01X4605090D02*
X4593200Y2930000D01*
X4608200Y2867460D01*
X4623200Y2930000D01*
X4611310Y2944500D01*
G03X4605090I-3110J-9670D01*
G37*
G36*
G01X4555090D02*
X4543200Y2930000D01*
X4558200Y2867460D01*
X4573200Y2930000D01*
X4561310Y2944500D01*
G03X4555090I-3110J-9670D01*
G37*
G36*
G01X4655090D02*
X4643200Y2930000D01*
X4658200Y2867460D01*
X4673200Y2930000D01*
X4661310Y2944500D01*
G03X4655090I-3110J-9670D01*
G37*
G36*
G01X4705090D02*
X4693200Y2930000D01*
X4708200Y2867460D01*
X4723200Y2930000D01*
X4711310Y2944500D01*
G03X4705090I-3110J-9670D01*
G37*
G36*
G01X4724080Y3622820D02*
X4738450Y3608450D01*
X4762540Y3630000D01*
X4738450Y3651550D01*
X4724080Y3637180D01*
G03Y3622820I7180J-7180D01*
G37*
G36*
G01X4695920Y4107180D02*
X4681550Y4121550D01*
X4657460Y4100000D01*
X4681550Y4078450D01*
X4695920Y4092820D01*
G03Y4107180I-7180J7180D01*
G37*
G36*
G01X5196210Y377600D02*
X5363340D01*
X5550820Y190120D01*
X5717760D01*
Y156540D01*
X4892510D01*
X4844880Y204170D01*
G02X4859250Y238860I14369J14369D01*
G01X4947360D01*
X4949790Y237390D01*
G03X4973500Y230760I23718J39108D01*
G01X5133500D01*
G03X5179240Y276500I0J45740D01*
G01Y336500D01*
G03X5176920Y350890I-45741J7D01*
G02X5196210Y377600I19288J6391D01*
G37*
G36*
G01X5024070Y1594270D02*
G03X5030960Y1594920I-839J45733D01*
G01X5033200Y1595310D01*
X5050380Y1590570D01*
X5126850Y1514100D01*
X5208190D01*
G03X5260000Y1493780I51810J55890D01*
G03X5320440Y1523560I0J76223D01*
G01X5320840Y1524080D01*
X5328490Y1531730D01*
X5344100Y1516130D01*
Y1186850D01*
X5460850Y1070100D01*
X5580790D01*
G02X5600080Y1043390I2J-20319D01*
G03X5597760Y1029000I43421J-14383D01*
G01Y969000D01*
G03X5643500Y923260I45740J0D01*
G01X5793500D01*
G03X5823360Y934350I0J45744D01*
G01X5833510Y943100D01*
X6005950D01*
X6027110Y964260D01*
X6040490D01*
X6084260Y920490D01*
Y881490D01*
X6076080Y879860D01*
G03X6055560Y870010I8911J-44864D01*
G01X6050680Y865900D01*
X6036850D01*
X5977900Y806950D01*
Y775850D01*
X5959690Y755480D01*
G03X5948060Y725000I34112J-30475D01*
G01Y645000D01*
Y644600D01*
G02X5935280Y634700I-10158J-86D01*
G03X5923500Y636240I-11769J-44201D01*
G01X5763500D01*
G03X5717760Y590500I0J-45740D01*
G01Y530500D01*
G03X5726880Y503090I45750J0D01*
G02Y490910I-8130J-6090D01*
G03X5717760Y463500I36630J-27410D01*
G01Y425900D01*
X5603150D01*
X5412650Y616400D01*
X5173510D01*
X5163360Y625150D01*
G03X5133500Y636240I-29860J-34654D01*
G01X5004350D01*
G02X4989980Y670930I-1J20321D01*
G01X5055900Y736850D01*
Y1383150D01*
X5014100Y1424950D01*
Y1584110D01*
G02X5024070Y1594270I10160J1D01*
G37*
G36*
G01X4940720Y304040D02*
X4973500Y276500D01*
X5059840Y306250D01*
X4973500Y336500D01*
X4941120Y317420D01*
G03X4940720Y304040I24290J-7422D01*
G37*
G36*
G01X5161810Y439100D02*
X5133500Y463500D01*
X5050960Y433500D01*
X5133500Y403500D01*
X5161810Y427900D01*
G03Y439100I-8480J5600D01*
G37*
G36*
G01Y566100D02*
X5133500Y590500D01*
X5050960Y560500D01*
X5133500Y530500D01*
X5161810Y554900D01*
G03Y566100I-8480J5600D01*
G37*
G36*
G01X4945210Y554160D02*
X4973500Y530500D01*
X5056680Y560500D01*
X4973500Y590500D01*
X4945210Y566840D01*
G03Y554160I11000J-6340D01*
G37*
G36*
G01X4897180Y567660D02*
X4859400Y600500D01*
X4816220Y560500D01*
X4859400Y520500D01*
X4897180Y553340D01*
G03Y567660I-10490J7160D01*
G37*
G36*
G01X4904900Y905350D02*
X4936200Y943800D01*
X4896200Y990150D01*
X4856200Y943800D01*
X4887500Y905350D01*
G03X4904900I8700J23860D01*
G37*
G36*
G01X4889040Y1213980D02*
X4856200Y1176200D01*
X4896200Y1133020D01*
X4936200Y1176200D01*
X4903360Y1213980D01*
G03X4889040I-7160J-10490D01*
G37*
G36*
G01X4903360Y1217820D02*
X4936200Y1255600D01*
X4896200Y1298780D01*
X4856200Y1255600D01*
X4889040Y1217820D01*
G03X4903360I7160J10490D01*
G37*
G36*
G01X4860120Y1625160D02*
X4873200Y1640000D01*
X4858200Y1703180D01*
X4843200Y1640000D01*
X4856280Y1625160D01*
G03X4860120I1920J12550D01*
G37*
G36*
G01X4910120D02*
X4923200Y1640000D01*
X4908200Y1703180D01*
X4893200Y1640000D01*
X4906280Y1625160D01*
G03X4910120I1920J12550D01*
G37*
G36*
G01X4900540Y1385020D02*
X4856200Y1335600D01*
X4895720Y1292460D01*
X4936200Y1335600D01*
X4918540Y1382260D01*
G03X4900540Y1385020I-10342J-7370D01*
G37*
G36*
G01X4961310Y1625500D02*
X4973200Y1640000D01*
X4958200Y1702540D01*
X4943200Y1640000D01*
X4955090Y1625500D01*
G03X4961310I3110J9670D01*
G37*
G36*
G01X4756270Y1776080D02*
X4743200Y1760000D01*
X4758130Y1697460D01*
X4773200Y1760000D01*
X4764560Y1775710D01*
G03X4756270Y1776080I-4559J-9080D01*
G37*
G36*
G01X5224080Y1562820D02*
X5238450Y1548450D01*
X5262540Y1570000D01*
X5238450Y1591550D01*
X5224080Y1577180D01*
G03Y1562820I7180J-7180D01*
G37*
G36*
G01X5090140Y1640570D02*
X5073200Y1760000D01*
X5054730Y1709550D01*
X5043200Y1640000D01*
X5080000Y1629840D01*
G03X5090140Y1640570I0J10156D01*
G37*
G36*
G01X5193360Y1958080D02*
X5208200Y1945000D01*
X5271380Y1960000D01*
X5208200Y1975000D01*
X5193360Y1961920D01*
G03Y1958080I12550J-1920D01*
G37*
G36*
G01X5015900Y2304100D02*
X5162280D01*
X5162470Y2294130D01*
G03X5163570Y2285000I45730J878D01*
G03X5162460Y2275000I44628J-10015D01*
G01Y2245000D01*
G03X5163570Y2235000I45738J15D01*
G03X5162460Y2225000I44628J-10015D01*
G01Y2195000D01*
G03X5163570Y2185000I45738J15D01*
G03X5162460Y2175000I44628J-10015D01*
G01Y2145000D01*
G03X5163570Y2135000I45738J15D01*
G03X5162460Y2125000I44628J-10015D01*
G01Y2095000D01*
G03X5163570Y2085000I45738J15D01*
G03X5162460Y2075000I44628J-10015D01*
G01Y2045000D01*
G03X5163570Y2035000I45738J15D01*
G03X5162460Y2025000I44628J-10015D01*
G01Y1995000D01*
G03X5172540Y1966360I45727J0D01*
G02Y1953640I-7927J-6360D01*
G03X5170970Y1951570I35643J-28664D01*
G02X5140060Y1949000I-16543J11798D01*
G01X5015900Y2073150D01*
Y2304100D01*
G37*
G36*
G01X4767180Y1844080D02*
X4781550Y1858450D01*
X4760000Y1882540D01*
X4738450Y1858450D01*
X4752820Y1844080D01*
G03X4767180I7180J7180D01*
G37*
G36*
G01X5338360Y1891800D02*
X5328200Y1925000D01*
X5258480Y1912950D01*
X5208200Y1895000D01*
X5327930Y1881640D01*
G03X5338360Y1891800I267J10160D01*
G37*
G36*
G01X5193360Y2608080D02*
X5208200Y2595000D01*
X5271380Y2610000D01*
X5208200Y2625000D01*
X5193360Y2611920D01*
G03Y2608080I12550J-1920D01*
G37*
G36*
G01X5193700Y2456890D02*
X5208200Y2445000D01*
X5270740Y2460000D01*
X5208200Y2475000D01*
X5193700Y2463110D01*
G03Y2456890I9670J-3110D01*
G37*
G36*
G01Y2406890D02*
X5208200Y2395000D01*
X5270740Y2410000D01*
X5208200Y2425000D01*
X5193700Y2413110D01*
G03Y2406890I9670J-3110D01*
G37*
G36*
G01Y2356890D02*
X5208200Y2345000D01*
X5270740Y2360000D01*
X5208200Y2375000D01*
X5193700Y2363110D01*
G03Y2356890I9670J-3110D01*
G37*
G36*
G01X4911310Y2795500D02*
X4923200Y2810000D01*
X4908200Y2872540D01*
X4893200Y2810000D01*
X4905090Y2795500D01*
G03X4911310I3110J9670D01*
G37*
G36*
G01X4855090Y2944500D02*
X4843200Y2930000D01*
X4858200Y2867460D01*
X4873200Y2930000D01*
X4861310Y2944500D01*
G03X4855090I-3110J-9670D01*
G37*
G36*
G01X4755090D02*
X4743200Y2930000D01*
X4758200Y2867460D01*
X4773200Y2930000D01*
X4761310Y2944500D01*
G03X4755090I-3110J-9670D01*
G37*
G36*
G01X4805090D02*
X4793200Y2930000D01*
X4808200Y2867460D01*
X4823200Y2930000D01*
X4811310Y2944500D01*
G03X4805090I-3110J-9670D01*
G37*
G36*
G01X5031360Y3046260D02*
X5051680Y3049670D01*
X5051650Y3081930D01*
X5019520Y3080000D01*
Y3056280D01*
G03X5031360Y3046260I10160J0D01*
G37*
G36*
G01X5005090Y2944500D02*
X4993200Y2930000D01*
X5008200Y2867460D01*
X5023200Y2930000D01*
X5011310Y2944500D01*
G03X5005090I-3110J-9670D01*
G37*
G36*
G01X5154080Y3072820D02*
X5168450Y3058450D01*
X5192540Y3080000D01*
X5168450Y3101550D01*
X5154080Y3087180D01*
G03Y3072820I7180J-7180D01*
G37*
G36*
G01X5055090Y2944500D02*
X5043200Y2930000D01*
X5058200Y2867460D01*
X5073200Y2930000D01*
X5061310Y2944500D01*
G03X5055090I-3110J-9670D01*
G37*
G36*
G01X4956270Y2946080D02*
X4943200Y2930000D01*
X4958130Y2867460D01*
X4973200Y2930000D01*
X4964560Y2945710D01*
G03X4956270Y2946080I-4559J-9080D01*
G37*
G36*
G01X4967180Y3044080D02*
X4981550Y3058450D01*
X4960000Y3082540D01*
X4938450Y3058450D01*
X4952820Y3044080D01*
G03X4967180I7180J7180D01*
G37*
G36*
G01X5219640Y4044100D02*
X8256850D01*
X8364100Y3936850D01*
Y2946850D01*
X8520650Y2790300D01*
X8679150D01*
X8699520Y2772090D01*
G03X8730000Y2760460I30475J34112D01*
G01X8810000D01*
G03X8813350Y2760580I39J45741D01*
G02X8824260Y2750450I751J-10131D01*
G01Y2648950D01*
X8821050Y2645740D01*
X8751050D01*
X8704260Y2598950D01*
Y2414260D01*
X8708910D01*
X8709300Y2404500D01*
G03X8710370Y2396310I45702J1806D01*
G03X8709260Y2386310I44628J-10015D01*
G01Y2356310D01*
G03X8710370Y2346310I45738J15D01*
G03X8709260Y2336310I44628J-10015D01*
G01Y2306310D01*
G03X8710370Y2296310I45738J15D01*
G03X8709260Y2286310I44628J-10015D01*
G01Y2256310D01*
G03X8755000Y2210570I45740J0D01*
G01X8820770D01*
G02X8835920Y2176710I0J-20319D01*
G01X8835890Y2176680D01*
G03X8824260Y2146200I34112J-30475D01*
G01Y2066200D01*
G03X8870000Y2020460I45740J0D01*
G01X8944100D01*
Y1915900D01*
X8403150D01*
X8380900Y1938150D01*
Y2184660D01*
X8418520Y2225190D01*
G03X8430740Y2256310I-33516J31120D01*
G01Y2286310D01*
G03X8429630Y2296310I-45738J-15D01*
G03X8430740Y2306310I-44628J10015D01*
G01Y2336310D01*
G03X8420660Y2364950I-45727J0D01*
G02Y2377670I7927J6360D01*
G03X8430740Y2406310I-35647J28640D01*
G01Y2436310D01*
G03X8430540Y2440630I-45742J47D01*
G01X8430080Y2445400D01*
X8445740Y2461050D01*
Y2688950D01*
X8398950Y2735740D01*
X8051050D01*
X8004260Y2688950D01*
Y2648560D01*
X8004200Y2648020D01*
G03X8003780Y2640000I75802J-7991D01*
G03X8004200Y2631980I76222J-29D01*
G01X8004260Y2631440D01*
Y2568560D01*
X8004200Y2568020D01*
G03X8003780Y2560000I75802J-7991D01*
G03X8004200Y2551980I76222J-29D01*
G01X8004260Y2551440D01*
Y2481050D01*
X8028130Y2457180D01*
X7954100Y2383150D01*
Y2197050D01*
X7943480Y2185160D01*
G02X7925740Y2191930I-7578J6769D01*
G01Y2651050D01*
X8145740Y2871050D01*
Y3908950D01*
X8088950Y3965740D01*
X7701050D01*
X7673080Y3937770D01*
G02X7655740Y3944950I-7181J7186D01*
G01Y3948950D01*
X7598950Y4005740D01*
X7014260D01*
Y3338950D01*
X6944260Y3268950D01*
Y3141050D01*
X6954260Y3131050D01*
Y3094260D01*
X7247240D01*
Y3078060D01*
X7241940Y3075180D01*
G03X7233320Y3069110I21851J-40186D01*
G01X7212950Y3050900D01*
X7145010D01*
X7134860Y3059650D01*
G03X7105000Y3070740I-29860J-34654D01*
G01X6995000D01*
G03X6949260Y3025000I0J-45740D01*
G01Y2965000D01*
G03X6995000Y2919260I45740J0D01*
G01X7105000D01*
G03X7134860Y2930350I0J45744D01*
G01X7145010Y2939100D01*
X7212950D01*
X7233320Y2920890D01*
G03X7263800Y2909260I30475J34112D01*
G01X7343800D01*
G03X7373420Y2920150I0J45727D01*
G02X7386580I6580J-7745D01*
G03X7416200Y2909260I29620J34837D01*
G01X7496200D01*
G03X7541940Y2955000I0J45740D01*
G01Y3035000D01*
G03X7523360Y3071800I-45733J0D01*
G01X7467780Y3112830D01*
X7395740Y3184870D01*
Y3691050D01*
X7398950Y3694260D01*
X7614100D01*
Y3585740D01*
X7580000D01*
G03X7534260Y3540000I0J-45740D01*
G01Y3460000D01*
G03X7544340Y3431360I45727J0D01*
G02Y3418640I-7927J-6360D01*
G03X7534260Y3390000I35647J-28640D01*
G01Y3310000D01*
G03X7545890Y3279520I45742J-5D01*
G01X7564100Y3259150D01*
Y3193050D01*
X7625460Y3131690D01*
Y3109990D01*
X7619100Y3107420D01*
G03X7590460Y3065000I17095J-42420D01*
G01Y3015000D01*
G03X7598510Y2989080I45741J-4D01*
G01X7600300Y2986480D01*
Y2959350D01*
X7446850Y2805900D01*
X6612970D01*
G02X6595510Y2836610I1J20319D01*
G03X6601940Y2860000I-39311J23386D01*
G01Y2906690D01*
X6634350Y2939100D01*
X6694990D01*
X6705140Y2930350D01*
G03X6735000Y2919260I29860J34654D01*
G01X6845000D01*
G03X6890740Y2965000I0J45740D01*
G01Y3025000D01*
G03X6845000Y3070740I-45740J0D01*
G01X6735000D01*
G03X6705140Y3059650I0J-45744D01*
G01X6694990Y3050900D01*
X6588050D01*
X6522890Y2985740D01*
X6476200D01*
G03X6446580Y2974850I0J-45727D01*
G02X6433420I-6580J7745D01*
G03X6403800Y2985740I-29620J-34837D01*
G01X6323800D01*
G03X6305480Y2981910I0J-45730D01*
G02X6291370Y2992810I-4075J9308D01*
G03X6291940Y3000000I-45169J7198D01*
G01Y3080000D01*
G03X6246200Y3125740I-45740J0D01*
G01X6166200D01*
X6166100D01*
G02X6145740Y3146060I-40J20320D01*
G01Y3281050D01*
X6225740Y3361050D01*
Y3918950D01*
X6158950Y3985740D01*
X5971050D01*
X5914260Y3928950D01*
Y3428950D01*
X5911050Y3425740D01*
X5788950D01*
X5205270Y4009410D01*
G02X5219640Y4044100I14370J14369D01*
G37*
G36*
G01X5015920Y4157180D02*
X4981550Y4191550D01*
X4957650Y4170960D01*
X4980000Y4150000D01*
X5008740D01*
X5015920Y4157180D01*
G37*
G36*
G01X5496870Y2004100D02*
X5664690D01*
X5684100Y1984690D01*
Y1684690D01*
X5906890Y1461890D01*
X5898020Y1453020D01*
X5895760Y1452260D01*
G03X5894250Y1451740I24061J-72322D01*
G01X5892580Y1451140D01*
X5813600D01*
X5811670Y1451980D01*
G03X5793500Y1455740I-18162J-41982D01*
G01X5643500D01*
G03X5597760Y1410000I0J-45740D01*
G01Y1350000D01*
G03X5643500Y1304260I45740J0D01*
G01X5793500D01*
G03X5811670Y1308020I8J45742D01*
G01X5813600Y1308860D01*
X5850750D01*
G02X5865120Y1274170I1J-20321D01*
G01X5836850Y1245900D01*
X5533150D01*
X5505900Y1273150D01*
Y1583150D01*
X5391880Y1697170D01*
G02X5394410Y1728050I14370J14366D01*
G03X5409580Y1742460I-44413J61946D01*
G02X5441950Y1741660I15882J-12675D01*
G03X5503800Y1709980I61850J44536D01*
G03X5580020Y1786200I0J76220D01*
G03X5576220Y1809970I-76221J4D01*
G01X5574490Y1815250D01*
X5579270Y1821120D01*
G03X5589540Y1850000I-35471J28880D01*
G01Y1930000D01*
G03X5543800Y1975740I-45740J0D01*
G01X5500710D01*
X5489690Y1986760D01*
G02X5496870Y2004100I7186J7181D01*
G37*
G36*
G01X5821810Y1004600D02*
X5793500Y1029000D01*
X5715960Y999000D01*
X5793500Y969000D01*
X5821810Y993400D01*
G03Y1004600I-8480J5600D01*
G37*
G36*
G01X5615190Y1120400D02*
X5643500Y1096000D01*
X5721040Y1126000D01*
X5643500Y1156000D01*
X5615190Y1131600D01*
G03Y1120400I8480J-5600D01*
G37*
G36*
G01X5821810Y1131600D02*
X5793500Y1156000D01*
X5715960Y1126000D01*
X5793500Y1096000D01*
X5821810Y1120400D01*
G03Y1131600I-8480J5600D01*
G37*
G36*
G01X5823200Y1383840D02*
X5793500Y1410000D01*
X5712150Y1380000D01*
X5793500Y1350000D01*
X5823200Y1376160D01*
G03Y1383840I-25110J3840D01*
G37*
G36*
G01X5343040Y2011920D02*
X5328200Y2025000D01*
X5265020Y2010000D01*
X5328200Y1995000D01*
X5343040Y2008080D01*
G03Y2011920I-12550J1920D01*
G37*
G36*
G01X5512500Y1811550D02*
X5543800Y1850000D01*
X5503800Y1896350D01*
X5463800Y1850000D01*
X5495100Y1811550D01*
G03X5512500I8700J23860D01*
G37*
G36*
G01X5342700Y2163110D02*
X5328200Y2175000D01*
X5265660Y2160000D01*
X5328200Y2145000D01*
X5342700Y2156890D01*
G03Y2163110I-9670J3110D01*
G37*
G36*
G01Y2213110D02*
X5328200Y2225000D01*
X5265660Y2210000D01*
X5328200Y2195000D01*
X5342700Y2206890D01*
G03Y2213110I-9670J3110D01*
G37*
G36*
G01Y2113110D02*
X5328200Y2125000D01*
X5265660Y2110000D01*
X5328200Y2095000D01*
X5342700Y2106890D01*
G03Y2113110I-9670J3110D01*
G37*
G36*
G01Y2063110D02*
X5328200Y2075000D01*
X5265660Y2060000D01*
X5328200Y2045000D01*
X5342700Y2056890D01*
G03Y2063110I-9670J3110D01*
G37*
G36*
G01X5342820Y1825920D02*
X5328450Y1811550D01*
X5350000Y1787460D01*
X5371550Y1811550D01*
X5357180Y1825920D01*
G03X5342820I-7180J-7180D01*
G37*
G36*
G01X5419520Y2597780D02*
Y2580000D01*
X5452250Y2577750D01*
X5450000Y2610480D01*
X5432220D01*
G03X5419520Y2597780I0J-12700D01*
G37*
G36*
G01X5343040Y2611920D02*
X5328200Y2625000D01*
X5265020Y2610000D01*
X5328200Y2595000D01*
X5343040Y2608080D01*
G03Y2611920I-12550J1920D01*
G37*
G36*
G01X7812400Y3264260D02*
G03X7827310Y3266760I-5J45739D01*
G02X7854260Y3247550I6630J-19208D01*
G01Y2998950D01*
X7504260Y2648950D01*
Y2338950D01*
X7491050Y2325740D01*
X7228950D01*
X7215740Y2338950D01*
Y2387890D01*
X7254650Y2426800D01*
X7321480Y2434570D01*
G03X7361940Y2480000I-5275J45430D01*
G01Y2560000D01*
G03X7316200Y2605740I-45740J0D01*
G01X7236200D01*
G03X7206580Y2594850I0J-45727D01*
G02X7193420I-6580J7745D01*
G03X7163800Y2605740I-29620J-34837D01*
G01X7083800D01*
G03X7053790Y2594520I0J-45744D01*
G01X7035290Y2578440D01*
X6775790D01*
X6701560Y2504210D01*
Y2479750D01*
X6696600Y2476800D01*
G03X6674530Y2442490I23397J-39304D01*
G01X6673540Y2433440D01*
X6601940D01*
Y2460000D01*
G03X6591860Y2488640I-45727J0D01*
G02Y2501360I7927J6360D01*
G03X6601940Y2530000I-35647J28640D01*
G01Y2610000D01*
G03X6556200Y2655740I-45740J0D01*
G01X6476200D01*
G03X6430460Y2610000I0J-45740D01*
G01Y2530000D01*
G03X6430560Y2527050I45738J74D01*
G02X6408290Y2505520I-20279J-1307D01*
G03X6403800Y2505740I-4481J-45520D01*
G01X6323800D01*
G03X6278060Y2460000I0J-45740D01*
G01Y2380000D01*
G03X6317220Y2334740I45735J0D01*
G01X6383440Y2325110D01*
X6430460Y2278090D01*
Y2235000D01*
G03X6433570Y2218420I45751J0D01*
G01X6434260Y2216650D01*
Y2208950D01*
X6411050Y2185740D01*
X6384870D01*
X6251140Y2319470D01*
Y2544550D01*
X6158670Y2637020D01*
X5657390D01*
X5619540Y2674870D01*
Y2694100D01*
X7493150D01*
X7712100Y2913050D01*
Y2986480D01*
X7713890Y2989080D01*
G03X7721940Y3015000I-37691J25916D01*
G01Y3068510D01*
X7730120Y3070140D01*
G03X7766940Y3115000I-8918J44860D01*
G01Y3165000D01*
G03X7721200Y3210740I-45740J0D01*
G01X7704510D01*
X7675900Y3239350D01*
Y3259150D01*
X7695570Y3281160D01*
X7703110Y3274870D01*
G03X7732400Y3264260I29290J35124D01*
G01X7812400D01*
G37*
G36*
G01X5343040Y2661920D02*
X5328200Y2675000D01*
X5265020Y2660000D01*
X5328200Y2645000D01*
X5343040Y2658080D01*
G03Y2661920I-12550J1920D01*
G37*
G36*
G01X5456020Y2652840D02*
X5493800Y2620000D01*
X5536980Y2660000D01*
X5493800Y2700000D01*
X5456020Y2667160D01*
G03Y2652840I10490J-7160D01*
G37*
G36*
G01X5342700Y2313110D02*
X5328200Y2325000D01*
X5265660Y2310000D01*
X5328200Y2295000D01*
X5342700Y2306890D01*
G03Y2313110I-9670J3110D01*
G37*
G36*
G01Y2513110D02*
X5328200Y2525000D01*
X5265660Y2510000D01*
X5328200Y2495000D01*
X5342700Y2506890D01*
G03Y2513110I-9670J3110D01*
G37*
G36*
G01X5695920Y6657180D02*
X5681550Y6671550D01*
X5657460Y6650000D01*
X5681550Y6628450D01*
X5695920Y6642820D01*
G03Y6657180I-7180J7180D01*
G37*
G36*
G01X5692300Y6643670D02*
X5740000Y6600080D01*
X5762340Y6624100D01*
X5780000Y6650080D01*
X5700240Y6660160D01*
G03X5692300Y6643670I9J-10161D01*
G37*
G36*
G01X5695920Y6403380D02*
X5681550Y6417750D01*
X5657460Y6396200D01*
X5681550Y6374650D01*
X5695920Y6389020D01*
G03Y6403380I-7180J7180D01*
G37*
G36*
G01X5722030Y6390130D02*
X5760000Y6356200D01*
X5802540Y6396200D01*
X5760000Y6436200D01*
X5722030Y6402270D01*
G03Y6390130I8140J-6070D01*
G37*
G36*
G01X5695920Y6487180D02*
X5681550Y6501550D01*
X5657460Y6480000D01*
X5681550Y6458450D01*
X5695920Y6472820D01*
G03Y6487180I-7180J7180D01*
G37*
G36*
G01X5690480Y6549680D02*
Y6570000D01*
X5658200Y6571800D01*
X5660000Y6539520D01*
X5680320D01*
G03X5690480Y6549680I0J10160D01*
G37*
G36*
G01X5951810Y185100D02*
X5923500Y209500D01*
X5840960Y179500D01*
X5923500Y149500D01*
X5951810Y173900D01*
G03Y185100I-8480J5600D01*
G37*
G36*
G01X6813400Y754660D02*
X7011290D01*
X7019180Y746770D01*
Y685000D01*
G03X7160000Y544180I140820J0D01*
G03X7224480Y559810I0J140818D01*
G02X7254100Y541740I9300J-18067D01*
G01Y465310D01*
X7214690Y425900D01*
X6114150D01*
Y438350D01*
X6115130Y440410D01*
G03X6117950Y448040I-41323J19609D01*
G01X6137130Y518860D01*
X6292580D01*
X6294250Y518260D01*
G03X6320000Y513780I25746J71741D01*
G03X6396220Y590000I0J76220D01*
G03X6394760Y604830I-76218J-17D01*
G02X6414700Y629100I19933J3949D01*
G01X6516760D01*
X6559470Y586390D01*
X6559500Y586350D01*
G03X6660000Y544180I100492J98653D01*
G03X6800820Y685000I0J140820D01*
G03X6794060Y728120I-140822J13D01*
G02X6813400Y754660I19342J6222D01*
G37*
G36*
G01X5953200Y437340D02*
X5923500Y463500D01*
X5837150Y433500D01*
X5923500Y403500D01*
X5953200Y429660D01*
G03Y437340I-25110J3840D01*
G37*
G36*
G01Y564340D02*
X5923500Y590500D01*
X5837150Y560500D01*
X5923500Y530500D01*
X5953200Y556660D01*
G03Y564340I-25110J3840D01*
G37*
G36*
G01X6069480Y578830D02*
X5993800Y540000D01*
X6030010Y494900D01*
X6073800Y460000D01*
X6099200Y553800D01*
G03X6069480Y578830I-25400J0D01*
G37*
G36*
G01X5951810Y312100D02*
X5923500Y336500D01*
X5840960Y306500D01*
X5923500Y276500D01*
X5951810Y300900D01*
G03Y312100I-8480J5600D01*
G37*
G36*
G01X6264170Y691070D02*
X6226200Y725000D01*
X6183660Y685000D01*
X6226200Y645000D01*
X6264170Y678930D01*
G03Y691070I-8140J6070D01*
G37*
G36*
G01X6027730Y762970D02*
X5993800Y725000D01*
X6033800Y682460D01*
X6073800Y725000D01*
X6039870Y762970D01*
G03X6027730I-6070J-8140D01*
G37*
G36*
G01X6177500Y1128450D02*
X6146200Y1090000D01*
X6186200Y1043650D01*
X6226200Y1090000D01*
X6194900Y1128450D01*
G03X6177500I-8700J-23860D01*
G37*
G36*
G01X6264650Y1198700D02*
X6226200Y1230000D01*
X6179850Y1190000D01*
X6226200Y1150000D01*
X6264650Y1181300D01*
G03Y1198700I-23860J8700D01*
G37*
G36*
G01X6194900Y1111550D02*
X6226200Y1150000D01*
X6186200Y1196350D01*
X6146200Y1150000D01*
X6177500Y1111550D01*
G03X6194900I8700J23860D01*
G37*
G36*
G01X6203120Y905880D02*
X6170000Y935000D01*
X6147520Y910550D01*
X6170000Y885000D01*
X6200080Y891300D01*
G03X6203120Y905880I-5249J8701D01*
G37*
G36*
G01X6194080Y892820D02*
X6208450Y878450D01*
X6232540Y900000D01*
X6208450Y921550D01*
X6194080Y907180D01*
G03Y892820I7180J-7180D01*
G37*
G36*
G01X6158990Y815970D02*
X6135000Y835000D01*
X6107460Y809960D01*
X6135000Y785000D01*
X6159090Y805320D01*
G03X6158990Y815970I-8701J5244D01*
G37*
G36*
G01X6061430Y804820D02*
X6085000Y785000D01*
X6112540Y810000D01*
X6085000Y835000D01*
X6061430Y815180D01*
G03Y804820I8740J-5180D01*
G37*
G36*
G01X6119540Y1414100D02*
X7144690D01*
X7254100Y1304690D01*
Y828260D01*
G02X7224480Y810190I-20320J-3D01*
G03X7160000Y825820I-64480J-125188D01*
G01X7098230D01*
X7057590Y866460D01*
X6325630D01*
G02X6305500Y889560I-1J20320D01*
G03X6306060Y895090I-75501J10439D01*
G02X6326340Y914100I20278J-1310D01*
G01X6403150D01*
X6485900Y996850D01*
Y1263150D01*
X6413150Y1335900D01*
X6119540D01*
Y1414100D01*
G37*
G36*
G01X5955350Y1371300D02*
X5993800Y1340000D01*
X6040150Y1380000D01*
X5993800Y1420000D01*
X5955350Y1388700D01*
G03Y1371300I23860J-8700D01*
G37*
G36*
G01X6194080Y1722820D02*
X6208450Y1708450D01*
X6232540Y1730000D01*
X6208450Y1751550D01*
X6194080Y1737180D01*
G03Y1722820I7180J-7180D01*
G37*
G36*
G01X5943370Y2494740D02*
X6099730D01*
X6108860Y2485610D01*
Y2260530D01*
X6284260Y2085130D01*
Y1820380D01*
G02X6256800Y1801350I-20321J-5D01*
G03X6230000Y1806220I-26808J-71349D01*
G03X6178190Y1785900I0J-76210D01*
G01X6083150D01*
X6035900Y1833150D01*
Y2353150D01*
X5929000Y2460050D01*
G02X5943370Y2494740I14369J14369D01*
G37*
G36*
G01X6047730Y3117970D02*
X6013800Y3080000D01*
X6053800Y3037460D01*
X6093800Y3080000D01*
X6059870Y3117970D01*
G03X6047730I-6070J-8140D01*
G37*
G36*
G01X6059870Y3107030D02*
X6093800Y3145000D01*
X6053800Y3187540D01*
X6013800Y3145000D01*
X6047730Y3107030D01*
G03X6059870I6070J8140D01*
G37*
G36*
G01X6212270Y2962030D02*
X6246200Y3000000D01*
X6206200Y3042540D01*
X6166200Y3000000D01*
X6200130Y2962030D01*
G03X6212270I6070J8140D01*
G37*
G36*
G01X6200130Y2977970D02*
X6166200Y2940000D01*
X6206200Y2897460D01*
X6246200Y2940000D01*
X6212270Y2977970D01*
G03X6200130I-6070J-8140D01*
G37*
G36*
G01X6284170Y2906070D02*
X6246200Y2940000D01*
X6203660Y2900000D01*
X6246200Y2860000D01*
X6284170Y2893930D01*
G03Y2906070I-8140J6070D01*
G37*
G36*
G01X6319350Y6812820D02*
X6468260D01*
Y6645080D01*
G03X6479350Y6615220I45744J0D01*
G01X6488100Y6605070D01*
Y6527150D01*
X6413050Y6452100D01*
X6007690D01*
G02X5993320Y6486790I-1J20321D01*
G01X6319350Y6812820D01*
G37*
G36*
G01X6048070Y6894100D02*
X6135990D01*
G02X6150360Y6859410I1J-20321D01*
G01X5886850Y6595900D01*
X5825740D01*
Y6653590D01*
X5833920Y6655220D01*
G03X5870740Y6700080I-8918J44860D01*
G01Y6716770D01*
X6048070Y6894100D01*
G37*
G36*
G01X5877970Y6402270D02*
X5840000Y6436200D01*
X5797460Y6396200D01*
X5840000Y6356200D01*
X5877970Y6390130D01*
G03Y6402270I-8140J6070D01*
G37*
G36*
G01X6539910Y677820D02*
X6596360Y621370D01*
X6662540Y685000D01*
X6596360Y748630D01*
X6539910Y692180D01*
G03Y677820I7180J-7180D01*
G37*
G36*
G01X6480000Y2320000D02*
X6560000D01*
X6590000Y2290000D01*
X6680180D01*
G03X6703500Y2269840I39823J22498D01*
G01X6710000Y2267330D01*
Y2240000D01*
X6800000D01*
Y1770000D01*
X6750000Y1720000D01*
X6380000D01*
X6330000Y1770000D01*
Y2130000D01*
X6340000Y2140000D01*
X6430000D01*
X6480000Y2190000D01*
Y2320000D01*
G37*
G36*
G01X6423850Y2381170D02*
X6403800Y2460000D01*
X6361370Y2422050D01*
X6323800Y2380000D01*
X6411200Y2367300D01*
G03X6423850Y2381170I0J12704D01*
G37*
G36*
G01X6523360Y2492220D02*
X6556200Y2530000D01*
X6516200Y2573180D01*
X6476200Y2530000D01*
X6509040Y2492220D01*
G03X6523360I7160J10490D01*
G37*
G36*
G01X6509040Y2497780D02*
X6476200Y2460000D01*
X6516200Y2416820D01*
X6556200Y2460000D01*
X6523360Y2497780D01*
G03X6509040I-7160J-10490D01*
G37*
G36*
G01X6706690Y2989400D02*
X6735000Y2965000D01*
X6792540Y2995000D01*
X6735000Y3025000D01*
X6706690Y3000600D01*
G03Y2989400I8480J-5600D01*
G37*
G36*
G01X6285830Y2893930D02*
X6323800Y2860000D01*
X6366340Y2900000D01*
X6323800Y2940000D01*
X6285830Y2906070D01*
G03Y2893930I8140J-6070D01*
G37*
G36*
G01X6549600Y6616770D02*
X6574000Y6645080D01*
X6544000Y6727620D01*
X6514000Y6645080D01*
X6538400Y6616770D01*
G03X6549600I5600J8480D01*
G37*
G36*
G01X7070000Y764840D02*
Y685000D01*
X7161800Y683200D01*
X7160000Y775000D01*
X7080160D01*
G03X7070000Y764840I0J-10160D01*
G37*
G36*
G01X6845740Y1751050D02*
Y2246560D01*
G02X6867270Y2266840I20319J-3D01*
G03X6870000Y2266760I2704J45661D01*
G01X6905150D01*
X6905540Y2266730D01*
G03X6910000Y2266560I4454J58270D01*
G01X6938860D01*
Y2185920D01*
X6934390Y2182900D01*
G03X6914260Y2145000I25613J-37900D01*
G01Y1875000D01*
G03X6960000Y1829260I45740J0D01*
G01X7060000D01*
G03X7105740Y1875000I0J45740D01*
G01Y2100520D01*
G02X7140430Y2114890I20321J0D01*
G01X7161050Y2094260D01*
X7451050D01*
X7504260Y2041050D01*
Y1573850D01*
G02X7469570Y1559480I-20321J-1D01*
G01X7312510Y1716540D01*
X6860280D01*
G02X6845740Y1751050I3J20319D01*
G37*
G36*
G01X7880000Y2230360D02*
X7878750Y2228080D01*
G03X7871560Y2200000I51237J-28080D01*
G01Y2005790D01*
X7880000Y1997350D01*
Y1910000D01*
X7960000Y1830000D01*
X8070000D01*
Y1344530D01*
G03X8054260Y1310000I30006J-34530D01*
G01Y1210000D01*
G03X8070000Y1175470I45746J0D01*
G01Y990000D01*
X7740000D01*
X7565900Y1164100D01*
Y1463150D01*
X7550000Y1479050D01*
Y2060000D01*
X7470000Y2140000D01*
X7180000D01*
X7080000Y2240000D01*
Y2410000D01*
X7090000Y2420000D01*
X7170000D01*
Y2320000D01*
X7210000Y2280000D01*
X7510000D01*
X7550000Y2320000D01*
Y2630000D01*
X7900000Y2980000D01*
Y3770000D01*
X7820000Y3850000D01*
X7720000D01*
X7700000Y3870000D01*
Y3900000D01*
X7720000Y3920000D01*
X8070000D01*
X8100000Y3890000D01*
Y2890000D01*
X7880000Y2670000D01*
Y2230360D01*
G37*
G36*
G01X7045350Y2366300D02*
X7083800Y2335000D01*
X7130150Y2375000D01*
X7083800Y2415000D01*
X7045350Y2383700D01*
G03Y2366300I23860J-8700D01*
G37*
G36*
G01X7046020Y2512840D02*
X7083800Y2480000D01*
X7126980Y2520000D01*
X7083800Y2560000D01*
X7046020Y2527160D01*
G03Y2512840I10490J-7160D01*
G37*
G36*
G01X7133310Y3000600D02*
X7105000Y3025000D01*
X7047460Y2995000D01*
X7105000Y2965000D01*
X7133310Y2989400D01*
G03Y3000600I-8480J5600D01*
G37*
G36*
G01X6990000Y3250000D02*
X7060000Y3320000D01*
Y3960000D01*
X7580000D01*
X7610000Y3930000D01*
Y3740000D01*
X7380000D01*
X7350000Y3710000D01*
Y3140000D01*
X7000000D01*
Y3150000D01*
X6990000Y3160000D01*
Y3250000D01*
G37*
G36*
G01X6850140Y4216790D02*
X6873800Y4245080D01*
X6843800Y4328260D01*
X6813800Y4245080D01*
X6837460Y4216790D01*
G03X6850140I6340J11000D01*
G37*
G36*
G01X7138400Y6833390D02*
X7114000Y6805080D01*
X7144000Y6722540D01*
X7174000Y6805080D01*
X7149600Y6833390D01*
G03X7138400I-5600J-8480D01*
G37*
G36*
G01X7238400D02*
X7214000Y6805080D01*
X7244000Y6722540D01*
X7274000Y6805080D01*
X7249600Y6833390D01*
G03X7238400I-5600J-8480D01*
G37*
G36*
G01X8205900Y2239460D02*
X8222060D01*
X8224950Y2234210D01*
G03X8231480Y2225190I40040J22113D01*
G01X8269100Y2184660D01*
Y1891850D01*
X8277860Y1883080D01*
G02X8270680Y1865740I-7185J-7181D01*
G01X8191050D01*
X8144260Y1818950D01*
Y1431050D01*
X8181050Y1394260D01*
X8418950D01*
X8475740Y1451050D01*
Y1471650D01*
X8476430Y1473420D01*
G03X8479540Y1490000I-42641J16580D01*
G01Y1554850D01*
X8488950Y1564260D01*
X8618060D01*
Y1490000D01*
G03X8628140Y1461360I45727J0D01*
G02Y1448640I-7927J-6360D01*
G03X8618750Y1427900I35661J-28641D01*
G01X8608090Y1367140D01*
X8544100Y1303150D01*
Y303150D01*
X8356850Y115900D01*
X7414010D01*
G02X7399640Y150590I-1J20321D01*
G01X7565900Y316850D01*
Y1050360D01*
G02X7600590Y1064730I20321J0D01*
G01X7721050Y944260D01*
X8115740D01*
Y1070520D01*
G02X8150430Y1084890I20321J0D01*
G01X8174260Y1061050D01*
Y761050D01*
X8261050Y674260D01*
X8448950D01*
X8515740Y741050D01*
Y1298950D01*
X8448950Y1365740D01*
X8408560D01*
X8408020Y1365800D01*
G03X8400000Y1366220I-7991J-75802D01*
G03X8391980Y1365800I-29J-76222D01*
G01X8391440Y1365740D01*
X8328560D01*
X8328020Y1365800D01*
G03X8320000Y1366220I-7991J-75802D01*
G03X8311980Y1365800I-29J-76222D01*
G01X8311440Y1365740D01*
X8248560D01*
X8248020Y1365800D01*
G03X8240000Y1366220I-7991J-75802D01*
G03X8231980Y1365800I-29J-76222D01*
G01X8231440Y1365740D01*
X8115740D01*
Y1875740D01*
X7978950D01*
X7925740Y1928950D01*
Y2004630D01*
G02X7953420Y2023570I20319J1D01*
G03X7970000Y2020460I16580J42641D01*
G01X8050000D01*
G03X8080000Y2031670I0J45748D01*
G03X8110000Y2020460I30000J34538D01*
G01X8190000D01*
G03X8235740Y2066200I0J45740D01*
G01Y2146200D01*
G03X8224110Y2176680I-45742J5D01*
G01X8205900Y2197050D01*
Y2239460D01*
G37*
G36*
G01X7228800Y2469840D02*
X7316200Y2480000D01*
X7278140Y2521640D01*
X7236200Y2560000D01*
X7218680Y2480940D01*
G03X7228800Y2469840I10120J-937D01*
G37*
G36*
G01X7660680Y2996050D02*
X7676200Y3015000D01*
X7656200Y3042540D01*
X7636200Y3015000D01*
X7651720Y2996050D01*
G03X7660680I4480J9120D01*
G37*
G36*
G01X7225830Y2988930D02*
X7263800Y2955000D01*
X7306340Y2995000D01*
X7263800Y3035000D01*
X7225830Y3001070D01*
G03Y2988930I8140J-6070D01*
G37*
G36*
G01X7390800Y3063800D02*
X7416200Y2955000D01*
X7459390Y2989510D01*
X7496200Y3035000D01*
X7424800Y3087700D01*
G03X7390800Y3063800I-8600J-23900D01*
G37*
G36*
G01X7626070Y3272030D02*
X7660000Y3310000D01*
X7620000Y3352540D01*
X7580000Y3310000D01*
X7613930Y3272030D01*
G03X7626070I6070J8140D01*
G37*
G36*
G01X7450140Y4216790D02*
X7473800Y4245080D01*
X7443800Y4328260D01*
X7413800Y4245080D01*
X7437460Y4216790D01*
G03X7450140I6340J11000D01*
G37*
G36*
G01X7550140D02*
X7573800Y4245080D01*
X7543800Y4328260D01*
X7513800Y4245080D01*
X7537460Y4216790D01*
G03X7550140I6340J11000D01*
G37*
G36*
G01X8100000Y1310000D02*
X8110000Y1320000D01*
X8430000D01*
X8470000Y1280000D01*
Y760000D01*
X8430000Y720000D01*
X8280000D01*
X8220000Y780000D01*
Y1080000D01*
X8100000Y1200000D01*
Y1310000D01*
G37*
G36*
G01X8210000Y1820000D02*
X8340950D01*
X8356850Y1804100D01*
X8926850D01*
X8986850Y1744100D01*
X9385900D01*
X9410000Y1720000D01*
Y1300000D01*
X9440000Y1270000D01*
Y1040000D01*
X9441480Y1038520D01*
X9442070Y1035450D01*
G03X9478450Y999070I44930J8550D01*
G01X9481520Y998480D01*
X9490000Y990000D01*
X9640000D01*
Y956630D01*
X9627280D01*
X9625020Y957850D01*
G03X9610000Y961640I-15016J-27851D01*
G03X9578360Y930000I0J-31640D01*
G03X9580720Y918020I31638J10D01*
G02X9561910Y890000I-18806J-7699D01*
G01X9340000D01*
X9290000Y940000D01*
Y1171760D01*
X9290130Y1172580D01*
G03X9290740Y1180000I-45128J7445D01*
G01Y1280000D01*
G03X9290130Y1287420I-45738J-25D01*
G01X9290000Y1288240D01*
Y1300000D01*
X9220000Y1370000D01*
X9040000D01*
X9013230Y1396770D01*
X9016880Y1403440D01*
G03X9026220Y1440000I-66884J36560D01*
G03X8990000Y1504880I-76219J0D01*
G01Y1570000D01*
X8950000Y1610000D01*
X8918510D01*
X8916390Y1611040D01*
G03X8896200Y1615740I-20195J-41039D01*
G01X8663800D01*
G03X8643610Y1611040I5J-45739D01*
G01X8641490Y1610000D01*
X8608510D01*
X8606390Y1611040D01*
G03X8586200Y1615740I-20195J-41039D01*
G01X8506200D01*
G03X8486010Y1611040I5J-45739D01*
G01X8483890Y1610000D01*
X8470000D01*
X8430000Y1570000D01*
Y1470000D01*
X8400000Y1440000D01*
X8200000D01*
X8190000Y1450000D01*
Y1800000D01*
X8210000Y1820000D01*
G37*
G36*
G01X8094460Y2365410D02*
X8127300D01*
G02X8141670Y2330720I1J-20321D01*
G01X8094100Y2283150D01*
Y2197050D01*
X8087580Y2189750D01*
G02X8072420I-7580J6771D01*
G01X8065900Y2197050D01*
Y2336850D01*
X8094460Y2365410D01*
G37*
G36*
G01X8143930Y2184170D02*
X8110000Y2146200D01*
X8150000Y2103660D01*
X8190000Y2146200D01*
X8156070Y2184170D01*
G03X8143930I-6070J-8140D01*
G37*
G36*
G01X8003930D02*
X7970000Y2146200D01*
X8010000Y2103660D01*
X8050000Y2146200D01*
X8016070Y2184170D01*
G03X8003930I-6070J-8140D01*
G37*
G36*
G01X8070000Y2690000D02*
X8380000D01*
X8400000Y2670000D01*
Y2492000D01*
G02X8388960Y2481880I-10159J1D01*
G03X8385000Y2482050I-3940J-45571D01*
G01X8265000D01*
G03X8236000Y2471680I0J-45735D01*
G01X8221750Y2460000D01*
X8090000D01*
X8050000Y2500000D01*
Y2670000D01*
X8070000Y2690000D01*
G37*
G36*
G01X7766330Y3427970D02*
X7732400Y3390000D01*
X7772400Y3347460D01*
X7812400Y3390000D01*
X7778470Y3427970D01*
G03X7766330I-6070J-8140D01*
G37*
G36*
G01X7778470Y3422030D02*
X7812400Y3460000D01*
X7772400Y3502540D01*
X7732400Y3460000D01*
X7766330Y3422030D01*
G03X7778470I6070J8140D01*
G37*
G36*
G01X7766330Y3577970D02*
X7732400Y3540000D01*
X7772400Y3497460D01*
X7812400Y3540000D01*
X7778470Y3577970D01*
G03X7766330I-6070J-8140D01*
G37*
G36*
G01X7779030Y3578800D02*
X7846200Y3650000D01*
X7796830Y3682460D01*
X7746200Y3650000D01*
X7763010Y3582620D01*
G03X7779030Y3578800I9391J3880D01*
G37*
G36*
G01X8038400Y6833390D02*
X8014000Y6805080D01*
X8044000Y6722540D01*
X8074000Y6805080D01*
X8049600Y6833390D01*
G03X8038400I-5600J-8480D01*
G37*
G36*
G01X9945310Y1948780D02*
G02X9980000Y1934410I14369J-14369D01*
G01Y600000D01*
X9400000D01*
Y20000D01*
X8468110D01*
G02X8453740Y54690I-1J20321D01*
G01X8655900Y256850D01*
Y1256850D01*
X8685970Y1286910D01*
X8749310Y1294590D01*
G03X8754200Y1295460I-5555J45402D01*
G01X8759700Y1296740D01*
X8770880Y1285560D01*
X8764260Y1278950D01*
Y901050D01*
X8821050Y844260D01*
X9238950D01*
X9280000Y885310D01*
X9321050Y844260D01*
X9638950D01*
X9685740Y891050D01*
Y1035740D01*
X9672740D01*
Y1084000D01*
G03X9671000Y1096500I-45741J4D01*
G03X9672740Y1109000I-44001J12496D01*
G01Y1149000D01*
G03X9671000Y1161500I-45741J4D01*
G03X9672740Y1174000I-44001J12496D01*
G01Y1214000D01*
G03X9627000Y1259740I-45740J0D01*
G01X9485740D01*
Y1288950D01*
X9455740Y1318950D01*
Y1744100D01*
X9740630D01*
X9945310Y1948780D01*
G37*
G36*
G01X8709870Y1452030D02*
X8743800Y1490000D01*
X8703800Y1532540D01*
X8663800Y1490000D01*
X8697730Y1452030D01*
G03X8709870I6070J8140D01*
G37*
G36*
G01X8660000Y1329840D02*
X8743800Y1340000D01*
X8705680Y1381710D01*
X8663800Y1420000D01*
X8649850Y1340480D01*
G03X8660000Y1329840I10150J-479D01*
G37*
G36*
G01X8697730Y1457970D02*
X8663800Y1420000D01*
X8703800Y1377460D01*
X8743800Y1420000D01*
X8709870Y1457970D01*
G03X8697730I-6070J-8140D01*
G37*
G36*
G01X8331490Y2198660D02*
X8385000Y2256310D01*
X8325000Y2273850D01*
X8265000Y2256310D01*
X8318510Y2198660D01*
G03X8331490I6490J7820D01*
G37*
G36*
G01X8399840Y2373230D02*
X8385000Y2386310D01*
X8321820Y2371310D01*
X8385000Y2356310D01*
X8399840Y2369390D01*
G03Y2373230I-12550J1920D01*
G37*
G36*
G01X8250160Y2369390D02*
X8265000Y2356310D01*
X8328180Y2371310D01*
X8265000Y2386310D01*
X8250160Y2373230D01*
G03Y2369390I12550J-1920D01*
G37*
G36*
G01X8250500Y2318200D02*
X8265000Y2306310D01*
X8327540Y2321310D01*
X8265000Y2336310D01*
X8250500Y2324420D01*
G03Y2318200I9670J-3110D01*
G37*
G36*
G01Y2418200D02*
X8265000Y2406310D01*
X8327540Y2421310D01*
X8265000Y2436310D01*
X8250500Y2424420D01*
G03Y2418200I9670J-3110D01*
G37*
G36*
G01X8930740Y3625000D02*
Y3640050D01*
G02X8948080Y3647230I10159J-6D01*
G01X9041050Y3554260D01*
X9090520D01*
G02X9104890Y3519570I0J-20321D01*
G01X9084260Y3498950D01*
Y2788950D01*
X9081050Y2785740D01*
X9016060D01*
G02X8995740Y2806100I0J20320D01*
G01Y2886200D01*
G03X8950000Y2931940I-45740J0D01*
G01X8870000D01*
G03X8840000Y2920730I0J-45748D01*
G03X8810000Y2931940I-30000J-34538D01*
G01X8730000D01*
G03X8699520Y2920310I-5J-45742D01*
G01X8679150Y2902100D01*
X8566950D01*
X8475900Y2993150D01*
Y3485990D01*
G02X8510590Y3500360I20321J1D01*
G01X8516850Y3494100D01*
X8765680D01*
X8770560Y3489990D01*
G03X8800000Y3479260I29440J35022D01*
G01X8840000D01*
G03X8885740Y3525000I0J45740D01*
G01Y3578510D01*
X8893920Y3580140D01*
G03X8930740Y3625000I-8918J44860D01*
G37*
G36*
G01X8692030Y2840130D02*
X8730000Y2806200D01*
X8772540Y2846200D01*
X8730000Y2886200D01*
X8692030Y2852270D01*
G03Y2840130I8140J-6070D01*
G37*
G36*
G01X8370000Y4995540D02*
Y5050000D01*
X8540000D01*
Y5090000D01*
X8370000D01*
Y5150000D01*
X8540000D01*
Y5190000D01*
X8370000D01*
Y5250000D01*
X8740000D01*
X8790000Y5200000D01*
Y4820000D01*
X8900000Y4710000D01*
X8990000D01*
Y4210000D01*
X8950000Y4170000D01*
X8650000D01*
X8580000Y4240000D01*
Y4960000D01*
X8569830Y4970170D01*
G03X8528880Y4995540I-40950J-20364D01*
G01X8370000D01*
G37*
G36*
G01X8456530Y4618520D02*
X8525870Y4690030D01*
X8448850Y4722340D01*
X8372120Y4689800D01*
X8443580Y4618430D01*
G03X8456530Y4618520I6421J7871D01*
G37*
G36*
G01X8558580Y5523640D02*
X8528880Y5549800D01*
X8442530Y5519800D01*
X8528880Y5489800D01*
X8558580Y5515960D01*
G03Y5523640I-25110J3840D01*
G37*
G36*
G01X8738450Y5528500D02*
X8700000Y5559800D01*
X8653650Y5519800D01*
X8700000Y5479800D01*
X8738450Y5511100D01*
G03Y5528500I-23860J8700D01*
G37*
G36*
G01X8581550Y5511100D02*
X8620000Y5479800D01*
X8666350Y5519800D01*
X8620000Y5559800D01*
X8581550Y5528500D01*
G03Y5511100I23860J-8700D01*
G37*
G36*
G01X9220000Y890000D02*
X8840000D01*
X8810000Y920000D01*
Y1260000D01*
X8820000Y1270000D01*
X9240000D01*
Y910000D01*
X9220000Y890000D01*
G37*
G36*
G01X8850130Y1307970D02*
X8816200Y1270000D01*
X8856200Y1227460D01*
X8896200Y1270000D01*
X8862270Y1307970D01*
G03X8850130I-6070J-8140D01*
G37*
G36*
G01X8789540Y1564260D02*
X8931050D01*
X8944260Y1551050D01*
Y1479950D01*
G02X8915410Y1461510I-20320J3D01*
G03X8896200Y1465740I-19210J-41505D01*
G01X8816200D01*
G03X8811710Y1465520I-9J-45740D01*
G02X8789440Y1487050I-1991J20223D01*
G03X8789540Y1490000I-45638J3024D01*
G01Y1564260D01*
G37*
G36*
G01X8862270Y1302030D02*
X8896200Y1340000D01*
X8856200Y1382540D01*
X8816200Y1340000D01*
X8850130Y1302030D01*
G03X8862270I6070J8140D01*
G37*
G36*
G01X9072720Y2414260D02*
X9101050D01*
X9224260Y2291050D01*
Y1961050D01*
X9254090Y1931230D01*
G02X9239720Y1896540I-14370J-14369D01*
G01X9055900D01*
Y2020460D01*
X9120000D01*
G03X9165740Y2066200I0J45740D01*
G01Y2146200D01*
G03X9154110Y2176680I-45742J5D01*
G01X9135900Y2197050D01*
Y2326550D01*
X9065540Y2396920D01*
G02X9072720Y2414260I7185J7181D01*
G37*
G36*
G01X8903930Y2184170D02*
X8870000Y2146200D01*
X8910000Y2103660D01*
X8950000Y2146200D01*
X8916070Y2184170D01*
G03X8903930I-6070J-8140D01*
G37*
G36*
G01X9073930D02*
X9040000Y2146200D01*
X9080000Y2103660D01*
X9120000Y2146200D01*
X9086070Y2184170D01*
G03X9073930I-6070J-8140D01*
G37*
G36*
G01X8889500Y2324420D02*
X8875000Y2336310D01*
X8812460Y2321310D01*
X8875000Y2306310D01*
X8889500Y2318200D01*
G03Y2324420I-9670J3110D01*
G37*
G36*
G01Y2424420D02*
X8875000Y2436310D01*
X8812460Y2421310D01*
X8875000Y2406310D01*
X8889500Y2418200D01*
G03Y2424420I-9670J3110D01*
G37*
G36*
G01Y2374420D02*
X8875000Y2386310D01*
X8812460Y2371310D01*
X8875000Y2356310D01*
X8889500Y2368200D01*
G03Y2374420I-9670J3110D01*
G37*
G36*
G01X9002450Y2460000D02*
X8985240Y2477210D01*
X8895590D01*
X8893620Y2478090D01*
G03X8875010Y2482050I-18617J-41781D01*
G01X8750000D01*
Y2580000D01*
X8770000Y2600000D01*
X8840000D01*
X8870000Y2630000D01*
Y2740000D01*
X9100000D01*
X9130000Y2770000D01*
Y2783910D01*
X9131040Y2786030D01*
G03X9135740Y2806200I-41036J20195D01*
G01Y2886200D01*
G03X9131040Y2906370I-45736J-25D01*
G01X9130000Y2908490D01*
Y3480000D01*
X9204260Y3554260D01*
X9675120D01*
X9675720Y3554240D01*
Y3554250D01*
G03X9679870Y3554180I4281J130751D01*
G01X9680130D01*
G03X9684410Y3554250I1J130822D01*
G01X9684580Y3554260D01*
X9745740D01*
X9760000Y3540000D01*
Y3440000D01*
X9730000Y3410000D01*
X9720090D01*
X9717210Y3410420D01*
X9717200D01*
G03X9642800I-37200J-125433D01*
G01X9641380Y3410000D01*
X9450000D01*
X9380000Y3340000D01*
Y2600000D01*
X9430000Y2550000D01*
Y2338060D01*
G03Y2231940I61606J-53060D01*
G01Y2180000D01*
X9490000Y2120000D01*
X9710000D01*
X9720000Y2110000D01*
Y1950000D01*
X9700000Y1930000D01*
X9320000D01*
X9270000Y1980000D01*
Y2310000D01*
X9120000Y2460000D01*
X9002450D01*
G37*
G36*
G01X8889840Y2473230D02*
X8875000Y2486310D01*
X8811820Y2471310D01*
X8875000Y2456310D01*
X8889840Y2469390D01*
G03Y2473230I-12550J1920D01*
G37*
G36*
G01X8832030Y2840130D02*
X8870000Y2806200D01*
X8912540Y2846200D01*
X8870000Y2886200D01*
X8832030Y2852270D01*
G03Y2840130I8140J-6070D01*
G37*
G36*
G01X8847970Y2852270D02*
X8810000Y2886200D01*
X8767460Y2846200D01*
X8810000Y2806200D01*
X8847970Y2840130D01*
G03Y2852270I-8140J6070D01*
G37*
G36*
G01X8854820Y3698570D02*
X8835000Y3675000D01*
X8860000Y3647460D01*
X8885000Y3675000D01*
X8865180Y3698570D01*
G03X8854820I-5180J-8740D01*
G37*
G36*
G01X9728030Y3606680D02*
G03X9680000Y3615820I-48040J-121678D01*
G03X9617640Y3600000I0J-130817D01*
G01X9060000D01*
X8915900Y3744100D01*
Y3746950D01*
X8890000Y3772850D01*
Y4020000D01*
X8910000Y4040000D01*
X9050000D01*
X9070000Y4020000D01*
Y3860000D01*
X9160000Y3770000D01*
X9740000D01*
X9760000Y3750000D01*
Y3630000D01*
X9734230Y3604230D01*
X9728030Y3606680D01*
G37*
G36*
G01X8776430Y3544820D02*
X8800000Y3525000D01*
X8822540Y3550000D01*
X8800000Y3575000D01*
X8776430Y3555180D01*
G03Y3544820I8740J-5180D01*
G37*
G36*
G01X9115740Y4044100D02*
X9242950D01*
X9263320Y4025890D01*
G03X9293800Y4014260I30475J34112D01*
G01X9373800D01*
G03X9403420Y4025150I0J45727D01*
G02X9416580I6580J-7745D01*
G03X9446200Y4014260I29620J34837D01*
G01X9499770D01*
G02X9514930Y3980410I1J-20319D01*
G03X9484260Y3900000I90074J-80410D01*
G03X9497380Y3845270I120739J6D01*
G02X9479260Y3815740I-18114J-9209D01*
G01X9178950D01*
X9115740Y3878950D01*
Y4044100D01*
G37*
G36*
G01X8765600Y3901690D02*
X8790000Y3930000D01*
X8760000Y3982540D01*
X8730000Y3930000D01*
X8754400Y3901690D01*
G03X8765600I5600J8480D01*
G37*
G36*
G01X8750270Y3896570D02*
X8743800Y3840000D01*
X8784430Y3797540D01*
X8823800Y3840000D01*
X8766540Y3901410D01*
G03X8750270Y3896570I-6541J-7778D01*
G37*
G36*
G01X8735350Y5511100D02*
X8773800Y5479800D01*
X8820150Y5519800D01*
X8773800Y5559800D01*
X8735350Y5528500D01*
G03Y5511100I23860J-8700D01*
G37*
G36*
G01X9044650Y5528500D02*
X9006200Y5559800D01*
X8959850Y5519800D01*
X9006200Y5479800D01*
X9044650Y5511100D01*
G03Y5528500I-23860J8700D01*
G37*
G36*
G01X9198450D02*
X9160000Y5559800D01*
X9113650Y5519800D01*
X9160000Y5479800D01*
X9198450Y5511100D01*
G03Y5528500I-23860J8700D01*
G37*
G36*
G01X9041550Y5511100D02*
X9080000Y5479800D01*
X9126350Y5519800D01*
X9080000Y5559800D01*
X9041550Y5528500D01*
G03Y5511100I23860J-8700D01*
G37*
G36*
G01X9646220Y1263350D02*
X9627000Y1279000D01*
X9553820Y1259000D01*
X9627000Y1239000D01*
X9646220Y1254650D01*
G03Y1263350I-11930J4350D01*
G37*
G36*
G01X9467780Y994650D02*
X9487000Y979000D01*
X9560180Y999000D01*
X9487000Y1019000D01*
X9467780Y1003350D01*
G03Y994650I11930J-4350D01*
G37*
G36*
G01X9695000Y2569260D02*
G03X9733080Y2589660I0J45741D01*
G02X9766920I16920J-11251D01*
G03X9771080Y2584310I38090J25326D01*
G01X9794100Y2558870D01*
Y2013150D01*
X9783080Y2002140D01*
G02X9765740Y2009320I-7181J7185D01*
G01Y2128950D01*
X9753670Y2141010D01*
X9753060Y2141990D01*
G03X9736990Y2158060I-43060J-26990D01*
G01X9736010Y2158670D01*
X9728950Y2165740D01*
X9705000D01*
Y2180860D01*
X9708910Y2183910D01*
G03X9758240Y2285000I-78915J101090D01*
G03X9501760I-128240J0D01*
G03X9534340Y2199590I128243J0D01*
G02X9519180Y2165740I-15159J-13531D01*
G01X9508950D01*
X9475740Y2198950D01*
Y2568950D01*
X9467770Y2576920D01*
G02X9474950Y2594260I7186J7181D01*
G01X9526200D01*
G03X9545780Y2598660I5J45741D01*
G01X9551950Y2601590D01*
X9574080Y2581290D01*
G03X9605000Y2569260I30920J33721D01*
G01X9695000D01*
G37*
G36*
G01X9563980Y2687160D02*
X9526200Y2720000D01*
X9483020Y2680000D01*
X9526200Y2640000D01*
X9563980Y2672840D01*
G03Y2687160I-10490J7160D01*
G37*
G36*
G01X9542810Y2672040D02*
X9605000Y2615000D01*
X9653180Y2680000D01*
X9605000Y2745000D01*
X9542810Y2687960D01*
G03Y2672040I9900J-7960D01*
G37*
G36*
G01X9468950Y3364260D02*
X9540830D01*
G02X9559540Y3336020I-3J-20320D01*
G03X9549180Y3285000I120449J-51020D01*
G03X9570950Y3212740I130809J0D01*
G02X9561350Y3182570I-16942J-11221D01*
G03X9484260Y3070000I43645J-112570D01*
G03X9507960Y2998150I120742J-7D01*
G02X9491630Y2965740I-16329J-12092D01*
G01X9446200D01*
X9446100D01*
G02X9425740Y2986060I-40J20320D01*
G01Y3321050D01*
X9468950Y3364260D01*
G37*
G36*
G01X9563980Y2887160D02*
X9526200Y2920000D01*
X9483020Y2880000D01*
X9526200Y2840000D01*
X9563980Y2872840D01*
G03Y2887160I-10490J7160D01*
G37*
G36*
G01X9542810Y2872040D02*
X9605000Y2815000D01*
X9653180Y2880000D01*
X9605000Y2945000D01*
X9542810Y2887960D01*
G03Y2872040I9900J-7960D01*
G37*
G36*
G01X9255830Y4093930D02*
X9293800Y4060000D01*
X9336340Y4100000D01*
X9293800Y4140000D01*
X9255830Y4106070D01*
G03Y4093930I8140J-6070D01*
G37*
G36*
G01X9564480Y4106530D02*
X9526200Y4140000D01*
X9483660Y4099990D01*
X9526200Y4060000D01*
X9564540Y4094280D01*
G03X9564480Y4106530I-8139J6085D01*
G37*
G36*
G01X9542400Y4093820D02*
X9605000Y4035370D01*
X9652540Y4100370D01*
X9605000Y4165370D01*
X9542400Y4106920D01*
G03Y4093820I7770J-6550D01*
G37*
G36*
G01X9438000Y5501150D02*
X9485490Y5457270D01*
X9554750Y5521720D01*
X9484770Y5585230D01*
X9437280Y5537760D01*
G03X9438000Y5501150I17961J-17959D01*
G37*
G36*
G01X9856220Y2572140D02*
X9895000Y2615000D01*
X9850000Y2682540D01*
X9805000Y2615000D01*
X9843780Y2572140D01*
G03X9856220I6220J8030D01*
G37*
%LPC*%
G75*
G36*
G01X6174620Y6089980D02*
G02X6170020Y6070000I-45742J12D01*
G02X6174620Y6050020I-41142J-19992D01*
G01Y5989980D01*
G02X6170020Y5970000I-45742J12D01*
G02X6174620Y5950020I-41142J-19992D01*
G01Y5889980D01*
G02X6170020Y5870000I-45742J12D01*
G02X6174620Y5850020I-41142J-19992D01*
G01Y5789980D01*
G02X6170020Y5770000I-45742J12D01*
G02X6174620Y5750020I-41142J-19992D01*
G01Y5689980D01*
G02X6170020Y5670000I-45742J12D01*
G02X6174620Y5650020I-41142J-19992D01*
G01Y5589980D01*
G02X6170020Y5570000I-45742J12D01*
G02X6174620Y5550020I-41142J-19992D01*
G01Y5489980D01*
G02X6170020Y5470000I-45742J12D01*
G02X6174620Y5450020I-41142J-19992D01*
G01Y5389980D01*
G02X6170020Y5370000I-45742J12D01*
G02X6174620Y5350020I-41142J-19992D01*
G01Y5290000D01*
G02X6128880Y5244260I-45740J0D01*
G01X5968880D01*
G02X5923140Y5290000I0J45740D01*
G01Y5350020D01*
G02X5927740Y5370000I45742J-12D01*
G02X5923140Y5389980I41142J19992D01*
G01Y5448860D01*
X5908280D01*
X5889020Y5433050D01*
G02X5860000Y5422660I-29026J35348D01*
G01X5740000D01*
G02X5694260Y5468400I0J45740D01*
G01Y5568400D01*
G02X5740000Y5614140I45740J0D01*
G01X5860000D01*
G02X5887400Y5605020I-6J-45738D01*
G01X5905960Y5591140D01*
X5923140D01*
Y5650020D01*
G02X5927740Y5670000I45742J-12D01*
G02X5923140Y5689980I41142J19992D01*
G01Y5750020D01*
G02X5927740Y5770000I45742J-12D01*
G02X5923140Y5789980I41142J19992D01*
G01Y5850020D01*
G02X5927740Y5870000I45742J-12D01*
G02X5923140Y5889980I41142J19992D01*
G01Y5950020D01*
G02X5927740Y5970000I45742J-12D01*
G02X5923140Y5989980I41142J19992D01*
G01Y6050020D01*
G02X5927740Y6070000I45742J-12D01*
G02X5923140Y6089980I41142J19992D01*
G01Y6150020D01*
G02X5927740Y6170000I45742J-12D01*
G02X5923140Y6189980I41142J19992D01*
G01Y6250000D01*
G02X5968880Y6295740I45740J0D01*
G01X6128880D01*
G02X6174620Y6250000I0J-45740D01*
G01Y6189980D01*
G02X6170020Y6170000I-45742J12D01*
G02X6174620Y6150020I-41142J-19992D01*
G01Y6089980D01*
G37*
G36*
G01X8574620Y6189780D02*
G02X8570020Y6169800I-45742J12D01*
G02X8574620Y6149820I-41142J-19992D01*
G01Y6089800D01*
G02X8528880Y6044060I-45740J0D01*
G01X8368880D01*
G02X8323140Y6089800I0J45740D01*
G01Y6149820D01*
G02X8327740Y6169800I45742J-12D01*
G02X8323140Y6189780I41142J19992D01*
G01Y6249820D01*
G02X8327740Y6269800I45742J-12D01*
G02X8323140Y6289780I41142J19992D01*
G01Y6349800D01*
G02X8368880Y6395540I45740J0D01*
G01X8528880D01*
G02X8574620Y6349800I0J-45740D01*
G01Y6289780D01*
G02X8570020Y6269800I-45742J12D01*
G02X8574620Y6249820I-41142J-19992D01*
G01Y6189780D01*
G37*
G36*
G01X5208740Y5115000D02*
Y5015000D01*
G02X5163000Y4969260I-45740J0D01*
G01X5108000D01*
G02X5085500Y4975180I6J45739D01*
G02X5070890Y4969950I-22497J39823D01*
G01X5032230Y4963170D01*
X4965900Y4896850D01*
Y4830010D01*
X4973750Y4820900D01*
X5335650D01*
X5408060Y4893310D01*
Y4940000D01*
G02X5453800Y4985740I45740J0D01*
G01X5533800D01*
G02X5579270Y4944930I0J-45736D01*
G01X5586750Y4875900D01*
X5676850D01*
X5876850Y5075900D01*
X5923280D01*
Y5086420D01*
X5923250Y5086780D01*
G02X5923140Y5090000I45632J3171D01*
G01Y5150000D01*
G02X5968880Y5195740I45740J0D01*
G01X6128880D01*
G02X6158740Y5184650I0J-45744D01*
G01X6168890Y5175900D01*
X6223150D01*
X6305900Y5093150D01*
Y4366850D01*
X6223150Y4284100D01*
X5556850D01*
X5514110Y4326830D01*
X5448450Y4334570D01*
G02X5408060Y4380000I5354J45430D01*
G01Y4422820D01*
X4758130D01*
X4634100Y4546850D01*
Y4569990D01*
X4626250Y4579100D01*
X4531850D01*
X4460600Y4650350D01*
Y4977800D01*
X4454180Y4985350D01*
G02X4443260Y5015000I34817J29659D01*
G01Y5115000D01*
G02X4489000Y5160740I45740J0D01*
G01X4544000D01*
G02X4566500Y5154820I-6J-45739D01*
G02X4589000Y5160740I22506J-39819D01*
G01X4644000D01*
G02X4666500Y5154820I-6J-45739D01*
G02X4689000Y5160740I22506J-39819D01*
G01X4744000D01*
G02X4765840Y5155190I0J-45747D01*
G01X4772510Y5151560D01*
X4836850Y5215900D01*
X5093150D01*
X5138160Y5170890D01*
X5176860Y5158590D01*
G02X5208740Y5115000I-13861J-43590D01*
G37*
G36*
G01X6294260Y3938950D02*
X6361050Y4005740D01*
X6808950D01*
X6895740Y3918950D01*
Y3104260D01*
X6581050D01*
X6524260Y3161050D01*
Y3641050D01*
X6471050Y3694260D01*
X6341050D01*
X6294260Y3741050D01*
Y3938950D01*
G37*
G54D64*
X8450000Y5665000D03*
G54D63*
X8455000Y5365000D03*
G54D59*
X1200000Y2055000D03*
G54D65*
X8445000Y5770000D03*
Y5870000D03*
Y5970000D03*
G54D66*
X9610000Y1330000D03*
G54D58*
X1225000Y150000D03*
X3585000D03*
G54D60*
X1540000Y6660000D03*
X3040000D03*
G54D61*
X8053800Y4820000D03*
G54D62*
X9296000Y5266000D03*
Y5774000D03*
X9804000Y5266000D03*
Y5774000D03*
%LPD*%
G75*
G36*
G01X4738950Y4704480D02*
X4720000Y4720000D01*
X4687460Y4700000D01*
X4720000Y4680000D01*
X4738950Y4695520D01*
G03Y4704480I-9120J4480D01*
G37*
G36*
G01X4641050Y4695520D02*
X4660000Y4680000D01*
X4692540Y4700000D01*
X4660000Y4720000D01*
X4641050Y4704480D01*
G03Y4695520I9120J-4480D01*
G37*
G36*
G01X4695600Y4581690D02*
X4720000Y4610000D01*
X4690000Y4637540D01*
X4660000Y4610000D01*
X4684400Y4581690D01*
G03X4695600I5600J8480D01*
G37*
G36*
G01X4636430Y4629820D02*
X4660000Y4610000D01*
X4692540Y4635000D01*
X4660000Y4660000D01*
X4636430Y4640180D01*
G03Y4629820I8740J-5180D01*
G37*
G36*
G01X4743570Y4770180D02*
X4720000Y4790000D01*
X4687460Y4765000D01*
X4720000Y4740000D01*
X4743570Y4759820D01*
G03Y4770180I-8740J5180D01*
G37*
G36*
G01X4684400Y4818310D02*
X4660000Y4790000D01*
X4690000Y4762460D01*
X4720000Y4790000D01*
X4695600Y4818310D01*
G03X4684400I-5600J-8480D01*
G37*
G36*
G01X4721920Y4989070D02*
X4744000Y5015000D01*
X4716500Y5067540D01*
X4689000Y5015000D01*
X4711080Y4989070D01*
G03X4721920I5420J8600D01*
G37*
G36*
G01X4521920D02*
X4544000Y5015000D01*
X4516500Y5067540D01*
X4489000Y5015000D01*
X4511080Y4989070D01*
G03X4521920I5420J8600D01*
G37*
G36*
G01X4959220Y4704350D02*
X4940000Y4720000D01*
X4906820Y4700000D01*
X4940000Y4680000D01*
X4959220Y4695650D01*
G03Y4704350I-11930J4350D01*
G37*
G36*
G01X4999460Y4709100D02*
X5334790D01*
G02X5349160Y4674410I1J-20321D01*
G01X5290650Y4615900D01*
X4985740D01*
Y4660000D01*
G03X4981170Y4679930I-45743J0D01*
G02X4999460Y4709100I18291J8850D01*
G37*
G36*
G01X5097840Y5122000D02*
X5108000Y5015000D01*
X5139910Y5055850D01*
X5163000Y5115000D01*
X5109280Y5132080D01*
G03X5097840Y5122000I-1279J-10080D01*
G37*
G36*
G01X5005000Y5004840D02*
X5063000Y5015000D01*
X5036820Y5067170D01*
X5008000Y5115000D01*
X4994840Y5015300D01*
G03X5005000Y5004840I10160J-296D01*
G37*
G36*
G01X4963570Y4770180D02*
X4940000Y4790000D01*
X4907460Y4765000D01*
X4940000Y4740000D01*
X4963570Y4759820D01*
G03Y4770180I-8740J5180D01*
G37*
G36*
G01X4904400Y4818310D02*
X4880000Y4790000D01*
X4910000Y4762460D01*
X4940000Y4790000D01*
X4915600Y4818310D01*
G03X4904400I-5600J-8480D01*
G37*
G36*
G01X6173150Y4444100D02*
X6176760Y4447700D01*
G02X6194100Y4440520I7181J-7185D01*
G01Y4413150D01*
X6176850Y4395900D01*
X5603150D01*
X5591270Y4407790D01*
X5588810Y4419680D01*
G02X5608720Y4444100I19903J4099D01*
G01X6173150D01*
G37*
G36*
G01X5756550Y4604100D02*
X5888450Y4736000D01*
G02X5923140Y4721630I14369J-14369D01*
G01Y4690000D01*
G03X5968880Y4644260I45740J0D01*
G01X6128880D01*
G03X6133020Y4644450I-25J45739D01*
G02X6144100Y4634330I919J-10119D01*
G01Y4573150D01*
X6126850Y4555900D01*
X5593150D01*
X5586890Y4562170D01*
X5584560Y4581330D01*
G02X5604730Y4604100I20173J2449D01*
G01X5756550D01*
G37*
G36*
G01X5916450Y4930610D02*
X5913400Y4919060D01*
X5710250Y4715900D01*
X5603150D01*
X5591270Y4727790D01*
X5588810Y4739680D01*
G02X5608720Y4764100I19903J4099D01*
G01X5723150D01*
X5899450Y4940390D01*
G02X5916450Y4930610I7179J-7186D01*
G37*
G36*
G01X5550130Y4700790D02*
X5533800Y4780000D01*
X5491880Y4741660D01*
X5453800Y4700000D01*
X5540000Y4689840D01*
G03X5550130Y4700790I0J10161D01*
G37*
G36*
G01X5543960Y4536200D02*
X5533800Y4620000D01*
X5492090Y4581880D01*
X5453800Y4540000D01*
X5533320Y4526050D01*
G03X5543960Y4536200I479J10150D01*
G37*
G36*
G01X5550130Y4380790D02*
X5533800Y4460000D01*
X5491880Y4421660D01*
X5453800Y4380000D01*
X5540000Y4369840D01*
G03X5550130Y4380790I0J10161D01*
G37*
G36*
G01X5543960Y4846200D02*
X5533800Y4940000D01*
X5492280Y4902040D01*
X5453800Y4860000D01*
X5532070Y4836190D01*
G03X5543960Y4846200I1731J10010D01*
G37*
G36*
G01X5963400Y4879840D02*
X6128880Y4890000D01*
X6058470Y4923360D01*
X5968880Y4950000D01*
X5953280Y4890920D01*
G03X5963400Y4879840I10120J-918D01*
G37*
G36*
G01X5940570Y5014400D02*
X5968880Y4990000D01*
X6051420Y5020000D01*
X5968880Y5050000D01*
X5940570Y5025600D01*
G03Y5014400I8480J-5600D01*
G37*
G36*
G01X6157190Y4825600D02*
X6128880Y4850000D01*
X6046340Y4820000D01*
X6128880Y4790000D01*
X6157190Y4814400D01*
G03Y4825600I-8480J5600D01*
G37*
G36*
G01Y5125600D02*
X6128880Y5150000D01*
X6046340Y5120000D01*
X6128880Y5090000D01*
X6157190Y5114400D01*
G03Y5125600I-8480J5600D01*
G37*
G36*
G01X5939180Y5516160D02*
X5968880Y5490000D01*
X6055230Y5520000D01*
X5968880Y5550000D01*
X5939180Y5523840D01*
G03Y5516160I25110J-3840D01*
G37*
G36*
G01X5908530Y5532090D02*
X5860000Y5568400D01*
X5793650Y5518280D01*
X5860000Y5468400D01*
X5908840Y5508500D01*
G03X5908530Y5532090I-22649J11499D01*
G37*
G36*
G01X6380000Y3960000D02*
X6790000D01*
X6850000Y3900000D01*
Y3165740D01*
X6735000D01*
G03X6700470Y3150000I0J-45746D01*
G01X6600000D01*
X6570000Y3180000D01*
Y3660000D01*
X6490000Y3740000D01*
X6360000D01*
X6340000Y3760000D01*
Y3920000D01*
X6380000Y3960000D01*
G37*
G54D10*
X180780Y808180D03*
Y1208180D03*
X170780Y1648180D03*
Y2048180D03*
X60000Y2800000D03*
X560780Y808180D03*
Y1208180D03*
X550780Y1648180D03*
Y2048180D03*
X550000Y2260000D03*
X450000Y3010000D03*
X310000Y3230000D03*
X460000Y3490000D03*
X1060780Y1138180D03*
Y1538180D03*
X1050780Y1978180D03*
X1050000Y2340000D03*
X830000Y2620000D03*
X835540Y2384460D03*
X830000Y2820000D03*
X930780Y3568180D03*
Y4188180D03*
Y4588180D03*
X920780Y5028180D03*
Y5428180D03*
Y5828180D03*
Y6228180D03*
X1580000Y480000D03*
X1690000D03*
Y1730000D03*
X1580780Y2368180D03*
X1400780D03*
X1760780Y2358180D03*
X1320780Y2858180D03*
X1720780D03*
X1330780Y3568180D03*
X1710780Y3558180D03*
X1720780Y3308180D03*
X1320780D03*
X1330780Y4188180D03*
Y4588180D03*
X1320780Y5028180D03*
X1720780D03*
X1320780Y5428180D03*
X1720780D03*
X1320780Y5828180D03*
Y6228180D03*
X1720780Y5828180D03*
Y6228180D03*
X2010000Y480000D03*
X2280780Y848180D03*
Y1248180D03*
X2270780Y1688180D03*
X1940780Y2358180D03*
X2220000Y2360000D03*
X2080000Y2420000D03*
X2290000Y2420960D03*
X2080000Y3260000D03*
X2110780Y3558180D03*
X2220000Y3330000D03*
X2290000Y3410000D03*
X2120780Y5028180D03*
Y5428180D03*
Y5828180D03*
Y6228180D03*
Y6628180D03*
X2670000Y320000D03*
X2640780Y838180D03*
Y1238180D03*
X2630780Y1678180D03*
X2570000Y2420000D03*
X2500000Y2360000D03*
X2430000Y2420960D03*
Y2730000D03*
X2360000Y2360000D03*
X2570000Y2900000D03*
X2500000Y2810000D03*
X2360000Y3490000D03*
X2520780Y5028180D03*
Y5428180D03*
Y5828180D03*
Y6228180D03*
Y6628180D03*
X2920780Y5028180D03*
Y5428180D03*
Y5828180D03*
Y6228180D03*
X3310000Y560000D03*
X3310780Y848180D03*
Y1248180D03*
X3550780Y848180D03*
Y1248180D03*
X3300780Y1688180D03*
X3540780D03*
X3530000Y2140000D03*
X3650000Y2920000D03*
X3320780Y5028180D03*
X3720780D03*
X3320780Y5428180D03*
X3720780D03*
X3320780Y5828180D03*
Y6228180D03*
X3720780Y5828180D03*
Y6228180D03*
X3660780Y6888180D03*
X4090780Y158180D03*
Y378180D03*
X4200000Y880000D03*
X4090000D03*
X3970000D03*
Y1280000D03*
X4080000Y1290000D03*
X4200000D03*
X4080000Y1510000D03*
X4210780Y1508180D03*
X3970780D03*
X3916200Y1703800D03*
X4210000Y1700000D03*
X4030000Y2900000D03*
X4000780Y4338180D03*
Y4738180D03*
X4060780Y6888180D03*
X4330780Y158180D03*
X4710000Y160000D03*
X4330780Y378180D03*
X4550000Y720000D03*
Y560000D03*
X4510000Y1260000D03*
X4370000Y1040000D03*
X4340000Y880000D03*
X4300000Y1380000D03*
Y1510000D03*
X4400000D03*
X4710000Y1410000D03*
X4280000Y2090000D03*
Y2290000D03*
X4500000Y2090000D03*
Y2290000D03*
X4760000Y1880000D03*
X4658200Y1878200D03*
X4760000Y3630000D03*
X4660000Y4100000D03*
X4400780Y4338180D03*
Y4738180D03*
X4480780Y5328180D03*
Y5728180D03*
Y6128180D03*
Y6528180D03*
X4460780Y6888180D03*
X5250780Y188180D03*
X5140780Y698180D03*
X4790000Y880000D03*
X5140780Y868180D03*
X5260000Y1570000D03*
X5120000Y2250000D03*
Y2050000D03*
X5110000Y2610000D03*
X5050000Y3080000D03*
X5190000D03*
X4960000D03*
Y4170000D03*
X5120000Y4670000D03*
X4880780Y5328180D03*
Y5728180D03*
Y6128180D03*
Y6528180D03*
X4890780Y6888180D03*
X5490780Y188180D03*
X5380780Y698180D03*
X5630000Y700000D03*
X5380780Y868180D03*
X5630780D03*
X5670000Y1650000D03*
Y1510000D03*
X5503800Y1786200D03*
X5350000Y1790000D03*
X5450000Y2580000D03*
X5700000Y2910000D03*
X5500000D03*
X5670000Y3660000D03*
Y3980000D03*
X5470000D03*
X5670000Y3830000D03*
X5470000D03*
X5480780Y4248180D03*
X5290000Y6540000D03*
X5660000Y6650000D03*
Y6396200D03*
Y6480000D03*
Y6570000D03*
X5290780Y6888180D03*
X5690780D03*
X5870000Y700000D03*
X5870780Y868180D03*
X6230000Y900000D03*
X5920000Y1380000D03*
X6230000Y1730000D03*
X6070000Y2200000D03*
Y2280000D03*
Y2370000D03*
X6073660Y2460000D03*
X5980000D03*
X5800000Y2670000D03*
X6000000D03*
X6220000D03*
X5920000Y2910000D03*
X5880000Y3660000D03*
X6250000Y3300000D03*
X5880000Y3980000D03*
Y3830000D03*
X5880780Y4248180D03*
X5800000Y4590000D03*
Y4420000D03*
Y5080000D03*
Y4820000D03*
Y5370000D03*
Y6100000D03*
Y5870000D03*
X5930000Y6710000D03*
X6110000Y6500000D03*
X6090000Y6860000D03*
X6420780Y478180D03*
X6660780D03*
X6320000Y590000D03*
X6720780Y958180D03*
X6730780Y1248180D03*
X6320000Y1190000D03*
X6580000Y1750000D03*
X6660000D03*
X6740000D03*
X6580000Y1820000D03*
X6660000D03*
X6740000D03*
X6630000Y2670000D03*
Y2500000D03*
X6350000Y3210000D03*
X6460000D03*
X6350000Y3130000D03*
X6460000D03*
X6350000Y3050000D03*
X6460000D03*
X6650000Y2870000D03*
X6660000Y3080000D03*
X6460000Y3300000D03*
X6350000D03*
X6510780Y4708180D03*
Y5108180D03*
Y5508180D03*
Y5908180D03*
Y6308180D03*
X6310000Y6670000D03*
Y6500000D03*
X6910780Y478180D03*
X7150780D03*
X6960780Y958180D03*
X6970780Y1248180D03*
X7180780Y1778180D03*
X6920000Y1780000D03*
X7180780Y2018180D03*
Y1898180D03*
X6900000Y2210000D03*
X6860000Y2670000D03*
X7110000D03*
X6760000Y2870000D03*
X6880000D03*
X6990000D03*
X7110000D03*
X7220000D03*
X6920000Y3080000D03*
X6910780Y4708180D03*
Y5108180D03*
Y5508180D03*
Y5908180D03*
Y6308180D03*
X7620780Y238180D03*
X7630780Y528180D03*
X7420780Y1778180D03*
Y2018180D03*
Y1898180D03*
X7320000Y2670000D03*
X7460000Y2560000D03*
Y2380000D03*
X7330000Y2870000D03*
X7440000D03*
X7750000Y2950000D03*
Y3240000D03*
X7460000Y3650000D03*
Y3540000D03*
Y3430000D03*
Y3320000D03*
X7560000Y3650000D03*
X7700000Y4010000D03*
X7710780Y4708180D03*
X7310780D03*
X7710780Y5108180D03*
X7310780D03*
X7710780Y5508180D03*
X7310780D03*
X7710780Y5908180D03*
X7310780D03*
X7710780Y6308180D03*
X7310780D03*
X7860780Y238180D03*
X8130780D03*
X7870780Y528180D03*
X8140780D03*
X8240000Y1210000D03*
Y1290000D03*
X8110000Y2330000D03*
X8170000Y2640000D03*
X8080000D03*
X8170000Y2560000D03*
X8080000D03*
X8240000Y2820000D03*
Y2950000D03*
X8180000Y4010000D03*
X7930000D03*
X8110780Y5108180D03*
Y5908180D03*
Y6308180D03*
X8370780Y238180D03*
X8720780Y228180D03*
X8380780Y528180D03*
X8730780Y518180D03*
X8320000Y1210000D03*
X8400000D03*
Y1290000D03*
X8320000D03*
X8540000Y1420000D03*
X8440000Y2160000D03*
X8590000D03*
X8740000D03*
X8440000Y2060000D03*
X8590000D03*
X8740000D03*
X8440000Y1960000D03*
X8590000D03*
X8740000D03*
X8250000D03*
X8640000Y2540000D03*
X8490000D03*
X8640000Y2640000D03*
X8490000D03*
Y2740000D03*
X8640000D03*
X8530000Y2430000D03*
X8570000Y2371310D03*
X8610000Y2430000D03*
Y2310000D03*
X8530000D03*
X8260000Y2640000D03*
Y2560000D03*
X8350000D03*
Y2640000D03*
X8250000Y3080000D03*
X8390000Y2820000D03*
X8570000Y3120000D03*
X8250000Y3770000D03*
Y3290000D03*
Y3540000D03*
X8570000Y3370000D03*
X8610000Y3730000D03*
Y3960000D03*
X8260000Y4270000D03*
Y4500000D03*
X8610000Y5370000D03*
X8620000Y5800000D03*
Y5940000D03*
Y6080000D03*
Y6220000D03*
Y6360000D03*
X8370780Y6848180D03*
X8960780Y228180D03*
X9200780D03*
X8970780Y518180D03*
X9210780D03*
X8750780Y818180D03*
X9230780D03*
X8990780D03*
X9120000Y1020000D03*
X9210000D03*
X9030000D03*
X8940000D03*
X8850000D03*
X9120000Y940000D03*
X9210000D03*
X9030000D03*
X8940000D03*
X8850000D03*
X8950000Y1440000D03*
X9190000Y2250000D03*
Y2100000D03*
Y1950000D03*
X8860000Y3130000D03*
Y3380000D03*
X9180000Y3910000D03*
X9130000Y4330000D03*
Y4560000D03*
Y4810000D03*
X8930000Y5240000D03*
X9090000D03*
X8930000Y5120000D03*
X9090000D03*
Y4990000D03*
X8770000Y5370000D03*
X8930000D03*
X9090000D03*
X8780000Y5660000D03*
X8940000D03*
X9100000Y5800000D03*
X8940000D03*
X8780000D03*
Y5940000D03*
X8940000D03*
X9100000D03*
X8780000Y6080000D03*
X8940000D03*
X9100000D03*
Y6220000D03*
X8940000D03*
X8780000D03*
X9100000Y6360000D03*
X8940000D03*
X8780000D03*
X8770780Y6848180D03*
X9170780D03*
X9630780Y1688180D03*
X9300000Y3730000D03*
X9410000D03*
X9520000D03*
Y3640000D03*
X9410000D03*
X9300000D03*
X9340000Y3910000D03*
X9290000Y4330000D03*
Y4560000D03*
Y4810000D03*
X9250000Y4990000D03*
X9410000D03*
X9570000D03*
X9450000Y4810000D03*
X9610000D03*
X9280000Y6080000D03*
X9440000D03*
X9600000D03*
X9280000Y6220000D03*
X9440000D03*
X9600000D03*
X9870780Y1688180D03*
X9750000Y4560000D03*
Y4330000D03*
X9910000Y4560000D03*
Y4330000D03*
X9750000Y4810000D03*
X9910000D03*
X9750000Y4990000D03*
X9910000D03*
X9760000Y6080000D03*
Y6220000D03*
G54D11*
X207400Y2620000D03*
Y2820000D03*
Y2384460D03*
X407400Y2620000D03*
Y2820000D03*
Y2384460D03*
X9650000Y2680000D03*
Y2880000D03*
Y4100370D03*
X9850000Y2680000D03*
Y2880000D03*
Y4100370D03*
G54D20*
X4098200Y1910000D03*
Y1960000D03*
Y2010000D03*
Y2060000D03*
Y2110000D03*
Y2160000D03*
Y2210000D03*
Y2260000D03*
Y2310000D03*
Y2360000D03*
Y2410000D03*
Y2460000D03*
Y2510000D03*
Y2560000D03*
Y2610000D03*
Y2660000D03*
X5268200Y2260000D03*
Y2210000D03*
Y2160000D03*
Y2110000D03*
Y2060000D03*
Y2010000D03*
Y1960000D03*
Y1910000D03*
Y2660000D03*
Y2610000D03*
Y2560000D03*
Y2510000D03*
Y2460000D03*
Y2410000D03*
Y2360000D03*
Y2310000D03*
G54D12*
X307400Y3868000D03*
Y4122000D03*
Y4376000D03*
Y5138000D03*
Y5392000D03*
Y5646000D03*
X2164000Y3840000D03*
X2672000D03*
X2418000D03*
X6660000Y685000D03*
X7160000D03*
X9296000Y5266000D03*
Y5774000D03*
X9548400Y5521600D03*
X9804000Y5266000D03*
Y5774000D03*
G54D30*
X5760000Y6625080D03*
X6070000Y910000D03*
X6150000D03*
X5840000Y6625080D03*
X7736200Y3040000D03*
X7656200D03*
X8900000Y3550000D03*
X8820000D03*
G54D21*
X3970000Y5180000D03*
X5520000D03*
G54D13*
X307400Y4630000D03*
Y5900000D03*
X1910000Y3840000D03*
G54D31*
X6110000Y810000D03*
X5800000Y6725080D03*
X7696200Y3140000D03*
X8860000Y3650000D03*
G54D22*
X4180000Y5167000D03*
G54D40*
X7556200Y3780000D03*
X7796200Y3680000D03*
Y3880000D03*
G54D14*
X735000Y120000D03*
X1485000D03*
X1915000D03*
X2665000D03*
X3095000D03*
X3845000D03*
X9630000Y2285000D03*
G54D23*
X3970000Y6015000D03*
Y6545000D03*
X5520000Y6015000D03*
Y6545000D03*
G54D50*
X9820000Y750000D03*
Y1010000D03*
Y1260000D03*
Y1500000D03*
G54D32*
X6118600Y2010000D03*
X6078500Y3500000D03*
X6441500Y2010000D03*
X6401400Y3500000D03*
G54D41*
X8130000Y1260000D03*
X8030000Y1500000D03*
X8230000D03*
X8960000Y3980000D03*
X8760000D03*
X8860000Y4220000D03*
G54D51*
G01X290000Y0D02*
X9710000D01*
G03X10000000Y290000I0J290000D01*
G01Y6710000D01*
G03X9710000Y7000000I-290000J0D01*
G01X290000D01*
G03X0Y6710000I0J-290000D01*
G01Y290000D01*
G03X290000Y0I290000J0D01*
G01X450000Y290000D02*
G03I-160000J0D01*
G01Y6710000D02*
G03I-160000J0D01*
G01X1045000Y150000D02*
G03I-50000J0D01*
G01X1275000D02*
G03I-50000J0D01*
G01X1700000Y3960000D02*
G03I-160000J0D01*
G01Y6660000D02*
G03I-160000J0D01*
G01X2225000Y150000D02*
G03I-50000J0D01*
G01X2455000D02*
G03I-50000J0D01*
G01X3200000Y3960000D02*
G03I-160000J0D01*
G01Y6660000D02*
G03I-160000J0D01*
G01X3405000Y150000D02*
G03I-50000J0D01*
G01X3635000D02*
G03I-50000J0D01*
G01X9870000Y290000D02*
G03I-160000J0D01*
G01X9640000Y930000D02*
G03I-30000J0D01*
G01Y1330000D02*
G03I-30000J0D01*
G01X9870000Y6710000D02*
G03I-160000J0D01*
G54D15*
X726200Y2620000D03*
X573800D03*
X726200Y2384460D03*
X573800D03*
X726200Y2820000D03*
X573800D03*
Y3020000D03*
X726200D03*
X573800Y3230000D03*
X726200D03*
X1213800Y746200D03*
Y593800D03*
X1590000D03*
Y746200D03*
X1730000D03*
Y593800D03*
X1446200D03*
Y746200D03*
X2010000Y593800D03*
Y746200D03*
X1870000D03*
Y593800D03*
X2800000D03*
Y746200D03*
X3763800Y2070000D03*
Y1910000D03*
Y2900000D03*
X3916200Y2070000D03*
Y1910000D03*
Y2900000D03*
X4667000Y560500D03*
X4743800Y1136200D03*
Y983800D03*
X4603200D03*
Y1136200D03*
X4743800Y1295600D03*
X4460000Y1136200D03*
Y983800D03*
X4819400Y560500D03*
X4896200Y1136200D03*
Y983800D03*
Y1295600D03*
X5656200Y1890000D03*
X5503800D03*
X5686200Y2660000D03*
X5533800D03*
X5493800Y4580000D03*
X5646200D03*
X5493800Y4740000D03*
X5646200D03*
Y4420000D03*
X5493800D03*
Y4900000D03*
X5646200D03*
X6186200Y685000D03*
X6033800D03*
Y500000D03*
X6186200D03*
X6033800Y1050000D03*
X6186200D03*
X6033800Y1190000D03*
X6186200D03*
Y1380000D03*
X6033800D03*
X6053800Y3040000D03*
X6206200D03*
Y2900000D03*
X6053800D03*
Y3185000D03*
X6206200D03*
X5800000Y6243800D03*
Y6396200D03*
X6516200Y2275000D03*
X6363800D03*
Y2420000D03*
X6516200D03*
Y2570000D03*
X6363800D03*
X6516200Y2900000D03*
X6363800D03*
X7123800Y2520000D03*
Y2375000D03*
X7276200Y2520000D03*
Y2375000D03*
X7456200Y2995000D03*
X7303800D03*
Y3185000D03*
X7456200D03*
X7620000Y3500000D03*
Y3350000D03*
X8010000Y2106200D03*
Y1953800D03*
X8150000Y2106200D03*
Y1953800D03*
X7772400Y3500000D03*
Y3350000D03*
X8703800Y1230000D03*
Y1530000D03*
Y1380000D03*
X8393800Y1530000D03*
X8546200D03*
X8747600Y5030000D03*
Y4870000D03*
X8660000Y5672200D03*
Y5519800D03*
X8856200Y1230000D03*
Y1530000D03*
Y1380000D03*
X9080000Y2106200D03*
Y1953800D03*
X8910000Y2106200D03*
Y1953800D03*
X8770000Y2693800D03*
X8910000D03*
X9050000D03*
X8770000Y2846200D03*
X8910000D03*
X9050000D03*
X8936200Y3800000D03*
X8783800D03*
X8900000Y5030000D03*
Y4870000D03*
X8966200Y5519800D03*
X8813800D03*
X9120000Y5672200D03*
Y5519800D03*
X9486200Y2680000D03*
X9333800D03*
X9486200Y2880000D03*
X9333800D03*
Y4100000D03*
X9486200D03*
G54D33*
X5870000Y3185000D03*
X6440000Y1760000D03*
X8380000Y800000D03*
G54D24*
X4708200Y1700000D03*
X4658200D03*
X4608200D03*
X4558200D03*
X4508200D03*
X4458200D03*
X4408200D03*
X4358200D03*
X4308200D03*
Y2870000D03*
X4358200D03*
X4408200D03*
X4458200D03*
X4508200D03*
X4558200D03*
X4608200D03*
X4658200D03*
X4708200D03*
X5058200Y1700000D03*
X5008200D03*
X4958200D03*
X4908200D03*
X4858200D03*
X4808200D03*
X4758200D03*
Y2870000D03*
X4808200D03*
X4858200D03*
X4908200D03*
X4958200D03*
X5008200D03*
X5058200D03*
G54D42*
X8325000Y2271310D03*
Y2321310D03*
Y2371310D03*
Y2421310D03*
Y2471310D03*
X8815000Y2271310D03*
Y2471310D03*
Y2421310D03*
Y2371310D03*
Y2321310D03*
G54D52*
G01X1213800Y593800D02*
X1120000Y687600D01*
Y820000D01*
X1310000Y1010000D01*
Y2054460D01*
G01X1380000D02*
Y935310D01*
X1213800Y769110D01*
Y746200D01*
G01X1446200Y593800D02*
X1340000Y700000D01*
Y810000D01*
X1450000Y920000D01*
Y2054460D01*
G01X1520000D02*
Y820000D01*
X1446200Y746200D01*
G01X3060000Y2054460D02*
Y861600D01*
X2970000Y771600D01*
G01X3130000Y2054460D02*
Y801600D01*
X3160000Y771600D01*
G54D25*
X4690000Y4700000D03*
X4910000D03*
G54D43*
X8570000Y2371310D03*
G54D16*
X890000Y320000D03*
X1330000D03*
X2070000D03*
X2510000D03*
X3250000D03*
X3690000D03*
G54D34*
X6065000Y3830000D03*
X6415000D03*
X8030000Y1070000D03*
Y1750000D03*
X8380000Y1070000D03*
Y1750000D03*
G54D53*
G01X4098200Y2610000D02*
X1010000D01*
X900000Y2720000D01*
X150000D01*
X100000Y2670000D01*
Y2250000D01*
X190000Y2160000D01*
X760000D01*
X900000Y2020000D01*
Y330000D01*
X890000Y320000D01*
G01X4098200Y2410000D02*
X3920000D01*
X3820000Y2510000D01*
X300000D01*
X207400Y2602600D01*
Y2620000D01*
G01X307400Y4376000D02*
X110000Y4178600D01*
Y3270000D01*
X270000Y3110000D01*
X640000D01*
X726200Y3023800D01*
Y3020000D01*
G01X207400Y2820000D02*
X60000Y2967400D01*
Y5440000D01*
X137560Y5517560D01*
X489920D01*
X720000Y5287480D01*
Y3550000D01*
X1100000Y3170000D01*
X4560000D01*
X4658200Y3071800D01*
Y2870000D01*
G01X307400Y4122000D02*
X160000Y3974600D01*
Y3410000D01*
X250000Y3320000D01*
X640000D01*
X726200Y3233800D01*
Y3230000D01*
G01X573800Y2384460D02*
X407400D01*
G01Y2620000D02*
X573800D01*
G01X726200Y3230000D02*
X936200Y3020000D01*
X4360000D01*
X4408200Y2971800D01*
Y2870000D01*
G01X726200Y3020000D02*
X1086200Y2660000D01*
X4098200D01*
G01X407400Y2820000D02*
X573800D01*
G01X307400Y5392000D02*
X558000D01*
X650000Y5300000D01*
Y3527480D01*
X1057480Y3120000D01*
X4540000D01*
X4608200Y3051800D01*
Y2870000D01*
G01X307400Y5138000D02*
X532000D01*
X600000Y5070000D01*
Y3520000D01*
X1050000Y3070000D01*
X4530000D01*
X4558200Y3041800D01*
Y2870000D01*
G01X1590000Y746200D02*
X1730000D01*
G01X1940000Y2054460D02*
Y956200D01*
X1730000Y746200D01*
G01X4608200Y1700000D02*
Y1831800D01*
X4540000Y1900000D01*
X4270000D01*
X3990000Y1620000D01*
X3780000D01*
X3700000Y1540000D01*
Y790000D01*
X3380640Y470640D01*
X2349360D01*
X2150000Y670000D01*
Y2054460D01*
G01X2070000Y320000D02*
X2180000Y430000D01*
X3410000D01*
X3630000Y650000D01*
X4890000D01*
X5000000Y760000D01*
Y1360000D01*
X4958200Y1401800D01*
Y1700000D01*
G01X1870000Y746200D02*
X2010000D01*
G01Y2054460D02*
Y746200D01*
G01X2220000Y2054460D02*
Y2360000D01*
G01X2080000Y2054460D02*
Y2420000D01*
G01X2220000Y3330000D02*
X4541440D01*
X4758200Y3113240D01*
Y2870000D01*
G01X2080000Y3260000D02*
X4540720D01*
X4708200Y3092520D01*
Y2870000D01*
G01X2570000Y2054460D02*
Y2420000D01*
G01X2500000Y2054460D02*
Y2360000D01*
G01X2430000Y2054460D02*
Y2420960D01*
G01X2360000Y2054460D02*
Y2360000D01*
G01X2710000Y2054460D02*
Y2262570D01*
X2866790Y2419360D01*
X3749920D01*
X3859280Y2310000D01*
X4098200D01*
G01X2290000Y2054460D02*
Y2420960D01*
G01X2640000Y2054460D02*
Y2262570D01*
X2846790Y2469360D01*
X3770640D01*
X3880000Y2360000D01*
X4098200D01*
G01X5268200D02*
X4958560D01*
X4738560Y2580000D01*
X4318560D01*
X4178560Y2720000D01*
X2450000D01*
X2440000Y2730000D01*
X2430000D01*
G01X2570000Y2900000D02*
X3270000D01*
X3350000Y2820000D01*
X4220000D01*
X4360000Y2680000D01*
X4780000D01*
X5000000Y2460000D01*
X5268200D01*
G01X2500000Y2810000D02*
X3250000D01*
X3290000Y2770000D01*
X4199280D01*
X4339280Y2630000D01*
X4759280D01*
X4979280Y2410000D01*
X5268200D01*
G01X2360000Y3490000D02*
X4522880D01*
X4858200Y3154680D01*
Y2870000D01*
G01X2290000Y3410000D02*
X4532160D01*
X4808200Y3133960D01*
Y2870000D01*
G01X4760000Y3630000D02*
X2880000D01*
X2672000Y3838000D01*
Y3840000D01*
G01X5268200Y2310000D02*
X5750000D01*
X5930640Y2129360D01*
Y1799360D01*
X6069360Y1660640D01*
X7289360D01*
X7510000Y1440000D01*
Y340000D01*
X7270640Y100640D01*
X4869360D01*
X4460000Y510000D01*
X3580000D01*
X3390000Y320000D01*
X3250000D01*
G01X2990000Y2054460D02*
Y1010000D01*
X2800000Y820000D01*
Y746200D01*
G01X2850000Y2054460D02*
Y2260000D01*
X2909360Y2319360D01*
X3708480D01*
X3817840Y2210000D01*
X4098200D01*
G01X2780000Y2054460D02*
Y2260000D01*
X2889360Y2369360D01*
X3729200D01*
X3838560Y2260000D01*
X4098200D01*
G01X2920000Y2054460D02*
Y2249040D01*
X2940320Y2269360D01*
X3687760D01*
X3797120Y2160000D01*
X4098200D01*
G01X4508200Y1700000D02*
Y1445680D01*
X4262520Y1200000D01*
X4095000D01*
X4030000Y1135000D01*
Y1060000D01*
G01X4098200Y2110000D02*
X3956200D01*
X3916200Y2070000D01*
G01X6033800Y1050000D02*
X6113800Y970000D01*
X6380000D01*
X6430000Y1020000D01*
Y1240000D01*
X6390000Y1280000D01*
X5950000D01*
X5860000Y1190000D01*
X5510000D01*
X5450000Y1250000D01*
Y1560000D01*
X4960000Y2050000D01*
Y2270000D01*
X4720000Y2510000D01*
X4098200D01*
G01X5718500Y1126000D02*
X5484000D01*
X5400000Y1210000D01*
Y1539280D01*
X4910000Y2029280D01*
Y2249280D01*
X4699280Y2460000D01*
X4098200D01*
G01X4358200Y2870000D02*
Y2938110D01*
X4316950Y2979360D01*
X3839360D01*
X3763800Y2903800D01*
G01D02*
Y2900000D01*
G01X4710000Y160000D02*
X4810000Y60000D01*
X8380000D01*
X8600000Y280000D01*
Y1280000D01*
X8700000Y1380000D01*
X8703800D01*
G01X4460000Y1136200D02*
X4603200D01*
G01D02*
X4608200Y1141200D01*
Y1700000D01*
G01X4270000Y1060000D02*
Y1150000D01*
X4558200Y1438200D01*
Y1700000D01*
G01X4710000Y1410000D02*
Y1698200D01*
X4708200Y1700000D01*
G01X4658200D02*
Y1878200D01*
G01X4390000Y2750000D02*
X4358200Y2781800D01*
Y2870000D01*
G01X4660000Y4100000D02*
X8280000D01*
X8420000Y3960000D01*
Y2970000D01*
X8543800Y2846200D01*
X8770000D01*
G01X4690000Y4700000D02*
X4630000D01*
X4600000Y4730000D01*
Y4880000D01*
X4716500Y4996500D01*
Y5065000D01*
G01X5493800Y4580000D02*
X5433160Y4519360D01*
X4843160D01*
X4779360Y4583160D01*
Y4670000D01*
X4749360Y4700000D01*
X4690000D01*
G01Y4635000D02*
X4555000D01*
X4516500Y4673500D01*
Y5065000D01*
G01X5493800Y4420000D02*
X5435080Y4478720D01*
X4781280D01*
X4690000Y4570000D01*
Y4635000D01*
G01Y4765000D02*
Y4880000D01*
X4800000Y4990000D01*
Y5100000D01*
X4860000Y5160000D01*
X5070000D01*
X5135500Y5094500D01*
Y5065000D01*
G01X4690000Y4765000D02*
X4775000D01*
X4830000Y4710000D01*
Y4600000D01*
X4870000Y4560000D01*
X5313800D01*
X5493800Y4740000D01*
G01X5268200Y2160000D02*
X5729280D01*
X5840000Y2049280D01*
Y1749280D01*
X6019280Y1570000D01*
X7209280D01*
X7410000Y1369280D01*
Y400720D01*
X7255300Y246020D01*
X5573970D01*
X5386490Y433500D01*
X5053500D01*
G01X5268200Y2060000D02*
X5687840D01*
X5740000Y2007840D01*
Y1707840D01*
X5977840Y1470000D01*
X7167840D01*
X7310000Y1327840D01*
Y442160D01*
X7237840Y370000D01*
X5580000D01*
X5389500Y560500D01*
X5053500D01*
G01X4760000Y1880000D02*
Y1701800D01*
X4758200Y1700000D01*
G01X5260000Y1570000D02*
X5150000D01*
X5058200Y1661800D01*
Y1700000D01*
G01X7656200Y3040000D02*
Y2936200D01*
X7470000Y2750000D01*
X4950010D01*
X4908200Y2791810D01*
Y2870000D01*
G01X5050000Y3080000D02*
Y3076600D01*
X5008200Y3034800D01*
Y2870000D01*
G01X5190000Y3080000D02*
X5143400D01*
X5058200Y2994800D01*
Y2870000D01*
G01X4960000Y3080000D02*
Y2871800D01*
X4958200Y2870000D01*
G01X4960000Y4170000D02*
X4980000Y4150000D01*
X8320000D01*
X8480000Y3990000D01*
Y3610000D01*
X8540000Y3550000D01*
X8820000D01*
G01X5035500Y5065000D02*
Y5045500D01*
X4910000Y4920000D01*
Y4765000D01*
G01D02*
X5358800D01*
X5493800Y4900000D01*
G01X5718500Y999000D02*
X5982800D01*
X6033800Y1050000D01*
G01X5718500Y1126000D02*
X5969800D01*
X6033800Y1190000D01*
G01X5268200Y2210000D02*
X5750000D01*
X5890000Y2070000D01*
Y1770000D01*
X6040000Y1620000D01*
X7230000D01*
X7460000Y1390000D01*
Y380000D01*
X7259500Y179500D01*
X5843500D01*
G01X5268200Y2110000D02*
X5708560D01*
X5790000Y2028560D01*
Y1728560D01*
X5998560Y1520000D01*
X7188560D01*
X7360000Y1348560D01*
Y421440D01*
X7245060Y306500D01*
X5843500D01*
G01X5350000Y1790000D02*
Y1870000D01*
X5310000Y1910000D01*
X5268200D01*
G01Y2510000D02*
X5800000D01*
X5980000Y2330000D01*
Y1810000D01*
X6060000Y1730000D01*
X6230000D01*
G01X6048880Y4920000D02*
X5993400D01*
X5733400Y4660000D01*
X5580000D01*
X5500000Y4740000D01*
X5493800D01*
G01X6048880Y4820000D02*
X6160000D01*
X6200000Y4780000D01*
Y4550000D01*
X6150000Y4500000D01*
X5570000D01*
X5493800Y4576200D01*
Y4580000D01*
G01X6048880Y5120000D02*
X6200000D01*
X6250000Y5070000D01*
Y4390000D01*
X6200000Y4340000D01*
X5580000D01*
X5500000Y4420000D01*
X5493800D01*
G01X6048880Y5020000D02*
X5900000D01*
X5700000Y4820000D01*
X5560000D01*
X5493800Y4886200D01*
Y4900000D01*
G01X5660000Y6650000D02*
X5740000D01*
X5760000Y6630000D01*
Y6625080D01*
G01X5800000Y6396200D02*
X5660000D01*
G01Y6480000D02*
X5907480D01*
X6296200Y6868720D01*
X7110000D01*
X7144000Y6834720D01*
Y6725080D01*
G01X5660000Y6570000D02*
X5690000Y6540000D01*
X5910000D01*
X6279360Y6909360D01*
X7200640D01*
X7244000Y6866000D01*
Y6725080D01*
G01X6186200Y685000D02*
X6660000D01*
G01X6033800D02*
Y783800D01*
X6060000Y810000D01*
X6110000D01*
G01X6230000Y900000D02*
X6160000D01*
X6150000Y910000D01*
G01X6110000Y810000D02*
X6110560Y810560D01*
X7034440D01*
X7160000Y685000D01*
G01X6053800Y3040000D02*
Y3185000D01*
G01X6363800Y2900000D02*
X6206200D01*
G01Y3040000D02*
Y2900000D01*
G01X5800000Y6725080D02*
X6024920Y6950000D01*
X8000000D01*
X8044000Y6906000D01*
Y6725080D01*
G01X5800000Y6396200D02*
X6436200D01*
X6544000Y6504000D01*
Y6725080D01*
G01X6790000Y2995000D02*
X6611200D01*
X6516200Y2900000D01*
G01X7276200Y2520000D02*
X7268800D01*
X7123800Y2375000D01*
G01X7050000Y2995000D02*
X7303800D01*
G01X7620000Y3350000D02*
Y3216200D01*
X7696200Y3140000D01*
G01X7720000Y3870000D02*
X7670000Y3820000D01*
Y3550000D01*
X7620000Y3500000D01*
G01X8150000Y2106200D02*
Y2260000D01*
X8211310Y2321310D01*
X8325000D01*
G01X8010000Y2106200D02*
Y2360000D01*
X8071310Y2421310D01*
X8325000D01*
G01X7772400Y3500000D02*
Y3656200D01*
X7796200Y3680000D01*
G01X7772400Y3350000D02*
Y3500000D01*
G01X8703800Y1530000D02*
Y1380000D01*
G01X8325000Y2271310D02*
Y1915000D01*
X8380000Y1860000D01*
X8950000D01*
X9010000Y1800000D01*
X9717480D01*
X9940000Y2022520D01*
Y2770000D01*
X9850000Y2860000D01*
Y2880000D01*
G01X8448880Y4719800D02*
X8450000Y4718680D01*
Y4210000D01*
X8560000Y4100000D01*
X9333800D01*
G01X8330000Y5600000D02*
Y5440000D01*
G01X8856200Y1380000D02*
Y1230000D01*
G01X8910000Y2106200D02*
Y2300000D01*
X8888690Y2321310D01*
X8815000D01*
G01X9080000Y2106200D02*
Y2303400D01*
X8962090Y2421310D01*
X8815000D01*
G01Y2371310D02*
X8918690D01*
X9000000Y2290000D01*
Y1867480D01*
X9026840Y1840640D01*
X9700640D01*
X9850000Y1990000D01*
Y2680000D01*
G01X8910000Y2846200D02*
X8770000D01*
G01X8860000Y3650000D02*
Y3723800D01*
X8783800Y3800000D01*
G01X8760000Y3980000D02*
Y3823800D01*
X8783800Y3800000D01*
G01X9486200Y4100000D02*
X9486570Y4100370D01*
X9650000D01*
G54D26*
X4690000Y4635000D03*
Y4765000D03*
X4910000D03*
Y4635000D03*
G54D35*
X6750000Y2010000D03*
X7010000D03*
G54D44*
X9120000Y1230000D03*
Y1530000D03*
G54D17*
X1240000Y2054460D03*
X1730000D03*
X1660000D03*
X1590000D03*
X1520000D03*
X1450000D03*
X1380000D03*
X1310000D03*
X2220000D03*
X2150000D03*
X2080000D03*
X2010000D03*
X1940000D03*
X1870000D03*
X1800000D03*
X2710000D03*
X2640000D03*
X2570000D03*
X2500000D03*
X2430000D03*
X2360000D03*
X2290000D03*
X3270000D03*
X3200000D03*
X3130000D03*
X3060000D03*
X2990000D03*
X2920000D03*
X2850000D03*
X2780000D03*
G54D54*
G01X1160000Y2050000D02*
X1164460Y2054460D01*
X1240000D01*
G01X1730000Y2290000D02*
Y2054460D01*
G01X1660000Y2280000D02*
Y2054460D01*
G01X1720000Y2300000D02*
X1730000Y2290000D01*
G01X1650000D02*
X1660000Y2280000D01*
G01X3320000Y2950000D02*
X3301420Y2968580D01*
X2498580D01*
X2460000Y2930000D01*
G01X3210000Y1810000D02*
X3200000Y1820000D01*
Y2054460D01*
G01X3350000Y2950000D02*
X3320000D01*
G01X4308200Y1700000D02*
X4210000D01*
G01X4230000Y1970000D02*
X4220000Y1960000D01*
G01X3810000Y2000000D02*
X3820000Y1990000D01*
G01D02*
X3970000D01*
X4000000Y1960000D01*
X4098200D01*
G01X4220000D02*
X4098200D01*
G01Y1910000D02*
X3916200D01*
G01Y2900000D02*
X4030000D01*
G01D02*
X4282800D01*
X4308200Y2874600D01*
Y2870000D01*
G01X4510000Y1260000D02*
X4500000Y1250000D01*
G01D02*
X4447100D01*
X4360000Y1162900D01*
Y1120000D01*
G01X4743800Y1295600D02*
Y1136200D01*
G01X4858200Y1700000D02*
Y1410000D01*
X4743800Y1295600D01*
G01X5053500Y560500D02*
X4819400D01*
G01X4896200Y1295600D02*
Y1136200D01*
G01X4908200Y1700000D02*
Y1307600D01*
X4896200Y1295600D01*
G01X5150000Y1980000D02*
X5170000Y1960000D01*
G01D02*
X5268200D01*
G01X5110000Y2640000D02*
X5140000Y2610000D01*
G01D02*
X5268200D01*
G01X5020000Y4680000D02*
X5000000Y4700000D01*
G01D02*
X4910000D01*
G01X5268200Y2010000D02*
X5383800D01*
X5503800Y1890000D01*
G01X5450000Y2580000D02*
X5420000Y2610000D01*
X5268200D01*
G01Y2660000D02*
X5533800D01*
G01X6660000Y2280000D02*
X6665000Y2275000D01*
G01X6363800Y2420000D02*
X6371200D01*
X6516200Y2275000D01*
G01X6665000D02*
X6760000D01*
G01Y2375000D02*
X6561200D01*
X6516200Y2420000D01*
G01Y2570000D02*
Y2420000D01*
G01X6350000Y4230000D02*
X6380000Y4200000D01*
X6840000D01*
G01X6900000Y2250000D02*
X6910000Y2260000D01*
G01D02*
Y2275000D01*
G01X6760000D02*
Y2220000D01*
G01X7010000Y2280000D02*
X6965000Y2325000D01*
X6910000D01*
G01X6760000D02*
X6810800D01*
X6860800Y2275000D01*
X6910000D01*
G01X7020000Y2375000D02*
X6910000D01*
G01X7123800Y2520000D02*
X6800000D01*
X6760000Y2480000D01*
Y2425000D01*
G01X6843800Y4325080D02*
Y4203800D01*
X6840000Y4200000D01*
G01X7440000D02*
X6840000D01*
G01X8140000Y4230000D02*
X8110000Y4200000D01*
X7540000D01*
G01X7443800Y4325080D02*
Y4203800D01*
X7440000Y4200000D01*
G01X7540000D02*
X7440000D01*
G01X7543800Y4325080D02*
Y4203800D01*
X7540000Y4200000D01*
G01X8010000Y1953800D02*
X8006200D01*
G01X7930000Y2200000D02*
X7940000Y2210000D01*
G01X7930000Y2200000D02*
Y2030000D01*
X8006200Y1953800D01*
G01X8120000Y2350000D02*
X8141310Y2371310D01*
X8325000D01*
G01X8118690Y2471310D02*
X8100000Y2490000D01*
G01X8325000Y2471310D02*
X8118690D01*
G01X8440000Y2370000D02*
X8438690Y2371310D01*
G01D02*
X8325000D01*
G01Y2505000D02*
X8320000Y2510000D01*
G01X8325000Y2471310D02*
Y2505000D01*
G01X9050000Y2470000D02*
X9048690Y2471310D01*
G01D02*
X8815000D01*
G01X9670000Y1260000D02*
X9669000Y1259000D01*
G01D02*
X9557000D01*
G01X9450000Y1000000D02*
X9451000Y999000D01*
G01D02*
X9557000D01*
G01X9486200Y2680000D02*
X9650000D01*
G01X9486200Y2880000D02*
X9650000D01*
G54D36*
X6760000Y2275000D03*
Y2325000D03*
Y2375000D03*
Y2425000D03*
X6910000D03*
Y2375000D03*
Y2325000D03*
Y2275000D03*
G54D45*
X8860000Y4540000D03*
X9540000D03*
G54D18*
X3160000Y771600D03*
Y568400D03*
X2970000Y771600D03*
Y568400D03*
X5800000Y5518400D03*
Y5721600D03*
G54D27*
X4416500Y5065000D03*
X4516500D03*
X4616500D03*
X4716500D03*
X4895000D03*
X5035500D03*
X5135500D03*
G54D55*
G01X156500Y4630000D02*
X307400D01*
G01X156500Y5900000D02*
X307400D01*
G01X735000Y120000D02*
Y258400D01*
G01Y120000D02*
X873400D01*
G01X307400Y4630000D02*
Y4780900D01*
G01Y4630000D02*
X458300D01*
G01X307400Y5900000D02*
Y6050900D01*
G01Y5900000D02*
X458300D01*
G01X1485000Y120000D02*
Y258400D01*
G01X1346600Y120000D02*
X1485000D01*
G01D02*
X1623400D01*
G01X1776600D02*
X1915000D01*
G01D02*
Y258400D01*
G01Y120000D02*
X2053400D01*
G01X2164000Y3694100D02*
Y3840000D01*
G01D02*
Y3985900D01*
G01X2526600Y120000D02*
X2665000D01*
G01D02*
X2803400D01*
G01X3095000D02*
Y258400D01*
G01X2956600Y120000D02*
X3095000D01*
G01D02*
X3233400D01*
G01X3706600D02*
X3845000D01*
G01D02*
Y258400D01*
G01Y120000D02*
X3983400D01*
G01X9150100Y5266000D02*
X9296000D01*
G01X9150100Y5774000D02*
X9296000D01*
G01X9630000Y2285000D02*
Y2423400D01*
G01X9491600Y2285000D02*
X9630000D01*
G01D02*
X9768400D01*
G01X9474100Y3070000D02*
X9680000D01*
G01D02*
X9885900D01*
G01X9474100Y3900000D02*
X9680000D01*
G01D02*
X9885900D01*
G01X9658100Y5266000D02*
X9804000D01*
G01X9296000Y5120100D02*
Y5266000D01*
G01D02*
X9441900D01*
G01X9658100Y5774000D02*
X9804000D01*
G01X9296000D02*
Y5919900D01*
G01Y5774000D02*
X9441900D01*
G01X9804000Y5120100D02*
Y5266000D01*
G01D02*
Y5411900D01*
G01Y5628100D02*
Y5774000D01*
G01D02*
Y5919900D01*
G54D28*
X5053500Y179500D03*
Y306500D03*
Y433500D03*
Y560500D03*
X5843500Y179500D03*
Y560500D03*
Y433500D03*
Y306500D03*
X6048880Y4720000D03*
Y4820000D03*
Y4920000D03*
Y5020000D03*
Y5120000D03*
Y5220000D03*
Y5320000D03*
Y5420000D03*
Y5520000D03*
Y5620000D03*
Y5720000D03*
Y5820000D03*
Y5920000D03*
Y6020000D03*
Y6120000D03*
Y6220000D03*
Y6320000D03*
X8448880Y4719800D03*
Y5219800D03*
Y5119800D03*
Y5019800D03*
Y4919800D03*
Y4819800D03*
Y5719800D03*
Y5619800D03*
Y5519800D03*
Y5419800D03*
Y5319800D03*
Y6219800D03*
Y6119800D03*
Y6019800D03*
Y5919800D03*
Y5819800D03*
Y6319800D03*
G54D37*
X6790000Y2995000D03*
Y3090000D03*
Y3185000D03*
X7050000D03*
Y2995000D03*
G54D46*
X9557000Y999000D03*
Y1064000D03*
Y1129000D03*
Y1194000D03*
Y1259000D03*
G54D19*
X4030000Y1060000D03*
X4150000D03*
X4270000D03*
G54D56*
G01X726200Y2620000D02*
X830000D01*
G01X726200Y2384460D02*
X835540D01*
G01X573800Y3230000D02*
X310000D01*
G01X726200Y2820000D02*
X830000D01*
G01X1730000Y593800D02*
X1870000D01*
G01X1730000D02*
X1690000Y553800D01*
Y480000D01*
G01X1590000Y2054460D02*
Y1830000D01*
X1690000Y1730000D01*
G01X1800000Y2054460D02*
Y1840000D01*
X1690000Y1730000D01*
G01X2510000Y320000D02*
X2670000D01*
G01X3916200Y1910000D02*
Y1703800D01*
G01X5053500Y306500D02*
X5050000Y310000D01*
X4760000D01*
X4667000Y403000D01*
Y560500D01*
G01X4896200Y983800D02*
Y786200D01*
X4830000Y720000D01*
X4550000D01*
G01Y560000D02*
X4666500D01*
X4667000Y560500D01*
G01X4550000Y720000D02*
Y930600D01*
X4603200Y983800D01*
G01X5920000Y1380000D02*
X5718500D01*
G01X5503800Y1890000D02*
Y1786200D01*
G01X6441500Y2028500D02*
X6180000Y2290000D01*
Y2515080D01*
X6129200Y2565880D01*
X5627920D01*
X5533800Y2660000D01*
G01X5843500Y560500D02*
X5973300D01*
X6033800Y500000D01*
G01D02*
X5967300Y433500D01*
X5843500D01*
G01X6320000Y590000D02*
X6110000D01*
X6033800Y513800D01*
Y500000D01*
G01X6186200Y1050000D02*
Y1190000D01*
G01D02*
X6320000D01*
G01X6033800Y1380000D02*
X5920000D01*
G01X6048880Y5520000D02*
X5801600D01*
X5800000Y5518400D01*
G01X6441500Y2028500D02*
Y2010000D01*
G01X7010000D02*
Y2280000D01*
G01X7123800Y2375000D02*
X7020000D01*
G01X7303800Y3185000D02*
Y3176200D01*
G01D02*
X7456200Y3023800D01*
Y2995000D01*
G01X8448880Y5519800D02*
X8660000D01*
G01D02*
X8813800D01*
G01X8950000Y1440000D02*
X8870000Y1520000D01*
G01D02*
Y1530000D01*
X8856200D01*
G01X8966200Y5519800D02*
X9120000D01*
G01D02*
X9546600D01*
X9548400Y5521600D01*
G54D47*
X9630000Y2035000D03*
G54D38*
X6675000Y3650000D03*
X7165000D03*
G54D29*
X5178500Y999000D03*
Y1126000D03*
Y1253000D03*
Y1380000D03*
X5718500Y1253000D03*
Y1126000D03*
Y999000D03*
Y1380000D03*
G54D57*
G01X1910000Y3840000D02*
Y4110000D01*
G54D48*
X9680000Y3070000D03*
Y3900000D03*
G54D39*
X6743800Y4325080D03*
X6643800D03*
X6543800D03*
X6443800D03*
X6444000Y6725080D03*
X6544000D03*
X6644000D03*
X6744000D03*
X7243800Y4325080D03*
X7143800D03*
X7043800D03*
X6943800D03*
X6843800D03*
X6844000Y6725080D03*
X6944000D03*
X7044000D03*
X7144000D03*
X7244000D03*
X7743800Y4325080D03*
X7643800D03*
X7543800D03*
X7443800D03*
X7343800D03*
X7344000Y6725080D03*
X7444000D03*
X7544000D03*
X7644000D03*
X7744000D03*
X8043800Y4325080D03*
X7943800D03*
X7843800D03*
X7844000Y6725080D03*
X7944000D03*
X8044000D03*
G54D49*
X9680000Y3285000D03*
Y3685000D03*
Y3485000D03*
M02*
